<svg width="42" height="42" viewBox="0 0 42 42" fill="none" xmlns="http://www.w3.org/2000/svg">
<path d="M7.875 11.375C7.875 10.4467 8.24375 9.5565 8.90013 8.90013C9.5565 8.24375 10.4467 7.875 11.375 7.875H31.3758C31.4913 7.875 31.5508 7.875 31.598 7.88025C31.7947 7.90278 31.978 7.99137 32.1179 8.13155C32.2577 8.27174 32.3459 8.45521 32.368 8.652C32.375 8.72586 32.3774 8.80009 32.375 8.87425C32.375 9.57075 32.375 9.919 32.3418 10.213C32.2085 11.3947 31.678 12.4962 30.8371 13.3371C29.9962 14.178 28.8947 14.7085 27.713 14.8418C27.419 14.875 27.0708 14.875 26.3743 14.875H26.25M7.875 11.375C7.875 12.3033 8.24375 13.1935 8.90013 13.8499C9.5565 14.5063 10.4467 14.875 11.375 14.875H30.625C32.2753 14.875 33.0995 14.875 33.6123 15.3878C34.125 15.9005 34.125 16.7247 34.125 18.375V21.875M7.875 11.375V27.125C7.875 30.4255 7.875 32.074 8.9005 33.0995C9.926 34.125 11.5745 34.125 14.875 34.125H30.625C32.2753 34.125 33.0995 34.125 33.6123 33.6123C34.125 33.0995 34.125 32.2753 34.125 30.625V28.875M34.125 21.875H30.625C28.9748 21.875 28.1505 21.875 27.6378 22.3878C27.125 22.9005 27.125 23.7248 27.125 25.375C27.125 27.0253 27.125 27.8495 27.6378 28.3623C28.1505 28.875 28.9748 28.875 30.625 28.875H34.125M34.125 21.875V28.875" stroke="black" stroke-width="3"/>
</svg>
