<svg width="20" height="20" viewBox="0 0 20 20" fill="none" xmlns="http://www.w3.org/2000/svg">
<g clip-path="url(#clip0_1198_529)">
<path d="M10.9121 1.27887C10.948 1.27872 10.9839 1.27857 11.0209 1.27841C11.1408 1.27801 11.2607 1.27817 11.3806 1.27832C11.4667 1.27815 11.5528 1.27795 11.639 1.27772C11.8726 1.27719 12.1062 1.27717 12.3399 1.27727C12.535 1.27731 12.7301 1.27712 12.9253 1.27693C13.4119 1.27648 13.8985 1.27651 14.3852 1.27676C14.8074 1.27696 15.2297 1.27652 15.6519 1.27578C16.0859 1.27502 16.5199 1.27471 16.9539 1.27485C17.1974 1.27492 17.4409 1.27481 17.6844 1.27427C17.9133 1.27378 18.1423 1.27386 18.3712 1.27437C18.4552 1.27446 18.5392 1.27435 18.6231 1.27403C18.7379 1.27362 18.8526 1.27394 18.9674 1.27443C19.0005 1.27414 19.0336 1.27386 19.0677 1.27356C19.3943 1.27652 19.6503 1.3682 19.8836 1.60155C19.9913 1.77949 20.0155 1.91153 20.0158 2.11828C20.016 2.14596 20.0162 2.17364 20.0164 2.20216C20.0169 2.29491 20.0166 2.38765 20.0162 2.4804C20.0164 2.54757 20.0167 2.61474 20.0169 2.68191C20.0176 2.8665 20.0175 3.05108 20.0173 3.23567C20.0172 3.43475 20.0177 3.63381 20.0182 3.83289C20.019 4.22289 20.0192 4.6129 20.0192 5.00291C20.0191 5.31987 20.0193 5.63684 20.0195 5.9538C20.0196 6.04506 20.0197 6.13631 20.0198 6.22756C20.0199 6.29569 20.0199 6.29569 20.0199 6.36519C20.0207 7.22441 20.0206 8.08363 20.0203 8.94285C20.0201 9.72909 20.0209 10.5153 20.0222 11.3016C20.0236 12.1087 20.0241 12.9157 20.024 13.7228C20.0239 14.176 20.0241 14.6292 20.0251 15.0824C20.0259 15.4683 20.026 15.8541 20.0253 16.2399C20.0249 16.4368 20.0249 16.6336 20.0257 16.8305C20.0264 17.0108 20.0262 17.191 20.0253 17.3712C20.0252 17.4364 20.0253 17.5016 20.0259 17.5668C20.0289 17.9652 20.0055 18.232 19.7176 18.5278C19.4665 18.6819 19.2103 18.7284 18.9195 18.7257C18.8872 18.7258 18.8548 18.726 18.8214 18.7262C18.7133 18.7266 18.6053 18.7262 18.4972 18.7258C18.4188 18.7259 18.3403 18.7261 18.2619 18.7264C18.0467 18.7268 17.8315 18.7266 17.6163 18.7262C17.3841 18.726 17.1518 18.7264 16.9196 18.7267C16.4911 18.7272 16.0627 18.7272 15.6342 18.7268C15.2384 18.7265 14.8427 18.7265 14.4469 18.7266C14.4206 18.7266 14.3944 18.7266 14.3673 18.7266C14.2607 18.7267 14.1541 18.7267 14.0475 18.7267C13.0478 18.7271 12.0481 18.7268 11.0484 18.7261C10.1601 18.7256 9.27188 18.7256 8.38363 18.7262C7.38556 18.7268 6.3875 18.7271 5.38943 18.7267C5.28306 18.7267 5.17669 18.7266 5.07032 18.7266C5.04413 18.7266 5.01794 18.7266 4.99096 18.7266C4.59534 18.7264 4.19973 18.7266 3.80412 18.7269C3.35441 18.7272 2.9047 18.7271 2.45499 18.7265C2.22546 18.7262 1.99593 18.7261 1.76639 18.7265C1.55641 18.7268 1.34644 18.7266 1.13646 18.726C1.06036 18.7259 0.984266 18.7259 0.908172 18.7262C0.804972 18.7266 0.701799 18.7262 0.5986 18.7257C0.553988 18.7261 0.553989 18.7261 0.508475 18.7265C0.323977 18.7245 0.196306 18.6922 0.0398815 18.5937C-0.0115501 18.4909 -0.00422349 18.4145 -0.00442385 18.2992C-0.00459799 18.253 -0.00477135 18.2067 -0.00495076 18.159C-0.00494356 18.1077 -0.00493672 18.0564 -0.0049293 18.0036C-0.00505812 17.9489 -0.00520354 17.8942 -0.00536442 17.8395C-0.00575654 17.6887 -0.00590107 17.5379 -0.00600457 17.3871C-0.00615682 17.2247 -0.00653114 17.0623 -0.00687241 16.8998C-0.00764506 16.5073 -0.00803771 16.1148 -0.00838518 15.7222C-0.00855629 15.5375 -0.00876577 15.3528 -0.0089705 15.168C-0.0096351 14.5541 -0.0102016 13.9403 -0.0104845 13.3264C-0.0105591 13.167 -0.0106334 13.0076 -0.0107098 12.8482C-0.0107287 12.8086 -0.0107487 12.769 -0.0107682 12.7282C-0.0110925 12.0862 -0.0120819 11.4443 -0.0133502 10.8024C-0.0146411 10.1437 -0.0153461 9.48501 -0.015471 8.82633C-0.0155556 8.45635 -0.0158978 8.08637 -0.0168943 7.71639C-0.017741 7.40134 -0.018058 7.0863 -0.0176775 6.77125C-0.0174996 6.61046 -0.017576 6.44968 -0.018332 6.28889C-0.0190181 6.14171 -0.0189838 5.99455 -0.0183749 5.84737C-0.0182375 5.76886 -0.018871 5.69036 -0.0195312 5.61186C-0.0164798 5.18689 -0.0164807 5.18689 0.157069 4.99999C0.352981 4.82319 0.499753 4.79884 0.755907 4.79866C0.785297 4.79849 0.814687 4.79832 0.844967 4.79814C0.943742 4.79762 1.04251 4.79738 1.14129 4.79714C1.212 4.79683 1.2827 4.79651 1.35341 4.79617C1.58589 4.79515 1.81836 4.79455 2.05084 4.79399C2.13087 4.79379 2.2109 4.79358 2.29093 4.79336C2.62385 4.79252 2.95676 4.79179 3.28968 4.79135C3.76677 4.79071 4.24385 4.78942 4.72093 4.78719C5.05639 4.78568 5.39185 4.78492 5.72731 4.78471C5.92766 4.78457 6.128 4.7841 6.32834 4.78283C6.51691 4.78166 6.70545 4.78141 6.89401 4.78187C6.96311 4.78188 7.03221 4.78155 7.1013 4.78087C7.73162 4.77495 7.73162 4.77495 7.95533 4.94697C8.14257 5.13322 8.17324 5.27149 8.18262 5.53037C8.1826 5.63316 8.18175 5.73571 8.18014 5.83846C8.17985 5.89324 8.17963 5.94803 8.17947 6.00281C8.17888 6.14622 8.17735 6.2896 8.17561 6.433C8.17401 6.57964 8.1733 6.72628 8.17251 6.87293C8.17084 7.16008 8.16818 7.44722 8.16488 7.73436C8.20734 7.71234 8.24979 7.69032 8.29353 7.66763C8.35003 7.63875 8.40653 7.60987 8.46304 7.58101C8.50487 7.55924 8.50487 7.55924 8.54754 7.53702C8.84786 7.38446 9.0986 7.34133 9.42709 7.43163C9.57342 7.48032 9.70703 7.54778 9.84457 7.61718C9.84443 7.58807 9.84428 7.55897 9.84413 7.52898C9.84068 6.82018 9.8381 6.11139 9.83648 5.40258C9.83567 5.05981 9.83457 4.71704 9.83278 4.37426C9.83122 4.07544 9.83022 3.77661 9.82987 3.47778C9.82967 3.31961 9.82919 3.16145 9.82805 3.00329C9.82699 2.85426 9.82666 2.70525 9.8269 2.55622C9.82685 2.50167 9.82655 2.44713 9.82594 2.39258C9.82231 2.04545 9.83829 1.7978 10.0663 1.52251C10.0874 1.50509 10.1085 1.48767 10.1302 1.46971C10.151 1.45169 10.1718 1.43366 10.1932 1.41509C10.4198 1.28111 10.6565 1.27773 10.9121 1.27887ZM10.5086 2.03124C10.4911 2.13887 10.4911 2.13887 10.4945 2.26753C10.4944 2.31792 10.4942 2.36832 10.4941 2.42024C10.4945 2.4764 10.4949 2.53257 10.4953 2.58874C10.4954 2.64763 10.4953 2.70652 10.4953 2.76542C10.4952 2.92562 10.4959 3.0858 10.4968 3.246C10.4975 3.4133 10.4976 3.5806 10.4977 3.74789C10.4981 4.06484 10.499 4.38178 10.5002 4.69872C10.5015 5.05949 10.5021 5.42026 10.5027 5.78103C10.504 6.52329 10.506 7.26554 10.5086 8.0078C10.6458 8.08294 10.7831 8.15799 10.9203 8.23302C10.9782 8.26471 10.9782 8.26471 11.0372 8.29705C11.3009 8.44113 11.5659 8.58065 11.8368 8.71093C11.8373 8.66147 11.8379 8.61202 11.8385 8.56107C11.8408 8.37681 11.8438 8.19256 11.847 8.00831C11.8483 7.92871 11.8494 7.84911 11.8503 7.76951C11.8516 7.65478 11.8537 7.54008 11.8558 7.42537C11.8562 7.37238 11.8562 7.37238 11.8566 7.31831C11.8615 7.10306 11.8868 6.94681 11.993 6.7578C12.1082 6.65133 12.184 6.62589 12.3396 6.62545C12.3773 6.62508 12.415 6.62471 12.4538 6.62433C12.4942 6.62457 12.5347 6.6248 12.5764 6.62505C12.6182 6.62494 12.66 6.62482 12.703 6.62471C12.7914 6.62463 12.8797 6.62485 12.9681 6.62533C13.1032 6.62596 13.2383 6.62534 13.3734 6.62459C13.4593 6.62467 13.5452 6.62482 13.631 6.62505C13.6714 6.62481 13.7118 6.62457 13.7534 6.62433C14.1075 6.62779 14.1075 6.62779 14.2586 6.7578C14.3426 6.8838 14.3468 6.91907 14.3481 7.06448C14.3486 7.10295 14.3491 7.14141 14.3496 7.18104C14.3497 7.22254 14.3498 7.26405 14.3499 7.30681C14.3503 7.3709 14.3503 7.3709 14.3507 7.43627C14.3511 7.5267 14.3512 7.61713 14.3512 7.70756C14.3514 7.84586 14.3528 7.98411 14.3543 8.12239C14.3545 8.21023 14.3547 8.29807 14.3548 8.38591C14.3553 8.42726 14.3559 8.46861 14.3565 8.51121C14.3554 8.68329 14.3545 8.79634 14.2697 8.94852C14.0873 9.1017 13.9157 9.11388 13.6841 9.11772C13.6416 9.11886 13.6416 9.11886 13.5983 9.12002C13.5083 9.12234 13.4184 9.12416 13.3285 9.12596C13.2672 9.12746 13.206 9.12898 13.1448 9.13054C12.9953 9.13428 12.8457 9.13757 12.6961 9.14061C12.7851 9.23893 12.8732 9.29539 12.9911 9.3553C13.0268 9.37366 13.0625 9.39201 13.0994 9.41092C13.1572 9.44027 13.1572 9.44027 13.2162 9.4702C13.2982 9.5124 13.3802 9.55467 13.4621 9.597C13.5038 9.61855 13.5456 9.64009 13.5885 9.66229C13.7749 9.7595 13.9595 9.85989 14.1439 9.96093C14.1786 9.97989 14.2132 9.99886 14.249 10.0184C14.4373 10.1216 14.6253 10.2252 14.8133 10.329C14.8528 10.3507 14.8924 10.3725 14.9331 10.3949C15.0094 10.4369 15.0857 10.479 15.1618 10.5212C15.1959 10.54 15.23 10.5587 15.2651 10.578C15.2952 10.5946 15.3254 10.6113 15.3564 10.6285C15.4285 10.6697 15.4285 10.6697 15.5086 10.6641C15.5304 10.6097 15.5304 10.6097 15.5526 10.5542C15.6431 10.4004 15.6939 10.3749 15.8602 10.3125C15.9962 10.2955 16.131 10.2951 16.2679 10.2956C16.3069 10.2953 16.3459 10.2951 16.3861 10.2949C16.4683 10.2947 16.5505 10.2947 16.6327 10.2951C16.7582 10.2954 16.8837 10.2943 17.0092 10.293C17.0892 10.293 17.1693 10.293 17.2494 10.2931C17.2867 10.2927 17.3241 10.2922 17.3626 10.2918C17.5832 10.2941 17.7202 10.3151 17.8914 10.4687C17.963 10.5848 17.9794 10.6721 17.9797 10.8075C17.9799 10.8435 17.9802 10.8795 17.9804 10.9166C17.9802 10.9745 17.9802 10.9745 17.9799 11.0336C17.98 11.0736 17.9801 11.1136 17.9802 11.1547C17.9802 11.2393 17.9801 11.3238 17.9798 11.4083C17.9793 11.5373 17.9798 11.6663 17.9803 11.7953C17.9802 11.8775 17.9801 11.9597 17.9799 12.0419C17.9801 12.0804 17.9803 12.1188 17.9804 12.1585C17.9778 12.5392 17.9778 12.5392 17.8914 12.6953C17.6929 12.8049 17.4607 12.7854 17.2394 12.7852C17.1995 12.7853 17.1595 12.7855 17.1184 12.7857C17.0341 12.7859 16.9499 12.7859 16.8657 12.7858C16.737 12.7856 16.6082 12.7866 16.4795 12.7875C16.3975 12.7876 16.3155 12.7877 16.2336 12.7876C16.1952 12.788 16.1567 12.7883 16.1172 12.7887C15.9222 12.7874 15.7827 12.7859 15.6258 12.6562C15.555 12.5708 15.555 12.5708 15.5086 12.5C15.4738 12.5127 15.4738 12.5127 15.4383 12.5256C15.0545 12.6546 14.7689 12.6373 14.3758 12.539C14.3758 13.0676 14.3758 13.5961 14.3758 14.1406C14.539 14.1421 14.7022 14.1435 14.8704 14.145C15.001 14.1465 15.1317 14.1481 15.2623 14.1498C15.4 14.1516 15.5376 14.1531 15.6752 14.1541C15.8334 14.1554 15.9915 14.1575 16.1497 14.1597C16.2232 14.1601 16.2232 14.1601 16.2981 14.1604C16.6089 14.1657 16.8181 14.1851 17.0638 14.3872C17.2298 14.5911 17.2391 14.8034 17.2398 15.058C17.2404 15.1066 17.2404 15.1066 17.241 15.1562C17.2422 15.2627 17.2429 15.3692 17.2436 15.4758C17.2443 15.5499 17.2451 15.624 17.2458 15.6981C17.2479 15.8927 17.2494 16.0872 17.2509 16.2818C17.2524 16.4806 17.2544 16.6793 17.2564 16.878C17.2602 17.2676 17.2635 17.6573 17.2664 18.0469C17.5425 18.0488 17.8185 18.0502 18.0945 18.0512C18.1884 18.0515 18.2823 18.0521 18.3763 18.0528C18.5111 18.0537 18.646 18.0541 18.7809 18.0545C18.8441 18.0551 18.8441 18.0551 18.9085 18.0557C18.9476 18.0557 18.9867 18.0557 19.027 18.0557C19.0614 18.0559 19.0958 18.0561 19.1313 18.0563C19.2306 18.0526 19.2306 18.0526 19.3368 17.9687C19.3813 17.835 19.3808 17.7328 19.381 17.5917C19.3811 17.5517 19.3811 17.5517 19.3812 17.5109C19.3814 17.4209 19.3814 17.3309 19.3813 17.2409C19.3814 17.176 19.3815 17.111 19.3817 17.0461C19.382 16.8672 19.382 16.6883 19.3821 16.5093C19.3821 16.3166 19.3824 16.1238 19.3827 15.9311C19.3832 15.5094 19.3835 15.0877 19.3836 14.666C19.3837 14.4029 19.3839 14.1397 19.3841 13.8766C19.3846 13.1486 19.385 12.4205 19.3851 11.6924C19.3851 11.6458 19.3851 11.5992 19.3851 11.5512C19.3851 11.5045 19.3851 11.4577 19.3852 11.4096C19.3852 11.3149 19.3852 11.2202 19.3852 11.1255C19.3852 11.0785 19.3852 11.0316 19.3852 10.9832C19.3854 10.2216 19.3861 9.45997 19.387 8.69837C19.3879 7.91707 19.3884 7.13577 19.3884 6.35447C19.3885 5.91554 19.3887 5.47662 19.3894 5.03769C19.39 4.66404 19.3902 4.2904 19.3899 3.91675C19.3897 3.72599 19.3898 3.53523 19.3903 3.34447C19.3908 3.17 19.3908 2.99554 19.3903 2.82106C19.3902 2.75779 19.3903 2.69452 19.3907 2.63125C19.3911 2.54553 19.3908 2.45984 19.3904 2.37411C19.3904 2.32642 19.3904 2.27872 19.3904 2.22957C19.3745 2.09845 19.3546 2.04303 19.2586 1.95311C19.1403 1.93766 19.036 1.93236 18.9176 1.9338C18.8823 1.93361 18.8471 1.93342 18.8107 1.93323C18.692 1.93278 18.5734 1.93346 18.4547 1.93413C18.3698 1.93405 18.285 1.9339 18.2001 1.93369C17.9692 1.93331 17.7383 1.93391 17.5074 1.9347C17.2661 1.93538 17.0249 1.93525 16.7836 1.93522C16.3783 1.93529 15.9731 1.93597 15.5679 1.93703C15.0989 1.93826 14.63 1.93867 14.161 1.93862C13.7105 1.93857 13.2599 1.93897 12.8094 1.93962C12.6174 1.93989 12.4254 1.94004 12.2334 1.94008C12.0074 1.94016 11.7814 1.94063 11.5555 1.94142C11.4724 1.94165 11.3893 1.94174 11.3062 1.9417C11.1931 1.94166 11.08 1.9421 10.9669 1.94267C10.9337 1.94255 10.9005 1.94242 10.8663 1.9423C10.7139 1.94357 10.6384 1.94475 10.5086 2.03124ZM0.625819 5.5078C0.622018 5.57459 0.620986 5.64154 0.621013 5.70843C0.620935 5.75219 0.620858 5.79595 0.620778 5.84103C0.620891 5.8897 0.621005 5.93838 0.621122 5.98853C0.621089 6.03977 0.621055 6.091 0.621021 6.14379C0.620933 6.28667 0.62109 6.42955 0.621285 6.57242C0.621454 6.72625 0.621397 6.88008 0.621368 7.03391C0.621347 7.30064 0.62147 7.56738 0.62169 7.83411C0.622006 8.21977 0.622109 8.60543 0.622158 8.99109C0.622244 9.61673 0.622503 10.2424 0.622872 10.868C0.623231 11.4759 0.623507 12.0838 0.623673 12.6917C0.623684 12.7292 0.623695 12.7666 0.623705 12.8052C0.623756 12.993 0.623805 13.1809 0.623853 13.3687C0.624259 14.9281 0.624979 16.4875 0.625819 18.0469C1.69574 18.0469 2.76566 18.0469 3.86801 18.0469C3.86801 16.2293 3.86801 14.4117 3.86801 12.539C3.69398 12.5777 3.69398 12.5777 3.51644 12.6172C3.21725 12.6499 2.94125 12.6121 2.68835 12.4423C2.47212 12.2672 2.35388 12.0793 2.27621 11.814C2.24505 11.5102 2.27078 11.2338 2.43645 10.9708C2.68584 10.6661 3.00996 10.517 3.35531 10.3442C3.44402 10.299 3.53261 10.2536 3.62116 10.2081C3.67583 10.1801 3.73061 10.1523 3.78552 10.1247C3.8374 10.0985 3.88893 10.0715 3.94009 10.0439C4.02426 9.99999 4.02426 9.99999 4.12951 9.95458C4.24123 9.90062 4.32569 9.85212 4.41488 9.76561C4.46898 9.60416 4.46229 9.45121 4.45608 9.28237C4.456 9.21231 4.456 9.21231 4.45591 9.14083C4.45546 8.99175 4.45241 8.84288 4.44906 8.69384C4.44696 8.54497 4.44541 8.39614 4.44472 8.24726C4.44417 8.15473 4.44273 8.0622 4.44031 7.96971C4.43731 7.71157 4.4533 7.55239 4.6102 7.34374C4.87119 7.13769 5.2247 7.17914 5.54037 7.17772C5.60703 7.17651 5.60703 7.17651 5.67503 7.17528C5.9759 7.17389 6.27401 7.17844 6.50229 7.39501C6.64639 7.64287 6.65676 7.87923 6.66586 8.15917C6.66737 8.19724 6.66888 8.2353 6.67044 8.27452C6.6741 8.3679 6.67745 8.46128 6.68051 8.55468C6.78065 8.50513 6.88074 8.45547 6.9808 8.40575C7.00897 8.39183 7.03715 8.3779 7.06617 8.36356C7.09374 8.34984 7.12131 8.33612 7.14972 8.32198C7.17488 8.3095 7.20004 8.29702 7.22596 8.28417C7.26534 8.26338 7.26534 8.26338 7.30551 8.24218C7.33892 8.22728 7.37233 8.21238 7.40675 8.19703C7.51239 8.13245 7.51239 8.13245 7.52431 8.01005C7.52387 7.96313 7.52344 7.9162 7.52299 7.86785C7.52302 7.84192 7.52305 7.816 7.52308 7.78929C7.52294 7.70366 7.52142 7.61811 7.51989 7.53249C7.51953 7.4731 7.51925 7.41372 7.51906 7.35433C7.51831 7.19807 7.51639 7.04185 7.51423 6.8856C7.51223 6.72615 7.51134 6.56669 7.51036 6.40723C7.50826 6.09438 7.50493 5.78156 7.50082 5.46874C6.6102 5.46783 5.71958 5.46714 4.82896 5.46671C4.41546 5.46651 4.00196 5.46624 3.58846 5.46579C3.22819 5.4654 2.86792 5.46515 2.50765 5.46506C2.31677 5.46501 2.12588 5.46489 1.935 5.46461C1.75555 5.46434 1.5761 5.46426 1.39665 5.46432C1.33059 5.46431 1.26453 5.46423 1.19847 5.46408C1.10868 5.46389 1.01889 5.46393 0.929098 5.46404C0.878724 5.464 0.828349 5.46397 0.776448 5.46393C0.668844 5.45597 0.668843 5.45597 0.625819 5.5078ZM12.5008 7.26561C12.5008 7.66522 12.5008 8.06483 12.5008 8.47655C12.9004 8.47655 13.3 8.47655 13.7118 8.47655C13.7118 8.07694 13.7118 7.67733 13.7118 7.26561C13.3122 7.26561 12.9125 7.26561 12.5008 7.26561ZM5.07895 7.81249C5.07895 8.341 5.07895 8.86952 5.07895 9.41405C5.39253 9.2468 5.70577 9.07884 6.01645 8.90624C6.01645 8.5453 6.01645 8.18436 6.01645 7.81249C5.70707 7.81249 5.3977 7.81249 5.07895 7.81249ZM8.80941 8.16893C8.76932 8.18935 8.76932 8.18935 8.72841 8.21017C8.63157 8.25962 8.53495 8.3095 8.43832 8.35936C8.39913 8.37947 8.35994 8.39957 8.31957 8.42028C7.8312 8.67085 7.34509 8.92487 6.86413 9.1894C6.54415 9.36509 6.22184 9.53619 5.89926 9.70702C5.51351 9.91134 5.12872 10.1171 4.74624 10.3275C4.52897 10.4467 4.31049 10.5633 4.09124 10.6787C4.06298 10.6936 4.03472 10.7085 4.0056 10.7239C3.86478 10.7981 3.72386 10.8722 3.58274 10.9459C3.53088 10.9732 3.47903 11.0005 3.42718 11.0278C3.40358 11.04 3.37997 11.0523 3.35565 11.0649C3.18206 11.1568 3.01611 11.2477 2.91586 11.4209C2.88469 11.5518 2.89026 11.629 2.93051 11.7578C3.0441 11.8889 3.12673 11.98 3.30038 12.0074C3.50821 11.9844 3.66672 11.8865 3.84848 11.7871C3.88831 11.7658 3.92814 11.7445 3.96918 11.7226C4.09201 11.6567 4.21443 11.5902 4.33676 11.5234C4.37165 11.5044 4.40654 11.4855 4.44248 11.4659C4.57785 11.3923 4.71314 11.3185 4.84823 11.2443C5.17095 11.0674 5.49592 10.8949 5.82113 10.7226C6.20704 10.5182 6.59185 10.3121 6.97467 10.102C7.35352 9.89456 7.73532 9.6927 8.11705 9.49065C8.14259 9.47711 8.16814 9.46358 8.19446 9.44963C8.24458 9.4231 8.29474 9.39662 8.34494 9.37021C8.45791 9.31058 8.56944 9.24976 8.68011 9.18589C8.7174 9.1644 8.75468 9.14292 8.79309 9.12078C8.82485 9.10189 8.85662 9.083 8.88934 9.06354C9.04882 8.9968 9.1693 9.00384 9.32936 9.06619C9.36685 9.08612 9.40434 9.10604 9.44296 9.12657C9.48535 9.14883 9.52775 9.17108 9.57143 9.19401C9.61645 9.21828 9.66147 9.24256 9.70785 9.26757C9.75537 9.29276 9.8029 9.31791 9.85045 9.34303C9.99211 9.41808 10.1332 9.49408 10.2743 9.5703C10.3124 9.59091 10.3506 9.61153 10.3899 9.63277C10.5639 9.72703 10.7375 9.82199 10.911 9.91728C11.1617 10.0548 11.4137 10.1898 11.6659 10.3247C11.6888 10.337 11.7118 10.3493 11.7355 10.3619C11.8526 10.4246 11.9697 10.4872 12.0869 10.5499C12.3161 10.6724 12.5452 10.7952 12.7743 10.918C13.0312 11.0556 13.2882 11.1933 13.5452 11.3308C13.6444 11.3839 13.7436 11.4369 13.8428 11.49C13.9121 11.5271 13.9814 11.5641 14.0507 11.6012C14.1146 11.6353 14.1146 11.6353 14.1797 11.6702C14.2199 11.6917 14.2601 11.7132 14.3014 11.7353C14.4338 11.8071 14.5647 11.8813 14.695 11.9567C14.8053 12.0115 14.8807 12.0162 15.0008 11.9922C15.1185 11.9288 15.2063 11.8711 15.2913 11.7676C15.3258 11.6298 15.3287 11.4978 15.2743 11.3672C15.116 11.2225 14.953 11.1162 14.7622 11.0182C14.7226 10.9974 14.7226 10.9974 14.6822 10.9763C14.5965 10.9313 14.5106 10.8868 14.4246 10.8423C14.3343 10.795 14.244 10.7476 14.1537 10.7003C14.093 10.6685 14.0323 10.6367 13.9716 10.605C13.7081 10.4672 13.446 10.3269 13.1844 10.1855C13.1437 10.1636 13.1031 10.1416 13.0611 10.119C12.98 10.0752 12.8988 10.0314 12.8177 9.98753C12.6096 9.87514 12.4014 9.763 12.1932 9.65087C12.1514 9.62837 12.1097 9.60587 12.0666 9.58269C11.6439 9.35511 11.2207 9.12842 10.7974 8.90186C10.652 8.82402 10.5066 8.74605 10.3613 8.668C10.2618 8.61457 10.1623 8.56117 10.0628 8.50777C9.99313 8.47034 9.92344 8.43286 9.85374 8.39538C9.73367 8.33096 9.61343 8.26688 9.49301 8.20311C9.46126 8.18621 9.42951 8.16931 9.3968 8.1519C9.14995 8.0237 9.0467 8.04628 8.80941 8.16893ZM9.01581 9.71421C8.98446 9.73127 8.9531 9.74834 8.9208 9.76592C8.88523 9.78489 8.84966 9.80385 8.81301 9.8234C8.75564 9.85522 8.75564 9.85522 8.69711 9.88768C8.65692 9.90933 8.61674 9.93097 8.57533 9.95327C8.45119 10.0203 8.32754 10.0882 8.20395 10.1562C8.13515 10.1938 8.06633 10.2312 7.99749 10.2687C7.89575 10.3241 7.79405 10.3796 7.69249 10.4353C7.36978 10.6123 7.04479 10.7848 6.71957 10.957C6.35569 11.1498 5.99218 11.3432 5.6307 11.5405C5.58531 11.5653 5.58531 11.5653 5.539 11.5906C5.20246 11.7749 4.8675 11.9621 4.53207 12.1484C4.53207 14.082 4.53207 16.0156 4.53207 18.0078C4.64362 18.0636 4.73821 18.0515 4.8629 18.0513C4.88882 18.0513 4.91474 18.0513 4.94144 18.0513C5.02726 18.0513 5.11307 18.051 5.19888 18.0507C5.25832 18.0506 5.31776 18.0505 5.37721 18.0505C5.53377 18.0504 5.69033 18.05 5.8469 18.0495C6.00661 18.0491 6.16633 18.049 6.32605 18.0488C6.63951 18.0484 6.95298 18.0477 7.26645 18.0469C7.26659 18.007 7.26673 17.9671 7.26688 17.926C7.26832 17.5507 7.27057 17.1754 7.27363 16.8C7.27517 16.6071 7.27643 16.4141 7.27703 16.2211C7.27762 16.0349 7.27896 15.8488 7.28083 15.6626C7.28141 15.5915 7.28172 15.5204 7.28175 15.4493C7.28185 15.3499 7.2829 15.2505 7.28418 15.1511C7.28389 15.1068 7.28389 15.1068 7.28359 15.0616C7.28599 14.942 7.29057 14.8631 7.36492 14.7669C7.50329 14.7093 7.63503 14.7102 7.78243 14.7114C7.81465 14.7112 7.84687 14.711 7.88007 14.7108C7.98646 14.7102 8.09282 14.7106 8.19921 14.711C8.27315 14.7109 8.34709 14.7108 8.42103 14.7106C8.57592 14.7105 8.73081 14.7107 8.8857 14.7113C9.0844 14.7119 9.28309 14.7116 9.4818 14.7109C9.63444 14.7104 9.78707 14.7106 9.93971 14.7109C10.013 14.7109 10.0863 14.7109 10.1595 14.7106C10.2619 14.7103 10.3641 14.7107 10.4665 14.7114C10.4968 14.7112 10.5272 14.7109 10.5585 14.7107C10.7625 14.7131 10.7625 14.7131 10.8579 14.7788C10.9542 14.9302 10.945 15.0849 10.9463 15.2575C10.9467 15.2876 10.9471 15.3177 10.9475 15.3488C10.9487 15.4483 10.9497 15.5479 10.9507 15.6474C10.9515 15.7164 10.9523 15.7855 10.9531 15.8545C10.9553 16.0361 10.9572 16.2178 10.9591 16.3995C10.9611 16.5849 10.9632 16.7703 10.9654 16.9556C10.9696 17.3194 10.9736 17.6831 10.9774 18.0469C11.3224 18.0496 11.6673 18.0517 12.0123 18.0529C12.1725 18.0535 12.3327 18.0544 12.4929 18.0557C12.6474 18.057 12.8019 18.0577 12.9564 18.058C13.0154 18.0582 13.0744 18.0586 13.1334 18.0593C13.2159 18.0601 13.2984 18.0602 13.3809 18.0602C13.4515 18.0606 13.4515 18.0606 13.5234 18.061C13.5598 18.0563 13.5962 18.0517 13.6336 18.0469C13.7247 17.9103 13.7214 17.8574 13.7212 17.6961C13.7213 17.6473 13.7214 17.5985 13.7215 17.5482C13.7212 17.494 13.7209 17.4398 13.7206 17.3857C13.7206 17.3287 13.7206 17.2717 13.7207 17.2147C13.7207 17.06 13.7202 16.9052 13.7197 16.7504C13.7192 16.5887 13.7191 16.427 13.7191 16.2652C13.7188 15.9589 13.7182 15.6527 13.7174 15.3464C13.7165 14.9977 13.7161 14.649 13.7157 14.3003C13.7149 13.583 13.7135 12.8657 13.7118 12.1484C13.6738 12.1284 13.6358 12.1083 13.5967 12.0876C13.4539 12.0121 13.311 11.9366 13.1682 11.861C13.1068 11.8285 13.0453 11.796 12.9839 11.7636C12.6377 11.5807 12.2921 11.3971 11.9491 11.2085C11.5774 11.0045 11.2033 10.8054 10.8287 10.6069C10.4082 10.384 9.98864 10.1595 9.56995 9.93317C9.53106 9.91217 9.49218 9.89117 9.45211 9.86952C9.41834 9.85125 9.38456 9.83297 9.34977 9.81415C9.31969 9.79813 9.28962 9.78211 9.25863 9.76561C9.23261 9.74896 9.20658 9.73231 9.17976 9.71515C9.10125 9.67836 9.10125 9.67836 9.01581 9.71421ZM16.1336 10.9375C16.1336 11.3371 16.1336 11.7367 16.1336 12.1484C16.5332 12.1484 16.9329 12.1484 17.3446 12.1484C17.3446 11.7488 17.3446 11.3492 17.3446 10.9375C16.945 10.9375 16.5454 10.9375 16.1336 10.9375ZM14.3758 14.8047C14.3629 15.8746 14.35 16.9445 14.3368 18.0469C15.0844 18.0469 15.8321 18.0469 16.6024 18.0469C16.6035 17.4785 16.6035 17.4785 16.6043 16.9102C16.6045 16.6785 16.6048 16.4469 16.6053 16.2152C16.6058 16.0285 16.606 15.8419 16.6061 15.6552C16.6062 15.5838 16.6063 15.5125 16.6065 15.4411C16.6068 15.3415 16.6068 15.2418 16.6068 15.1422C16.607 15.0975 16.607 15.0975 16.6072 15.0519C16.6192 14.917 16.6192 14.917 16.5633 14.8047C16.495 14.801 16.4265 14.8001 16.3581 14.8002C16.3137 14.8002 16.2693 14.8002 16.2235 14.8003C16.1765 14.8005 16.1294 14.8007 16.081 14.8009C16.0165 14.8009 16.0165 14.8009 15.9508 14.801C15.7896 14.8012 15.6284 14.8017 15.4671 14.8022C15.107 14.803 14.7469 14.8038 14.3758 14.8047ZM7.93051 15.3515C7.93051 16.241 7.93051 17.1305 7.93051 18.0469C8.71684 18.0469 9.50317 18.0469 10.3133 18.0469C10.3133 17.1574 10.3133 16.268 10.3133 15.3515C9.52699 15.3515 8.74066 15.3515 7.93051 15.3515Z" fill="#343637"/>
<path d="M16.2114 6.58083C16.2739 6.58061 16.2739 6.58061 16.3376 6.58038C16.4256 6.58027 16.5135 6.58056 16.6015 6.58121C16.7358 6.58205 16.8701 6.58122 17.0045 6.58022C17.09 6.58033 17.1756 6.58053 17.2612 6.58083C17.3213 6.58036 17.3213 6.58036 17.3825 6.57987C17.6092 6.58284 17.7553 6.59818 17.9303 6.75783C18.0023 6.87482 18.0185 6.96377 18.0198 7.10022C18.0203 7.13699 18.0208 7.17376 18.0213 7.21165C18.0214 7.25112 18.0215 7.29059 18.0215 7.33126C18.0219 7.39252 18.0219 7.39252 18.0223 7.45502C18.0227 7.54137 18.0229 7.62773 18.0229 7.71408C18.0231 7.84595 18.0245 7.97776 18.026 8.10961C18.0262 8.19358 18.0264 8.27756 18.0264 8.36153C18.027 8.40085 18.0275 8.44016 18.0281 8.48066C18.0267 8.7056 18.0131 8.85179 17.8522 9.02346C17.6536 9.16329 17.4624 9.15777 17.2285 9.15621C17.1728 9.15638 17.1728 9.15638 17.1159 9.15655C17.0375 9.15663 16.9592 9.15642 16.8808 9.15592C16.7614 9.1553 16.642 9.15592 16.5226 9.15667C16.4462 9.15659 16.3699 9.15644 16.2935 9.15621C16.258 9.15645 16.2226 9.15669 16.1861 9.15693C15.9697 9.15455 15.8172 9.12613 15.6256 9.02346C15.4971 8.88641 15.4646 8.75933 15.4631 8.57487C15.4627 8.53953 15.4623 8.5042 15.4619 8.46779C15.4618 8.42971 15.4616 8.39162 15.4614 8.35238C15.4612 8.31312 15.461 8.27387 15.4607 8.23342C15.4604 8.15035 15.4601 8.06728 15.46 7.9842C15.4596 7.85723 15.4584 7.73029 15.4571 7.60332C15.4569 7.52261 15.4567 7.44189 15.4565 7.36117C15.4561 7.32324 15.4556 7.28531 15.4551 7.24623C15.4559 6.98953 15.4935 6.86387 15.6647 6.6688C15.8426 6.56673 16.0096 6.57924 16.2114 6.58083ZM16.1334 7.26565C16.1334 7.66526 16.1334 8.06487 16.1334 8.47658C16.533 8.47658 16.9326 8.47658 17.3444 8.47658C17.3444 8.07698 17.3444 7.67737 17.3444 7.26565C16.9447 7.26565 16.5451 7.26565 16.1334 7.26565Z" fill="#343637"/>
<path d="M16.03 2.88433C16.0644 2.88395 16.0988 2.88358 16.1343 2.88319C16.19 2.88294 16.19 2.88294 16.2468 2.88269C16.2851 2.88246 16.3233 2.88224 16.3628 2.88201C16.4439 2.88164 16.5249 2.88139 16.606 2.88124C16.7297 2.88086 16.8534 2.87965 16.9771 2.87841C17.0559 2.87816 17.1347 2.87795 17.2136 2.8778C17.2504 2.87732 17.2873 2.87684 17.3253 2.87634C17.5286 2.87703 17.68 2.88591 17.8512 3.00781C18.0401 3.20976 18.0298 3.40665 18.0268 3.66836C18.0269 3.70918 18.027 3.75001 18.027 3.79207C18.027 3.87812 18.0265 3.96417 18.0257 4.05022C18.0246 4.18182 18.0249 4.31336 18.0254 4.44496C18.0252 4.5287 18.0248 4.61245 18.0244 4.69619C18.0245 4.73546 18.0246 4.77473 18.0248 4.81519C18.02 5.16615 18.02 5.16615 17.8903 5.3125C17.7105 5.47279 17.4933 5.44795 17.2654 5.44799C17.2238 5.44829 17.1821 5.44859 17.1392 5.4489C17.0513 5.44932 16.9633 5.44943 16.8753 5.44925C16.741 5.44922 16.6067 5.45084 16.4724 5.45257C16.3868 5.45278 16.3012 5.45288 16.2156 5.45288C16.1756 5.45352 16.1355 5.45416 16.0943 5.45482C15.783 5.45181 15.783 5.45181 15.6414 5.34034C15.511 5.19465 15.4588 5.09487 15.4577 4.89916C15.4573 4.86395 15.4569 4.82874 15.4565 4.79247C15.4566 4.75471 15.4566 4.71694 15.4567 4.67804C15.4565 4.63893 15.4563 4.59982 15.4561 4.55953C15.4559 4.47685 15.4559 4.39418 15.4561 4.3115C15.4562 4.1853 15.4553 4.05914 15.4543 3.93295C15.4542 3.85254 15.4542 3.77212 15.4542 3.69171C15.4539 3.6541 15.4535 3.6165 15.4531 3.57775C15.4545 3.37122 15.4693 3.22519 15.5856 3.04687C15.7236 2.92176 15.8463 2.88595 16.03 2.88433ZM16.1325 3.55468C16.1325 3.95429 16.1325 4.3539 16.1325 4.76562C16.5321 4.76562 16.9317 4.76562 17.3434 4.76562C17.3434 4.36601 17.3434 3.9664 17.3434 3.55468C16.9438 3.55468 16.5442 3.55468 16.1325 3.55468Z" fill="#343637"/>
<path d="M12.6302 2.87125C12.6682 2.87119 12.7063 2.87113 12.7455 2.87107C12.8257 2.87114 12.9058 2.87159 12.9859 2.8724C13.1083 2.87353 13.2305 2.8732 13.3529 2.8727C13.431 2.87294 13.5091 2.87327 13.5872 2.87369C13.6236 2.87357 13.66 2.87346 13.6974 2.87334C13.9513 2.87701 14.1131 2.91702 14.3108 3.08595C14.4094 3.26431 14.3979 3.43203 14.3964 3.63266C14.3966 3.69514 14.3966 3.69514 14.3968 3.75888C14.3969 3.84684 14.3966 3.9348 14.396 4.02276C14.3951 4.15711 14.396 4.29138 14.397 4.42574C14.3969 4.51131 14.3967 4.59689 14.3964 4.68246C14.3967 4.72251 14.397 4.76256 14.3973 4.80381C14.3944 5.03045 14.379 5.17659 14.2194 5.35156C14.1021 5.42391 14.0132 5.43966 13.8763 5.44042C13.8395 5.44079 13.8026 5.44116 13.7645 5.44154C13.7249 5.44151 13.6854 5.44147 13.6446 5.44144C13.5832 5.44169 13.5832 5.44169 13.5205 5.44194C13.434 5.44217 13.3475 5.44219 13.261 5.44202C13.1287 5.44189 12.9964 5.44281 12.8641 5.4438C12.78 5.44389 12.6959 5.44392 12.6118 5.44388C12.5723 5.44424 12.5328 5.4446 12.4921 5.44497C12.1501 5.44272 12.1501 5.44272 11.9928 5.3125C11.8589 5.16423 11.8321 5.0281 11.8303 4.83241C11.8299 4.79968 11.8295 4.76694 11.8291 4.73322C11.8289 4.69814 11.8288 4.66306 11.8286 4.62692C11.8284 4.59051 11.8282 4.5541 11.8279 4.51658C11.8276 4.43958 11.8273 4.36259 11.8272 4.28559C11.8268 4.16831 11.8256 4.05106 11.8243 3.93379C11.8241 3.85885 11.8239 3.7839 11.8237 3.70895C11.8232 3.67411 11.8228 3.63927 11.8223 3.60338C11.823 3.38827 11.8401 3.2323 11.9537 3.04687C12.1709 2.87508 12.3598 2.86798 12.6302 2.87125ZM12.5006 3.55469C12.5006 3.9543 12.5006 4.35391 12.5006 4.76562C12.9002 4.76562 13.2998 4.76562 13.7115 4.76562C13.7115 4.36602 13.7115 3.96641 13.7115 3.55469C13.3119 3.55469 12.9123 3.55469 12.5006 3.55469Z" fill="#343637"/>
</g>
<defs>
<clipPath id="clip0_1198_529">
<rect width="20" height="20" fill="white"/>
</clipPath>
</defs>
</svg>
