<?xml version="1.0" standalone="no"?>
<!DOCTYPE svg PUBLIC "-//W3C//DTD SVG 20010904//EN"
 "http://www.w3.org/TR/2001/REC-SVG-20010904/DTD/svg10.dtd">
<svg version="1.0" xmlns="http://www.w3.org/2000/svg"
 width="300.000000pt" height="100.000000pt" viewBox="0 0 300.000000 100.000000"
 preserveAspectRatio="xMidYMid meet">

<g transform="translate(0.000000,100.000000) scale(0.100000,-0.100000)"
fill="#000000" stroke="none">
<path d="M293 790 c-85 -18 -143 -67 -163 -138 -14 -53 -13 -70 11 -119 24
-51 84 -90 189 -124 79 -26 90 -34 90 -65 0 -49 -117 -58 -199 -16 -51 27 -74
18 -91 -32 -9 -28 -8 -40 4 -64 39 -76 234 -103 356 -50 59 25 86 52 106 104
43 113 -21 204 -187 265 -98 36 -120 59 -83 86 24 18 112 17 164 -2 34 -12 46
-13 57 -3 49 40 30 115 -36 141 -50 21 -161 29 -218 17z"/>
<path d="M1782 789 c-23 -4 -54 -14 -70 -21 l-27 -13 -3 -271 c-3 -324 -5
-317 96 -316 34 0 67 4 72 7 6 3 10 49 10 101 0 91 1 94 23 94 17 0 33 -17 66
-71 64 -103 87 -127 128 -135 45 -9 101 19 109 53 6 23 -17 65 -88 156 l-22
27 37 38 c40 41 67 97 67 139 0 87 -58 170 -138 198 -53 19 -196 27 -260 14z
m198 -154 c13 -12 20 -31 20 -56 0 -52 -35 -79 -101 -79 l-49 0 0 73 c0 41 3
77 8 81 13 14 101 0 122 -19z"/>
<path d="M2465 784 c-138 -44 -211 -156 -209 -319 1 -98 27 -164 87 -223 134
-131 382 -116 487 30 68 94 79 248 25 362 -30 64 -101 128 -163 146 -64 20
-172 21 -227 4z m194 -158 c78 -75 64 -268 -22 -313 -43 -22 -103 -20 -135 4
-48 36 -66 80 -66 158 0 83 21 135 67 165 45 29 117 23 156 -14z"/>
<path d="M718 783 c-17 -4 -18 -26 -18 -284 0 -171 4 -288 10 -299 13 -25 74
-40 125 -32 l40 7 3 112 3 112 90 3 c50 2 93 1 95 -1 2 -2 4 -46 4 -97 0 -122
11 -137 99 -137 35 1 67 5 73 11 5 5 8 120 6 291 l-3 283 -24 19 c-23 19 -83
25 -128 13 -22 -6 -23 -11 -23 -120 l0 -114 -94 0 -94 0 -4 101 c-3 92 -5 103
-27 120 -22 18 -87 24 -133 12z"/>
<path d="M1390 780 c-13 -8 -15 -51 -15 -289 0 -267 1 -281 20 -300 20 -20 49
-25 118 -23 l37 2 0 288 c0 158 -4 292 -8 298 -20 31 -117 46 -152 24z"/>
</g>
</svg>
