<svg width="38" height="39" viewBox="0 0 38 39" fill="none" xmlns="http://www.w3.org/2000/svg">
<g clip-path="url(#clip0_1237_1097)">
<path d="M3.33478 5.62678C3.71352 5.91286 3.94678 6.26756 4.08218 6.72151C4.17263 7.4046 4.13728 8.01693 3.71109 8.57697C3.38833 8.92308 3.11451 9.14217 2.67203 9.31916C2.64754 9.78451 2.62304 10.2499 2.59781 10.7293C2.72486 10.7217 2.85191 10.714 2.98282 10.7061C3.27108 10.6888 3.37816 10.7018 3.61092 10.8793C3.83011 11.1572 3.83337 11.3661 3.82155 11.7049C3.82102 11.762 3.8205 11.8192 3.81996 11.878C3.81789 12.0596 3.81323 12.2409 3.8085 12.4224C3.80664 12.5459 3.80495 12.6693 3.80343 12.7928C3.79935 13.0946 3.79295 13.3963 3.78531 13.6981C3.93815 13.6762 4.09092 13.6539 4.24367 13.6314C4.32875 13.619 4.41383 13.6066 4.50149 13.5939C5.73211 13.3749 6.40954 12.4845 7.12515 11.5457C8.98125 9.13612 11.6485 7.85613 14.6212 7.38947C14.7108 7.37493 14.8003 7.36039 14.8926 7.34541C15.3562 7.29028 15.8252 7.30754 16.2912 7.31062C16.3876 7.31095 16.484 7.31129 16.5834 7.31163C16.82 7.3125 17.0565 7.31372 17.2931 7.31525C17.2904 7.23032 17.2904 7.23032 17.2876 7.14368C17.2862 7.06971 17.2847 6.99573 17.2833 6.91952C17.2805 6.80933 17.2805 6.80933 17.2777 6.69692C17.2931 6.49885 17.2931 6.49885 17.4508 6.29939C17.7031 6.18423 17.8359 6.15068 18.1095 6.20197C18.2968 6.32496 18.3741 6.38297 18.4806 6.57307C18.5368 6.8873 18.5297 7.19888 18.5262 7.51734C18.5267 7.61443 18.5271 7.71152 18.5275 7.81156C18.5286 8.08095 18.5274 8.35029 18.5259 8.61968C18.5246 8.91024 18.5254 9.20079 18.526 9.49134C18.5268 10.0605 18.5256 10.6296 18.5238 11.1987C18.5217 11.8612 18.5216 12.5237 18.5216 13.1862C18.5215 14.3681 18.5196 15.55 18.5168 16.7318C18.514 17.8792 18.5124 19.0266 18.5122 20.174C18.5122 20.2446 18.5122 20.3153 18.5122 20.3881C18.5121 20.4587 18.5121 20.5292 18.5121 20.6019C18.5121 20.744 18.5121 20.886 18.512 21.0281C18.512 21.1331 18.512 21.1331 18.512 21.2403C18.5117 22.3331 18.5104 23.4258 18.5089 24.5185C18.5084 24.9148 18.508 25.3111 18.5078 25.7075C18.5074 26.336 18.5066 26.9646 18.5047 27.5931C18.5039 27.8804 18.5033 28.1677 18.5033 28.455C18.5033 28.7661 18.5022 29.0771 18.501 29.3882C18.5011 29.4795 18.5013 29.5708 18.5015 29.6649C18.501 29.748 18.5005 29.831 18.4999 29.9167C18.4998 29.9885 18.4996 30.0603 18.4995 30.1343C18.4794 30.3349 18.4424 30.4521 18.3322 30.6199C18.059 30.8021 17.8548 30.7887 17.5389 30.7862C17.4803 30.7864 17.4216 30.7865 17.3611 30.7866C17.1639 30.7869 16.9666 30.786 16.7693 30.7852C16.6282 30.7852 16.487 30.7852 16.3459 30.7853C15.9621 30.7853 15.5783 30.7845 15.1945 30.7834C14.7936 30.7825 14.3927 30.7824 13.9919 30.7822C13.2325 30.7818 12.4731 30.7806 11.7137 30.7791C10.8493 30.7774 9.98492 30.7766 9.12051 30.7758C7.34211 30.7743 5.56371 30.7717 3.78531 30.7684C3.78725 30.823 3.7892 30.8777 3.7912 30.934C3.79892 31.1818 3.80374 31.4296 3.8085 31.6776C3.81161 31.7636 3.81472 31.8496 3.81792 31.9382C3.8271 32.573 3.8271 32.573 3.61676 32.829C3.43309 32.9122 3.31804 32.9584 3.11908 32.9603C3.06384 32.9615 3.0086 32.9627 2.95169 32.9639C2.86377 32.9633 2.86377 32.9633 2.77408 32.9628C2.71288 32.9632 2.65169 32.9637 2.58864 32.9642C2.45964 32.9647 2.33063 32.9644 2.20164 32.9635C2.00464 32.9625 1.80791 32.965 1.61093 32.9678C1.4853 32.9679 1.35967 32.9678 1.23404 32.9674C1.17543 32.9684 1.11682 32.9694 1.05643 32.9704C1.00119 32.9694 0.945951 32.9685 0.889038 32.9676C0.816799 32.9675 0.816799 32.9675 0.743101 32.9673C0.484506 32.8865 0.386746 32.7656 0.222808 32.5496C0.166831 32.2656 0.173407 31.9847 0.176684 31.696C0.17621 31.6087 0.175736 31.5213 0.175248 31.4314C0.174311 31.1892 0.175039 30.9471 0.176473 30.7049C0.177618 30.4436 0.176624 30.1824 0.175898 29.9211C0.17482 29.4094 0.175729 28.8977 0.177317 28.386C0.179098 27.7902 0.178972 27.1944 0.178779 26.5986C0.178505 25.5356 0.180051 24.4726 0.182582 23.4096C0.185038 22.378 0.18609 21.3463 0.185627 20.3146C0.185125 19.1914 0.185307 18.0682 0.186766 16.945C0.186844 16.8856 0.186921 16.8263 0.187 16.7651C0.187155 16.6458 0.187312 16.5265 0.18747 16.4072C0.187982 15.9918 0.188032 15.5765 0.187924 15.1611C0.187818 14.6549 0.188536 14.1488 0.190295 13.6426C0.191176 13.3843 0.191704 13.1261 0.191272 12.8678C0.190998 12.5879 0.192087 12.3081 0.193536 12.0282C0.192943 11.9055 0.192943 11.9055 0.192338 11.7803C0.198641 11.0772 0.198641 11.0772 0.445465 10.8035C0.789619 10.6888 1.12269 10.7251 1.48453 10.7293C1.44779 10.0313 1.44779 10.0313 1.41031 9.31916C1.21437 9.22119 1.01843 9.12322 0.816558 9.02229C0.612457 8.84138 0.612457 8.84138 0.445465 8.65119C0.391888 8.59149 0.338311 8.53179 0.283111 8.47028C-0.0850819 7.94974 -0.0601537 7.33345 0.000152133 6.72151C0.172971 6.11382 0.566018 5.69748 1.10126 5.37861C1.85453 5.03535 2.66721 5.19435 3.33478 5.62678ZM1.33609 6.72151C1.16144 6.97502 1.11343 7.11817 1.11343 7.42658C1.20478 7.74631 1.31601 7.90475 1.55875 8.13166C1.87405 8.27763 2.01678 8.29782 2.35196 8.20124C2.68295 8.00764 2.84498 7.83878 2.96426 7.47297C2.97043 7.16468 2.8995 6.98847 2.74625 6.72151C2.50698 6.50943 2.35782 6.43276 2.04117 6.38752C1.72695 6.43241 1.57581 6.51448 1.33609 6.72151ZM8.41934 11.8287C8.02492 12.2762 7.67538 12.7575 7.32375 13.2388C6.64781 14.1116 5.59733 14.6287 4.5275 14.8113C4.16011 14.8481 4.16011 14.8481 3.78531 14.8856C3.78531 15.3999 3.78531 15.9142 3.78531 16.4442C5.42207 16.5194 6.79636 15.9832 8.00215 14.8876C8.08123 14.813 8.15998 14.7381 8.23843 14.6629C8.2807 14.623 8.32297 14.583 8.36652 14.5419C8.69563 14.2234 8.97256 13.88 9.24502 13.5125C10.0878 12.384 10.0878 12.384 10.6737 11.9632C10.7218 11.9286 10.7698 11.894 10.8193 11.8583C12.5201 10.6633 14.4613 10.1769 16.5185 10.0938C16.5933 10.0906 16.6682 10.0874 16.7453 10.0841C16.9279 10.0763 17.1105 10.0687 17.2931 10.0613C17.2953 9.80313 17.2966 9.54491 17.2978 9.28669C17.2984 9.21297 17.299 9.13926 17.2996 9.06331C17.2999 8.99323 17.3001 8.92315 17.3004 8.85095C17.3008 8.78604 17.3011 8.72113 17.3015 8.65425C17.31 8.50317 17.31 8.50317 17.2189 8.42854C13.9206 8.20548 10.6669 9.38956 8.41934 11.8287ZM15.7345 11.2488C15.7345 17.3229 15.7345 23.397 15.7345 29.6551C16.2489 29.6551 16.7632 29.6551 17.2931 29.6551C17.2931 23.581 17.2931 17.507 17.2931 11.2488C17.0496 11.1271 16.7812 11.164 16.5138 11.1654C16.4556 11.1651 16.3973 11.1648 16.3373 11.1645C16.026 11.157 16.026 11.157 15.7345 11.2488ZM13.8651 11.5782C13.7671 11.6079 13.7671 11.6079 13.6671 11.6382C13.5113 11.6801 13.5113 11.6801 13.4337 11.7684C13.4265 11.9982 13.4241 12.2265 13.4248 12.4564C13.4248 12.5295 13.4247 12.6026 13.4246 12.6779C13.4245 12.9248 13.4249 13.1718 13.4253 13.4187C13.4253 13.595 13.4253 13.7712 13.4253 13.9474C13.4253 14.3776 13.4256 14.8078 13.4261 15.2379C13.4266 15.7383 13.4267 16.2386 13.4268 16.739C13.427 17.6313 13.4274 18.5237 13.4281 19.416C13.4288 20.2831 13.4294 21.1501 13.4297 22.0171C13.4297 22.0706 13.4297 22.124 13.4297 22.179C13.4298 22.4469 13.4299 22.7148 13.43 22.9827C13.4308 25.2069 13.4321 27.431 13.4337 29.6551C13.8011 29.6551 14.1685 29.6551 14.547 29.6551C14.547 23.6545 14.547 17.6539 14.547 11.4715C14.2803 11.4715 14.115 11.501 13.8651 11.5782ZM1.41031 11.9168C1.41031 18.4562 1.41031 24.9956 1.41031 31.7332C1.82668 31.7332 2.24304 31.7332 2.67203 31.7332C2.67203 25.1938 2.67203 18.6544 2.67203 11.9168C2.25566 11.9168 1.83929 11.9168 1.41031 11.9168ZM11.7314 12.608C11.6664 12.6536 11.6014 12.6993 11.5345 12.7463C11.3829 12.861 11.255 12.9597 11.133 13.1043C11.1115 13.3278 11.1039 13.5359 11.1062 13.7594C11.106 13.8272 11.1058 13.895 11.1056 13.9648C11.1052 14.1929 11.1065 14.4209 11.1077 14.6489C11.1078 14.812 11.1077 14.9751 11.1076 15.1382C11.1075 15.5818 11.1088 16.0254 11.1104 16.469C11.1118 16.9323 11.1119 17.3955 11.1122 17.8588C11.1128 18.6367 11.1142 19.4145 11.1162 20.1924C11.1182 20.9936 11.1198 21.7948 11.1207 22.5961C11.1208 22.6455 11.1209 22.6948 11.1209 22.7457C11.1212 22.9934 11.1215 23.2411 11.1218 23.4888C11.1241 25.5443 11.128 27.5997 11.133 29.6551C11.5003 29.6551 11.8677 29.6551 12.2462 29.6551C12.2462 23.9484 12.2462 18.2417 12.2462 12.3621C12.0239 12.3621 11.9108 12.4807 11.7314 12.608ZM9.87125 14.5145C9.70414 14.7116 9.5442 14.914 9.38303 15.1161C9.20328 15.3309 9.20328 15.3309 9.00928 15.494C8.78698 15.7551 8.7809 15.9487 8.78756 16.2763C8.78724 16.3336 8.78692 16.3909 8.7866 16.4499C8.78599 16.6417 8.78802 16.8332 8.79005 17.025C8.79016 17.1625 8.7901 17.3 8.78989 17.4375C8.78978 17.8107 8.79197 18.1839 8.79456 18.5571C8.79688 18.9472 8.79709 19.3373 8.79753 19.7274C8.79869 20.466 8.80173 21.2046 8.80546 21.9432C8.8096 22.7841 8.81165 23.625 8.81351 24.4659C8.81739 26.1956 8.82399 27.9254 8.83218 29.6551C9.19957 29.6551 9.56695 29.6551 9.94547 29.6551C9.94547 24.6587 9.94547 19.6623 9.94547 14.5145C9.92097 14.5145 9.89648 14.5145 9.87125 14.5145ZM6.5314 17.1121C6.5314 21.2513 6.5314 25.3905 6.5314 29.6551C6.89878 29.6551 7.26617 29.6551 7.64468 29.6551C7.64468 25.3445 7.64468 21.0338 7.64468 16.5926C7.23517 16.5926 6.89768 16.929 6.5314 17.1121ZM3.78531 17.6317C3.78531 21.5994 3.78531 25.5671 3.78531 29.6551C4.29964 29.6551 4.81398 29.6551 5.3439 29.6551C5.3439 25.6384 5.3439 21.6217 5.3439 17.4832C4.82202 17.4832 4.30362 17.5707 3.78531 17.6317Z" fill="#379DFE"/>
<path d="M37.1833 5.75672C37.5603 6.04311 37.8741 6.40767 37.9997 6.87C38.0886 7.6455 37.9698 8.18043 37.5405 8.81824C37.2796 9.07329 36.8993 9.39344 36.5153 9.39344C36.5153 9.85879 36.5153 10.3241 36.5153 10.8036C36.6876 10.7967 36.6876 10.7967 36.8632 10.7897C37.1809 10.7901 37.3812 10.8098 37.6286 11.0262C37.7683 11.2531 37.7957 11.4243 37.7959 11.6888C37.7964 11.7628 37.7968 11.8368 37.7973 11.913C37.797 11.9941 37.7967 12.0753 37.7964 12.1589C37.7967 12.2452 37.797 12.3315 37.7973 12.4204C37.7979 12.6601 37.7979 12.8997 37.7976 13.1393C37.7974 13.3978 37.798 13.6562 37.7986 13.9146C37.7995 14.421 37.7997 14.9273 37.7995 15.4336C37.7994 15.8451 37.7995 16.2567 37.7998 16.6682C37.7999 16.7267 37.7999 16.7853 37.7999 16.8456C37.8 16.9645 37.8001 17.0834 37.8002 17.2023C37.801 18.3179 37.8009 19.4335 37.8004 20.5491C37.8 21.5699 37.8009 22.5906 37.8023 23.6114C37.8037 24.6592 37.8043 25.7071 37.804 26.755C37.8039 27.3434 37.8041 27.9317 37.8051 28.5201C37.806 29.0211 37.8061 29.522 37.8052 30.0229C37.8048 30.2785 37.8047 30.5341 37.8056 30.7897C37.8064 31.0668 37.8058 31.3438 37.8048 31.6209C37.8054 31.7017 37.8059 31.7825 37.8065 31.8657C37.8036 32.2709 37.7911 32.5745 37.5544 32.9208C37.3098 33.0431 37.0377 33.0103 36.7687 33.0127C36.7054 33.0133 36.6421 33.0139 36.5768 33.0145C36.4427 33.0155 36.3085 33.0163 36.1744 33.0169C35.9693 33.0182 35.7643 33.0214 35.5592 33.0247C35.4289 33.0255 35.2987 33.0261 35.1684 33.0266C35.1071 33.0279 35.0458 33.0292 34.9826 33.0305C34.9251 33.0303 34.8677 33.0301 34.8085 33.0299C34.7582 33.0303 34.7079 33.0307 34.656 33.0312C34.4364 32.9762 34.3497 32.8771 34.2146 32.6981C34.1809 32.4873 34.1809 32.4873 34.1856 32.247C34.1865 32.1609 34.1875 32.0748 34.1885 31.9861C34.1922 31.8518 34.1922 31.8518 34.196 31.7147C34.1973 31.624 34.1987 31.5333 34.2001 31.4399C34.2036 31.216 34.2084 30.9923 34.2146 30.7684C34.1727 30.766 34.1308 30.7636 34.0877 30.7612C32.633 30.6775 31.1786 30.5898 29.7242 30.501C29.3811 30.48 29.038 30.4592 28.695 30.4384C27.5641 30.3698 26.4333 30.3003 25.3025 30.2294C24.7741 30.1962 24.2457 30.1634 23.7172 30.1315C23.2112 30.1009 22.7052 30.0693 22.1993 30.037C22.0099 30.0251 21.8204 30.0135 21.6309 30.0023C21.3695 29.9867 21.1082 29.97 20.8468 29.9529C20.7699 29.9486 20.693 29.9443 20.6137 29.9399C19.9563 29.8946 19.9563 29.8946 19.6677 29.6552C19.5771 29.4741 19.5837 29.3574 19.583 29.1549C19.5823 29.0428 19.5823 29.0428 19.5816 28.9285C19.5815 28.8458 19.5814 28.7631 19.5812 28.6779C19.5808 28.5905 19.5804 28.5032 19.58 28.4131C19.5789 28.1698 19.5781 27.9265 19.5775 27.6831C19.5767 27.4209 19.5756 27.1588 19.5745 26.8966C19.5723 26.3823 19.5706 25.868 19.5691 25.3537C19.5678 24.9352 19.5663 24.5166 19.5648 24.0981C19.5646 24.0386 19.5644 23.979 19.5642 23.9177C19.5637 23.7967 19.5633 23.6758 19.5628 23.5548C19.5587 22.4189 19.555 21.2829 19.5515 20.147C19.5484 19.1744 19.545 18.2018 19.5413 17.2292C19.537 16.0992 19.5329 14.9692 19.5292 13.8392C19.5288 13.7183 19.5284 13.5974 19.528 13.4766C19.5278 13.4171 19.5276 13.3576 19.5274 13.2964C19.5261 12.8794 19.5245 12.4625 19.5229 12.0456C19.5209 11.5358 19.5192 11.026 19.5178 10.5163C19.5171 10.2567 19.5163 9.99705 19.5151 9.73744C19.5126 9.12792 19.5131 8.51856 19.5192 7.90906C19.5197 7.83839 19.5202 7.76771 19.5207 7.69489C19.5228 7.50682 19.5275 7.31903 19.5333 7.13104C19.5338 7.07857 19.5342 7.02609 19.5346 6.97202C19.5471 6.69323 19.5914 6.57565 19.7689 6.35561C19.9646 6.20203 19.9646 6.20203 20.1872 6.15564C20.4997 6.22073 20.5977 6.31137 20.781 6.57312C20.8323 6.82054 20.8498 7.06298 20.8552 7.31531C20.9422 7.31144 20.9422 7.31144 21.0309 7.30748C24.1726 7.23401 27.4176 8.17454 29.7419 10.3453C31.1809 11.7231 31.1809 11.7231 31.5427 12.5271C31.6392 12.6987 31.7365 12.7273 31.9138 12.8075C32.014 12.8895 32.1128 12.9731 32.2107 13.058C32.8101 13.5305 33.4733 13.6374 34.2146 13.6981C34.2128 13.5858 34.2128 13.5858 34.211 13.4712C34.207 13.1929 34.2044 12.9146 34.2023 12.6363C34.2012 12.5159 34.1997 12.3956 34.1978 12.2752C34.1951 12.102 34.1938 11.9289 34.1928 11.7557C34.1917 11.702 34.1905 11.6483 34.1893 11.5931C34.1893 11.3614 34.2009 11.1996 34.3133 10.9946C34.6159 10.7094 34.8946 10.8036 35.3278 10.8036C35.3034 10.3382 35.2789 9.87289 35.2536 9.39344C35.0577 9.29547 34.8617 9.1975 34.6599 9.09656C34.2342 8.73114 33.9487 8.30396 33.8945 7.74323C33.8701 7.03344 33.9695 6.52785 34.4465 5.99329C35.1957 5.31075 36.3198 5.24136 37.1833 5.75672ZM35.1516 7.00452C35.0168 7.26885 34.9824 7.39483 35.031 7.6864C35.1824 7.95788 35.291 8.10718 35.5505 8.28015C35.9261 8.33016 36.2589 8.33967 36.5942 8.15491C36.824 7.88065 36.8882 7.71274 36.8818 7.35242C36.785 6.99102 36.6 6.82581 36.2927 6.62415C35.8256 6.46359 35.4603 6.63893 35.1516 7.00452ZM20.781 8.50281C20.781 9.04164 20.781 9.58047 20.781 10.1356C20.9432 10.1341 21.1055 10.1326 21.2727 10.131C21.4799 10.1313 21.687 10.1335 21.8942 10.1356C21.9743 10.1359 22.0544 10.1362 22.1369 10.1365C23.0214 10.1681 23.8655 10.4223 24.7146 10.6552C24.8022 10.678 24.8898 10.7009 24.9801 10.7244C26.6144 11.2015 27.8767 12.308 28.8832 13.6291C29.948 15.0183 31.2848 16.1118 33.0543 16.4242C33.4412 16.4638 33.826 16.4525 34.2146 16.4442C34.2146 15.9299 34.2146 15.4155 34.2146 14.8856C34.0385 14.8688 33.8625 14.8519 33.6811 14.8346C32.7798 14.7299 32.0269 14.4204 31.32 13.8466C31.2748 13.81 31.2296 13.7734 31.1831 13.7357C30.8152 13.4275 30.5298 13.0973 30.2485 12.7101C28.4001 10.236 25.9791 9.01138 22.9623 8.5347C22.5336 8.4831 22.1026 8.49496 21.6716 8.49817C21.5858 8.49851 21.5 8.49884 21.4115 8.49919C21.2013 8.50005 20.9912 8.50139 20.781 8.50281ZM20.781 11.2489C20.781 17.0291 20.781 22.8092 20.781 28.7645C21.5157 28.8013 21.5157 28.8013 22.2653 28.8387C22.2653 23.0341 22.2653 17.2295 22.2653 11.2489C21.7755 11.2489 21.2857 11.2489 20.781 11.2489ZM23.4528 11.4716C23.4528 17.2272 23.4528 22.9829 23.4528 28.913C23.8202 28.9375 24.1876 28.962 24.5661 28.9872C24.5661 23.305 24.5661 17.6228 24.5661 11.7684C23.9951 11.53 23.9951 11.53 23.4528 11.4716ZM35.3278 11.9911C35.3278 18.555 35.3278 25.1189 35.3278 31.8817C35.7442 31.8817 36.1606 31.8817 36.5896 31.8817C36.5896 25.3178 36.5896 18.7539 36.5896 11.9911C36.1732 11.9911 35.7568 11.9911 35.3278 11.9911ZM25.7536 12.288C25.7536 17.8232 25.7536 23.3584 25.7536 29.0614C26.121 29.0859 26.4884 29.1104 26.8669 29.1356C26.8877 27.0473 26.9034 24.959 26.9131 22.8706C26.9176 21.9009 26.9239 20.9312 26.9341 19.9615C26.943 19.1163 26.9487 18.2712 26.9507 17.4259C26.9519 16.9784 26.9546 16.5309 26.9611 16.0834C26.9671 15.662 26.969 15.2408 26.9676 14.8194C26.9679 14.6649 26.9697 14.5104 26.9731 14.3559C27.0193 13.5967 27.0193 13.5967 26.7782 12.9011C26.4901 12.603 26.1455 12.4186 25.7536 12.288ZM28.0544 14.5145C28.0544 19.364 28.0544 24.2134 28.0544 29.2098C28.4218 29.2343 28.7892 29.2588 29.1677 29.2841C29.1849 27.5163 29.1981 25.7486 29.2061 23.9809C29.21 23.16 29.2152 22.3392 29.2237 21.5184C29.2311 20.8028 29.2359 20.0872 29.2375 19.3716C29.2385 18.9928 29.2407 18.6141 29.2462 18.2354C29.2512 17.8785 29.2527 17.5217 29.2516 17.1648C29.2518 17.0342 29.2533 16.9035 29.2562 16.7729C29.281 16.0483 29.281 16.0483 29.0098 15.3935C28.8243 15.2061 28.6337 15.0469 28.4255 14.8856C28.303 14.7632 28.1806 14.6407 28.0544 14.5145ZM30.3552 16.5927C30.3552 20.8053 30.3552 25.018 30.3552 29.3583C30.7226 29.3828 31.09 29.4073 31.4685 29.4325C31.4685 25.3668 31.4685 21.3011 31.4685 17.1122C31.1011 16.9407 30.7337 16.7693 30.3552 16.5927ZM32.656 17.4833C32.656 21.451 32.656 25.4187 32.656 29.5067C33.4275 29.5435 33.4275 29.5435 34.2146 29.5809C34.2146 25.6377 34.2146 21.6945 34.2146 17.6317C33.7002 17.5827 33.1859 17.5337 32.656 17.4833Z" fill="#379DFE"/>
</g>
<defs>
<clipPath id="clip0_1237_1097">
<rect width="38" height="38" fill="white" transform="translate(0 0.116089)"/>
</clipPath>
</defs>
</svg>
