<svg width="38" height="39" viewBox="0 0 38 39" fill="none" xmlns="http://www.w3.org/2000/svg">
<g clip-path="url(#clip0_1237_1083)">
<path d="M6.34628 10.9398C7.6151 11.5986 8.18545 13.0795 8.60938 14.3661C9.19544 16.2231 9.52887 18.1566 9.52343 20.1048C9.52319 20.2811 9.52495 20.4573 9.52682 20.6337C9.53191 21.8756 9.36314 23.1599 8.46094 24.0887C7.82126 24.6243 7.21466 24.7477 6.38281 24.8309C6.38281 25.4432 6.38281 26.0555 6.38281 26.6864C8.85652 26.6864 11.3302 26.6864 13.8789 26.6864C13.8789 26.0741 13.8789 25.4618 13.8789 24.8309C13.634 24.8064 13.3891 24.7819 13.1367 24.7567C12.3842 24.5784 11.8099 24.2005 11.3694 23.5646C10.9223 22.8135 10.7535 21.9339 10.744 21.0684C10.7433 21.0137 10.7426 20.959 10.7418 20.9027C10.7101 17.8737 11.0454 13.7291 13.2623 11.4075C13.6622 11.0373 14.0012 10.8589 14.5515 10.8361C15.1752 10.8646 15.5812 11.1261 16.0312 11.5458C18.0635 13.9587 18.6078 18.1559 18.4062 21.1942C18.304 22.3584 18.0774 23.4464 17.1445 24.2372C16.5364 24.6275 15.9344 24.8309 15.2148 24.8309C15.2148 25.4432 15.2148 26.0555 15.2148 26.6864C17.713 26.6864 20.2113 26.6864 22.7852 26.6864C22.7852 26.0741 22.7852 25.4618 22.7852 24.8309C22.5402 24.8064 22.2953 24.7819 22.043 24.7567C21.1822 24.5309 20.5288 24.0773 20.075 23.3031C18.7933 20.5466 19.7727 16.565 20.707 13.8466C20.987 13.0949 21.3168 12.3979 21.8203 11.7684C21.8513 11.7255 21.8823 11.6825 21.9142 11.6383C22.1928 11.2678 22.5717 11.0232 23.0078 10.8778C23.712 10.8038 24.1507 10.9229 24.7021 11.3553C25.7051 12.2612 26.1324 13.7011 26.4961 14.9598C26.522 15.0474 26.5479 15.1349 26.5747 15.2251C26.7298 15.7738 26.8474 16.3245 26.9507 16.8849C26.9625 16.9485 26.9742 17.0121 26.9864 17.0776C27.1647 18.0828 27.266 19.0669 27.2658 20.087C27.2661 20.2615 27.2688 20.4359 27.2716 20.6105C27.2804 21.8068 27.1053 23.1313 26.2566 24.0447C25.6615 24.5795 24.9182 24.8309 24.1211 24.8309C24.1211 25.4432 24.1211 26.0555 24.1211 26.6864C26.5948 26.6864 29.0685 26.6864 31.6172 26.6864C31.6172 26.0741 31.6172 25.4618 31.6172 24.8309C31.3723 24.8064 31.1273 24.7819 30.875 24.7567C30.0682 24.5586 29.5137 24.1645 29.0592 23.473C28.5024 22.4925 28.4719 21.4205 28.4768 20.3221C28.4769 20.2614 28.477 20.2007 28.4771 20.1381C28.4804 19.1392 28.5444 18.1708 28.7227 17.1864C28.7382 17.0944 28.7382 17.0944 28.754 17.0006C29.0929 15.0007 29.6548 12.3523 31.3844 11.0723C31.8057 10.822 32.253 10.8141 32.7305 10.8778C33.5849 11.145 34.1048 11.9042 34.5159 12.6535C35.942 15.423 36.792 19.783 35.8291 22.8177C35.5539 23.5943 35.0933 24.1919 34.3401 24.5526C33.8921 24.7367 33.4369 24.8309 32.9531 24.8309C32.9531 25.4432 32.9531 26.0555 32.9531 26.6864C34.6186 26.6864 36.2841 26.6864 38 26.6864C38 27.1273 38 27.5681 38 28.0223C25.46 28.0223 12.92 28.0223 0 28.0223C0 27.5815 0 27.1406 0 26.6864C1.66547 26.6864 3.33094 26.6864 5.04688 26.6864C5.04688 26.0741 5.04688 25.4618 5.04688 24.8309C4.80195 24.8064 4.55703 24.7819 4.30469 24.7567C3.48797 24.5425 2.90631 24.1379 2.43501 23.4379C1.07652 20.9926 1.98799 17.2141 2.69507 14.7094C3.00684 13.6518 3.39157 12.6396 4.08203 11.7684C4.12795 11.7011 4.17388 11.6337 4.22119 11.5643C4.7837 10.9687 5.54112 10.6715 6.34628 10.9398ZM4.89844 12.8817C3.43194 15.4536 2.75242 19.3225 3.38362 22.211C3.5149 22.6685 3.73819 23.0455 4.161 23.2849C4.68482 23.5091 5.15402 23.5399 5.71948 23.5321C5.80257 23.5333 5.88567 23.5344 5.97128 23.5356C6.59588 23.5327 7.0645 23.4246 7.5564 23.0311C8.19338 22.2304 8.19448 21.2918 8.19189 20.3082C8.19188 20.253 8.19186 20.1979 8.19185 20.141C8.18881 19.0633 8.07799 18.0217 7.86719 16.9637C7.85329 16.8939 7.83939 16.824 7.82508 16.7521C7.56948 15.511 7.2219 14.2704 6.63794 13.1415C6.5988 13.0649 6.5988 13.0649 6.55886 12.9867C6.37471 12.6497 6.18424 12.4285 5.86328 12.2137C5.37353 12.1142 5.15211 12.5194 4.89844 12.8817ZM13.8795 12.7199C12.8834 14.4683 12.4502 16.3952 12.1719 18.3739C12.1641 18.4258 12.1564 18.4777 12.1484 18.5312C12.0797 19.0483 12.0812 19.569 12.0798 20.0898C12.0791 20.2515 12.0768 20.4131 12.0745 20.5748C12.0683 21.3871 12.1206 22.2938 12.6172 22.9755C13.1736 23.5061 13.805 23.5202 14.5376 23.5182C14.6652 23.52 14.6652 23.52 14.7953 23.5218C15.4657 23.5222 16.0055 23.4355 16.5111 22.9633C17.3437 21.9675 17.1189 20.1521 17.0193 18.9398C16.8153 16.7799 16.4229 13.9951 14.9148 12.3155C14.7735 12.2018 14.7735 12.2018 14.5895 12.1792C14.2456 12.2413 14.0756 12.4423 13.8795 12.7199ZM22.7883 12.6521C21.1524 15.1295 20.4966 19.194 21.0781 22.0848C21.2201 22.6414 21.4676 23.0461 21.9688 23.3466C22.4494 23.5358 22.9325 23.5222 23.4438 23.5228C23.5279 23.5246 23.612 23.5265 23.6987 23.5283C24.3311 23.5305 24.7964 23.4297 25.2947 23.0311C25.9234 22.2407 25.9328 21.3243 25.9302 20.35C25.9302 20.2967 25.9301 20.2434 25.9301 20.1884C25.9229 17.7118 25.5106 14.202 23.75 12.288C23.2763 12.0824 23.0784 12.2886 22.7883 12.6521ZM31.5201 12.8423C31.466 12.9413 31.4134 13.041 31.3621 13.1415C31.3338 13.1962 31.3055 13.2509 31.2763 13.3072C30.7062 14.4509 30.3812 15.7152 30.1328 16.9637C30.1182 17.0373 30.1035 17.1109 30.0884 17.1867C29.8906 18.2222 29.8073 19.2423 29.8035 20.2943C29.803 20.3471 29.8026 20.4 29.8021 20.4544C29.7969 21.3791 29.8229 22.4201 30.5039 23.1239C31.0592 23.5015 31.5996 23.5128 32.2527 23.5182C32.3375 23.5203 32.4223 23.5225 32.5097 23.5247C33.1027 23.5291 33.6646 23.4756 34.1336 23.0783C34.787 22.4073 34.8112 21.2957 34.8271 20.4149C34.7828 17.9518 34.4677 14.301 32.7258 12.3854C32.5272 12.2062 32.5272 12.2062 32.3223 12.1627C31.9593 12.2625 31.7103 12.5282 31.5201 12.8423Z" fill="#379DFE"/>
<path d="M0 36.7802C12.54 36.7802 25.08 36.7802 38 36.7802C38 37.221 38 37.6619 38 38.1161C25.46 38.1161 12.92 38.1161 0 38.1161C0 37.6752 0 37.2344 0 36.7802Z" fill="#379DFE"/>
<path d="M7.01463 0.308564C7.89432 0.803389 7.89432 0.803389 8.11544 1.17107C8.23928 1.33133 8.23928 1.33133 8.49987 1.34096C8.60316 1.34347 8.70648 1.34487 8.8098 1.34531C9.60617 1.3734 10.2468 1.59915 10.8192 2.17795C11.2835 2.74868 11.4835 3.39863 11.4541 4.12996C11.3668 4.93577 11.0122 5.52147 10.3858 6.03008C9.78473 6.44178 9.17102 6.5097 8.46101 6.51201C8.39517 6.5125 8.32933 6.51298 8.2615 6.51349C8.04447 6.51494 7.82744 6.51582 7.61041 6.51656C7.4986 6.51701 7.4986 6.51701 7.38454 6.51747C6.98978 6.51902 6.59503 6.52008 6.20027 6.52078C5.79468 6.5216 5.38913 6.52415 4.98355 6.5271C4.66982 6.52905 4.3561 6.52966 4.04237 6.52993C3.89298 6.53029 3.74359 6.53114 3.59421 6.53253C2.56176 6.5415 1.56814 6.54441 0.738506 5.83525C0.128928 5.18758 -0.0449914 4.46672 -0.0213669 3.6026C0.0359594 2.8447 0.399374 2.31915 0.965801 1.82309C1.35351 1.57881 1.76311 1.36703 2.22839 1.37053C2.3127 1.37089 2.3127 1.37089 2.39872 1.37125C2.45703 1.37188 2.51534 1.3725 2.57542 1.37314C2.63459 1.37347 2.69377 1.37381 2.75473 1.37415C2.90061 1.37503 3.04649 1.37636 3.19236 1.37778C3.21159 1.33406 3.23082 1.29033 3.25064 1.24529C3.90986 0.043421 5.85985 -0.196651 7.01463 0.308564ZM4.27317 2.08286C4.15225 2.23704 4.06616 2.37555 3.9763 2.55136C3.86033 2.71372 3.86033 2.71372 3.61448 2.8204C3.30733 2.86726 3.18378 2.81547 2.89549 2.71372C2.52365 2.6699 2.24113 2.6698 1.90281 2.83896C1.63746 3.07273 1.36008 3.32223 1.31921 3.68871C1.30569 4.1532 1.35024 4.41877 1.63377 4.79184C2.08711 5.15073 2.44446 5.17411 3.0066 5.17489C3.10187 5.17545 3.10187 5.17545 3.19907 5.17601C3.40906 5.17709 3.61904 5.1776 3.82902 5.17801C3.97527 5.17844 4.12152 5.17886 4.26777 5.17929C4.57448 5.18007 4.88119 5.18051 5.1879 5.18076C5.58004 5.18117 5.97217 5.18295 6.3643 5.18507C6.66649 5.18645 6.96868 5.18684 7.27087 5.18695C7.41539 5.18717 7.5599 5.18777 7.70442 5.18874C7.90708 5.19002 8.1097 5.18987 8.31237 5.18939C8.40112 5.19041 8.40112 5.19041 8.49166 5.19146C8.9456 5.18811 9.36862 5.11274 9.72796 4.81271C9.76173 4.76909 9.79551 4.72546 9.8303 4.68051C9.88297 4.61507 9.88297 4.61507 9.9367 4.54831C10.1271 4.25847 10.1467 3.93932 10.0947 3.60434C9.94268 3.22734 9.71654 2.94007 9.34904 2.75952C8.97599 2.64164 8.63332 2.68187 8.26707 2.80185C8.00874 2.86404 7.86625 2.8606 7.62664 2.74213C7.40138 2.56373 7.26815 2.31824 7.11349 2.07909C6.86694 1.74947 6.54566 1.58018 6.16111 1.452C5.4096 1.37193 4.78934 1.50328 4.27317 2.08286Z" fill="#379DFE"/>
<path d="M34.2934 0.745469C34.4857 0.895333 34.65 1.04443 34.8092 1.22934C34.8092 1.27832 34.8092 1.32731 34.8092 1.37778C34.9329 1.37261 34.9329 1.37261 35.0591 1.36734C35.9277 1.34144 36.5167 1.40864 37.2074 1.9808C37.7006 2.44918 38.0038 3.0268 38.0223 3.71161C38.0302 4.54666 37.8545 5.21225 37.2584 5.8309C36.3716 6.59472 35.3104 6.53138 34.2079 6.52583C34.0559 6.52579 33.9039 6.52583 33.752 6.52595C33.4347 6.52594 33.1174 6.52517 32.8001 6.52382C32.3948 6.52214 31.9895 6.5221 31.5841 6.5226C31.2707 6.52285 30.9573 6.52235 30.6439 6.52162C30.4945 6.52134 30.3451 6.52125 30.1957 6.52137C29.9865 6.5214 29.7773 6.52046 29.5682 6.51926C29.4769 6.51953 29.4769 6.51953 29.3838 6.51981C28.559 6.51231 27.8604 6.30535 27.2528 5.72885C26.7019 5.13839 26.531 4.47944 26.548 3.68494C26.622 2.94512 26.9793 2.30803 27.5511 1.83643C28.1183 1.43643 28.6552 1.35043 29.333 1.36183C29.5069 1.36176 29.5069 1.36176 29.7623 1.30356C29.9652 1.09771 29.9652 1.09771 30.1334 0.858246C31.3981 -0.128593 32.9768 -0.188243 34.2934 0.745469ZM30.8107 2.16171C30.7726 2.21692 30.7345 2.27212 30.6953 2.32899C30.5287 2.56066 30.3769 2.75291 30.1056 2.85287C29.9108 2.86215 29.9108 2.86215 29.7067 2.79257C29.3056 2.66147 28.9493 2.65929 28.5516 2.80185C28.333 2.94931 28.2037 3.09022 28.0553 3.30746C28.0094 3.37405 28.0094 3.37405 27.9625 3.44199C27.8448 3.78544 27.8716 4.09436 27.9857 4.43002C28.2294 4.79168 28.5109 5.07422 28.9459 5.16293C29.1594 5.17072 29.3711 5.1746 29.5845 5.17489C29.6811 5.17545 29.6811 5.17545 29.7796 5.17601C29.9923 5.17709 30.2051 5.1776 30.4178 5.17801C30.5659 5.17844 30.714 5.17886 30.8621 5.17929C31.1726 5.18007 31.4831 5.1805 31.7936 5.18076C32.191 5.18117 32.5882 5.18295 32.9855 5.18507C33.2915 5.18645 33.5974 5.18683 33.9034 5.18695C34.0498 5.18717 34.1963 5.18777 34.3427 5.18874C34.5479 5.19001 34.753 5.18987 34.9582 5.18939C35.0483 5.19041 35.0483 5.19041 35.1404 5.19146C35.6295 5.18788 35.9753 5.0875 36.3539 4.75937C36.6478 4.41508 36.698 4.15943 36.6881 3.71335C36.6413 3.34778 36.4397 3.1482 36.173 2.91318C35.8248 2.66578 35.5242 2.68542 35.1061 2.71371C35.0142 2.74127 34.9224 2.76882 34.8278 2.79721C34.5236 2.87911 34.415 2.87101 34.1412 2.71371C34.0187 2.55254 33.9134 2.3852 33.807 2.21303C33.5542 1.83229 33.1779 1.56061 32.7311 1.452C31.9382 1.34994 31.3105 1.51856 30.8107 2.16171Z" fill="#379DFE"/>
<path d="M20.8372 0.617027C21.5077 1.09596 22.0012 1.8008 22.1705 2.6163C22.29 3.58462 22.1495 4.43777 21.5693 5.2354C21.0239 5.9194 20.3445 6.34567 19.4668 6.4806C18.4773 6.58716 17.6092 6.32091 16.8343 5.7013C16.2501 5.17007 15.8543 4.38576 15.7903 3.59853C15.7545 2.58174 16.0139 1.76649 16.6995 1.00668C17.8488 -0.0875775 19.5013 -0.201997 20.8372 0.617027ZM17.5577 2.06893C17.2296 2.50023 17.0947 2.94493 17.1147 3.48692C17.2031 4.04898 17.5088 4.4869 17.9491 4.83561C18.3951 5.12626 18.815 5.20858 19.3407 5.13046C19.9265 4.99395 20.2867 4.68294 20.6331 4.19808C20.9059 3.72287 20.9347 3.26876 20.8097 2.74212C20.6081 2.15268 20.2481 1.84334 19.7239 1.53085C18.9095 1.30008 18.1468 1.43784 17.5577 2.06893Z" fill="#379DFE"/>
<path d="M32.2852 31.7333C33.5588 31.7333 34.8323 31.7333 36.1445 31.7333C36.1445 32.1741 36.1445 32.615 36.1445 33.0692C34.8709 33.0692 33.5973 33.0692 32.2852 33.0692C32.2852 32.6284 32.2852 32.1875 32.2852 31.7333Z" fill="#379DFE"/>
<path d="M24.6406 31.7333C25.9142 31.7333 27.1878 31.7333 28.5 31.7333C28.5 32.1741 28.5 32.615 28.5 33.0692C27.2264 33.0692 25.9528 33.0692 24.6406 33.0692C24.6406 32.6284 24.6406 32.1875 24.6406 31.7333Z" fill="#379DFE"/>
<path d="M17.0703 31.7333C18.3439 31.7333 19.6175 31.7333 20.9297 31.7333C20.9297 32.1741 20.9297 32.615 20.9297 33.0692C19.6561 33.0692 18.3825 33.0692 17.0703 33.0692C17.0703 32.6284 17.0703 32.1875 17.0703 31.7333Z" fill="#379DFE"/>
<path d="M9.5 31.7333C10.7736 31.7333 12.0472 31.7333 13.3594 31.7333C13.3594 32.1741 13.3594 32.615 13.3594 33.0692C12.0858 33.0692 10.8122 33.0692 9.5 33.0692C9.5 32.6284 9.5 32.1875 9.5 31.7333Z" fill="#379DFE"/>
<path d="M1.85547 31.7333C3.12906 31.7333 4.40266 31.7333 5.71484 31.7333C5.71484 32.1741 5.71484 32.615 5.71484 33.0692C4.44125 33.0692 3.16766 33.0692 1.85547 33.0692C1.85547 32.6284 1.85547 32.1875 1.85547 31.7333Z" fill="#379DFE"/>
</g>
<defs>
<clipPath id="clip0_1237_1083">
<rect width="38" height="38" fill="white" transform="translate(0 0.116089)"/>
</clipPath>
</defs>
</svg>
