<svg width="38" height="39" viewBox="0 0 38 39" fill="none" xmlns="http://www.w3.org/2000/svg">
<path d="M9.1918 16.7515C9.42734 16.8457 9.63744 16.8177 9.88934 16.806C10.343 16.7959 10.695 16.8221 11.0583 17.1122C11.7396 17.778 11.8768 18.6816 11.8979 19.5985C11.8901 21.1715 11.5104 22.896 10.4367 24.0887C10.0883 24.4963 10.0804 24.9042 10.0934 25.4247C10.2058 25.4202 10.2058 25.4202 10.3204 25.4157C11.349 25.4473 12.3553 26.0592 13.09 26.7467C13.6374 27.3387 14.019 27.9934 14.2497 28.7645C14.2859 28.7384 14.322 28.7123 14.3593 28.6854C15.1953 28.1032 15.9928 27.7371 16.9958 27.577C17.0493 27.1925 17.099 26.8338 16.8679 26.5037C16.7508 26.386 16.6331 26.2689 16.5148 26.1524C15.8758 25.441 15.6215 24.4852 15.4372 23.5692C15.4205 23.4942 15.4039 23.4192 15.3867 23.3419C15.125 22.0796 15.4134 20.9993 16.1052 19.9325C16.5835 19.2795 17.1725 18.8115 17.9606 18.5965C18.7729 18.5228 19.4926 18.5788 20.1872 19.0419C20.3792 19.0429 20.5663 19.0376 20.7577 19.0279C21.1855 19.0175 21.5102 19.031 21.8545 19.3042C21.8921 19.3401 21.9297 19.376 21.9684 19.4129C22.0358 19.4757 22.1031 19.5385 22.1725 19.6031C22.8321 20.4632 22.793 21.7832 22.6738 22.8076C22.5054 24.0588 22.1624 25.4141 21.2262 26.3199C20.9783 26.5769 20.9715 26.7794 20.9711 27.1317C20.9794 27.2803 20.9894 27.4289 21.0036 27.577C21.0954 27.5908 21.0954 27.5908 21.1891 27.6048C21.7272 27.7009 22.1825 27.8416 22.6689 28.0873C22.7411 28.1237 22.7411 28.1237 22.8148 28.1609C23.148 28.3358 23.4474 28.5406 23.7497 28.7645C23.7702 28.6929 23.7702 28.6929 23.7911 28.6198C24.1783 27.4136 25.0257 26.4568 26.1376 25.862C26.6995 25.5873 27.2757 25.3989 27.9059 25.4247C27.9302 24.8427 27.9302 24.8427 27.732 24.3166C27.6434 24.2389 27.5537 24.1623 27.4632 24.0867C26.4889 23.1423 26.1401 21.4016 26.0969 20.0948C26.1387 19.0234 26.6292 17.9543 27.3713 17.1815C28.0703 16.568 28.7196 16.3338 29.6437 16.3456C30.08 16.3855 30.4897 16.5211 30.8637 16.7515C31.0992 16.8457 31.3093 16.8177 31.5612 16.806C32.0149 16.7959 32.3669 16.8221 32.7302 17.1122C33.4114 17.778 33.5487 18.6816 33.5698 19.5985C33.562 21.1715 33.1823 22.896 32.1086 24.0887C31.7601 24.4963 31.7523 24.9042 31.7653 25.4247C31.8398 25.4214 31.9144 25.4182 31.9912 25.4148C33.109 25.4523 34.1301 26.1291 34.8825 26.909C35.7123 27.8644 36.0936 28.8752 36.0923 30.13C36.0926 30.201 36.093 30.272 36.0933 30.3452C36.0937 30.494 36.0938 30.6428 36.0934 30.7916C36.0932 31.0198 36.0949 31.2479 36.0968 31.4761C36.097 31.6212 36.097 31.7662 36.097 31.9113C36.0976 31.9795 36.0983 32.0476 36.099 32.1179C36.0983 32.2127 36.0983 32.2127 36.0976 32.3094C36.0977 32.3649 36.0977 32.4204 36.0978 32.4776C36.0608 32.6721 36.0046 32.7269 35.8473 32.8465C35.6542 32.8739 35.6542 32.8739 35.4176 32.8733C35.328 32.8736 35.2384 32.8739 35.1461 32.8742C35.0467 32.8735 34.9472 32.8726 34.8478 32.8718C34.7432 32.8718 34.6386 32.8718 34.534 32.8719C34.2499 32.872 33.9658 32.8707 33.6816 32.8691C33.3848 32.8677 33.0879 32.8676 32.791 32.8673C32.2288 32.8666 31.6666 32.8648 31.1043 32.8626C30.4643 32.8601 29.8242 32.8589 29.1842 32.8577C27.8675 32.8554 26.5508 32.8515 25.2341 32.8465C25.2364 32.9358 25.2364 32.9358 25.2388 33.027C25.2449 33.2962 25.2488 33.5653 25.2526 33.8346C25.2551 33.9283 25.2576 34.022 25.2602 34.1186C25.2611 34.2082 25.2621 34.2979 25.2631 34.3903C25.2646 34.4731 25.2662 34.5559 25.2678 34.6412C25.2341 34.8504 25.2341 34.8504 25.1141 34.9888C24.8829 35.099 24.7089 35.1011 24.4527 35.1014C24.4041 35.1017 24.3556 35.1021 24.3056 35.1024C24.1431 35.1033 23.9806 35.1026 23.8181 35.1019C23.7016 35.1022 23.585 35.1026 23.4684 35.1031C23.1519 35.1041 22.8355 35.1037 22.519 35.103C22.1879 35.1024 21.8568 35.103 21.5257 35.1033C20.9696 35.1037 20.4136 35.1032 19.8576 35.1021C19.2145 35.1009 18.5715 35.1013 17.9285 35.1025C17.3766 35.1035 16.8247 35.1037 16.2728 35.1031C15.9431 35.1028 15.6134 35.1027 15.2837 35.1034C14.9737 35.1041 14.6638 35.1036 14.3539 35.1024C14.24 35.1021 14.1262 35.1021 14.0124 35.1026C13.8572 35.1032 13.702 35.1025 13.5467 35.1014C13.4598 35.1013 13.3729 35.1012 13.2833 35.1011C13.0344 35.0696 12.9299 35.0403 12.7653 34.8504C12.7316 34.6412 12.7316 34.6412 12.7363 34.3903C12.7373 34.3007 12.7382 34.211 12.7392 34.1186C12.743 33.978 12.743 33.978 12.7468 33.8346C12.7481 33.74 12.7494 33.6454 12.7508 33.548C12.7543 33.3141 12.7592 33.0804 12.7653 32.8465C12.7108 32.8467 12.6563 32.847 12.6002 32.8472C11.2753 32.8521 9.95037 32.8558 8.62545 32.8581C7.98473 32.8592 7.34402 32.8608 6.70331 32.8633C6.14498 32.8656 5.58664 32.867 5.0283 32.8675C4.73257 32.8678 4.43684 32.8685 4.14111 32.8701C3.8629 32.8716 3.5847 32.8721 3.30648 32.8717C3.20425 32.8718 3.10201 32.8722 2.99978 32.8731C2.86043 32.8742 2.72108 32.8738 2.58173 32.8733C2.50367 32.8735 2.42561 32.8737 2.34518 32.8739C2.15203 32.8465 2.15203 32.8465 2.01561 32.7426C1.90511 32.5905 1.90117 32.5001 1.90056 32.313C1.89986 32.2505 1.89916 32.188 1.89844 32.1236C1.89889 32.0561 1.89934 31.9886 1.8998 31.9191C1.89959 31.849 1.89938 31.779 1.89916 31.7068C1.89901 31.5581 1.89942 31.4095 1.90035 31.2608C1.90153 31.036 1.90036 30.8113 1.89893 30.5865C1.89711 29.0009 2.24909 27.8326 3.35751 26.6586C4.03474 26.0013 5.05142 25.4185 6.02068 25.4107C6.0911 25.4153 6.16151 25.4199 6.23406 25.4247C6.25833 24.8427 6.25833 24.8427 6.06011 24.3166C5.97149 24.2389 5.88182 24.1623 5.79136 24.0867C4.81579 23.1411 4.46784 21.3984 4.42498 20.0902C4.46505 19.0621 4.98163 17.9165 5.69946 17.1788C6.70219 16.3148 8.01057 16.0238 9.1918 16.7515ZM6.08562 18.077C5.56706 18.8096 5.29288 19.4808 5.34344 20.3778C6.52796 20.1742 7.47342 19.617 8.29827 18.7496C8.44548 18.5996 8.53713 18.5212 8.72967 18.4295C9.05906 18.4642 9.22235 18.7538 9.42286 18.9937C9.85279 19.4939 10.316 19.9449 10.9841 20.0809C11.0316 18.9309 11.0316 18.9309 10.6037 17.8822C10.3472 17.6703 10.2205 17.664 9.8989 17.683C9.7148 17.7032 9.7148 17.7032 9.50983 17.7607C9.19707 17.7868 9.04627 17.6843 8.77605 17.5296C7.70439 16.9536 6.88585 17.1763 6.08562 18.077ZM27.7575 18.077C27.2389 18.8096 26.9648 19.4808 27.0153 20.3778C28.1998 20.1742 29.1453 19.617 29.9701 18.7496C30.1174 18.5996 30.209 18.5212 30.4015 18.4295C30.7309 18.4642 30.8942 18.7538 31.0947 18.9937C31.5247 19.4939 31.9878 19.9449 32.6559 20.0809C32.7034 18.9309 32.7034 18.9309 32.2756 17.8822C32.0191 17.6703 31.8924 17.664 31.5708 17.683C31.3867 17.7032 31.3867 17.7032 31.1817 17.7607C30.8689 17.7868 30.7181 17.6843 30.4479 17.5296C29.3763 16.9536 28.5577 17.1763 27.7575 18.077ZM16.9216 20.3036C16.424 20.9638 16.125 21.7012 16.1794 22.5301C17.4333 22.4674 18.3444 21.7286 19.2223 20.8973C19.2584 20.8541 19.2945 20.8108 19.3316 20.7663C19.445 20.6747 19.445 20.6747 19.6184 20.6303C19.9231 20.6987 20.0529 20.9245 20.2336 21.1617C20.655 21.685 21.1339 22.1725 21.82 22.3075C21.8898 21.1099 21.8898 21.1099 21.3782 20.0629C21.1804 19.8931 21.0386 19.8744 20.7809 19.8583C20.6814 19.8807 20.5825 19.9056 20.4841 19.9325C20.0123 19.9999 19.7301 19.8268 19.3374 19.5918C18.4097 19.0789 17.5599 19.6128 16.9216 20.3036ZM8.35366 19.8253C7.48677 20.5471 6.58945 20.9467 5.49187 21.1942C5.54348 22.0715 5.92323 22.8123 6.45672 23.495C6.51336 23.5746 6.56999 23.6542 6.62835 23.7362C7.03363 24.1509 7.55276 24.4655 8.14056 24.483C8.72507 24.4745 9.14568 24.203 9.56811 23.8139C10.2734 23.0344 10.7819 22.0277 10.8356 20.9715C10.7684 20.9401 10.7011 20.9086 10.6318 20.8762C9.92742 20.5397 9.31245 20.196 8.83172 19.5614C8.61379 19.5614 8.51445 19.6914 8.35366 19.8253ZM30.0255 19.8253C29.1586 20.5471 28.2613 20.9467 27.1637 21.1942C27.2703 22.2822 27.7629 23.3104 28.6087 24.0197C29.1233 24.3748 29.5794 24.5357 30.2067 24.4598C31.0978 24.1888 31.6428 23.3853 32.0622 22.6044C32.3164 22.0663 32.4773 21.5664 32.5075 20.9715C32.4411 20.9409 32.3747 20.9103 32.3063 20.8788C31.6799 20.5825 31.0246 20.2644 30.6042 19.6921C30.571 19.649 30.5378 19.6058 30.5036 19.5614C30.2857 19.5614 30.1863 19.6914 30.0255 19.8253ZM19.2009 22.0481C18.3603 22.7565 17.4131 23.22 16.3278 23.4208C16.4093 24.3819 16.8845 25.3584 17.5895 26.0184C17.6323 26.06 17.6751 26.1017 17.7191 26.1445C18.1282 26.5208 18.5537 26.7376 19.1186 26.7174C19.795 26.5995 20.3486 26.1446 20.7438 25.6056C21.223 24.8921 21.7419 24.0144 21.6716 23.1239C21.6257 23.1076 21.5799 23.0914 21.5327 23.0746C20.8256 22.8098 20.3019 22.456 19.7886 21.9022C19.5427 21.6699 19.4196 21.8627 19.2009 22.0481ZM9.05669 25.1023C8.34124 25.3408 7.7782 25.2979 7.05047 25.1278C7.00973 25.7566 7.00973 25.7566 7.1618 26.357C7.44209 26.6303 7.71279 26.819 8.11243 26.8467C8.49517 26.8202 8.75837 26.7175 9.05437 26.4637C9.2866 26.1568 9.3016 25.9298 9.29095 25.5499C9.28894 25.4568 9.28693 25.3637 9.28486 25.2678C9.28228 25.1971 9.27969 25.1264 9.27703 25.0536C9.18888 25.0497 9.18888 25.0497 9.05669 25.1023ZM30.7286 25.1023C30.0131 25.3408 29.4501 25.2979 28.7223 25.1278C28.6816 25.7566 28.6816 25.7566 28.8337 26.357C29.114 26.6303 29.3847 26.819 29.7843 26.8467C30.167 26.8202 30.4302 26.7175 30.7262 26.4637C30.9585 26.1568 30.9735 25.9298 30.9628 25.5499C30.9608 25.4568 30.9588 25.3637 30.9567 25.2678C30.9542 25.1971 30.9516 25.1264 30.9489 25.0536C30.8608 25.0497 30.8608 25.0497 30.7286 25.1023ZM3.91009 27.3358C3.13833 28.154 2.73372 29.1346 2.73853 30.2599C2.73864 30.3087 2.73874 30.3575 2.73885 30.4078C2.73926 30.562 2.74019 30.7162 2.74114 30.8705C2.74152 30.9757 2.74185 31.0809 2.74216 31.1862C2.74291 31.4428 2.74436 31.6993 2.74578 31.9559C3.33359 31.9559 3.92141 31.9559 4.52703 31.9559C4.53378 31.7322 4.53378 31.7322 4.54066 31.5039C4.5453 31.36 4.54995 31.2161 4.55466 31.0721C4.55788 30.9718 4.56098 30.8716 4.56394 30.7713C4.56822 30.6274 4.57298 30.4835 4.57777 30.3396C4.58049 30.253 4.58321 30.1663 4.58601 30.077C4.60125 29.8778 4.60125 29.8778 4.67547 29.8036C4.93523 29.7943 4.93523 29.7943 5.195 29.8036C5.70352 30.3121 5.31777 31.2372 5.34344 31.9559C7.20484 31.9559 9.06625 31.9559 10.9841 31.9559C11.0086 31.2701 11.033 30.5844 11.0583 29.8778C11.1325 29.8036 11.1325 29.8036 11.3923 29.7943C11.652 29.8036 11.652 29.8036 11.7262 29.8778C11.738 30.0315 11.7449 30.1856 11.7497 30.3396C11.7528 30.4331 11.756 30.5267 11.7592 30.623C11.7621 30.7225 11.7651 30.822 11.768 30.9215C11.7712 31.0213 11.7744 31.1211 11.7777 31.2208C11.7856 31.4658 11.7931 31.7109 11.8005 31.9559C12.1189 31.9559 12.4373 31.9559 12.7653 31.9559C12.7816 31.8752 12.7978 31.7944 12.8146 31.7112C12.9282 31.1761 13.0423 30.6887 13.3034 30.2025C13.5203 29.7967 13.5819 29.5501 13.4553 29.0973C13.1284 28.1055 12.5448 27.2642 11.6288 26.7328C11.1774 26.5058 10.6063 26.2411 10.0934 26.2411C10.069 26.2948 10.0446 26.3486 10.0195 26.404C9.7611 26.9292 9.50708 27.2398 8.98016 27.5028C8.47806 27.6702 7.70278 27.681 7.2221 27.4518C6.73779 27.1459 6.48952 26.74 6.23406 26.2411C5.39682 26.2411 4.49612 26.7778 3.91009 27.3358ZM25.5495 27.359C24.9687 27.9681 24.5857 28.6858 24.4548 29.5206C24.4924 29.8076 24.5603 29.9514 24.696 30.2025C24.9951 30.7596 25.1103 31.3414 25.2341 31.9559C25.5525 31.9559 25.8709 31.9559 26.1989 31.9559C26.2057 31.7322 26.2057 31.7322 26.2125 31.5039C26.2172 31.36 26.2218 31.2161 26.2265 31.0721C26.2298 30.9718 26.2329 30.8716 26.2358 30.7713C26.2401 30.6274 26.2449 30.4835 26.2496 30.3396C26.2524 30.253 26.2551 30.1663 26.2579 30.077C26.2731 29.8778 26.2731 29.8778 26.3473 29.8036C26.6071 29.7943 26.6071 29.7943 26.8669 29.8036C27.3754 30.3121 26.9896 31.2372 27.0153 31.9559C28.8767 31.9559 30.7381 31.9559 32.6559 31.9559C32.6804 31.2701 32.7049 30.5844 32.7302 29.8778C32.8044 29.8036 32.8044 29.8036 33.0641 29.7943C33.3239 29.8036 33.3239 29.8036 33.3981 29.8778C33.4099 30.0315 33.4168 30.1856 33.4216 30.3396C33.4247 30.4331 33.4278 30.5267 33.431 30.623C33.434 30.7225 33.4369 30.822 33.4399 30.9215C33.4431 31.0213 33.4463 31.1211 33.4496 31.2208C33.4575 31.4658 33.465 31.7109 33.4723 31.9559C34.0602 31.9559 34.648 31.9559 35.2536 31.9559C35.257 31.6643 35.26 31.3728 35.2617 31.0812C35.2628 30.9343 35.2647 30.7873 35.2666 30.6404C35.2732 29.3483 35.0118 28.3156 34.0887 27.3677C33.431 26.7456 32.6904 26.3056 31.7653 26.2411C31.7409 26.2948 31.7165 26.3486 31.6914 26.404C31.433 26.9292 31.179 27.2398 30.652 27.5028C30.1499 27.6702 29.3747 27.681 28.894 27.4518C28.4097 27.1459 28.1614 26.74 27.9059 26.2411C27.0497 26.2411 26.1508 26.7953 25.5495 27.359ZM17.8864 27.2801C17.8428 27.9486 17.8428 27.9486 17.9977 28.5882C18.2803 28.8567 18.5503 29.0457 18.9484 29.0733C19.3311 29.0468 19.5943 28.944 19.8903 28.6903C20.1225 28.3834 20.1375 28.1564 20.1269 27.7765C20.1249 27.6834 20.1229 27.5903 20.1208 27.4944C20.1182 27.4237 20.1156 27.353 20.113 27.2801C20.059 27.2971 20.0051 27.314 19.9495 27.3314C19.2178 27.5406 18.6046 27.5376 17.8864 27.2801ZM14.695 29.5809C13.7652 30.6675 13.5549 31.7258 13.5724 33.1156C13.5732 33.2195 13.5739 33.3234 13.5745 33.4272C13.5762 33.679 13.5789 33.9307 13.5817 34.1825C14.1695 34.1825 14.7573 34.1825 15.363 34.1825C15.3657 34.0342 15.3685 33.8859 15.3714 33.7331C15.375 33.5897 15.3786 33.4462 15.3824 33.3028C15.3861 33.1539 15.3887 33.005 15.3912 32.8561C15.3939 32.7628 15.3965 32.6695 15.3992 32.5734C15.4012 32.4872 15.4031 32.4009 15.4051 32.312C15.4157 32.2435 15.4263 32.1749 15.4372 32.1044C15.6598 31.9559 15.6598 31.9559 15.8547 31.9791C16.0309 32.0301 16.0309 32.0301 16.1052 32.1044C16.1296 32.7901 16.1541 33.4759 16.1794 34.1825C18.0408 34.1825 19.9022 34.1825 21.82 34.1825C21.8445 33.4967 21.869 32.8109 21.8942 32.1044C22.1169 31.9559 22.1169 31.9559 22.3117 31.9791C22.488 32.0301 22.488 32.0301 22.5622 32.1044C22.5739 32.258 22.5808 32.4121 22.5857 32.5662C22.5888 32.6597 22.5919 32.7532 22.5951 32.8496C22.598 32.9491 22.601 33.0486 22.6039 33.1481C22.6071 33.2478 22.6104 33.3476 22.6136 33.4474C22.6216 33.6924 22.629 33.9374 22.6364 34.1825C23.2242 34.1825 23.812 34.1825 24.4177 34.1825C24.4228 33.883 24.4272 33.5837 24.4299 33.2842C24.431 33.1828 24.4325 33.0814 24.4345 32.98C24.4575 31.7506 24.2423 30.5624 23.3719 29.6316C22.6667 29.0101 21.88 28.5521 20.9294 28.4676C20.8982 28.5322 20.8982 28.5322 20.8665 28.5981C20.5975 29.1222 20.2538 29.5547 19.6827 29.7682C19.058 29.9033 18.4516 29.8712 17.8954 29.5479C17.503 29.2602 17.2651 28.9119 17.07 28.4676C16.1747 28.4676 15.35 29.0172 14.695 29.5809Z" fill="#379DFE"/>
<path d="M18.2572 3.14401C18.3444 3.14338 18.3444 3.14338 18.4333 3.14273C18.5562 3.14203 18.6791 3.14154 18.802 3.14126C18.9895 3.14054 19.177 3.13823 19.3644 3.13589C19.484 3.13541 19.6035 3.13502 19.7231 3.13473C19.8068 3.13336 19.8068 3.13336 19.8922 3.13196C20.2273 3.13337 20.4422 3.17239 20.707 3.38174C20.8853 3.64906 20.888 3.86481 20.9019 4.17496C20.9047 4.22705 20.9076 4.27914 20.9106 4.33282C20.9175 4.46107 20.9237 4.58938 20.9297 4.71768C20.9845 4.73844 21.0393 4.7592 21.0958 4.78059C21.715 5.02527 22.2738 5.32534 22.8 5.73558C22.9245 5.84494 22.9245 5.84494 23.0681 5.82632C23.2489 5.75424 23.2489 5.75424 23.4671 5.60367C23.7299 5.4505 23.9534 5.42005 24.2539 5.40594C24.7551 5.57066 25.0443 6.31092 25.2886 6.73469C25.3643 6.86535 25.4412 6.99517 25.5182 7.12501C25.5665 7.20839 25.6148 7.29176 25.6646 7.37767C25.7085 7.45296 25.7524 7.52825 25.7976 7.60582C25.9143 7.86108 25.957 8.07504 25.9766 8.3544C25.8471 8.66977 25.6699 8.80508 25.3782 8.97134C25.313 9.00933 25.2479 9.04731 25.1808 9.08644C25.0117 9.17081 25.0117 9.17081 24.8633 9.17081C24.874 9.22649 24.8847 9.28217 24.8958 9.33954C25.0463 10.1697 25.0226 10.8664 24.8633 11.6942C24.9245 11.7096 24.9858 11.7249 25.0488 11.7406C25.4658 11.9044 25.8192 12.0989 26.0044 12.5199C25.961 12.968 25.7523 13.3131 25.5313 13.6982C25.5017 13.7502 25.4722 13.8023 25.4418 13.8559C24.6459 15.2541 24.6459 15.2541 24.3438 15.4052C23.8008 15.4878 23.3987 15.2165 22.9336 14.9599C22.8929 14.9967 22.8523 15.0335 22.8104 15.0715C22.4314 15.3962 22.053 15.6417 21.6023 15.8505C21.554 15.8729 21.5058 15.8954 21.456 15.9185C21.2429 16.0136 21.0914 16.0732 20.8555 16.0732C20.8598 16.1546 20.8641 16.236 20.8685 16.3199C20.872 16.4278 20.8754 16.5358 20.8787 16.6437C20.8818 16.6972 20.8849 16.7508 20.8881 16.8059C20.8893 16.8583 20.8905 16.9107 20.8917 16.9646C20.8937 17.0125 20.8956 17.0603 20.8976 17.1095C20.8256 17.3678 20.696 17.4719 20.4844 17.6317C20.2597 17.685 20.0419 17.6838 19.8118 17.681C19.715 17.6816 19.715 17.6816 19.6164 17.6821C19.4804 17.6824 19.3444 17.6817 19.2084 17.6801C19.0006 17.6781 18.7932 17.6801 18.5854 17.6825C18.453 17.6822 18.3206 17.6818 18.1882 17.681C18.1264 17.6818 18.0645 17.6825 18.0008 17.6833C17.6833 17.6769 17.5515 17.6588 17.2903 17.4616C17.1495 17.2674 17.0988 17.1973 17.1083 16.9646C17.1095 16.9123 17.1107 16.8599 17.1119 16.8059C17.115 16.7524 17.1181 16.6989 17.1213 16.6437C17.123 16.5887 17.1247 16.5338 17.1264 16.4771C17.1308 16.3424 17.1374 16.2078 17.1445 16.0732C17.0824 16.0665 17.0202 16.0599 16.9561 16.0531C16.6582 15.9903 16.4158 15.8709 16.1519 15.7253C16.1031 15.6988 16.0544 15.6724 16.0041 15.6452C15.6415 15.4451 15.3135 15.2222 14.9922 14.9599C14.9393 14.992 14.8864 15.0242 14.8319 15.0573C14.0858 15.4911 14.0858 15.4911 13.6563 15.4052C13.3601 15.2038 13.2005 15.0013 13.0295 14.6891C12.9848 14.6083 12.9401 14.5276 12.8941 14.4444C12.8486 14.3604 12.8032 14.2764 12.7564 14.1898C12.7103 14.1064 12.6643 14.023 12.6169 13.937C12.4919 13.7097 12.3678 13.482 12.2461 13.2528C12.2045 13.1759 12.1629 13.0989 12.12 13.0196C11.9917 12.7377 12.0103 12.5828 12.0977 12.288C12.3498 12.0284 12.67 11.8624 12.9883 11.6942C13.0373 11.6942 13.0863 11.6942 13.1367 11.6942C13.126 11.6386 13.1153 11.5829 13.1043 11.5255C12.9537 10.6953 12.9774 9.99865 13.1367 9.17081C13.0819 9.14995 13.0271 9.12909 12.9706 9.1076C12.7873 9.03138 12.6242 8.94896 12.4548 8.8461C12.3798 8.80161 12.3798 8.80161 12.3032 8.75623C12.1425 8.62777 12.0842 8.55195 12.0234 8.3544C12.0214 7.82936 12.2987 7.42866 12.5569 6.98599C12.5988 6.91189 12.6408 6.8378 12.684 6.76145C13.2277 5.8142 13.2277 5.8142 13.582 5.45987C14.056 5.38728 14.3264 5.48536 14.7127 5.75153C14.8448 5.84513 14.8448 5.84513 15.0293 5.84488C15.2536 5.73835 15.4271 5.59585 15.6213 5.44218C15.8541 5.27964 16.0971 5.15398 16.3513 5.02847C16.3967 5.00607 16.442 4.98367 16.4887 4.9606C16.6807 4.86743 16.8676 4.78525 17.0703 4.71768C17.0722 4.64162 17.0742 4.56556 17.0761 4.4872C17.0803 4.38621 17.0846 4.28522 17.0889 4.18423C17.0899 4.13425 17.091 4.08426 17.0921 4.03275C17.1095 3.67505 17.1842 3.48256 17.4414 3.23331C17.7157 3.14188 17.9715 3.14562 18.2572 3.14401ZM17.9609 4.04971C17.9365 4.46608 17.912 4.88245 17.8867 5.31143C17.7551 5.36501 17.6234 5.41859 17.4878 5.47379C16.8154 5.75631 16.2435 6.03368 15.6842 6.50879C15.5093 6.64935 15.3401 6.76701 15.1406 6.87003C14.716 6.79102 14.3331 6.54047 13.9531 6.35049C13.6347 6.91381 13.3163 7.47713 12.9883 8.05753C13.2425 8.26087 13.4061 8.38342 13.6795 8.52139C13.8337 8.61562 13.8337 8.61562 13.9531 8.72549C13.9963 9.02749 13.9718 9.22395 13.914 9.51871C13.8701 9.82666 13.8681 10.1266 13.8696 10.4372C13.8694 10.4958 13.8691 10.5544 13.8688 10.6147C13.8693 10.9123 13.8895 11.18 13.9531 11.4716C13.9579 11.6029 13.9595 11.7344 13.9578 11.8659C13.9571 11.9314 13.9564 11.9969 13.9557 12.0645C13.9549 12.1137 13.954 12.163 13.9531 12.2138C13.9042 12.2306 13.8552 12.2475 13.8047 12.2648C13.5132 12.3923 13.2545 12.5602 12.9883 12.7333C13.298 13.3095 13.6208 13.8769 13.9531 14.4403C14.2096 14.3603 14.4374 14.2808 14.6629 14.1342C14.9202 13.9938 15.0075 13.9577 15.2891 13.995C15.4349 14.104 15.4349 14.104 15.5813 14.2548C16.1737 14.8107 16.894 15.1777 17.6632 15.4281C17.8125 15.4794 17.8125 15.4794 17.8867 15.5536C17.9043 15.7659 17.918 15.9765 17.9285 16.1891C17.9392 16.3958 17.9499 16.6024 17.9609 16.8153C18.6467 16.8153 19.3325 16.8153 20.0391 16.8153C20.0636 16.399 20.0881 15.9826 20.1133 15.5536C20.2021 15.5154 20.2909 15.4771 20.3823 15.4377C20.5155 15.3778 20.6485 15.3174 20.7813 15.2567C20.8628 15.2198 20.9443 15.1829 21.0283 15.1448C21.6655 14.8431 22.207 14.499 22.7109 13.995C23.1294 14.0125 23.3969 14.1463 23.7489 14.369C23.9076 14.4659 23.9076 14.4659 24.1211 14.3661C24.2347 14.211 24.2347 14.211 24.3377 14.0179C24.3969 13.9128 24.3969 13.9128 24.4573 13.8056C24.4979 13.7318 24.5385 13.6581 24.5803 13.5822C24.6218 13.5082 24.6633 13.4342 24.706 13.3579C24.8085 13.1748 24.9104 12.9913 25.0117 12.8075C24.7523 12.5431 24.5235 12.3839 24.1953 12.2138C24.1463 12.2138 24.0974 12.2138 24.0469 12.2138C24.0449 12.0978 24.0434 11.9818 24.0422 11.8659C24.0414 11.8013 24.0405 11.7367 24.0396 11.6702C24.0469 11.4716 24.0469 11.4716 24.0837 11.3029C24.1371 11.0139 24.1318 10.7303 24.1304 10.4372C24.1307 10.3789 24.131 10.3205 24.1313 10.2605C24.1305 9.83499 24.0758 9.44732 23.9819 9.03165C23.9802 8.88147 23.9802 8.88147 24.0469 8.72549C24.3488 8.48707 24.6706 8.30793 25.0117 8.13174C24.7145 7.52151 24.4088 6.92582 24.0469 6.35049C23.9421 6.40933 23.9421 6.40933 23.8352 6.46936C23.7419 6.5195 23.6486 6.56955 23.5552 6.61954C23.5094 6.64556 23.4635 6.67158 23.4163 6.69839C23.1749 6.82547 23.0398 6.87583 22.7684 6.82654C22.5724 6.72661 22.4402 6.63361 22.2842 6.48038C21.7227 5.9697 21.1094 5.69572 20.396 5.45842C20.1875 5.38565 20.1875 5.38565 20.1133 5.31143C20.0957 5.09912 20.082 4.88859 20.0715 4.67593C20.0555 4.36595 20.0555 4.36595 20.0391 4.04971C19.3533 4.04971 18.6675 4.04971 17.9609 4.04971Z" fill="#379DFE"/>
<path d="M21.1526 7.68639C21.2261 7.73997 21.2996 7.79354 21.3753 7.84874C22.051 8.42722 22.3724 9.30082 22.4741 10.1591C22.5272 11.162 22.2277 11.9917 21.584 12.7565C20.9103 13.4595 20.1534 13.8393 19.1851 13.8763C18.2052 13.8916 17.4661 13.6552 16.6995 13.0301C16.6286 12.9745 16.6286 12.9745 16.5563 12.9177C15.8979 12.3383 15.5963 11.4803 15.5189 10.6296C15.4945 9.67566 15.7989 8.81328 16.3887 8.06212C17.6778 6.71166 19.6728 6.6012 21.1526 7.68639ZM16.9221 8.79967C16.4835 9.52051 16.2959 10.1546 16.4342 10.9958C16.6046 11.6576 16.9958 12.2522 17.5629 12.6405C18.3115 13.0358 18.978 13.1283 19.7796 12.9095C20.5386 12.6571 20.9845 12.2435 21.3753 11.5458C21.6618 10.9006 21.6985 10.2352 21.4773 9.56505C21.1676 8.80489 20.6594 8.30268 19.9187 7.95543C18.8314 7.5602 17.6529 7.91722 16.9221 8.79967Z" fill="#379DFE"/>
</svg>
