<svg width="38" height="39" viewBox="0 0 38 39" fill="none" xmlns="http://www.w3.org/2000/svg">
<g clip-path="url(#clip0_1237_934)">
<path d="M30.7865 2.09444C32.7618 3.5556 34.254 5.19932 35.6246 7.24105C35.773 8.83675 35.773 8.83675 35.6246 10.2098C35.0308 10.8035 35.0308 10.8035 33.4769 10.8615C32.8386 10.8546 32.2002 10.8478 31.5426 10.8407C30.9073 10.8353 30.272 10.8299 29.6175 10.8244C28.7702 10.8141 28.7702 10.8141 27.9058 10.8035C27.318 10.8035 26.7302 10.8035 26.1246 10.8035C23.9475 10.8035 21.7704 10.8035 19.5933 10.8035C19.5933 13.7426 19.5933 16.6817 19.5933 19.7098C20.769 19.7098 21.9446 19.7098 23.1558 19.7098C23.1558 20.1017 23.1558 20.4936 23.1558 20.8973C23.5477 20.8973 23.9396 20.8973 24.3433 20.8973C24.3433 20.5054 24.3433 20.1136 24.3433 19.7098C25.3326 19.6844 26.3228 19.6857 27.3121 19.7098C27.9058 20.3036 27.9058 20.3036 27.943 21.825C27.9307 22.3026 27.9185 22.7802 27.9058 23.2723C26.3383 23.4682 24.7708 23.6642 23.1558 23.8661C23.1558 24.4539 23.1558 25.0417 23.1558 25.6473C22.764 25.6473 22.3721 25.6473 21.9683 25.6473C21.9683 26.627 21.9683 27.6067 21.9683 28.6161C22.3602 28.6161 22.7521 28.6161 23.1558 28.6161C23.2416 29.0936 23.3273 29.5712 23.4156 30.0633C23.596 31.5379 23.596 31.5379 24.3433 32.1786C24.3861 33.1797 24.3931 34.1825 24.3805 35.1844C24.3751 35.7301 24.3697 36.2758 24.3642 36.8381C24.3573 37.2598 24.3504 37.6815 24.3433 38.1161C23.7555 38.1161 23.1677 38.1161 22.5621 38.1161C22.533 37.7579 22.5039 37.3997 22.474 37.0306C22.4296 36.5561 22.3852 36.0815 22.3394 35.5926C22.2774 34.89 22.2774 34.89 22.2142 34.1732C21.9594 32.7213 21.5017 31.6748 20.7808 30.3973C20.389 30.3973 19.9971 30.3973 19.5933 30.3973C19.5933 32.9445 19.5933 35.4917 19.5933 38.1161C19.2015 38.1161 18.8096 38.1161 18.4058 38.1161C18.4058 35.5689 18.4058 33.0217 18.4058 30.3973C18.014 30.3973 17.6221 30.3973 17.2183 30.3973C16.2261 32.1559 15.8368 33.5862 15.6598 35.5926C15.6154 36.0672 15.571 36.5417 15.5252 37.0306C15.4961 37.3888 15.4671 37.747 15.4371 38.1161C14.8493 38.1161 14.2615 38.1161 13.6558 38.1161C13.6237 37.1638 13.6007 36.2112 13.5816 35.2586C13.5679 34.7282 13.5541 34.1978 13.5399 33.6513C13.6558 32.1786 13.6558 32.1786 14.8433 30.3973C14.8433 29.8095 14.8433 29.2217 14.8433 28.6161C15.2352 28.6161 15.6271 28.6161 16.0308 28.6161C16.0308 27.6364 16.0308 26.6567 16.0308 25.6473C15.639 25.6473 15.2471 25.6473 14.8433 25.6473C14.8433 25.0595 14.8433 24.4717 14.8433 23.8661C13.2758 23.6701 11.7083 23.4742 10.0933 23.2723C10.068 22.283 10.0692 21.2928 10.0933 20.3036C10.6871 19.7098 10.6871 19.7098 12.4336 19.6518C14.4243 19.6711 16.4151 19.6905 18.4058 19.7098C18.4058 16.7707 18.4058 13.8317 18.4058 10.8035C17.3649 10.8035 16.324 10.8035 15.2516 10.8035C13.5321 10.8035 11.8127 10.8035 10.0933 10.8035C9.5285 10.8104 8.96365 10.8173 8.38168 10.8244C7.74641 10.8298 7.11115 10.8351 6.45663 10.8407C5.8183 10.8475 5.17997 10.8544 4.5223 10.8615C2.96835 10.8035 2.96835 10.8035 2.3746 10.2098C1.9971 8.00775 2.342 7.28802 3.63632 5.42269C6.65381 2.14317 9.29302 1.01068 13.6558 0.7098C13.8518 1.29761 14.0477 1.88542 14.2496 2.49105C13.8623 2.57141 13.475 2.65178 13.076 2.73458C9.09605 3.7149 7.04255 5.0264 4.7496 8.42855C6.3171 8.42855 7.8846 8.42855 9.4996 8.42855C10.4793 6.66511 11.459 4.90167 12.4683 3.0848C12.8602 3.0848 13.2521 3.0848 13.6558 3.0848C13.3368 5.08993 12.9964 7.06096 12.4683 9.0223C14.0358 8.82636 15.6033 8.63042 17.2183 8.42855C17.6102 6.66511 18.0021 4.90167 18.4058 3.0848C18.7977 3.0848 19.1896 3.0848 19.5933 3.0848C19.9852 4.84824 20.3771 6.61167 20.7808 8.42855C22.3483 8.62449 23.9158 8.82043 25.5308 9.0223C25.3349 8.48347 25.139 7.94464 24.9371 7.38949C24.3433 5.4598 24.3433 5.4598 24.3433 3.0848C26.1246 3.67855 26.1246 3.67855 26.8181 4.7756C27.0178 5.20957 27.2176 5.64354 27.4234 6.09066C27.6278 6.52616 27.8321 6.96166 28.0427 7.41036C28.1935 7.74636 28.3442 8.08237 28.4996 8.42855C30.0671 8.42855 31.6346 8.42855 33.2496 8.42855C32.7252 7.75464 32.1914 7.08809 31.6539 6.42464C31.3577 6.05267 31.0615 5.68069 30.7563 5.29745C27.9177 2.57582 24.3047 2.83954 20.5953 2.71371C20.0423 2.69074 19.4893 2.66778 18.9196 2.64413C17.561 2.58839 16.2023 2.53751 14.8433 2.49105C15.0393 1.90324 15.2352 1.31542 15.4371 0.7098C20.058 -0.55886 26.4608 0.0738456 30.7865 2.09444ZM17.8121 25.6473C17.8121 26.627 17.8121 27.6067 17.8121 28.6161C18.008 28.6161 18.204 28.6161 18.4058 28.6161C18.4058 27.6364 18.4058 26.6567 18.4058 25.6473C18.2099 25.6473 18.014 25.6473 17.8121 25.6473ZM19.5933 25.6473C19.5933 26.627 19.5933 27.6067 19.5933 28.6161C19.7893 28.6161 19.9852 28.6161 20.1871 28.6161C20.1871 27.6364 20.1871 26.6567 20.1871 25.6473C19.9912 25.6473 19.7952 25.6473 19.5933 25.6473Z" fill="#379DFE"/>
<path d="M35.0322 16.1473C36.5908 16.37 36.5908 16.37 38.001 16.7411C37.1716 26.8593 37.1716 26.8593 34.675 29.6969C34.401 29.928 34.127 30.1592 33.8447 30.3973C34.0162 30.855 34.1876 31.3127 34.3643 31.7843C34.5847 32.3798 34.8051 32.9752 35.0322 33.5887C35.3629 34.4774 35.3629 34.4774 35.7002 35.3839C36.2197 36.9286 36.2197 36.9286 36.2197 38.1161C35.1157 38.0256 35.1157 38.0256 33.8447 37.5223C33.0933 36.0356 33.0933 36.0356 32.5088 34.2196C32.3098 33.6188 32.1108 33.018 31.9058 32.3989C31.6899 31.702 31.6899 31.702 31.4697 30.9911C30.2941 30.7952 29.1185 30.5992 27.9072 30.3973C27.8713 30.8053 27.8353 31.2132 27.7982 31.6335C27.7485 32.1685 27.6987 32.7035 27.6475 33.2548C27.5992 33.7852 27.551 34.3156 27.5013 34.8621C27.3135 36.3348 27.3135 36.3348 26.7197 38.1161C26.1319 38.1161 25.5441 38.1161 24.9385 38.1161C25.3304 35.5689 25.7222 33.0217 26.126 30.3973C25.5382 30.3973 24.9504 30.3973 24.3447 30.3973C24.2705 28.9872 24.2705 28.9872 24.3447 27.4286C24.7366 27.0367 25.1285 26.6448 25.5322 26.2411C25.5322 25.4573 25.5322 24.6736 25.5322 23.8661C27.8835 23.8661 30.2347 23.8661 32.6572 23.8661C32.8287 22.8129 33.0001 21.7598 33.1768 20.6747C33.6963 17.4833 33.6963 17.4833 35.0322 16.1473ZM35.626 17.9286C36.2197 19.7098 36.2197 19.7098 36.2197 19.7098L35.626 17.9286ZM35.0322 19.7098C35.626 22.0848 35.626 22.0848 35.626 22.0848L35.0322 19.7098ZM34.4385 22.0848C35.0322 23.8661 35.0322 23.8661 35.0322 23.8661L34.4385 22.0848ZM33.8447 24.4598C34.4385 26.2411 34.4385 26.2411 34.4385 26.2411L33.8447 24.4598ZM33.251 26.2411C33.8447 27.4286 33.8447 27.4286 33.8447 27.4286L33.251 26.2411ZM28.501 28.0223C30.876 28.6161 30.876 28.6161 30.876 28.6161L28.501 28.0223Z" fill="#379DFE"/>
<path d="M2.38407 16.2447C3.56229 16.7411 3.56229 16.7411 4.18388 17.9054C4.32164 18.3784 4.45941 18.8514 4.60136 19.3387C4.74525 19.8087 4.88914 20.2786 5.03739 20.7628C5.34354 22.0848 5.34354 22.0848 5.34354 23.8661C7.69479 23.8661 10.046 23.8661 12.4685 23.8661C12.6645 24.8457 12.8604 25.8254 13.0623 26.8348C13.2582 27.0307 13.4542 27.2267 13.656 27.4286C13.6802 28.4179 13.6814 29.4081 13.656 30.3973C13.0682 30.3973 12.4804 30.3973 11.8748 30.3973C12.2667 32.9445 12.6585 35.4917 13.0623 38.1161C12.4745 38.1161 11.8867 38.1161 11.281 38.1161C9.9239 33.1116 9.9239 33.1116 10.0935 30.3973C8.36208 30.4088 8.36208 30.4088 6.53104 30.9911C5.45609 32.6083 5.45609 32.6083 4.82401 34.5907C4.58062 35.2466 4.33723 35.9025 4.08646 36.5783C3.91349 37.0858 3.74051 37.5932 3.56229 38.1161C2.97448 38.1161 2.38667 38.1161 1.78104 38.1161C1.90963 37.715 2.03821 37.3139 2.17069 36.9007C2.33601 36.3711 2.50134 35.8414 2.67167 35.2957C2.83699 34.7722 3.00231 34.2487 3.17264 33.7093C3.65994 32.0582 3.65994 32.0582 3.56229 29.8036C3.26839 29.3137 2.97448 28.8239 2.67167 28.3192C1.78104 26.8348 1.78104 26.8348 1.78104 24.4598C2.36886 24.4598 2.95667 24.4598 3.56229 24.4598C3.36636 24.0679 3.17042 23.6761 2.96854 23.2723C2.38073 23.2723 1.79292 23.2723 1.18729 23.2723C0.117177 20.9983 -0.116714 19.246 -0.000206709 16.7411C1.18729 16.1473 1.18729 16.1473 2.38407 16.2447ZM1.78104 17.9286C2.37479 19.7098 2.37479 19.7098 2.37479 19.7098L1.78104 17.9286ZM2.37479 19.7098C2.96854 22.0848 2.96854 22.0848 2.96854 22.0848L2.37479 19.7098ZM3.56229 24.4598C4.15604 26.2411 4.15604 26.2411 4.15604 26.2411L3.56229 24.4598ZM4.15604 26.2411C4.74979 27.4286 4.74979 27.4286 4.74979 27.4286L4.15604 26.2411ZM7.12479 28.0223C9.49979 28.6161 9.49979 28.6161 9.49979 28.6161L7.12479 28.0223Z" fill="#379DFE"/>
</g>
<defs>
<clipPath id="clip0_1237_934">
<rect width="38" height="38" fill="white" transform="translate(0 0.116089)"/>
</clipPath>
</defs>
</svg>
