<svg width="38" height="39" viewBox="0 0 38 39" fill="none" xmlns="http://www.w3.org/2000/svg">
<path d="M0.83903 0.12055C0.922821 0.119585 1.00661 0.11862 1.09294 0.117625C1.18464 0.118451 1.27633 0.119276 1.37081 0.120127C1.51733 0.119261 1.51733 0.119261 1.66682 0.118377C1.93788 0.116831 2.20889 0.117597 2.47995 0.118742C2.7723 0.119579 3.06464 0.118288 3.35699 0.117269C3.92966 0.115623 4.50232 0.11598 5.07499 0.117052C5.54035 0.117887 6.00571 0.118001 6.47107 0.117598C6.53727 0.117542 6.60347 0.117485 6.67167 0.117427C6.80614 0.117308 6.94062 0.117188 7.07509 0.117067C8.33645 0.116011 9.59781 0.117225 10.8592 0.119213C11.9418 0.120867 13.0245 0.12058 14.1071 0.118873C15.3639 0.116893 16.6207 0.116113 17.8775 0.117249C18.0115 0.117367 18.1455 0.117484 18.2795 0.117598C18.3783 0.117684 18.3783 0.117684 18.4792 0.117771C18.9441 0.118091 19.409 0.117551 19.8739 0.116681C20.4403 0.115643 21.0067 0.115922 21.5731 0.117895C21.8622 0.118869 22.1513 0.119247 22.4403 0.118025C22.7535 0.116721 23.0666 0.118276 23.3797 0.120127C23.4714 0.119301 23.5631 0.118476 23.6576 0.117625C24.3411 0.125498 24.3411 0.125498 24.5692 0.341519C24.7221 0.571181 24.7735 0.704929 24.7735 0.981336C24.6293 1.37603 24.6293 1.37603 24.4166 1.51108C24.236 1.581 24.104 1.59174 23.9107 1.59129C23.8073 1.5916 23.8073 1.5916 23.7018 1.59191C23.6268 1.59138 23.5517 1.59085 23.4743 1.5903C23.3949 1.59032 23.3154 1.59034 23.2336 1.59036C22.9708 1.59026 22.7081 1.58911 22.4454 1.58795C22.2632 1.58767 22.0811 1.58746 21.899 1.58731C21.4195 1.58675 20.9401 1.58529 20.4607 1.58366C19.8855 1.58188 19.3103 1.5812 18.735 1.58033C17.8611 1.5789 16.9872 1.57606 16.1132 1.57349C16.1132 3.50318 16.1132 5.43286 16.1132 7.42102C20.4611 7.42102 24.809 7.42102 29.2887 7.42102C29.2887 5.49134 29.2887 3.56165 29.2887 1.57349C28.2579 1.58227 28.2579 1.58227 27.2271 1.5935C27.0975 1.59415 26.9679 1.59471 26.8382 1.59518C26.738 1.59688 26.738 1.59688 26.6357 1.59862C26.2739 1.59877 26.0293 1.58825 25.7358 1.35143C25.5463 1.11889 25.5838 0.893993 25.6114 0.611239C25.6834 0.399371 25.7841 0.307624 25.9578 0.167123C26.1747 0.129658 26.1747 0.129658 26.4321 0.129028C26.5298 0.128086 26.6274 0.127144 26.728 0.126174C26.8361 0.126632 26.9442 0.127121 27.0523 0.127638C27.1663 0.127115 27.2802 0.126468 27.3941 0.125705C27.7035 0.124038 28.0129 0.124258 28.3223 0.124915C28.5805 0.125293 28.8388 0.124753 29.0971 0.124214C29.7063 0.122955 30.3156 0.12322 30.9249 0.124457C31.5535 0.12571 32.182 0.124538 32.8106 0.122146C33.3503 0.120171 33.89 0.119631 34.4296 0.12026C34.752 0.120625 35.0743 0.12046 35.3966 0.118943C35.6997 0.117585 36.0028 0.118024 36.3059 0.119846C36.4171 0.120217 36.5283 0.119958 36.6395 0.119021C36.7915 0.117842 36.9432 0.118948 37.0952 0.120625C37.1801 0.120668 37.2651 0.120712 37.3527 0.120757C37.66 0.183752 37.7559 0.291565 37.949 0.53722C37.9853 0.759661 37.9988 0.939928 37.9955 1.16203C37.9961 1.22508 37.9966 1.28814 37.9972 1.3531C37.9985 1.56539 37.9972 1.77759 37.996 1.98989C37.9964 2.14321 37.997 2.29654 37.9977 2.44986C37.9992 2.87197 37.9985 3.29406 37.9973 3.71618C37.9965 4.1711 37.9978 4.62601 37.9988 5.08093C38.0004 5.92087 38.0002 6.7608 37.9992 7.60074C37.9983 8.37664 37.998 9.15254 37.9985 9.92844C37.9985 10.0056 37.9985 10.0056 37.9986 10.0843C37.9987 10.2931 37.9988 10.5019 37.9989 10.7106C38.0001 12.6698 37.999 14.629 37.997 16.5882C37.9953 18.3294 37.9954 20.0706 37.9972 21.8119C37.9992 23.7674 38 25.723 37.9988 27.6785C37.9987 27.8869 37.9986 28.0953 37.9985 28.3037C37.9985 28.3551 37.9984 28.4064 37.9984 28.4592C37.998 29.2347 37.9985 30.0102 37.9994 30.7857C38.0005 31.6673 38.0002 32.5489 37.9982 33.4305C37.9972 33.8806 37.9968 34.3306 37.9981 34.7807C37.9992 35.1924 37.9986 35.604 37.9966 36.0156C37.9962 36.1649 37.9964 36.3142 37.9973 36.4635C37.9984 36.6657 37.9973 36.8679 37.9955 37.0701C37.9964 37.1287 37.9973 37.1872 37.9981 37.2475C37.9934 37.5269 37.9571 37.6828 37.8 37.9161C37.5161 38.1073 37.2851 38.1165 36.954 38.1116C36.891 38.1122 36.8279 38.1127 36.763 38.1133C36.5507 38.1146 36.3385 38.1133 36.1262 38.112C35.9729 38.1125 35.8195 38.1131 35.6662 38.1138C35.2441 38.1153 34.822 38.1146 34.3999 38.1134C33.945 38.1126 33.4901 38.1139 33.0351 38.1149C32.1952 38.1165 31.3553 38.1163 30.5153 38.1153C29.7394 38.1144 28.9635 38.1141 28.1876 38.1146C28.1105 38.1146 28.1105 38.1146 28.0318 38.1147C27.823 38.1148 27.6142 38.1149 27.4054 38.115C25.4463 38.1161 23.4871 38.1151 21.5279 38.1131C19.7867 38.1114 18.0455 38.1115 16.3042 38.1133C14.3487 38.1153 12.3931 38.1161 10.4376 38.1149C10.2292 38.1148 10.0208 38.1147 9.81235 38.1146C9.73538 38.1145 9.73538 38.1145 9.65685 38.1145C8.88137 38.1141 8.1059 38.1146 7.33042 38.1155C6.44881 38.1165 5.56721 38.1162 4.6856 38.1143C4.23551 38.1133 3.78545 38.1129 3.33537 38.1141C2.92372 38.1152 2.51211 38.1147 2.10046 38.1127C1.95118 38.1123 1.8019 38.1125 1.65263 38.1134C1.45035 38.1145 1.24822 38.1133 1.04595 38.1116C0.987416 38.1125 0.92888 38.1134 0.868571 38.1142C0.589188 38.1095 0.433295 38.0732 0.199952 37.9161C0.00879471 37.6322 -0.000429738 37.4012 0.00447005 37.0701C0.00393213 37.0071 0.00339419 36.944 0.00283998 36.8791C0.00148414 36.6668 0.00277609 36.4546 0.00404721 36.2423C0.00362097 36.089 0.00303333 35.9356 0.0022977 35.7823C0.000748227 35.3602 0.00151834 34.9381 0.00266265 34.516C0.00349781 34.0611 0.00220863 33.6062 0.00118971 33.1512C-0.000363328 32.3113 -0.000225283 31.4714 0.000786855 30.6314C0.00171725 29.8555 0.00196118 29.0796 0.00151867 28.3037C0.0014904 28.2523 0.0014621 28.2009 0.00143297 28.1479C0.00131775 27.9391 0.00119997 27.7303 0.00107783 27.5215C-5.47172e-05 25.5624 0.000972784 23.6032 0.00296414 21.644C0.00472053 19.9028 0.00456337 18.1615 0.00279353 16.4203C0.0008125 14.4648 2.55886e-05 12.5092 0.00116967 10.5536C0.00128837 10.3452 0.00140412 10.1368 0.00151867 9.92844C0.00154793 9.87712 0.00157717 9.8258 0.00160733 9.77293C0.00202859 8.99745 0.00153545 8.22198 0.000600991 7.4465C-0.000456055 6.56489 -0.000159395 5.68329 0.00181522 4.80168C0.00278997 4.3516 0.00316515 3.90153 0.00194503 3.45145C0.000845942 3.0398 0.00144207 2.62819 0.00341712 2.21654C0.00383212 2.06726 0.00361666 1.91798 0.00272287 1.76871C0.00160423 1.56643 0.00274448 1.3643 0.00447005 1.16203C0.00360359 1.1035 0.00273715 1.04496 0.00184444 0.984651C0.00678944 0.696454 0.0410709 0.55085 0.212885 0.316032C0.447649 0.148169 0.553943 0.120787 0.83903 0.12055ZM1.45741 1.57349C1.45741 3.50318 1.45741 5.43286 1.45741 7.42102C5.80531 7.42102 10.1532 7.42102 14.6329 7.42102C14.6329 5.49134 14.6329 3.56165 14.6329 1.57349C10.285 1.57349 5.93706 1.57349 1.45741 1.57349ZM30.7691 1.57349C30.7691 3.50318 30.7691 5.43286 30.7691 7.42102C32.6743 7.42102 34.5796 7.42102 36.5426 7.42102C36.5426 5.49134 36.5426 3.56165 36.5426 1.57349C34.6373 1.57349 32.7321 1.57349 30.7691 1.57349ZM1.45741 8.90141C1.45741 10.8311 1.45741 12.7608 1.45741 14.7489C3.36267 14.7489 5.26793 14.7489 7.23092 14.7489C7.23092 12.8193 7.23092 10.8896 7.23092 8.90141C5.32566 8.90141 3.4204 8.90141 1.45741 8.90141ZM8.71131 8.90141C8.71131 10.8311 8.71131 12.7608 8.71131 14.7489C13.0592 14.7489 17.4071 14.7489 21.8868 14.7489C21.8868 12.8193 21.8868 10.8896 21.8868 8.90141C17.5389 8.90141 13.191 8.90141 8.71131 8.90141ZM23.3671 8.90141C23.3671 10.8311 23.3671 12.7608 23.3671 14.7489C24.1244 14.7734 24.8816 14.7978 25.6617 14.823C26.0318 15.1931 26.0318 15.1931 26.0706 15.3509C26.0533 15.5831 26.0317 15.7855 25.9578 16.0073C25.7328 16.0823 25.5792 16.0914 25.3437 16.093C25.2625 16.0937 25.1812 16.0945 25.0975 16.0952C25.0083 16.0956 24.9191 16.0961 24.8272 16.0965C24.7333 16.0972 24.6395 16.098 24.5427 16.0987C24.2852 16.1007 24.0277 16.1023 23.7702 16.1037C23.5011 16.1054 23.232 16.1074 22.9629 16.1094C22.4533 16.1131 21.9437 16.1164 21.4341 16.1196C20.7455 16.1239 20.0568 16.1288 19.3682 16.1337C18.2832 16.1414 17.1982 16.1483 16.1132 16.1553C16.1132 18.1094 16.1132 20.0635 16.1132 22.0769C20.4611 22.0769 24.809 22.0769 29.2887 22.0769C29.2887 20.1228 29.2887 18.1686 29.2887 16.1553C28.3361 16.1187 28.3361 16.1187 27.3642 16.0813C27.2909 16.0569 27.2176 16.0324 27.1421 16.0073C27.0756 15.8078 27.0494 15.6641 27.0403 15.4568C27.0367 15.4004 27.0331 15.344 27.0294 15.2859C27.0681 15.119 27.0681 15.119 27.2007 14.9631C27.5622 14.7498 27.9034 14.7807 28.316 14.7826C28.4048 14.7818 28.4937 14.781 28.5852 14.7802C28.8282 14.7784 29.0712 14.7779 29.3142 14.778C29.5684 14.7778 29.8225 14.7759 30.0767 14.7741C30.5577 14.7711 31.0388 14.7696 31.5198 14.7687C32.1213 14.7674 32.7228 14.7641 33.3243 14.7608C34.3971 14.7549 35.4698 14.7521 36.5426 14.7489C36.5426 12.8193 36.5426 10.8896 36.5426 8.90141C32.1947 8.90141 27.8468 8.90141 23.3671 8.90141ZM1.45741 16.1553C1.45741 18.1094 1.45741 20.0635 1.45741 22.0769C5.80531 22.0769 10.1532 22.0769 14.6329 22.0769C14.6329 20.1228 14.6329 18.1686 14.6329 16.1553C10.285 16.1553 5.93706 16.1553 1.45741 16.1553ZM30.7691 16.1553C30.7691 18.1094 30.7691 20.0635 30.7691 22.0769C32.6743 22.0769 34.5796 22.0769 36.5426 22.0769C36.5426 20.1228 36.5426 18.1686 36.5426 16.1553C34.6373 16.1553 32.7321 16.1553 30.7691 16.1553ZM1.45741 23.4832C1.45741 25.4129 1.45741 27.3426 1.45741 29.3308C3.36267 29.3308 5.26793 29.3308 7.23092 29.3308C7.23092 27.4011 7.23092 25.4714 7.23092 23.4832C5.32566 23.4832 3.4204 23.4832 1.45741 23.4832ZM8.71131 23.4832C8.71131 25.4129 8.71131 27.3426 8.71131 29.3308C9.61508 29.3552 10.5189 29.3796 11.45 29.4048C11.6699 29.4781 11.6699 29.4781 11.8941 29.5528C11.9107 29.6699 11.9258 29.7871 11.9404 29.9044C11.949 29.9697 11.9576 30.0349 11.9664 30.1022C11.9684 30.3185 11.949 30.4157 11.8201 30.5891C11.5484 30.7228 11.3272 30.7561 11.0262 30.7577C10.8993 30.759 10.8993 30.759 10.7698 30.7602C10.6777 30.7604 10.5856 30.7606 10.4907 30.7607C10.3932 30.7615 10.2957 30.7622 10.1952 30.763C9.92837 30.765 9.66154 30.7661 9.3947 30.7671C9.11562 30.7682 8.83655 30.7702 8.55747 30.7721C8.02926 30.7756 7.50105 30.7783 6.97283 30.7808C6.25887 30.7841 5.54492 30.7886 4.83097 30.7931C3.70645 30.8 2.58194 30.8055 1.45741 30.8111C1.45741 32.7408 1.45741 34.6705 1.45741 36.6587C5.80531 36.6587 10.1532 36.6587 14.6329 36.6587C14.6329 34.729 14.6329 32.7993 14.6329 30.8111C14.242 30.7867 13.8512 30.7623 13.4485 30.7371C13.0785 30.5151 13.0785 30.5151 12.972 30.2653C12.9282 29.9827 12.9388 29.8712 13.0785 29.6268C13.3143 29.391 13.5529 29.3956 13.8757 29.3931C13.9465 29.3923 14.0173 29.3916 14.0902 29.3909C14.1674 29.3904 14.2445 29.39 14.324 29.3896C14.4056 29.3889 14.4872 29.3881 14.5713 29.3874C14.8413 29.385 15.1112 29.3832 15.3811 29.3814C15.5682 29.3798 15.7554 29.3783 15.9425 29.3767C16.3847 29.373 16.8269 29.3697 17.2692 29.3665C17.9105 29.3618 18.5518 29.3565 19.1931 29.3513C20.091 29.344 20.9889 29.3375 21.8868 29.3308C21.8868 27.4011 21.8868 25.4714 21.8868 23.4832C17.5389 23.4832 13.191 23.4832 8.71131 23.4832ZM23.3671 23.4832C23.3671 25.4129 23.3671 27.3426 23.3671 29.3308C27.715 29.3308 32.0629 29.3308 36.5426 29.3308C36.5426 27.4011 36.5426 25.4714 36.5426 23.4832C32.1947 23.4832 27.8468 23.4832 23.3671 23.4832ZM16.1132 30.8111C16.1132 32.7408 16.1132 34.6705 16.1132 36.6587C20.4611 36.6587 24.809 36.6587 29.2887 36.6587C29.2887 34.729 29.2887 32.7993 29.2887 30.8111C24.9408 30.8111 20.5929 30.8111 16.1132 30.8111ZM30.7691 30.8111C30.7691 32.7408 30.7691 34.6705 30.7691 36.6587C32.6743 36.6587 34.5796 36.6587 36.5426 36.6587C36.5426 34.729 36.5426 32.7993 36.5426 30.8111C34.6373 30.8111 32.7321 30.8111 30.7691 30.8111Z" fill="#379DFE"/>
</svg>
