<svg width="38" height="39" viewBox="0 0 38 39" fill="none" xmlns="http://www.w3.org/2000/svg">
<g clip-path="url(#clip0_1237_967)">
<path d="M1.32887 21.5553C1.39056 21.5551 1.45225 21.555 1.51581 21.5548C1.72478 21.5543 1.93374 21.5543 2.1427 21.5544C2.29313 21.5541 2.44356 21.5538 2.594 21.5535C3.00914 21.5528 3.42428 21.5525 3.83942 21.5523C4.28646 21.552 4.7335 21.5513 5.18054 21.5507C6.20992 21.5493 7.23929 21.5485 8.26866 21.5479C8.77713 21.5476 9.28561 21.5472 9.79408 21.5468C11.534 21.5455 13.2739 21.5444 15.0138 21.5438C15.1231 21.5438 15.2324 21.5437 15.3416 21.5437C15.3958 21.5437 15.45 21.5437 15.5058 21.5436C15.7804 21.5436 16.0549 21.5435 16.3295 21.5434C16.4112 21.5433 16.4112 21.5433 16.4946 21.5433C18.2615 21.5427 20.0285 21.541 21.7955 21.5386C23.6628 21.536 25.5301 21.5346 27.3974 21.5343C27.6023 21.5343 27.8072 21.5343 28.0121 21.5342C28.0878 21.5342 28.0878 21.5342 28.165 21.5342C28.9778 21.534 29.7905 21.5329 30.6032 21.5313C31.4198 21.5298 32.2364 21.5295 33.053 21.5301C33.4956 21.5305 33.9381 21.5303 34.3807 21.5289C34.7856 21.5276 35.1905 21.5277 35.5954 21.5288C35.7421 21.529 35.8888 21.5287 36.0356 21.5278C36.2346 21.5267 36.4335 21.5274 36.6325 21.5285C36.6899 21.5278 36.7473 21.527 36.8064 21.5262C37.2586 21.5321 37.5036 21.6906 37.837 21.9781C38.0576 22.2451 38.0104 22.5798 38.0103 22.906C38.0106 22.9677 38.0109 23.0295 38.0111 23.093C38.012 23.3005 38.0122 23.508 38.0125 23.7155C38.013 23.864 38.0135 24.0125 38.014 24.161C38.0153 24.5649 38.0161 24.9688 38.0167 25.3727C38.0171 25.625 38.0175 25.8772 38.018 26.1294C38.0194 26.9184 38.0205 27.7073 38.0211 28.4962C38.0218 29.4074 38.0238 30.3187 38.0268 31.2299C38.029 31.9339 38.0301 32.6379 38.0303 33.3419C38.0305 33.7626 38.0312 34.1832 38.033 34.6038C38.0348 34.9995 38.0351 35.3951 38.0343 35.7908C38.0343 35.936 38.0348 36.0813 38.0358 36.2265C38.0371 36.4248 38.0366 36.623 38.0356 36.8212C38.0368 36.9074 38.0368 36.9074 38.0381 36.9954C38.0335 37.3804 37.9529 37.6015 37.7025 37.8934C37.3868 38.1377 37.0994 38.1476 36.7144 38.1443C36.6522 38.1446 36.59 38.145 36.5259 38.1453C36.3166 38.1462 36.1072 38.1455 35.8979 38.1448C35.7466 38.1451 35.5954 38.1456 35.4442 38.146C35.0278 38.1471 34.6115 38.1468 34.1952 38.1463C33.7465 38.1459 33.2978 38.1468 32.8491 38.1476C32.0206 38.1488 31.1921 38.149 30.3636 38.1486C29.5983 38.1483 28.8329 38.1483 28.0675 38.1487C27.9649 38.1488 27.8623 38.1489 27.7597 38.1489C27.6051 38.149 27.4505 38.1491 27.2959 38.1492C25.8582 38.15 24.4205 38.1503 22.9828 38.1497C22.9286 38.1497 22.8744 38.1497 22.8185 38.1497C22.3783 38.1495 21.938 38.1493 21.4977 38.1491C19.7802 38.1483 18.0627 38.149 16.3451 38.1507C14.4161 38.1526 12.4871 38.1536 10.558 38.153C10.3524 38.153 10.1468 38.1529 9.94117 38.1529C9.89055 38.1529 9.83992 38.1529 9.78776 38.1529C9.02288 38.1527 8.25801 38.1533 7.49313 38.1543C6.62347 38.1554 5.7538 38.1554 4.88414 38.1541C4.4402 38.1535 3.99628 38.1533 3.55234 38.1544C3.14622 38.1555 2.74013 38.1551 2.33401 38.1537C2.18682 38.1534 2.03964 38.1536 1.89246 38.1544C1.69284 38.1554 1.49332 38.1545 1.29371 38.1532C1.23617 38.1539 1.17862 38.1546 1.11933 38.1554C0.73532 38.1502 0.51846 38.0606 0.222045 37.8192C-0.0322383 37.5128 -0.0321852 37.2137 -0.0288852 36.8312C-0.0292325 36.7693 -0.0295798 36.7074 -0.0299377 36.6436C-0.0308253 36.4364 -0.0301224 36.2292 -0.029422 36.022C-0.0297237 35.8734 -0.0301201 35.7248 -0.0306043 35.5761C-0.03162 35.1725 -0.0312255 34.769 -0.0305199 34.3654C-0.0299566 33.9432 -0.0304789 33.521 -0.0308285 33.0988C-0.0312337 32.3898 -0.0306995 31.6807 -0.0296394 30.9717C-0.0284277 30.1518 -0.0288202 29.3318 -0.0300461 28.5119C-0.0310562 27.8081 -0.0311992 27.1044 -0.0306163 26.4006C-0.030269 25.9802 -0.0302234 25.5598 -0.0309585 25.1393C-0.0316012 24.7441 -0.0311563 24.3489 -0.0298687 23.9536C-0.0295741 23.8085 -0.0296593 23.6634 -0.0301499 23.5182C-0.0307574 23.3203 -0.0299963 23.1224 -0.0288852 22.9244C-0.0293819 22.8668 -0.0298785 22.8092 -0.0303903 22.7499C-0.0267416 22.4153 0.0164781 22.2028 0.222045 21.9364C0.604555 21.6005 0.831177 21.5544 1.32887 21.5553ZM2.22595 23.8661C2.22595 26.2908 2.22595 28.7155 2.22595 31.2137C2.42828 31.0114 2.50678 30.7713 2.6127 30.5104C2.64838 30.4238 2.64838 30.4238 2.68477 30.3355C2.7641 30.1429 2.84292 29.95 2.92175 29.7572C3.00589 29.5525 3.09016 29.3479 3.17443 29.1432C3.234 28.9986 3.29352 28.8539 3.353 28.7092C3.58098 28.1549 3.81101 27.6015 4.04199 27.0485C4.09231 26.928 4.09231 26.928 4.14364 26.8051C4.27609 26.4879 4.40859 26.1708 4.5412 25.8538C4.6337 25.6326 4.72605 25.4114 4.81839 25.1901C4.84571 25.1249 4.87302 25.0597 4.90117 24.9925C4.92684 24.9309 4.95251 24.8694 4.97897 24.806C5.00104 24.7532 5.02311 24.7004 5.04584 24.646C5.14937 24.3877 5.24545 24.1266 5.34314 23.8661C4.31447 23.8661 3.28579 23.8661 2.22595 23.8661ZM7.79236 23.8661C7.70778 24.0712 7.62321 24.2763 7.53607 24.4876C6.90806 26.0102 6.27841 27.532 5.64465 29.0521C5.59918 29.1612 5.59918 29.1612 5.55278 29.2725C5.23424 30.0366 4.91543 30.8005 4.59638 31.5644C4.46291 31.884 4.32953 32.2037 4.19615 32.5234C4.10349 32.7453 4.01071 32.9673 3.91792 33.1892C3.85993 33.3282 3.80194 33.4671 3.74396 33.6061C3.71927 33.6651 3.69458 33.724 3.66914 33.7847C3.37806 34.4833 3.10086 35.1866 2.8197 35.8895C4.31372 35.8895 5.80775 35.8895 7.34704 35.8895C7.57241 35.0782 7.79476 34.2692 7.99872 33.4528C8.02436 33.3507 8.05 33.2486 8.07566 33.1465C8.14404 32.8743 8.21221 32.602 8.28031 32.3297C8.32298 32.1591 8.36569 31.9886 8.40843 31.818C8.55778 31.222 8.70696 30.6259 8.85597 30.0297C8.99457 29.4752 9.13357 28.9208 9.27274 28.3665C9.39275 27.8884 9.5125 27.4102 9.63203 26.932C9.70321 26.6472 9.7745 26.3625 9.84606 26.0778C9.91308 25.8112 9.97976 25.5444 10.0462 25.2777C10.0822 25.1332 10.1187 24.9888 10.1551 24.8444C10.1764 24.7585 10.1977 24.6726 10.2197 24.5841C10.2383 24.5095 10.257 24.4349 10.2763 24.358C10.3256 24.1476 10.3256 24.1476 10.3158 23.8661C9.48306 23.8661 8.65033 23.8661 7.79236 23.8661ZM12.765 23.8661C12.6325 24.2636 12.5091 24.6393 12.4085 25.0421C12.3968 25.0887 12.3851 25.1353 12.373 25.1833C12.3345 25.3369 12.2963 25.4906 12.2582 25.6443C12.2304 25.7554 12.2026 25.8665 12.1747 25.9776C12.0997 26.2775 12.0249 26.5774 11.9503 26.8773C11.872 27.1915 11.7934 27.5057 11.7149 27.8198C11.5833 28.3466 11.4519 28.8734 11.3206 29.4002C11.1519 30.0772 10.9828 30.7542 10.8137 31.4311C10.6683 32.013 10.523 32.5949 10.3778 33.1768C10.3311 33.3641 10.2843 33.5513 10.2375 33.7386C10.1643 34.032 10.0911 34.3254 10.0181 34.6188C9.99116 34.7267 9.96423 34.8346 9.93727 34.9425C9.90064 35.0892 9.86412 35.2359 9.82762 35.3826C9.80711 35.4648 9.7866 35.5471 9.76547 35.6318C9.71919 35.7959 9.71919 35.7959 9.72204 35.8895C11.2651 35.8895 12.8081 35.8895 14.3978 35.8895C14.5238 34.3876 14.6497 32.8857 14.7752 31.3838C14.8335 30.6864 14.8919 29.989 14.9504 29.2917C15.0015 28.6839 15.0524 28.076 15.1031 27.4682C15.13 27.1463 15.1569 26.8245 15.184 26.5027C15.2095 26.1997 15.2348 25.8967 15.26 25.5937C15.2693 25.4825 15.2786 25.3714 15.288 25.2603C15.3009 25.1084 15.3135 24.9564 15.326 24.8045C15.3367 24.677 15.3367 24.677 15.3476 24.547C15.3621 24.3204 15.3627 24.0931 15.3627 23.8661C14.5054 23.8661 13.6482 23.8661 12.765 23.8661ZM17.6634 23.8661C17.4492 25.993 17.2718 28.1229 17.0942 30.2531C17.0599 30.6645 17.0252 31.076 16.9904 31.4874C16.9523 31.938 16.9147 32.3886 16.8771 32.8392C16.8613 33.0287 16.8453 33.2182 16.8293 33.4077C16.8069 33.6716 16.785 33.9355 16.7632 34.1994C16.7566 34.2761 16.75 34.3528 16.7432 34.4319C16.7373 34.5046 16.7314 34.5773 16.7253 34.6523C16.7201 34.7142 16.7149 34.7762 16.7096 34.84C16.6931 35.1894 16.6986 35.5396 16.6986 35.8895C18.2171 35.8895 19.7356 35.8895 21.3002 35.8895C21.3021 35.2274 21.3021 35.2274 21.2669 34.5727C21.2595 34.4824 21.2521 34.3921 21.2445 34.299C21.2363 34.2029 21.228 34.1067 21.2196 34.0076C21.2109 33.903 21.2023 33.7984 21.1936 33.6939C21.1703 33.4123 21.1466 33.1308 21.1228 32.8493C21.0978 32.5536 21.0732 32.2579 21.0486 31.9621C21.0072 31.466 20.9655 30.9699 20.9237 30.4739C20.8755 29.9012 20.8275 29.3286 20.7798 28.7559C20.7288 28.1444 20.6776 27.5329 20.6264 26.9214C20.6116 26.7459 20.597 26.5704 20.5823 26.3949C20.5593 26.1188 20.536 25.8427 20.5127 25.5666C20.5001 25.4175 20.4877 25.2685 20.4753 25.1194C20.4677 25.0299 20.4601 24.9405 20.4523 24.8483C20.4425 24.7324 20.4425 24.7324 20.4326 24.6142C20.4074 24.364 20.3709 24.115 20.3353 23.8661C19.4536 23.8661 18.5719 23.8661 17.6634 23.8661ZM22.6361 23.8661C22.69 25.0783 22.7958 26.2866 22.8977 27.4956C22.9226 27.7915 22.9473 28.0875 22.972 28.3835C23.0186 28.9417 23.0654 29.5 23.1123 30.0582C23.1758 30.8141 23.239 31.5701 23.3022 32.326C23.4016 33.5139 23.5013 34.7017 23.6009 35.8895C25.144 35.8895 26.687 35.8895 28.2767 35.8895C27.8749 34.2507 27.8749 34.2507 27.4716 32.6123C27.4574 32.5547 27.4432 32.4971 27.4286 32.4377C27.0381 30.8556 26.6448 29.2741 26.2505 27.693C26.1693 27.3675 26.0882 27.0419 26.0073 26.7164C25.9109 26.3289 25.8143 25.9416 25.7175 25.5543C25.6814 25.4098 25.6454 25.2653 25.6095 25.1207C25.5603 24.9225 25.5107 24.7243 25.4611 24.5262C25.4393 24.438 25.4393 24.438 25.4171 24.3481C25.3684 24.0855 25.3684 24.0855 25.2338 23.8661C25.0413 23.8595 24.8508 23.8575 24.6583 23.8588C24.6007 23.8589 24.5432 23.859 24.4839 23.8591C24.2993 23.8595 24.1148 23.8605 23.9303 23.8614C23.8055 23.8618 23.6807 23.8621 23.5559 23.8624C23.2493 23.8632 22.9427 23.8646 22.6361 23.8661ZM27.683 23.8661C27.7311 24.2513 27.78 24.588 27.8727 24.9585C27.8842 25.005 27.8958 25.0514 27.9076 25.0993C27.9459 25.2531 27.9846 25.4068 28.0233 25.5604C28.051 25.6714 28.0787 25.7824 28.1064 25.8934C28.1812 26.1934 28.2564 26.4933 28.3318 26.7931C28.4106 27.1072 28.4891 27.4214 28.5676 27.7355C28.6994 28.2625 28.8315 28.7894 28.9637 29.3163C29.1167 29.9259 29.2693 30.5355 29.4217 31.1452C29.5683 31.7319 29.7152 32.3186 29.8621 32.9052C29.9247 33.1549 29.9872 33.4046 30.0496 33.6543C30.123 33.9478 30.1966 34.2413 30.2704 34.5348C30.2975 34.6427 30.3245 34.7506 30.3514 34.8585C30.3881 35.0053 30.4251 35.1521 30.462 35.2989C30.4826 35.3812 30.5033 35.4635 30.5245 35.5483C30.5699 35.7379 30.5699 35.7379 30.6517 35.8895C32.1458 35.8895 33.6398 35.8895 35.1791 35.8895C34.723 34.7452 34.723 34.7452 34.2548 33.6061C34.2268 33.5389 34.1987 33.4716 34.1698 33.4024C34.1103 33.2597 34.0507 33.1171 33.9911 32.9746C33.8954 32.7455 33.7997 32.5164 33.7041 32.2873C33.5699 31.9655 33.4355 31.6438 33.3012 31.3221C32.9852 30.5655 32.6696 29.8089 32.3541 29.0521C32.324 28.9798 32.2938 28.9074 32.2627 28.8329C31.5733 27.1789 30.8895 25.5227 30.2064 23.8661C29.3737 23.8661 28.5409 23.8661 27.683 23.8661ZM32.6556 23.8661C33.0831 24.942 33.522 26.0125 33.9684 27.0807C34.0336 27.2369 34.0988 27.3932 34.164 27.5495C34.674 28.7715 35.1855 29.993 35.6986 31.2137C35.7231 31.2137 35.7476 31.2137 35.7728 31.2137C35.7728 28.789 35.7728 26.3643 35.7728 23.8661C34.7442 23.8661 33.7155 23.8661 32.6556 23.8661Z" fill="#379DFE"/>
<path d="M21.5981 5.97939C22.5724 6.71284 23.1299 7.66818 23.333 8.86928C23.4808 10.1513 23.1943 11.3741 22.4146 12.4112C21.7461 13.2026 20.7796 13.7748 19.7427 13.9208C18.3096 14.005 17.1106 13.7789 15.981 12.8269C15.081 11.9481 14.6233 10.827 14.5938 9.579C14.6245 8.3306 15.0673 7.23668 15.9575 6.35048C17.5921 4.97611 19.7945 4.81246 21.5981 5.97939ZM17.2659 8.39962C16.9542 8.85714 16.8444 9.36561 16.9224 9.91298C17.0599 10.5174 17.3105 10.9537 17.813 11.3231C18.3849 11.663 19.0049 11.7263 19.649 11.571C20.2207 11.3706 20.6044 11.0286 20.8838 10.4928C21.1217 9.98497 21.1523 9.45796 21.009 8.91567C20.8094 8.38147 20.381 7.90653 19.8772 7.64003C18.8599 7.26834 17.93 7.58926 17.2659 8.39962Z" fill="#379DFE"/>
<path d="M28.0432 5.16848C28.287 5.35796 28.4303 5.53104 28.5001 5.83094C28.5333 6.24913 28.5147 6.50997 28.2774 6.87C27.9637 7.16385 27.6105 7.31721 27.2198 7.48231C27.1598 7.50929 27.0998 7.53627 27.038 7.56406C26.594 7.75304 26.1464 7.87376 25.6754 7.70629C25.3852 7.56886 25.2022 7.37868 25.0611 7.0915C24.9509 6.76221 24.9426 6.4517 25.0709 6.12618C25.3312 5.6691 25.6467 5.50845 26.1251 5.31605C26.1911 5.28749 26.2571 5.25893 26.3251 5.22951C26.9192 4.97723 27.448 4.8217 28.0432 5.16848Z" fill="#379DFE"/>
<path d="M11.9723 5.35784C12.03 5.38055 12.0877 5.40326 12.1471 5.42666C12.5703 5.61157 12.8102 5.84543 12.9882 6.2763C13.0577 6.67676 13.0168 7.00984 12.7893 7.35189C12.5786 7.59255 12.3447 7.73446 12.0261 7.78276C11.5328 7.79633 11.1524 7.65322 10.706 7.45452C10.6036 7.41233 10.6036 7.41233 10.4993 7.36929C10.0835 7.1888 9.82691 7.02657 9.57413 6.64739C9.44973 6.27418 9.4549 5.95417 9.58805 5.58978C9.78085 5.29724 9.98339 5.14522 10.2931 4.98675C10.8884 4.87444 11.4302 5.13255 11.9723 5.35784Z" fill="#379DFE"/>
<path d="M27.2939 11.7035C27.3621 11.7316 27.4303 11.7597 27.5006 11.7887C27.9163 11.9692 28.173 12.1314 28.4258 12.5106C28.5502 12.8838 28.545 13.2038 28.4118 13.5682C28.2048 13.8823 27.9812 14.063 27.6279 14.1898C26.9429 14.322 26.0058 13.85 25.4327 13.5001C25.1636 13.2857 25.0409 13.0553 24.9841 12.7182C24.9615 12.315 25.0401 12.0008 25.3086 11.6942C25.9215 11.1575 26.6267 11.4065 27.2939 11.7035Z" fill="#379DFE"/>
<path d="M12.4548 11.5133C12.7258 11.6935 12.8857 11.9049 12.9882 12.2137C13.0513 12.5812 13.0328 12.955 12.823 13.2757C12.4984 13.5852 12.0611 13.749 11.6523 13.9207C11.5722 13.955 11.4921 13.9892 11.4096 14.0245C10.9964 14.1826 10.6707 14.2687 10.2401 14.1359C9.93395 13.9964 9.721 13.8202 9.54633 13.5265C9.45867 13.1495 9.45667 12.8517 9.58808 12.492C9.87975 12.0495 10.3084 11.875 10.7802 11.6756C10.8702 11.6352 10.8702 11.6352 10.962 11.5939C11.4609 11.3815 11.9464 11.2725 12.4548 11.5133Z" fill="#379DFE"/>
<path d="M16.7229 15.7577C17.0041 15.9931 17.1132 16.1802 17.2099 16.5323C17.2361 17.3299 16.7869 18.3144 16.2543 18.8934C15.9201 19.1185 15.5282 19.0879 15.1411 19.0418C14.8438 18.8932 14.6469 18.7316 14.4731 18.4481C14.2789 17.8656 14.4316 17.3764 14.6726 16.8338C14.6978 16.7727 14.723 16.7116 14.749 16.6486C14.947 16.1888 15.1645 15.889 15.6096 15.6371C16.0403 15.5056 16.3266 15.5483 16.7229 15.7577Z" fill="#379DFE"/>
<path d="M22.5629 15.7021C22.9495 15.977 23.1154 16.393 23.3051 16.8153C23.3345 16.8779 23.364 16.9405 23.3944 17.0049C23.6191 17.513 23.7046 17.9392 23.5138 18.4713C23.3378 18.7322 23.1408 18.9014 22.8597 19.0419C22.4737 19.0804 22.1446 19.0879 21.7882 18.9259C21.5631 18.7118 21.43 18.5037 21.3012 18.2255C21.2445 18.1035 21.2445 18.1035 21.1866 17.9791C20.9013 17.3445 20.6741 16.8271 20.9292 16.1485C21.0764 15.8553 21.2924 15.7445 21.5748 15.6C21.9291 15.5332 22.2238 15.5843 22.5629 15.7021Z" fill="#379DFE"/>
<path d="M22.859 0.116135C23.1563 0.26475 23.3532 0.426368 23.527 0.709885C23.7195 1.28734 23.551 1.74429 23.3275 2.28239C23.2897 2.37991 23.2897 2.37991 23.2511 2.47939C23.0573 2.95739 22.85 3.26085 22.3905 3.52092C21.9598 3.65233 21.6735 3.60967 21.2772 3.40031C20.996 3.16488 20.8869 2.97782 20.7902 2.62566C20.7777 2.24456 20.8712 1.95527 21.0036 1.60051C21.0524 1.46906 21.0524 1.46906 21.1021 1.33495C21.4595 0.417856 21.8407 0.0111393 22.859 0.116135Z" fill="#379DFE"/>
<path d="M15.9564 0.116122C16.4952 0.385509 16.6764 0.794978 16.8934 1.32682C16.9166 1.3813 16.9397 1.43579 16.9636 1.49192C17.1803 2.0183 17.2928 2.46306 17.0697 3.01065C16.818 3.32704 16.5652 3.48658 16.1791 3.6044C15.8168 3.6159 15.5853 3.56306 15.2884 3.35391C14.9795 3.05971 14.8244 2.70048 14.6576 2.31485C14.6315 2.25531 14.6055 2.19576 14.5787 2.13442C14.3804 1.64226 14.3039 1.19452 14.4859 0.686679C14.8693 0.118274 15.3113 0.0496125 15.9564 0.116122Z" fill="#379DFE"/>
</g>
<defs>
<clipPath id="clip0_1237_967">
<rect width="38" height="38" fill="white" transform="translate(0 0.116089)"/>
</clipPath>
</defs>
</svg>
