<svg width="38" height="39" viewBox="0 0 38 39" fill="none" xmlns="http://www.w3.org/2000/svg">
<g clip-path="url(#clip0_1237_918)">
<path d="M2.64238 0.672524C2.72847 0.671877 2.72847 0.671877 2.8163 0.671216C3.00978 0.670128 3.20319 0.671165 3.39667 0.672185C3.53631 0.671843 3.67595 0.671371 3.8156 0.670781C4.20023 0.669538 4.58485 0.670156 4.96948 0.671074C5.38394 0.671744 5.79839 0.67071 6.21285 0.669892C7.02513 0.66857 7.83739 0.668859 8.64967 0.669718C9.30962 0.670388 9.96957 0.67048 10.6295 0.670156C10.7702 0.670088 10.7702 0.670088 10.9138 0.670018C11.1043 0.669924 11.2948 0.669827 11.4854 0.66973C13.2225 0.668907 14.9596 0.669761 16.6968 0.671316C18.2832 0.672725 19.8697 0.672599 21.4562 0.671179C23.2378 0.66959 25.0193 0.668964 26.8009 0.669876C26.9908 0.669971 27.1806 0.670064 27.3705 0.670156C27.5106 0.670225 27.5106 0.670225 27.6536 0.670295C28.313 0.670552 28.9724 0.670118 29.6318 0.66942C30.4351 0.668589 31.2383 0.66881 32.0415 0.670394C32.4516 0.671176 32.8617 0.671477 33.2718 0.670498C33.6468 0.669617 34.0218 0.670094 34.3969 0.671679C34.5329 0.672012 34.669 0.671839 34.805 0.671122C34.9893 0.670226 35.1734 0.671139 35.3576 0.672524C35.4378 0.671481 35.4378 0.671481 35.5195 0.670418C35.7676 0.674173 35.9014 0.694777 36.1032 0.843935C36.2743 1.08501 36.2598 1.31925 36.2564 1.60399C36.2571 1.69498 36.2571 1.69498 36.2579 1.7878C36.259 1.99134 36.2581 2.19482 36.2572 2.39836C36.2576 2.54416 36.2581 2.68997 36.2587 2.83577C36.2601 3.23201 36.2596 3.62823 36.2586 4.02447C36.2579 4.43877 36.2586 4.85307 36.259 5.26738C36.2596 5.96318 36.2589 6.65898 36.2575 7.35478C36.2558 8.15969 36.2564 8.96457 36.258 9.76948C36.2593 10.4601 36.2595 11.1506 36.2588 11.8412C36.2583 12.2539 36.2582 12.6665 36.2592 13.0792C36.2601 13.4671 36.2595 13.855 36.2578 14.243C36.2574 14.3855 36.2575 14.528 36.2581 14.6706C36.2589 14.8648 36.2579 15.059 36.2564 15.2533C36.2574 15.3383 36.2574 15.3383 36.2585 15.4251C36.2548 15.6701 36.2446 15.8174 36.0914 16.0134C35.89 16.1726 35.8005 16.1843 35.5469 16.1839C35.4328 16.1848 35.4328 16.1848 35.3163 16.1857C35.2329 16.1848 35.1494 16.184 35.0634 16.1831C34.9747 16.1833 34.8859 16.1836 34.7945 16.1839C34.548 16.1843 34.3017 16.1833 34.0552 16.1818C33.7895 16.1806 33.5238 16.181 33.2581 16.1812C32.7977 16.1814 32.3373 16.1804 31.8769 16.1788C31.2113 16.1764 30.5457 16.1756 29.88 16.1752C28.8001 16.1746 27.7202 16.1726 26.6403 16.1698C25.5911 16.1671 24.542 16.165 23.4929 16.1637C23.4283 16.1636 23.3636 16.1635 23.297 16.1635C22.9726 16.1631 22.6483 16.1627 22.3239 16.1623C19.6326 16.1592 16.9413 16.1539 14.25 16.1474C14.25 16.9311 14.25 17.7149 14.25 18.5224C21.8916 18.5224 29.5331 18.5224 37.4062 18.5224C37.4062 18.9143 37.4062 19.3061 37.4062 19.7099C25.2581 19.7099 13.11 19.7099 0.59375 19.7099C0.59375 19.318 0.59375 18.9261 0.59375 18.5224C1.96531 18.5224 3.33687 18.5224 4.75 18.5224C4.75 17.7386 4.75 16.9549 4.75 16.1474C4.56057 16.1508 4.37114 16.1543 4.17596 16.1578C3.99223 16.1601 3.8085 16.1619 3.62476 16.1637C3.49719 16.1652 3.36962 16.1672 3.24207 16.1698C3.05856 16.1734 2.87512 16.1751 2.69159 16.1764C2.60622 16.1787 2.60622 16.1787 2.51913 16.181C2.27814 16.1811 2.1155 16.1733 1.91461 16.0342C1.73059 15.7807 1.74003 15.5548 1.74355 15.2533C1.74309 15.1926 1.74263 15.132 1.74215 15.0695C1.74096 14.8659 1.7419 14.6624 1.74284 14.4589C1.74243 14.3131 1.74191 14.1673 1.74126 14.0215C1.7399 13.6253 1.74043 13.229 1.74137 12.8328C1.74212 12.4185 1.74143 12.0042 1.74096 11.5899C1.74042 10.8941 1.74113 10.1983 1.74255 9.50249C1.74416 8.69758 1.74364 7.89269 1.742 7.08779C1.74066 6.39721 1.74047 5.70665 1.74124 5.01607C1.74171 4.6034 1.74177 4.19074 1.74079 3.77807C1.73993 3.39014 1.74052 3.00223 1.74224 2.6143C1.74263 2.47177 1.74252 2.32923 1.74187 2.18669C1.74106 1.99242 1.74207 1.79825 1.74355 1.60399C1.74256 1.51895 1.74256 1.51895 1.74154 1.4322C1.74507 1.19505 1.7578 1.03981 1.89676 0.843935C2.14093 0.663465 2.35028 0.668724 2.64238 0.672524ZM2.96875 1.89738C2.96875 6.20801 2.96875 10.5186 2.96875 14.9599C3.55656 14.9599 4.14438 14.9599 4.75 14.9599C4.75277 14.7696 4.75555 14.5793 4.75841 14.3832C4.76184 14.199 4.76564 14.0148 4.76948 13.8306C4.77195 13.7025 4.77403 13.5744 4.77571 13.4464C4.7782 13.2623 4.78208 13.0783 4.78624 12.8942C4.78671 12.8369 4.78719 12.7796 4.78768 12.7206C4.79361 12.5046 4.79903 12.3313 4.90922 12.142C5.10734 12.0317 5.28087 12.0264 5.5061 12.0143C5.62708 12.007 5.62708 12.007 5.7505 11.9995C5.81221 11.9968 5.87392 11.994 5.9375 11.9911C5.93819 11.9227 5.93889 11.8542 5.9396 11.7837C5.94289 11.5268 5.94748 11.27 5.9529 11.0131C5.95498 10.9025 5.95656 10.7919 5.95761 10.6812C5.96394 10.0525 5.97952 9.50417 6.30859 8.94816C6.34686 8.87163 6.38513 8.79509 6.42456 8.71623C6.70079 8.39042 7.05546 8.19685 7.42188 7.98332C7.4058 7.94352 7.38973 7.90372 7.37317 7.86272C7.12563 7.16594 7.06332 6.3389 7.32446 5.63615C7.61563 5.03047 8.04551 4.66262 8.66649 4.41212C9.31271 4.23552 10.0789 4.26289 10.6846 4.55563C11.2109 4.8611 11.57 5.3172 11.775 5.89273C11.8874 6.59398 11.8443 7.32416 11.5781 7.98332C11.6319 8.01307 11.6857 8.04283 11.7411 8.07348C12.4051 8.46394 12.7745 8.87121 12.9883 9.61613C13.0048 9.80336 13.0145 9.99125 13.019 10.1792C13.0212 10.2573 13.0212 10.2573 13.0234 10.337C13.0278 10.5018 13.0312 10.6666 13.0347 10.8315C13.0375 10.9439 13.0404 11.0562 13.0434 11.1686C13.0505 11.4428 13.0567 11.717 13.0625 11.9911C13.1242 11.9939 13.1859 11.9967 13.2495 11.9995C13.3705 12.0069 13.3705 12.0069 13.4939 12.0143C13.574 12.0186 13.6541 12.0229 13.7366 12.0274C13.9531 12.0654 13.9531 12.0654 14.1758 12.288C14.2003 13.1697 14.2248 14.0514 14.25 14.9599C21.1078 14.9599 27.9656 14.9599 35.0312 14.9599C35.0312 10.6493 35.0312 6.33863 35.0312 1.89738C24.4506 1.89738 13.87 1.89738 2.96875 1.89738ZM8.50732 6.0258C8.34374 6.36555 8.32755 6.64779 8.38672 7.01848C8.55963 7.37759 8.76979 7.58776 9.12891 7.76066C9.49959 7.81983 9.78183 7.80364 10.1216 7.64006C10.3876 7.39939 10.5832 7.20664 10.6417 6.84047C10.6607 6.41862 10.6086 6.15387 10.3164 5.83098C9.99351 5.53883 9.72876 5.48669 9.30692 5.50569C8.94074 5.56413 8.748 5.7598 8.50732 6.0258ZM7.42651 9.44914C6.92282 10.2428 7.125 11.0278 7.125 11.9911C8.6925 11.9911 10.26 11.9911 11.875 11.9911C11.9991 10.5666 11.9991 10.5666 11.4482 9.3239C10.8934 8.97181 10.304 8.99702 9.67029 8.99895C9.51018 8.99919 9.35017 8.99745 9.19008 8.99557C8.22538 8.97659 8.22538 8.97659 7.42651 9.44914ZM5.9375 13.1786C5.9375 14.9421 5.9375 16.7055 5.9375 18.5224C8.28875 18.5224 10.64 18.5224 13.0625 18.5224C13.0625 16.7589 13.0625 14.9955 13.0625 13.1786C10.7113 13.1786 8.36 13.1786 5.9375 13.1786Z" fill="#379DFE"/>
<path d="M5.99427 26.4299C6.68416 26.879 7.20366 27.4438 7.42211 28.245C7.43788 28.4542 7.44686 28.6532 7.4453 28.862C7.44492 28.9456 7.44492 28.9456 7.44452 29.0309C7.43344 29.5963 7.33013 30.0233 6.9768 30.4716C7.02435 30.4986 7.0719 30.5256 7.12089 30.5534C7.53079 30.7916 7.89533 31.034 8.23852 31.3622C8.23852 31.4112 8.23852 31.4602 8.23852 31.5107C8.2875 31.5107 8.33648 31.5107 8.38695 31.5107C8.4058 31.4663 8.42465 31.4219 8.44407 31.3761C8.68447 30.9488 9.22933 30.6987 9.64867 30.4716C9.60275 30.4073 9.55683 30.343 9.50951 30.2768C9.09194 29.6136 9.10233 28.7739 9.24656 28.0189C9.47818 27.3547 10.0149 26.813 10.6121 26.4592C11.2984 26.1405 12.2308 26.0965 12.9514 26.3478C13.6526 26.6905 14.1893 27.2847 14.4807 28.0015C14.5596 28.291 14.5725 28.5643 14.5703 28.862C14.57 28.9177 14.5698 28.9735 14.5695 29.0309C14.5584 29.5963 14.4551 30.0233 14.1018 30.4716C14.1493 30.4986 14.1969 30.5256 14.2459 30.5534C14.6558 30.7916 15.0203 31.034 15.3635 31.3622C15.3635 31.4112 15.3635 31.4602 15.3635 31.5107C15.4125 31.5107 15.4615 31.5107 15.512 31.5107C15.5308 31.4663 15.5496 31.4219 15.5691 31.3761C15.8095 30.9488 16.3543 30.6987 16.7737 30.4716C16.7277 30.4073 16.6818 30.343 16.6345 30.2768C16.2169 29.6136 16.2273 28.7739 16.3716 28.0189C16.6032 27.3547 17.1399 26.813 17.7371 26.4592C18.4234 26.1405 19.3558 26.0965 20.0764 26.3478C20.7776 26.6905 21.3143 27.2847 21.6057 28.0015C21.6846 28.291 21.6975 28.5643 21.6953 28.862C21.695 28.9177 21.6948 28.9735 21.6945 29.0309C21.6834 29.5963 21.5801 30.0233 21.2268 30.4716C21.2743 30.4986 21.3219 30.5256 21.3709 30.5534C21.7808 30.7916 22.1453 31.034 22.4885 31.3622C22.4885 31.4112 22.4885 31.4602 22.4885 31.5107C22.5375 31.5107 22.5865 31.5107 22.637 31.5107C22.6558 31.4663 22.6746 31.4219 22.6941 31.3761C22.9345 30.9488 23.4793 30.6987 23.8987 30.4716C23.8527 30.4073 23.8068 30.343 23.7595 30.2768C23.3419 29.6136 23.3523 28.7739 23.4966 28.0189C23.7282 27.3547 24.2649 26.813 24.8621 26.4592C25.5484 26.1405 26.4808 26.0965 27.2014 26.3478C27.9026 26.6905 28.4393 27.2847 28.7307 28.0015C28.8096 28.291 28.8225 28.5643 28.8203 28.862C28.82 28.9177 28.8198 28.9735 28.8195 29.0309C28.8084 29.5963 28.7051 30.0233 28.3518 30.4716C28.3993 30.4986 28.4469 30.5256 28.4959 30.5534C28.9058 30.7916 29.2703 31.034 29.6135 31.3622C29.6135 31.4112 29.6135 31.4602 29.6135 31.5107C29.6625 31.5107 29.7115 31.5107 29.762 31.5107C29.7808 31.4663 29.7996 31.4219 29.8191 31.3761C30.0595 30.9488 30.6043 30.6987 31.0237 30.4716C30.9777 30.4073 30.9318 30.343 30.8845 30.2768C30.4669 29.6136 30.4773 28.7739 30.6216 28.0189C30.8532 27.3547 31.3899 26.813 31.9871 26.4592C32.6734 26.1405 33.6058 26.0965 34.3264 26.3478C35.0276 26.6905 35.5643 27.2847 35.8557 28.0015C35.9346 28.291 35.9475 28.5643 35.9453 28.862C35.945 28.9177 35.9448 28.9735 35.9445 29.0309C35.9334 29.5963 35.8301 30.0233 35.4768 30.4716C35.5243 30.4986 35.5719 30.5256 35.6209 30.5534C36.4514 31.0361 37.0527 31.5537 37.3583 32.4918C37.4544 32.9035 37.4396 33.3225 37.4387 33.7433C37.439 33.8432 37.4394 33.943 37.4398 34.0428C37.4405 34.2507 37.4403 34.4586 37.4396 34.6665C37.4387 34.9327 37.4402 35.1987 37.4424 35.4649C37.4438 35.6705 37.4437 35.876 37.4433 36.0816C37.4433 36.2273 37.4446 36.373 37.4458 36.5187C37.4451 36.6072 37.4444 36.6957 37.4437 36.7868C37.4437 36.9034 37.4437 36.9034 37.4437 37.0224C37.3949 37.2887 37.3257 37.36 37.1096 37.5224C36.8995 37.5515 36.7183 37.5623 36.5083 37.5597C36.4469 37.5602 36.3855 37.5606 36.3222 37.561C36.1151 37.5621 35.908 37.5611 35.7009 37.5601C35.5515 37.5604 35.402 37.5609 35.2526 37.5615C34.8409 37.5627 34.4292 37.5621 34.0175 37.5612C33.5739 37.5605 33.1303 37.5616 32.6867 37.5624C31.8675 37.5636 31.0484 37.5635 30.2293 37.5627C29.4726 37.562 28.716 37.5618 27.9593 37.5621C27.9091 37.5621 27.859 37.5622 27.8073 37.5622C27.6038 37.5623 27.4002 37.5624 27.1966 37.5625C25.2863 37.5634 23.3759 37.5625 21.4655 37.561C19.7674 37.5595 18.0693 37.5597 16.3713 37.5611C14.4644 37.5627 12.5576 37.5633 10.6508 37.5624C10.4476 37.5623 10.2444 37.5622 10.0412 37.5621C9.99115 37.5621 9.94112 37.5621 9.88957 37.562C9.13329 37.5617 8.37702 37.5621 7.62074 37.5628C6.76101 37.5637 5.90128 37.5635 5.04155 37.5619C4.60259 37.5611 4.16365 37.5608 3.72469 37.5618C3.32329 37.5626 2.92192 37.5622 2.52052 37.5606C2.37488 37.5603 2.22925 37.5604 2.08361 37.5611C1.88644 37.562 1.68937 37.5611 1.4922 37.5597C1.40634 37.5608 1.40634 37.5608 1.31874 37.5618C1.05983 37.5582 0.916856 37.5419 0.707194 37.3842C0.558481 37.1757 0.556349 37.0442 0.55557 36.7892C0.554634 36.7012 0.553699 36.6132 0.552734 36.5225C0.553335 36.4276 0.553936 36.3327 0.554555 36.2349C0.554355 36.1357 0.554067 36.0366 0.553695 35.9375C0.553257 35.7295 0.553892 35.5216 0.55528 35.3137C0.55696 35.0493 0.556005 34.7851 0.55422 34.5207C0.553137 34.3157 0.553493 34.1108 0.554258 33.9058C0.554548 33.7616 0.553657 33.6175 0.552734 33.4733C0.562099 32.5765 0.781416 31.8683 1.41039 31.2138C1.75017 30.9141 2.1265 30.6867 2.52367 30.4716C2.47775 30.4073 2.43183 30.343 2.38451 30.2768C1.96694 29.6136 1.97733 28.7739 2.12156 28.0189C2.35318 27.3547 2.8899 26.813 3.48707 26.4592C4.21386 26.1218 5.26227 26.0721 5.99427 26.4299ZM3.48852 28.1383C3.27283 28.5285 3.26048 28.9257 3.34008 29.3583C3.50401 29.7468 3.76105 30.0937 4.14808 30.2791C4.60968 30.4088 5.10052 30.4118 5.52489 30.1747C5.89163 29.8999 6.11702 29.6013 6.19837 29.1455C6.22624 28.6587 6.14716 28.3228 5.84525 27.9369C5.51164 27.5854 5.24177 27.4856 4.75487 27.4611C4.18697 27.4831 3.82799 27.6854 3.48852 28.1383ZM10.6135 28.1383C10.3978 28.5285 10.3855 28.9257 10.4651 29.3583C10.629 29.7468 10.886 30.0937 11.2731 30.2791C11.7347 30.4088 12.2255 30.4118 12.6499 30.1747C13.0166 29.8999 13.242 29.6013 13.3234 29.1455C13.3512 28.6587 13.2722 28.3228 12.9703 27.9369C12.6366 27.5854 12.3668 27.4856 11.8799 27.4611C11.312 27.4831 10.953 27.6854 10.6135 28.1383ZM17.7385 28.1383C17.5228 28.5285 17.5105 28.9257 17.5901 29.3583C17.754 29.7468 18.011 30.0937 18.3981 30.2791C18.8597 30.4088 19.3505 30.4118 19.7749 30.1747C20.1416 29.8999 20.367 29.6013 20.4484 29.1455C20.4762 28.6587 20.3972 28.3228 20.0953 27.9369C19.7616 27.5854 19.4918 27.4856 19.0049 27.4611C18.437 27.4831 18.078 27.6854 17.7385 28.1383ZM24.8635 28.1383C24.6478 28.5285 24.6355 28.9257 24.7151 29.3583C24.879 29.7468 25.136 30.0937 25.5231 30.2791C25.9847 30.4088 26.4755 30.4118 26.8999 30.1747C27.2666 29.8999 27.492 29.6013 27.5734 29.1455C27.6012 28.6587 27.5222 28.3228 27.2203 27.9369C26.8866 27.5854 26.6168 27.4856 26.1299 27.4611C25.562 27.4831 25.203 27.6854 24.8635 28.1383ZM31.9885 28.1383C31.7728 28.5285 31.7605 28.9257 31.8401 29.3583C32.004 29.7468 32.261 30.0937 32.6481 30.2791C33.1097 30.4088 33.6005 30.4118 34.0249 30.1747C34.3916 29.8999 34.617 29.6013 34.6984 29.1455C34.7262 28.6587 34.6472 28.3228 34.3452 27.9369C34.0116 27.5854 33.7418 27.4856 33.2549 27.4611C32.687 27.4831 32.328 27.6854 31.9885 28.1383ZM2.32856 32.152C1.32296 33.2666 1.78148 34.9625 1.78148 36.3349C3.74086 36.3349 5.70023 36.3349 7.71898 36.3349C7.92547 34.3056 7.92547 34.3056 7.27367 32.2529C6.58218 31.5663 5.86047 31.571 4.92612 31.5711C4.76538 31.571 4.60467 31.5696 4.44394 31.5682C3.2889 31.5608 3.2889 31.5608 2.32856 32.152ZM9.45356 32.152C8.44796 33.2666 8.90648 34.9625 8.90648 36.3349C10.8659 36.3349 12.8252 36.3349 14.844 36.3349C15.0505 34.3056 15.0505 34.3056 14.3987 32.2529C13.7072 31.5663 12.9855 31.571 12.0511 31.5711C11.8904 31.571 11.7297 31.5696 11.5689 31.5682C10.4139 31.5608 10.4139 31.5608 9.45356 32.152ZM16.5786 32.152C15.573 33.2666 16.0315 34.9625 16.0315 36.3349C17.9909 36.3349 19.9502 36.3349 21.969 36.3349C22.1755 34.3056 22.1755 34.3056 21.5237 32.2529C20.8322 31.5663 20.1105 31.571 19.1761 31.5711C19.0154 31.571 18.8547 31.5696 18.6939 31.5682C17.5389 31.5608 17.5389 31.5608 16.5786 32.152ZM23.7036 32.152C22.698 33.2666 23.1565 34.9625 23.1565 36.3349C25.1159 36.3349 27.0752 36.3349 29.094 36.3349C29.3005 34.3056 29.3005 34.3056 28.6487 32.2529C27.9572 31.5663 27.2355 31.571 26.3011 31.5711C26.1404 31.571 25.9797 31.5696 25.8189 31.5682C24.6639 31.5608 24.6639 31.5608 23.7036 32.152ZM30.8286 32.152C29.823 33.2666 30.2815 34.9625 30.2815 36.3349C32.2409 36.3349 34.2002 36.3349 36.219 36.3349C36.4255 34.3056 36.4255 34.3056 35.7737 32.2529C35.0822 31.5663 34.3605 31.571 33.4261 31.5711C33.2654 31.571 33.1047 31.5696 32.9439 31.5682C31.7889 31.5608 31.7889 31.5608 30.8286 32.152Z" fill="#379DFE"/>
<path d="M23.4729 3.06329C23.5644 3.06279 23.6559 3.06229 23.7502 3.06178C24.0005 3.06061 24.2508 3.06012 24.5011 3.06002C24.6577 3.05992 24.8144 3.0596 24.9711 3.05921C25.5186 3.05784 26.0662 3.05723 26.6137 3.05734C27.1225 3.05743 27.6314 3.05587 28.1402 3.05352C28.5783 3.05158 29.0164 3.05079 29.4545 3.05088C29.7156 3.05092 29.9767 3.05051 30.2378 3.04893C30.5295 3.04721 30.8211 3.0479 31.1128 3.04879C31.1982 3.04796 31.2837 3.04712 31.3717 3.04626C32.079 3.05175 32.6833 3.20864 33.2101 3.70063C33.7102 4.25685 33.8656 4.82662 33.8648 5.56011C33.8653 5.62859 33.8658 5.69708 33.8663 5.76764C33.8678 5.99333 33.868 6.219 33.8682 6.4447C33.8687 6.60221 33.8692 6.75971 33.8697 6.91722C33.8706 7.24719 33.8709 7.57716 33.8708 7.90713C33.8708 8.32889 33.8728 8.75061 33.8753 9.17236C33.877 9.49766 33.8773 9.82296 33.8772 10.1483C33.8774 10.3037 33.878 10.4591 33.8792 10.6146C33.8807 10.8325 33.8802 11.0504 33.8793 11.2683C33.8802 11.3318 33.881 11.3953 33.8819 11.4608C33.8747 12.1511 33.5749 12.755 33.1011 13.2528C32.4904 13.7341 31.9078 13.7945 31.15 13.7939C31.0125 13.7947 31.0125 13.7947 30.8723 13.7954C30.6217 13.7966 30.3711 13.7971 30.1205 13.7972C29.9637 13.7973 29.8069 13.7976 29.6501 13.798C29.1021 13.7994 28.5542 13.8 28.0063 13.7999C27.4968 13.7998 26.9874 13.8013 26.4779 13.8037C26.0395 13.8056 25.601 13.8064 25.1626 13.8063C24.9012 13.8063 24.6398 13.8067 24.3784 13.8083C24.0865 13.81 23.7947 13.8093 23.5029 13.8084C23.4171 13.8092 23.3314 13.8101 23.2431 13.8109C22.4758 13.805 21.86 13.5629 21.3003 13.0302C20.877 12.4929 20.7585 11.9696 20.7592 11.2983C20.7585 11.1957 20.7585 11.1957 20.7577 11.0911C20.7563 10.8658 20.756 10.6404 20.7558 10.4151C20.7554 10.2578 20.7549 10.1005 20.7543 9.94312C20.7535 9.61346 20.7532 9.28381 20.7533 8.95415C20.7533 8.53306 20.7513 8.11202 20.7487 7.69094C20.747 7.36595 20.7467 7.04097 20.7468 6.71597C20.7467 6.56081 20.746 6.40564 20.7448 6.25048C20.7434 6.03274 20.7438 5.81508 20.7447 5.59734C20.7439 5.53409 20.743 5.47083 20.7422 5.40566C20.7488 4.76656 20.957 4.1887 21.3966 3.71803C22.0259 3.15223 22.6509 3.06265 23.4729 3.06329ZM22.2698 4.69911C21.9967 5.12939 21.9461 5.55276 21.9479 6.05327C21.9475 6.11019 21.9471 6.1671 21.9467 6.22574C21.9457 6.41248 21.9458 6.59919 21.946 6.78593C21.9457 6.91671 21.9453 7.04749 21.945 7.17826C21.9444 7.45189 21.9445 7.7255 21.9448 7.99913C21.9453 8.34841 21.944 8.69767 21.9423 9.04695C21.9412 9.31692 21.9411 9.5869 21.9414 9.85687C21.9413 9.98559 21.9409 10.1143 21.9402 10.243C21.8952 11.2685 21.8952 11.2685 22.2856 12.1812C22.7638 12.6273 23.3551 12.6067 23.9672 12.6052C24.0873 12.6058 24.0873 12.6058 24.2099 12.6064C24.4737 12.6074 24.7375 12.6073 25.0014 12.6072C25.1854 12.6075 25.3694 12.6078 25.5535 12.6081C25.9389 12.6087 26.3243 12.6087 26.7098 12.6083C27.2028 12.6079 27.6958 12.6091 28.1889 12.6108C28.5689 12.6119 28.9489 12.612 29.3289 12.6118C29.5106 12.6118 29.6923 12.6122 29.8741 12.6129C30.1286 12.6138 30.3831 12.6133 30.6376 12.6125C30.7494 12.6133 30.7494 12.6133 30.8634 12.6142C31.3439 12.6106 31.8641 12.5806 32.2542 12.2676C32.6346 11.8515 32.678 11.3434 32.6762 10.8039C32.6765 10.747 32.6769 10.6901 32.6773 10.6315C32.6783 10.4447 32.6783 10.258 32.6781 10.0713C32.6784 9.94049 32.6787 9.80972 32.6791 9.67894C32.6796 9.40532 32.6796 9.1317 32.6792 8.85808C32.6788 8.50879 32.68 8.15954 32.6818 7.81026C32.6828 7.54028 32.6829 7.27031 32.6827 7.00033C32.6827 6.87162 32.6831 6.7429 32.6839 6.6142C32.7289 5.58872 32.7289 5.58872 32.3385 4.67597C31.8603 4.22995 31.2689 4.25046 30.6568 4.25197C30.5768 4.25159 30.4967 4.25121 30.4142 4.25082C30.1503 4.24979 29.8865 4.24986 29.6227 4.25003C29.4386 4.24974 29.2546 4.24942 29.0706 4.24906C28.6852 4.24851 28.2997 4.24853 27.9143 4.24892C27.4212 4.24935 26.9282 4.2481 26.4352 4.24637C26.0552 4.24528 25.6752 4.24521 25.2952 4.24545C25.1134 4.24541 24.9317 4.24502 24.75 4.24427C24.4954 4.24335 24.2409 4.24386 23.9864 4.24472C23.9119 4.24415 23.8374 4.24358 23.7606 4.243C23.2293 4.24694 22.6494 4.28392 22.2698 4.69911Z" fill="#379DFE"/>
<path d="M30.931 21.6798C31.6204 22.1286 32.1413 22.6938 32.3588 23.495C32.4495 24.316 32.4232 25.0927 31.9144 25.7694C31.4619 26.3032 30.9294 26.7714 30.206 26.8513C29.2854 26.8999 28.6066 26.8364 27.8825 26.2225C27.3854 25.7473 27.0274 25.2266 26.9901 24.5213C26.9703 23.5331 27.1 22.9101 27.8039 22.1739C28.6072 21.4288 29.9221 21.1867 30.931 21.6798ZM28.4252 23.3883C28.209 23.7774 28.2058 24.1761 28.2768 24.6083C28.4219 25.0122 28.6918 25.3028 29.066 25.5096C29.4856 25.6613 29.9152 25.6647 30.3274 25.4908C30.6847 25.2718 30.9812 25.0208 31.0971 24.6083C31.1591 24.1763 31.1657 23.7768 30.9487 23.3883C30.6737 23.0214 30.3748 22.7926 29.9169 22.7174C29.2602 22.686 28.8217 22.8593 28.4252 23.3883Z" fill="#379DFE"/>
<path d="M23.806 21.6798C24.4954 22.1286 25.0163 22.6938 25.2338 23.495C25.3245 24.316 25.2982 25.0927 24.7894 25.7694C24.3369 26.3032 23.8044 26.7714 23.081 26.8513C22.1604 26.8999 21.4816 26.8364 20.7575 26.2225C20.2604 25.7473 19.9024 25.2266 19.8651 24.5213C19.8453 23.5331 19.975 22.9101 20.6789 22.1739C21.4822 21.4288 22.7971 21.1867 23.806 21.6798ZM21.3002 23.3883C21.084 23.7774 21.0808 24.1761 21.1518 24.6083C21.2969 25.0122 21.5668 25.3028 21.941 25.5096C22.3606 25.6613 22.7902 25.6647 23.2024 25.4908C23.5597 25.2718 23.8562 25.0208 23.9721 24.6083C24.0341 24.1763 24.0407 23.7768 23.8237 23.3883C23.5487 23.0214 23.2498 22.7926 22.7919 22.7174C22.1352 22.686 21.6967 22.8593 21.3002 23.3883Z" fill="#379DFE"/>
<path d="M16.681 21.6798C17.3704 22.1286 17.8913 22.6938 18.1088 23.495C18.1995 24.316 18.1732 25.0927 17.6644 25.7694C17.2119 26.3032 16.6794 26.7714 15.956 26.8513C15.0354 26.8999 14.3566 26.8364 13.6325 26.2225C13.1354 25.7473 12.7774 25.2266 12.7401 24.5213C12.7203 23.5331 12.85 22.9101 13.5539 22.1739C14.3572 21.4288 15.6721 21.1867 16.681 21.6798ZM14.1752 23.3883C13.959 23.7774 13.9558 24.1761 14.0268 24.6083C14.1719 25.0122 14.4418 25.3028 14.816 25.5096C15.2356 25.6613 15.6652 25.6647 16.0774 25.4908C16.4347 25.2718 16.7312 25.0208 16.8471 24.6083C16.9091 24.1763 16.9157 23.7768 16.6987 23.3883C16.4237 23.0214 16.1248 22.7926 15.6669 22.7174C15.0102 22.686 14.5717 22.8593 14.1752 23.3883Z" fill="#379DFE"/>
<path d="M9.55599 21.6798C10.2454 22.1286 10.7663 22.6938 10.9838 23.495C11.0745 24.316 11.0482 25.0927 10.5394 25.7694C10.0869 26.3032 9.5544 26.7714 8.831 26.8513C7.91044 26.8999 7.23159 26.8364 6.50751 26.2225C6.01041 25.7473 5.65237 25.2266 5.61515 24.5213C5.59529 23.5331 5.72505 22.9101 6.42895 22.1739C7.23221 21.4288 8.54712 21.1867 9.55599 21.6798ZM7.05024 23.3883C6.83397 23.7774 6.83084 24.1761 6.9018 24.6083C7.04688 25.0122 7.31678 25.3028 7.69095 25.5096C8.11058 25.6613 8.54016 25.6647 8.95238 25.4908C9.30971 25.2718 9.6062 25.0208 9.72211 24.6083C9.78407 24.1763 9.79073 23.7768 9.57367 23.3883C9.29867 23.0214 8.99977 22.7926 8.54186 22.7174C7.88521 22.686 7.44669 22.8593 7.05024 23.3883Z" fill="#379DFE"/>
<path d="M25.5312 10.2098C27.4906 10.2098 29.45 10.2098 31.4688 10.2098C31.4688 10.6017 31.4688 10.9936 31.4688 11.3973C29.5094 11.3973 27.55 11.3973 25.5312 11.3973C25.5312 11.0055 25.5312 10.6136 25.5312 10.2098Z" fill="#379DFE"/>
<path d="M25.5312 7.83484C27.4906 7.83484 29.45 7.83484 31.4688 7.83484C31.4688 8.22671 31.4688 8.61859 31.4688 9.02234C29.5094 9.02234 27.55 9.02234 25.5312 9.02234C25.5312 8.63046 25.5312 8.23859 25.5312 7.83484Z" fill="#379DFE"/>
<path d="M25.5312 5.45984C27.4906 5.45984 29.45 5.45984 31.4688 5.45984C31.4688 5.85171 31.4688 6.24359 31.4688 6.64734C29.5094 6.64734 27.55 6.64734 25.5312 6.64734C25.5312 6.25546 25.5312 5.86359 25.5312 5.45984Z" fill="#379DFE"/>
<path d="M23.1562 10.2098C23.5481 10.2098 23.94 10.2098 24.3438 10.2098C24.3438 10.6017 24.3438 10.9936 24.3438 11.3973C23.9519 11.3973 23.56 11.3973 23.1562 11.3973C23.1562 11.0055 23.1562 10.6136 23.1562 10.2098Z" fill="#379DFE"/>
<path d="M23.1562 7.83484C23.5481 7.83484 23.94 7.83484 24.3438 7.83484C24.3438 8.22671 24.3438 8.61859 24.3438 9.02234C23.9519 9.02234 23.56 9.02234 23.1562 9.02234C23.1562 8.63046 23.1562 8.23859 23.1562 7.83484Z" fill="#379DFE"/>
<path d="M23.1562 5.45984C23.5481 5.45984 23.94 5.45984 24.3438 5.45984C24.3438 5.85171 24.3438 6.24359 24.3438 6.64734C23.9519 6.64734 23.56 6.64734 23.1562 6.64734C23.1562 6.25546 23.1562 5.86359 23.1562 5.45984Z" fill="#379DFE"/>
</g>
<defs>
<clipPath id="clip0_1237_918">
<rect width="38" height="38" fill="white" transform="translate(0 0.116089)"/>
</clipPath>
</defs>
</svg>
