<svg width="38" height="39" viewBox="0 0 38 39" fill="none" xmlns="http://www.w3.org/2000/svg">
<g clip-path="url(#clip0_1237_1006)">
<path d="M14.809 0.100584C14.8786 0.0991526 14.9482 0.0977209 15.02 0.0962458C15.3393 0.0919588 15.6587 0.0883014 15.9781 0.086016C16.1463 0.0844156 16.3145 0.081886 16.4827 0.0784057C16.7255 0.0734276 16.9682 0.0713939 17.211 0.06998C17.2858 0.0679144 17.3606 0.0658489 17.4376 0.0637207C17.8852 0.0650224 18.1342 0.127646 18.4603 0.441136C18.5982 0.615626 18.6576 0.791115 18.7038 1.0067C18.7652 1.01445 18.8266 1.0222 18.8899 1.03019C20.1986 1.28636 21.3955 2.10565 22.3405 3.01061C22.4155 3.06878 22.4905 3.12695 22.5678 3.18688C24.0821 4.54003 24.9453 6.60751 25.2351 8.57701C25.2351 8.65049 25.2351 8.72397 25.2351 8.79967C25.2781 8.80799 25.3212 8.81632 25.3655 8.82489C25.8899 8.97928 26.3072 9.45199 26.571 9.91295C26.856 10.5594 26.8944 11.223 26.673 11.8937C26.4571 12.4219 26.2196 12.8016 25.7062 13.0661C25.4933 13.205 25.3998 13.2728 25.326 13.5187C25.3087 13.7523 25.3101 13.9789 25.3185 14.213C25.3181 14.3806 25.317 14.5482 25.3154 14.7157C25.315 14.7963 25.3147 14.877 25.3144 14.96C25.2697 16.9031 24.0842 18.9274 22.7766 20.3024C22.6441 20.4448 22.5301 20.5925 22.4147 20.7489C22.4869 20.778 22.4869 20.778 22.5606 20.8076C24.7785 21.7046 26.5947 22.8084 28.278 24.534C28.9597 24.1915 29.5134 23.7299 30.0778 23.2213C30.1393 23.166 30.2009 23.1107 30.2642 23.0537C30.3624 22.9636 30.4592 22.8718 30.5524 22.7766C30.755 22.5791 30.9241 22.4994 31.2004 22.4745C31.6312 22.5011 31.8483 22.754 32.1374 23.0497C33.5385 24.4002 35.2805 25.4205 37.2263 25.685C37.4939 25.7391 37.647 25.8409 37.8522 26.0184C38.0226 26.3591 37.9447 26.8199 37.945 27.1966C37.9451 27.247 37.9451 27.2974 37.9452 27.3494C37.9438 28.2082 37.8883 29.0372 37.7038 29.8778C37.6919 29.9327 37.6799 29.9877 37.6676 30.0443C37.1031 32.5285 35.6488 34.7938 33.9186 36.6317C33.8679 36.6881 33.8172 36.7444 33.765 36.8025C33.4457 37.1435 33.1076 37.4132 32.7172 37.6661C32.674 37.6942 32.6308 37.7222 32.5863 37.7511C31.9825 38.1276 31.3565 38.232 30.653 38.1161C29.982 37.8854 29.1893 37.4538 28.7704 36.8588C28.5447 36.5701 28.3706 36.4275 28.0059 36.3548C27.6565 36.3277 27.3073 36.3349 26.9573 36.3407C26.8226 36.3408 26.688 36.3405 26.5533 36.3401C26.2642 36.3396 25.9752 36.341 25.686 36.3439C25.2288 36.3483 24.7716 36.3485 24.3144 36.3481C23.509 36.3479 22.7037 36.3513 21.8983 36.3555C20.6853 36.3618 19.4723 36.3656 18.2592 36.3656C17.8048 36.3657 17.3503 36.3678 16.8959 36.3715C16.6132 36.3734 16.3306 36.3738 16.048 36.3738C15.917 36.3742 15.786 36.3751 15.655 36.3768C15.4761 36.379 15.2973 36.3789 15.1184 36.3783C15.0666 36.3795 15.0149 36.3807 14.9616 36.3819C14.55 36.3765 14.3812 36.2444 14.1022 35.9637C14.0145 35.7649 14.0092 35.5857 14.028 35.37C14.1548 35.0529 14.32 34.9251 14.6218 34.7762C14.8598 34.7477 14.8598 34.7477 15.1341 34.7466C15.2101 34.7459 15.2101 34.7459 15.2875 34.7451C15.4567 34.7438 15.6257 34.744 15.7949 34.7441C15.9163 34.7435 16.0377 34.7427 16.1592 34.7419C16.4885 34.7398 16.8179 34.7391 17.1472 34.7387C17.4915 34.738 17.8358 34.736 18.1802 34.7342C18.832 34.731 19.4839 34.7289 20.1357 34.7271C20.8779 34.7251 21.6201 34.7219 22.3623 34.7185C23.8889 34.7116 25.4155 34.7063 26.9421 34.702C26.8921 34.628 26.8421 34.554 26.7907 34.4777C26.7239 34.3784 26.6572 34.279 26.5904 34.1796C26.5412 34.1068 26.5412 34.1068 26.491 34.0326C25.1597 32.0463 24.4995 29.7695 24.4629 27.387C24.4612 27.2855 24.459 27.1841 24.4563 27.0827C24.4527 26.9388 24.452 26.7949 24.4514 26.651C24.4504 26.5668 24.4494 26.4825 24.4484 26.3957C24.5071 26.0938 24.627 25.9857 24.864 25.7958C25.0669 25.7325 25.2509 25.6863 25.4577 25.6473C25.5638 25.6215 25.6697 25.5951 25.7755 25.5679C26.2103 25.4592 26.2103 25.4592 26.6452 25.3505C26.6452 25.1455 26.5735 25.1032 26.4318 24.9562C25.589 24.1372 24.5619 23.5205 23.528 22.9755C23.5261 23.0536 23.5242 23.1318 23.5222 23.2123C23.4567 25.1006 22.6739 26.7303 21.3905 28.1079C21.1279 28.3284 20.9737 28.3476 20.6335 28.3192C20.2746 28.1456 20.0051 27.8725 19.7197 27.6002C19.6662 27.5497 19.6128 27.4991 19.5578 27.447C18.9747 26.8913 18.4071 26.3198 17.8411 25.7467C17.449 25.3506 17.0519 24.9676 16.6257 24.6083C16.5267 24.5233 16.4277 24.4382 16.3288 24.3531C16.2553 24.2904 16.1818 24.2276 16.1061 24.163C16.0598 24.2097 16.0134 24.2564 15.9657 24.3046C15.791 24.4806 15.6161 24.6563 15.4411 24.832C15.3659 24.9076 15.2908 24.9832 15.2157 25.059C14.512 25.7686 14.512 25.7686 14.1794 26.0518C13.9225 26.2713 13.6844 26.5071 13.4476 26.7479C13.4096 26.7865 13.3716 26.8251 13.3324 26.8648C13.1747 27.0253 13.0172 27.1859 12.8603 27.3473C12.7443 27.4665 12.6275 27.585 12.5106 27.7034C12.4758 27.7396 12.441 27.7758 12.4051 27.8131C12.1754 28.0446 11.9554 28.1967 11.653 28.3192C11.2475 28.3121 11.0596 28.2134 10.7624 27.9481C9.51013 26.514 8.83478 24.8774 8.75849 22.9755C7.578 23.6341 6.54712 24.3434 5.56708 25.2762C5.49518 25.3422 5.49518 25.3422 5.42183 25.4096C3.36514 27.3555 1.80239 30.8979 1.63117 33.7146C1.6348 33.982 1.66962 34.1601 1.78193 34.4051C2.17188 34.7213 2.61636 34.713 3.09858 34.7137C3.15523 34.7141 3.21188 34.7145 3.27024 34.7149C3.39278 34.7157 3.51532 34.7163 3.63786 34.7168C3.83192 34.7177 4.02596 34.7191 4.22001 34.7207C4.77158 34.7253 5.32314 34.7293 5.87472 34.7318C6.2125 34.7334 6.55026 34.736 6.88802 34.7393C7.01656 34.7403 7.1451 34.741 7.27365 34.7412C7.45343 34.7416 7.63315 34.7433 7.81292 34.7453C7.86583 34.7451 7.91874 34.7449 7.97325 34.7446C8.29668 34.75 8.50183 34.7997 8.75849 34.9989C8.95653 35.296 8.96883 35.5402 8.90693 35.8895C8.74501 36.094 8.61957 36.2187 8.38739 36.3348C8.20718 36.3429 8.02907 36.3465 7.8488 36.3468C7.79326 36.3472 7.73772 36.3475 7.6805 36.3479C7.49594 36.349 7.31139 36.3495 7.12684 36.3499C6.99808 36.3503 6.86933 36.3508 6.74057 36.3512C6.46978 36.352 6.199 36.3524 5.92821 36.3527C5.58386 36.3531 5.23953 36.3548 4.89519 36.357C4.62864 36.3584 4.36209 36.3587 4.09553 36.3588C3.96878 36.3591 3.84204 36.3596 3.71529 36.3606C2.65031 36.3683 1.50711 36.3582 0.668936 35.6086C0.114913 35.0292 0.0329455 34.3821 0.039399 33.6089C0.140204 30.0068 2.24805 26.2017 4.79387 23.7301C6.32749 22.3551 8.02765 21.4649 9.94599 20.7489C9.90819 20.7124 9.87038 20.6759 9.83144 20.6383C8.22521 19.0636 6.99414 16.822 6.96883 14.5336C6.96762 14.4605 6.96642 14.3873 6.96517 14.312C6.96397 14.1688 6.9655 14.0256 6.97017 13.8825C6.97219 13.502 6.97219 13.502 6.77682 13.1905C6.6253 13.0784 6.47017 12.9797 6.30927 12.8817C5.73426 12.3464 5.5345 11.8095 5.48851 11.0326C5.5009 10.3802 5.73377 9.81028 6.16083 9.3192C6.38867 9.11463 6.62139 8.92745 6.90708 8.81257C7.0614 8.73914 7.0614 8.73914 7.10535 8.59236C7.11742 8.51229 7.11742 8.51229 7.12973 8.43061C7.13985 8.37059 7.14997 8.31057 7.16039 8.24874C7.17535 8.15177 7.17535 8.15177 7.19062 8.05284C7.6084 5.71198 8.91046 3.60395 10.8728 2.23405C11.6672 1.70265 12.8188 0.932483 13.8054 0.932483C13.8306 0.852118 13.8306 0.852118 13.8564 0.77013C14.0603 0.333175 14.3366 0.109651 14.809 0.100584ZM15.2897 1.60045C15.2861 1.77438 15.2825 1.94832 15.2787 2.12752C15.2294 4.34515 15.0601 6.42537 14.4733 8.57701C15.6245 8.57701 16.7756 8.57701 17.9616 8.57701C17.8633 8.1345 17.8633 8.1345 17.7646 7.69208C17.7181 7.48316 17.6729 7.274 17.6276 7.06481C17.6118 6.99468 17.5961 6.92455 17.5798 6.8523C17.3134 5.6087 17.2641 4.33784 17.2101 3.07091C17.2037 2.92716 17.1972 2.78341 17.1907 2.63966C17.175 2.29328 17.1601 1.94687 17.1452 1.60045C16.5329 1.60045 15.9206 1.60045 15.2897 1.60045ZM10.7245 4.45606C9.74356 5.45985 8.68427 7.12884 8.68427 8.57701C10.0558 8.57701 11.4274 8.57701 12.8405 8.57701C13.5526 6.58322 13.7841 4.67789 13.7311 2.5653C12.7076 2.5653 11.4076 3.77613 10.7245 4.45606ZM18.7038 2.63951C18.6794 4.60611 18.8472 6.66347 19.5944 8.5028C19.6699 8.59471 19.6699 8.59471 19.8269 8.58594C19.8966 8.58577 19.9663 8.58561 20.0382 8.58544C20.1563 8.58543 20.1563 8.58543 20.2768 8.58542C20.3624 8.58504 20.4481 8.58466 20.5364 8.58426C20.6236 8.58416 20.7108 8.58405 20.8006 8.58394C21.0804 8.58353 21.3603 8.58259 21.6401 8.58165C21.8293 8.58128 22.0184 8.58094 22.2076 8.58064C22.6725 8.57982 23.1374 8.57857 23.6022 8.57701C23.5914 8.47117 23.5804 8.36536 23.5692 8.25955C23.5631 8.20063 23.5569 8.1417 23.5506 8.08098C23.3941 6.8895 22.6792 5.67341 21.8952 4.79186C21.8506 4.73675 21.806 4.68164 21.7601 4.62487C21.0443 3.76229 19.9888 3.00883 18.9265 2.63951C18.853 2.63951 18.7795 2.63951 18.7038 2.63951ZM7.27411 10.4325C7.09599 10.691 7.04969 10.8273 7.06073 11.1422C7.14933 11.4902 7.22837 11.692 7.53661 11.8884C7.86222 12.0185 8.13111 12.0221 8.47817 12.0194C8.54642 12.0197 8.61468 12.02 8.68501 12.0204C8.91337 12.0213 9.1417 12.0206 9.37007 12.0199C9.53393 12.0202 9.6978 12.0206 9.86166 12.0211C10.3065 12.0221 10.7513 12.0217 11.1962 12.021C11.6616 12.0204 12.1271 12.0209 12.5925 12.0213C13.4242 12.0217 14.256 12.021 15.0877 12.0199C15.8415 12.0189 16.5953 12.0191 17.3491 12.0201C18.2248 12.0213 19.1006 12.0217 19.9764 12.0211C20.4399 12.0207 20.9033 12.0207 21.3668 12.0214C21.8025 12.0221 22.2381 12.0216 22.6738 12.0203C22.8338 12.02 22.9937 12.0201 23.1537 12.0206C23.3719 12.0212 23.5901 12.0205 23.8083 12.0194C23.9034 12.0201 23.9034 12.0201 24.0004 12.0209C24.3677 12.0172 24.6201 11.9722 24.9382 11.7684C25.1452 11.5287 25.2273 11.3776 25.2722 11.0633C25.2192 10.6927 25.077 10.4687 24.7845 10.236C24.4811 10.0959 24.2163 10.1045 23.8858 10.1068C23.817 10.1064 23.7482 10.106 23.6774 10.1056C23.4467 10.1046 23.2161 10.1051 22.9855 10.1056C22.8201 10.1052 22.6548 10.1047 22.4895 10.1041C22.0404 10.1027 21.5912 10.1028 21.1421 10.1033C20.7673 10.1035 20.3925 10.103 20.0177 10.1026C19.0831 10.1015 18.1484 10.1018 17.2138 10.1026C16.4023 10.1034 15.5908 10.1024 14.7793 10.1006C13.9458 10.0988 13.1123 10.0982 12.2788 10.0986C11.811 10.0989 11.3431 10.0987 10.8753 10.0974C10.4354 10.0963 9.99552 10.0966 9.55562 10.098C9.39412 10.0982 9.23261 10.098 9.07111 10.0972C8.85074 10.0962 8.63045 10.0971 8.41008 10.0984C8.31408 10.0973 8.31408 10.0973 8.21613 10.0962C7.81797 10.1011 7.58912 10.1665 7.27411 10.4325ZM8.53583 13.5497C8.53583 16.1416 9.40695 17.9855 11.1938 19.8026C12.4722 21.0687 14.2401 22.1996 16.0922 22.2565C17.8616 22.2348 19.537 21.2761 20.7819 20.0809C20.879 20.0002 20.9764 19.9197 21.0742 19.8397C22.4185 18.6607 23.4027 16.9225 23.7507 15.1825C23.7507 14.6437 23.7507 14.1048 23.7507 13.5497C18.7298 13.5497 13.7089 13.5497 8.53583 13.5497ZM10.8227 22.1127C10.7574 22.1316 10.692 22.1505 10.6247 22.1701C10.4526 22.2179 10.4526 22.2179 10.3913 22.3817C10.2623 23.7901 10.5495 25.0024 11.3561 26.1669C11.5089 26.2562 11.5089 26.2562 11.653 26.3153C11.7124 26.2553 11.7124 26.2553 11.773 26.1941C11.9555 26.0101 12.1382 25.8264 12.321 25.6427C12.3833 25.5798 12.4456 25.5169 12.5097 25.4521C12.8377 25.1229 13.1701 24.8058 13.5227 24.5032C13.725 24.326 13.9139 24.1367 14.1022 23.9449C14.1385 23.9083 14.1748 23.8717 14.2121 23.834C14.2994 23.7459 14.3864 23.6576 14.4733 23.5692C14.275 23.437 14.1038 23.3663 13.8803 23.2908C13.0761 23.0162 12.113 22.619 11.5046 22.0106C11.2403 22.0106 11.0713 22.0385 10.8227 22.1127ZM20.2206 22.3863C19.4582 22.88 18.6823 23.2253 17.8132 23.495C18.0547 23.7937 18.3009 24.0584 18.5902 24.3114C19.0445 24.7165 19.4721 25.1457 19.9006 25.5777C19.9794 25.657 20.0583 25.7362 20.1371 25.8153C20.3275 26.0065 20.5177 26.198 20.7077 26.3895C21.4908 25.6256 21.9245 24.4579 21.9793 23.3744C21.9787 23.1918 21.975 23.0095 21.9694 22.827C21.9679 22.7306 21.9664 22.6341 21.9648 22.5348C21.916 22.2848 21.916 22.2848 21.6633 22.1683C21.5332 22.1181 21.5332 22.1181 21.3757 22.0848C21.2971 22.0631 21.2186 22.0414 21.1377 22.019C20.7425 22.0072 20.5391 22.1687 20.2206 22.3863ZM31.1726 24.3856C31.1193 24.4342 31.066 24.4828 31.0111 24.5329C29.5873 25.8004 27.9046 26.6883 26.0515 27.1317C25.9308 30.4126 27.5582 33.2848 29.7206 35.6413C30.125 36.0625 30.5487 36.4374 31.103 36.641C31.9498 36.6049 32.6627 35.6781 33.2089 35.1056C35.0023 33.1344 36.4031 30.4394 36.3725 27.7255C36.372 27.6392 36.372 27.6392 36.3715 27.5512C36.3706 27.4114 36.3693 27.2715 36.3679 27.1317C36.2771 27.1073 36.1863 27.0829 36.0927 27.0578C34.4752 26.6076 33.073 25.8947 31.7846 24.8153C31.5884 24.659 31.3826 24.5224 31.1726 24.3856Z" fill="#379DFE"/>
<path d="M33.6218 28.5419C33.8304 28.675 33.9565 28.766 34.0671 28.9872C34.1052 29.4442 34.0725 29.662 33.7703 30.0263C33.6449 30.1569 33.5169 30.2841 33.387 30.4101C33.2561 30.5405 33.1347 30.6749 33.0142 30.8149C32.7384 31.1349 32.4513 31.4436 32.1638 31.753C31.9614 31.9714 31.763 32.1917 31.5715 32.4199C31.3448 32.6824 31.3018 32.6903 30.9546 32.7399C30.4525 32.7343 30.1332 32.4103 29.7625 32.1044C29.6926 32.0504 29.6228 31.9963 29.5508 31.9406C29.045 31.5478 29.045 31.5478 28.8718 31.288C28.8352 30.9644 28.8514 30.8053 29.011 30.518C29.1653 30.3273 29.2204 30.267 29.4543 30.2234C29.8466 30.1958 30.0375 30.2595 30.3423 30.5134C30.3948 30.5624 30.4473 30.6115 30.5014 30.6621C30.642 30.7857 30.642 30.7857 30.7961 30.7524C30.9769 30.6841 31.0583 30.6067 31.188 30.4644C31.2313 30.4174 31.2745 30.3704 31.3191 30.322C31.3867 30.2468 31.3867 30.2468 31.4556 30.1701C31.5021 30.1193 31.5486 30.0686 31.5965 30.0163C31.8289 29.7618 32.0572 29.5043 32.2812 29.2424C32.9843 28.4391 32.9843 28.4391 33.6218 28.5419Z" fill="#379DFE"/>
<path d="M11.8757 34.8505C12.0526 34.9911 12.1466 35.0954 12.2468 35.2958C12.2989 35.8251 12.2989 35.8251 12.0706 36.1075C11.7681 36.3452 11.595 36.3736 11.2078 36.3348C10.9105 36.1532 10.7871 36.0435 10.6836 35.7086C10.689 35.4025 10.7389 35.2512 10.9109 34.9989C11.2131 34.7312 11.5044 34.7339 11.8757 34.8505Z" fill="#379DFE"/>
</g>
<defs>
<clipPath id="clip0_1237_1006">
<rect width="38" height="38" fill="white" transform="translate(0 0.116089)"/>
</clipPath>
</defs>
</svg>
