<svg width="36" height="37" viewBox="0 0 36 37" fill="none" xmlns="http://www.w3.org/2000/svg">
<path d="M34 28.9999V17.9039C34 16.8359 34 16.3019 33.87 15.8039C33.7549 15.3638 33.5655 14.9464 33.31 14.5699C33.02 14.1439 32.62 13.7899 31.814 13.0879L22.214 4.68794C20.722 3.38194 19.974 2.72794 19.134 2.47994C18.394 2.25994 17.606 2.25994 16.864 2.47994C16.024 2.72794 15.28 3.37994 13.788 4.68394L4.186 13.0879C3.382 13.7919 2.98 14.1439 2.692 14.5679C2.4356 14.9449 2.24553 15.3629 2.13 15.8039C2 16.2999 2 16.8359 2 17.9039V28.9999C2 30.8639 2 31.7959 2.304 32.5299C2.5048 33.0154 2.79925 33.4565 3.17056 33.8282C3.54186 34.1998 3.98273 34.4947 4.468 34.6959C5.204 34.9999 6.136 34.9999 8 34.9999C9.864 34.9999 10.796 34.9999 11.532 34.6959C12.0173 34.4947 12.4581 34.1998 12.8294 33.8282C13.2007 33.4565 13.4952 33.0154 13.696 32.5299C14 31.7959 14 30.8639 14 28.9999V26.9999C14 25.9391 14.4214 24.9217 15.1716 24.1715C15.9217 23.4214 16.9391 22.9999 18 22.9999C19.0609 22.9999 20.0783 23.4214 20.8284 24.1715C21.5786 24.9217 22 25.9391 22 26.9999V28.9999C22 30.8639 22 31.7959 22.304 32.5299C22.5048 33.0154 22.7993 33.4565 23.1706 33.8282C23.5419 34.1998 23.9827 34.4947 24.468 34.6959C25.204 34.9999 26.136 34.9999 28 34.9999C29.864 34.9999 30.796 34.9999 31.532 34.6959C32.0173 34.4947 32.4581 34.1998 32.8294 33.8282C33.2007 33.4565 33.4952 33.0154 33.696 32.5299C34 31.7959 34 30.8639 34 28.9999Z" stroke="#5C727D" stroke-width="2.66667" stroke-linecap="round" stroke-linejoin="round"/>
</svg>
