<svg width="39" height="45" viewBox="0 0 39 45" fill="none" xmlns="http://www.w3.org/2000/svg">
<path d="M34.38 4.6999C34.18 4.28258 33.9014 3.90774 33.5595 3.5959C33.3292 2.91052 32.9388 2.28996 32.4206 1.78571C31.9024 1.28145 31.2714 0.90806 30.58 0.696513C29.8886 0.484965 29.1568 0.441366 28.4451 0.569333C27.7335 0.6973 27.0627 0.993143 26.4883 1.43231C25.9139 1.87147 25.4526 2.4413 25.1425 3.09448C24.8325 3.74767 24.6827 4.46538 24.7056 5.18805C24.7285 5.91073 24.9234 6.61752 25.2742 7.24976C25.625 7.88201 26.1215 8.42148 26.7225 8.8234L26.208 10.2349L24.438 10.5649L24.1485 10.6054L21.9885 10.9279C22.0725 10.8379 22.1505 10.7414 22.2225 10.6384C22.5778 10.0888 22.8408 9.48486 23.001 8.8504C23.1015 8.4484 23.199 7.9774 23.28 7.5229C23.385 6.8809 23.435 6.2344 23.43 5.5834C23.4506 4.70959 23.1712 3.85509 22.6385 3.16215C22.1057 2.46921 21.3517 1.97963 20.502 1.7749C20.2026 1.70847 19.8967 1.67627 19.59 1.6789C19.5506 1.67954 19.5113 1.675 19.473 1.6654C19.0527 1.3981 18.5708 1.24315 18.0735 1.2154H17.886C17.5605 1.2154 17.238 1.2724 16.932 1.3849C16.8892 1.40605 16.842 1.41667 16.7942 1.41589C16.7465 1.41511 16.6996 1.40294 16.6575 1.3804C16.2961 1.20976 15.9021 1.1192 15.5025 1.1149L15.4635 1.1119C14.6985 1.1119 13.9635 1.4119 13.413 1.9459C12.7291 2.02198 12.0966 2.34549 11.6347 2.85551C11.1728 3.36552 10.9132 4.02683 10.905 4.7149C10.9029 5.11723 10.9861 5.51544 11.149 5.88334C11.3118 6.25123 11.5508 6.58047 11.85 6.8494C11.839 6.9776 11.8335 7.10622 11.8335 7.2349V7.9654C11.7559 8.09556 11.6718 8.22172 11.5815 8.3434C11.2839 8.71188 11.1101 9.16489 11.085 9.6379C11.0607 9.97496 11.1231 10.3126 11.2661 10.6188C11.4092 10.9249 11.6283 11.1894 11.9025 11.3869C11.91 12.1626 12.1705 12.9146 12.6442 13.5289C13.118 14.1431 13.7792 14.5861 14.5275 14.7904C14.48 14.8945 14.4345 14.9995 14.391 15.1054L14.295 15.3289C13.4654 15.8924 12.4983 16.22 11.497 16.2765C10.4956 16.333 9.49779 16.1165 8.61001 15.6499L8.10001 15.1999C7.28525 14.4886 6.24156 14.0946 5.16001 14.0899H3.10501C2.77912 14.0861 2.4565 14.1551 2.16067 14.2919C1.86484 14.4286 1.60326 14.6297 1.39501 14.8804C0.858219 15.0918 0.425652 15.5051 0.190098 16.0317C-0.0454557 16.5584 -0.0652329 17.1564 0.135009 17.6974C0.273259 18.071 0.510782 18.3998 0.82201 18.6484C0.982372 19.0633 1.26445 19.4199 1.6312 19.6716C1.99795 19.9232 2.43223 20.0581 2.87701 20.0584H3.69151L4.16551 20.4769C4.55701 20.8309 5.01151 21.1099 5.50501 21.2989C7.87294 22.5749 10.6016 23.0161 13.251 22.5514C13.326 23.3034 13.4655 24.0439 13.6695 24.7729L11.2695 25.9969L10.032 26.6539L9.34051 26.9914C9.15751 27.0794 8.98051 27.1794 8.80951 27.2914C7.99951 27.5989 7.33201 28.1959 6.93601 28.9669C6.4031 30.3145 6.39347 31.8126 6.90901 33.1669L7.31701 38.6659L3.97201 40.6894L3.92401 40.7194L3.87751 40.7524C3.51736 41.0095 3.24818 41.3743 3.10881 41.7943C2.96944 42.2142 2.9671 42.6676 3.10211 43.089C3.23712 43.5104 3.5025 43.878 3.85998 44.1388C4.21745 44.3995 4.64853 44.54 5.09101 44.5399L11.4885 44.5099C11.9925 44.5069 12.474 44.3059 12.8295 43.9489C13.557 43.2184 13.428 41.9959 13.5 41.0449L13.47 33.5449L13.8195 33.3949L14.037 33.3019C14.6491 33.8549 15.4423 34.1652 16.2671 34.1743C17.092 34.1834 17.8918 33.8907 18.516 33.3514L18.816 33.0919L19.02 33.5929C19.2254 34.8743 19.8252 36.0599 20.736 36.9844C21.6265 37.6218 22.7211 37.9076 23.8095 37.7869C24.504 37.7869 25.1445 37.7299 25.434 37.6999L31.284 37.8199L34.8795 40.8184L34.9275 40.8514C35.277 41.1019 35.697 41.2369 36.1275 41.2369C36.4647 41.2366 36.7969 41.1551 37.0959 40.9993C37.395 40.8435 37.6521 40.618 37.8456 40.3419C38.0391 40.0657 38.1632 39.747 38.2075 39.4127C38.2518 39.0784 38.2149 38.7384 38.1 38.4214L35.8755 32.4109C35.7401 32.0453 35.4958 31.73 35.1755 31.5076C34.8552 31.2852 34.4744 31.1665 34.0845 31.1674C33.8648 31.1678 33.6467 31.2053 33.4395 31.2784L31.6395 31.9444L26.9325 31.2214V31.1959L26.76 31.1704C26.982 30.5074 26.985 29.7904 26.7705 29.1244L25.1355 23.9284C25.2165 23.336 25.0631 22.7354 24.708 22.2544C24.6282 22.1427 24.5641 22.0205 24.5175 21.8914C24.1711 20.6669 23.9885 19.4019 23.9745 18.1294L24.438 18.0349C24.7865 17.9701 25.1159 17.8274 25.4016 17.6176C25.6873 17.4077 25.9219 17.1361 26.088 16.8229L27.5085 16.5574C28.5669 16.3745 29.5584 15.9163 30.3836 15.2288C31.2088 14.5413 31.8385 13.6488 32.2095 12.6409L33.984 7.7794L34.1595 7.3504C34.551 6.5224 34.629 5.5804 34.38 4.6999ZM29.25 1.9999C30.0578 1.9999 30.8325 2.32079 31.4037 2.89198C31.9749 3.46317 32.2958 4.23787 32.2958 5.04565C32.2958 5.85343 31.9749 6.62813 31.4037 7.19932C30.8325 7.77051 30.0578 8.0914 29.25 8.0914C28.4422 8.0914 27.6675 7.77051 27.0963 7.19932C26.5252 6.62813 26.2043 5.85343 26.2043 5.04565C26.2043 4.23787 26.5252 3.46317 27.0963 2.89198C27.6675 2.32079 28.4422 1.9999 29.25 1.9999ZM27.5475 10.9369L28.0935 9.4414C28.775 9.62077 29.4889 9.63921 30.1788 9.49525C30.8687 9.35129 31.5156 9.04887 32.0685 8.6119L30.7935 12.1159C30.5123 12.8803 30.034 13.5569 29.407 14.0769C28.7801 14.5969 28.0268 14.9419 27.2235 15.0769L25.4685 15.4069L24.3795 12.1084L26.625 11.6869H26.6475C26.8502 11.652 27.0401 11.5643 27.1981 11.4327C27.3562 11.301 27.4767 11.13 27.5475 10.9369ZM16.137 15.7894C16.866 16.7389 19.584 19.8844 22.4655 18.3094C22.4895 19.6594 22.6905 20.9989 23.064 22.2964C23.149 22.5654 23.272 22.8154 23.433 23.0464C23.61 23.3224 23.736 23.5174 23.583 23.8069C22.1805 24.0049 17.592 24.6919 15.549 25.5034L15.858 25.3789C14.8815 22.9834 14.9355 20.5264 15.3015 18.5839C15.4811 17.6258 15.7606 16.6892 16.1355 15.7894M17.2485 13.1914C16.7661 13.3422 16.2644 13.4225 15.759 13.4299C13.704 13.4299 13.389 12.1999 13.344 10.4749C13.3393 10.4432 13.3254 10.4135 13.3041 10.3895C13.2828 10.3655 13.255 10.3483 13.224 10.3399C12.999 10.3099 12.549 10.1899 12.579 9.7099C12.5956 9.52383 12.6737 9.3486 12.801 9.2119L12.804 9.2059C12.888 9.0889 12.999 8.9344 13.134 8.7049C13.2645 8.49864 13.3322 8.25893 13.329 8.0149V7.2349C13.329 6.8254 13.419 6.4204 13.5945 6.0499H13.5285C13.1971 6.00223 12.8963 5.83044 12.6868 5.5693C12.4773 5.30816 12.3749 4.97719 12.4003 4.64337C12.4256 4.30956 12.5769 3.99785 12.8234 3.77135C13.0699 3.54485 13.3933 3.42047 13.728 3.4234H13.7835C13.8904 3.42343 13.996 3.39914 14.0921 3.35236C14.1883 3.30558 14.2725 3.23755 14.3385 3.1534C14.4734 2.98497 14.6443 2.849 14.8388 2.75553C15.0333 2.66206 15.2462 2.61349 15.462 2.6134H15.507C15.6944 2.6204 15.8783 2.66638 16.047 2.7484C16.287 2.8564 16.545 2.9134 16.806 2.9134C17.0235 2.9134 17.241 2.8729 17.4435 2.7934C17.5851 2.74252 17.7341 2.71565 17.8845 2.7139H17.9835C18.2235 2.7259 18.4545 2.7979 18.6585 2.9239C18.936 3.0979 19.26 3.1864 19.5885 3.1789C19.7855 3.1769 19.9805 3.1969 20.1735 3.2389C20.6936 3.37261 21.1518 3.68111 21.4713 4.11264C21.7909 4.54417 21.9523 5.07246 21.9285 5.6089C21.932 6.1612 21.8918 6.71291 21.8085 7.2589C21.7335 7.6789 21.6435 8.1139 21.5535 8.4739C21.4386 8.9355 21.2513 9.37597 20.9985 9.7789C20.7119 10.1383 20.2987 10.3745 19.8435 10.4389H19.8015L19.7805 10.5199L20.9265 12.4774C19.9035 12.6049 18.897 12.7864 17.9835 13.1299C17.7776 13.2081 17.5809 13.3087 17.397 13.4299L17.2485 13.1914ZM15.0135 16.6564C14.5903 17.9837 14.354 19.3634 14.3115 20.7559C11.9338 21.5 9.36869 21.3718 7.07701 20.3944L9.07501 17.4799L9.01501 17.4424C10.0106 17.7661 11.0658 17.8635 12.1038 17.7275C13.1418 17.5915 14.1364 17.2256 15.015 16.6564M24.21 31.8199C24.323 31.7799 24.442 31.7339 24.567 31.6819L24.723 32.3764V32.3914L25.398 32.4814V32.4949L31.848 33.4849C31.848 33.4849 31.806 34.7584 31.7355 36.2299L25.3515 36.1759C25.3515 36.1759 24.312 36.2629 23.7915 36.2644C23.0716 36.335 22.3471 36.1871 21.7125 35.8399C21.0867 35.1554 20.6593 34.3132 20.4765 33.4039L24.21 31.8199ZM11.733 27.4519L14.484 31.4464L14.1615 31.5889L14.136 31.6009C13.872 31.7239 13.5105 31.8934 13.206 32.0149L12.6 32.2999C12.411 32.4139 12.2435 32.5539 12.0975 32.7199C12.0182 32.8566 11.9763 33.0118 11.976 33.1699L11.9985 40.3699L8.87851 39.5059L8.39851 32.8639C7.98143 31.8384 7.93894 30.6987 8.27851 29.6449C8.52601 29.1844 8.93851 28.8349 9.43351 28.6699L9.56851 28.5994C9.70751 28.4994 9.85301 28.4129 10.005 28.3399L10.737 27.9799L11.733 27.4519ZM7.40251 16.5829L7.39501 16.5799L5.32801 19.4959C5.27031 19.451 5.21427 19.4039 5.16001 19.3549L4.26001 18.5599H2.88001C2.76928 18.5602 2.66003 18.5344 2.56112 18.4847C2.46221 18.4349 2.37641 18.3625 2.31068 18.2734C2.24494 18.1843 2.20112 18.081 2.18276 17.9718C2.1644 17.8626 2.17203 17.7506 2.20501 17.6449C2.11045 17.643 2.0172 17.6224 1.93059 17.5844C1.84398 17.5464 1.76571 17.4917 1.70024 17.4235C1.63477 17.3552 1.58339 17.2747 1.54903 17.1866C1.51468 17.0985 1.49802 17.0045 1.50001 16.9099C1.50968 16.7222 1.59161 16.5456 1.72862 16.4169C1.86563 16.2883 2.0471 16.2177 2.23501 16.2199H2.40001C2.41286 16.0488 2.48984 15.8888 2.61554 15.772C2.74125 15.6552 2.90641 15.5902 3.07801 15.5899H5.16001C5.87696 15.594 6.56872 15.8548 7.11001 16.3249L7.40251 16.5829ZM5.59951 19.6819C5.66151 19.7189 5.72501 19.7539 5.79001 19.7869L5.59951 19.6819ZM8.85451 39.4999L8.81251 39.5209L8.85001 39.4999H8.85451ZM22.596 16.1494L22.5435 16.7044C22.5235 16.9344 22.4855 17.1824 22.4295 17.4484C21.7545 17.9194 21.1215 18.0379 20.5395 17.9779C19.8735 17.9089 19.215 17.5984 18.6045 17.1679C18.0589 16.7724 17.561 16.3148 17.121 15.8044C17.0046 15.6713 16.8916 15.5352 16.782 15.3964C16.8446 15.2361 16.9209 15.0816 17.01 14.9344C17.268 14.4964 17.6625 14.0494 18.2475 13.8304H18.249C19.14 13.4944 20.151 13.3204 21.231 13.1944C21.6255 13.1494 22.041 13.1074 22.461 13.0669C22.9275 13.0219 23.4015 12.9739 23.859 12.9184L24.756 15.6379C24.7527 15.6559 24.7461 15.6732 24.7365 15.6889C24.7146 15.7137 24.685 15.7306 24.6525 15.7369L22.596 16.1494Z" fill="#7385AD"/>
</svg>
