<svg width="42" height="34" viewBox="0 0 42 34" fill="none" xmlns="http://www.w3.org/2000/svg">
<path d="M40.5 31.75H33.75V25.75H39C39.1146 25.7502 39.2277 25.7242 39.3306 25.6739C39.4336 25.6236 39.5236 25.5504 39.5938 25.4598C39.6641 25.3693 39.7127 25.2639 39.7358 25.1517C39.759 25.0395 39.7561 24.9235 39.7275 24.8125L33.7275 0.812544C33.6869 0.650374 33.5932 0.506433 33.4614 0.403584C33.3296 0.300734 33.1672 0.244873 33 0.244873C32.8328 0.244873 32.6704 0.300734 32.5386 0.403584C32.4068 0.506433 32.3131 0.650374 32.2725 0.812544L26.2725 24.8125C26.2439 24.9235 26.241 25.0395 26.2642 25.1517C26.2873 25.2639 26.3359 25.3693 26.4062 25.4598C26.4764 25.5504 26.5664 25.6236 26.6694 25.6739C26.7723 25.7242 26.8854 25.7502 27 25.75H32.25V31.75H18.75V27.25H21C21.1989 27.25 21.3897 27.171 21.5303 27.0304C21.671 26.8897 21.75 26.699 21.75 26.5C21.75 26.3011 21.671 26.1104 21.5303 25.9697C21.3897 25.8291 21.1989 25.75 21 25.75H18.75V21.25H21C21.1989 21.25 21.3897 21.171 21.5303 21.0304C21.671 20.8897 21.75 20.699 21.75 20.5C21.75 20.3011 21.671 20.1104 21.5303 19.9697C21.3897 19.8291 21.1989 19.75 21 19.75H4.5C4.30109 19.75 4.11032 19.8291 3.96967 19.9697C3.82902 20.1104 3.75 20.3011 3.75 20.5C3.75 20.699 3.82902 20.8897 3.96967 21.0304C4.11032 21.171 4.30109 21.25 4.5 21.25H6.75V25.75H4.5C4.30109 25.75 4.11032 25.8291 3.96967 25.9697C3.82902 26.1104 3.75 26.3011 3.75 26.5C3.75 26.699 3.82902 26.8897 3.96967 27.0304C4.11032 27.171 4.30109 27.25 4.5 27.25H6.75V31.75H1.5C1.30109 31.75 1.11032 31.8291 0.96967 31.9697C0.829018 32.1104 0.75 32.3011 0.75 32.5C0.75 32.699 0.829018 32.8897 0.96967 33.0304C1.11032 33.171 1.30109 33.25 1.5 33.25H40.5C40.6989 33.25 40.8897 33.171 41.0303 33.0304C41.171 32.8897 41.25 32.699 41.25 32.5C41.25 32.3011 41.171 32.1104 41.0303 31.9697C40.8897 31.8291 40.6989 31.75 40.5 31.75ZM33 4.09192L38.04 24.25H27.96L33 4.09192ZM8.25 21.25H17.25V25.75H8.25V21.25ZM8.25 27.25H17.25V31.75H8.25V27.25ZM18.75 12.25C19.64 12.25 20.51 11.9861 21.2501 11.4917C21.9901 10.9972 22.5669 10.2944 22.9075 9.47212C23.2481 8.64985 23.3372 7.74505 23.1635 6.87214C22.9899 5.99922 22.5613 5.1974 21.932 4.56806C21.3026 3.93873 20.5008 3.51014 19.6279 3.33651C18.755 3.16288 17.8502 3.25199 17.0279 3.59259C16.2057 3.93318 15.5029 4.50996 15.0084 5.24998C14.5139 5.99 14.25 6.86003 14.25 7.75004C14.25 8.94352 14.7241 10.0881 15.568 10.932C16.4119 11.7759 17.5565 12.25 18.75 12.25ZM18.75 4.75004C19.3433 4.75004 19.9234 4.92599 20.4167 5.25564C20.9101 5.58528 21.2946 6.05382 21.5216 6.60199C21.7487 7.15017 21.8081 7.75337 21.6924 8.33532C21.5766 8.91726 21.2909 9.45181 20.8713 9.87136C20.4518 10.2909 19.9172 10.5766 19.3353 10.6924C18.7533 10.8082 18.1501 10.7487 17.6019 10.5217C17.0538 10.2946 16.5852 9.9101 16.2556 9.41675C15.9259 8.92341 15.75 8.34339 15.75 7.75004C15.75 6.95439 16.0661 6.19133 16.6287 5.62872C17.1913 5.06611 17.9544 4.75004 18.75 4.75004Z" fill="#7385AD"/>
</svg>
