<svg width="49" height="48" viewBox="0 0 49 48" fill="none" xmlns="http://www.w3.org/2000/svg">
<path d="M21.5 24.885L17.615 21L15.5 23.115L21.5 29.115L33.5 17.115L31.385 15L21.5 24.885Z" fill="#7385AD"/>
<path d="M24.5 45L15.236 40.0605C12.5948 38.6557 10.3861 36.5581 8.84696 33.9928C7.30786 31.4276 6.4965 28.4916 6.50001 25.5V6C6.50001 5.20435 6.81608 4.44129 7.37869 3.87868C7.9413 3.31607 8.70436 3 9.50001 3H39.5C40.2957 3 41.0587 3.31607 41.6213 3.87868C42.1839 4.44129 42.5 5.20435 42.5 6V25.5C42.5035 28.4916 41.6922 31.4276 40.1531 33.9928C38.614 36.5581 36.4052 38.6557 33.764 40.0605L24.5 45ZM9.50001 6V25.5C9.49834 27.9475 10.1628 30.3494 11.4222 32.448C12.6816 34.5467 14.4885 36.263 16.649 37.413L24.5 41.5995L32.351 37.4145C34.5118 36.2644 36.3188 34.5478 37.5782 32.4489C38.8376 30.35 39.502 27.9478 39.5 25.5V6H9.50001Z" fill="#7385AD"/>
</svg>
