<svg width="48" height="42" viewBox="0 0 48 42" fill="none" xmlns="http://www.w3.org/2000/svg">
<path d="M7.79747 0C6.48101 0 5.05823 0.616364 3.98582 1.57818C3.15848 2.32182 2.56506 3.25182 2.33519 4.18182H12.8L10.4709 0H7.79747ZM37.5291 0L35.2 4.18182H45.6608C45.438 3.25182 44.8405 2.32182 44.0101 1.57818C42.9468 0.616364 41.519 0 40.2025 0H37.5291ZM34.7443 1.33182C32.1823 1.47273 29.7013 1.89091 27.6456 2.81364C26.0962 3.50636 24.8101 4.53636 24 5.90364C23.1899 4.53636 21.9038 3.50636 20.3544 2.81364C18.2987 1.89091 15.8177 1.47364 13.2557 1.33273L14.2177 3.05C16.2228 3.23727 18.0861 3.62182 19.5443 4.27727C21.7519 5.27091 23.0886 6.72727 23.0886 9.36364V30.3636H24.9114V9.36364C24.9114 6.72727 26.2481 5.27091 28.4557 4.27727C29.9241 3.62091 31.7772 3.23636 33.7823 3.04909L34.7443 1.33182ZM2.86987 5.81818L0 9.65455L4.84051 7.66364L3.92911 13.7273L7.26076 8.38182L8.59747 16.1818L10.0962 8.06364L14.8253 13.4L12.5873 7.07273L17.7722 8.30909L14.6228 5.81818H2.86987ZM33.3772 5.81818L30.2278 8.30909L35.4127 7.07273L33.1747 13.4L37.9038 8.06364L39.4025 16.1818L40.7392 8.38182L44.0709 13.7273L43.1595 7.66364L48 9.65455L45.1342 5.81818H33.3772ZM22.0456 32L21.7013 42H26.2987L25.9544 32H22.0456Z" fill="#7385AD"/>
</svg>
