<svg width="24" height="18" viewBox="0 0 24 18" fill="none" xmlns="http://www.w3.org/2000/svg">
<path d="M4.04165 0.737933C4.12827 0.737479 4.12827 0.737479 4.21664 0.737017C4.28034 0.737155 4.34403 0.737302 4.40773 0.737457C4.4757 0.737281 4.54367 0.737066 4.61164 0.736813C4.79822 0.73624 4.98481 0.736252 5.17139 0.736362C5.3727 0.736382 5.57401 0.735864 5.77532 0.73542C6.16967 0.734641 6.56401 0.734383 6.95836 0.734331C7.27894 0.734286 7.59952 0.734094 7.9201 0.733796C8.82913 0.732971 9.73816 0.732538 10.6472 0.732609C10.7207 0.732614 10.7207 0.732614 10.7957 0.73262C10.8693 0.732626 10.8693 0.732626 10.9444 0.732632C11.7394 0.73267 12.5345 0.731773 13.3295 0.730451C14.146 0.729104 14.9625 0.728457 15.779 0.728538C16.2373 0.728569 16.6956 0.728312 17.154 0.727302C17.5442 0.726448 17.9345 0.726245 18.3247 0.726881C18.5238 0.727187 18.7228 0.727193 18.9219 0.726379C19.1043 0.725641 19.2867 0.725777 19.4691 0.726594C19.5349 0.726737 19.6007 0.726568 19.6665 0.726044C20.1696 0.722307 20.5968 0.784982 20.9758 1.13891C21.243 1.43619 21.3876 1.76259 21.3869 2.16507C21.3871 2.25084 21.3871 2.25084 21.3873 2.33835C21.387 2.40108 21.3867 2.46382 21.3863 2.52655C21.3863 2.59309 21.3863 2.65964 21.3863 2.72618C21.3864 2.9063 21.3858 3.08641 21.3852 3.26653C21.3846 3.45496 21.3845 3.64339 21.3844 3.83182C21.3841 4.18841 21.3834 4.54499 21.3824 4.90158C21.3814 5.30764 21.3808 5.7137 21.3804 6.11976C21.3794 6.95484 21.3778 7.78991 21.3757 8.62499C21.4349 8.62435 21.4941 8.62371 21.5552 8.62305C21.9091 8.61921 22.2194 8.77447 22.4758 9.01391C22.7612 9.33141 22.8878 9.66424 22.8863 10.0917C22.8863 10.1247 22.8863 10.1577 22.8863 10.1916C22.8863 10.2997 22.8856 10.4077 22.8848 10.5157C22.8846 10.591 22.8845 10.6663 22.8844 10.7415C22.8841 10.939 22.8831 11.1364 22.8821 11.3338C22.8811 11.5356 22.8807 11.7373 22.8802 11.939C22.8792 12.3343 22.8776 12.7297 22.8757 13.125C22.9141 13.1228 22.9525 13.1206 22.9921 13.1184C23.0426 13.1167 23.0931 13.115 23.1452 13.1133C23.1952 13.1111 23.2453 13.1089 23.2968 13.1067C23.4382 13.125 23.4382 13.125 23.5487 13.2076C23.6311 13.3199 23.6493 13.3662 23.6499 13.5029C23.6508 13.5583 23.6508 13.5583 23.6517 13.6148C23.6511 13.674 23.6511 13.674 23.6506 13.7344C23.6507 13.7753 23.6509 13.8162 23.6511 13.8583C23.6512 13.9447 23.6509 14.0311 23.6501 14.1174C23.6491 14.2495 23.6501 14.3815 23.6513 14.5137C23.6512 14.5976 23.6509 14.6816 23.6506 14.7656C23.6509 14.8051 23.6513 14.8445 23.6517 14.8852C23.6489 15.0586 23.6441 15.1588 23.5487 15.3069C23.4053 15.3952 23.3124 15.394 23.1452 15.3867C23.0947 15.385 23.0442 15.3833 22.9921 15.3816C22.9537 15.3794 22.9153 15.3772 22.8757 15.375C22.8771 15.4502 22.8771 15.4502 22.8786 15.5269C22.882 15.7132 22.8842 15.8994 22.886 16.0857C22.8869 16.1662 22.8882 16.2468 22.8898 16.3274C22.8921 16.4433 22.8931 16.5591 22.894 16.675C22.8949 16.711 22.8959 16.7469 22.8969 16.784C22.897 16.9415 22.887 17.0445 22.802 17.1789C22.6457 17.2765 22.5321 17.2743 22.3483 17.2749C22.3157 17.2751 22.2831 17.2753 22.2496 17.2754C22.1809 17.2756 22.1122 17.2752 22.0434 17.2744C21.9385 17.2734 21.8337 17.2744 21.7287 17.2756C21.6618 17.2755 21.5949 17.2753 21.528 17.2749C21.4673 17.2747 21.4067 17.2745 21.3442 17.2743C21.1882 17.25 21.1882 17.25 21.0781 17.173C20.9841 17.0388 20.9551 16.9306 20.9225 16.7703C20.9106 16.7133 20.8987 16.6564 20.8865 16.5978C20.8749 16.5384 20.8632 16.4791 20.8512 16.418C20.8391 16.3593 20.8269 16.3007 20.8144 16.2403C20.7552 15.9511 20.7093 15.6687 20.6725 15.375C14.9491 15.375 9.22566 15.375 3.32879 15.375C3.29785 15.5761 3.26691 15.7772 3.23504 15.9844C3.19977 16.1735 3.16323 16.3616 3.12371 16.5498C3.11452 16.5969 3.10534 16.644 3.09588 16.6925C3.08633 16.7378 3.07678 16.7831 3.06695 16.8298C3.05871 16.8701 3.05047 16.9104 3.04198 16.9519C2.98841 17.0953 2.93728 17.1596 2.81316 17.25C2.65716 17.2743 2.65716 17.2743 2.47332 17.2749C2.44073 17.2751 2.40815 17.2753 2.37458 17.2754C2.30587 17.2756 2.23715 17.2752 2.16845 17.2744C2.06348 17.2734 1.95866 17.2744 1.85369 17.2756C1.78679 17.2755 1.7199 17.2753 1.65301 17.2749C1.59234 17.2747 1.53167 17.2745 1.46917 17.2743C1.31316 17.25 1.31316 17.25 1.19932 17.1789C1.09519 17.0143 1.10228 16.8634 1.10735 16.675C1.10775 16.6193 1.10775 16.6193 1.10816 16.5623C1.1092 16.4439 1.11156 16.3255 1.11394 16.207C1.11488 16.1266 1.11574 16.0461 1.11651 15.9657C1.11857 15.7688 1.12181 15.5719 1.12566 15.375C1.08723 15.3772 1.0488 15.3793 1.00921 15.3816C0.958692 15.3833 0.908177 15.385 0.856131 15.3867C0.806099 15.3889 0.756067 15.3911 0.70452 15.3933C0.563162 15.375 0.563162 15.375 0.452658 15.3069C0.338444 15.1298 0.348772 14.9723 0.35076 14.7656C0.35058 14.7247 0.350401 14.6838 0.350216 14.6417C0.350089 14.5553 0.350433 14.4689 0.351217 14.3826C0.352221 14.2504 0.351227 14.1184 0.350027 13.9863C0.350151 13.9023 0.350392 13.8184 0.35076 13.7344C0.350191 13.6752 0.35019 13.6752 0.349609 13.6148C0.3502 13.5779 0.350791 13.541 0.3514 13.5029C0.35155 13.4706 0.351699 13.4383 0.351853 13.405C0.387757 13.2655 0.448739 13.2105 0.563162 13.125C0.70452 13.1067 0.70452 13.1067 0.856131 13.1133C0.906646 13.115 0.957161 13.1167 1.00921 13.1184C1.04764 13.1206 1.08607 13.1228 1.12566 13.125C1.12525 13.0838 1.12483 13.0425 1.1244 13C1.12063 12.6097 1.11778 12.2194 1.11595 11.8291C1.11497 11.6285 1.11365 11.4279 1.11152 11.2273C1.10947 11.0334 1.10836 10.8395 1.10787 10.6456C1.10753 10.5719 1.10686 10.4982 1.10584 10.4246C1.0988 9.89384 1.13489 9.43143 1.51458 9.02489C1.85154 8.72194 2.18064 8.61998 2.62566 8.62499C2.62549 8.59064 2.62532 8.55628 2.62514 8.52088C2.62099 7.68359 2.61789 6.84631 2.61595 6.00901C2.61498 5.60409 2.61367 5.19918 2.61152 4.79427C2.60964 4.4412 2.60844 4.08814 2.60802 3.73507C2.60778 3.54825 2.60721 3.36144 2.60584 3.17463C2.60456 2.99849 2.60417 2.82237 2.60445 2.64622C2.60438 2.55137 2.60337 2.45652 2.60233 2.36168C2.60444 1.89261 2.68701 1.50063 3.01458 1.14989C3.31225 0.882261 3.63881 0.738467 4.04165 0.737933ZM3.56609 1.76952C3.34275 2.12145 3.36268 2.46667 3.36502 2.87245C3.36505 2.9353 3.36503 2.99816 3.36498 3.06101C3.36495 3.23087 3.3655 3.40071 3.36616 3.57056C3.36674 3.74836 3.3668 3.92615 3.36691 4.10395C3.3672 4.44028 3.36797 4.77661 3.36891 5.11294C3.36996 5.49599 3.37047 5.87903 3.37094 6.26208C3.37192 7.04972 3.37359 7.83736 3.37566 8.62499C3.62316 8.62499 3.87066 8.62499 4.12566 8.62499C4.1261 8.57065 4.12654 8.5163 4.12699 8.46031C4.12887 8.25674 4.13196 8.0532 4.13539 7.84965C4.1367 7.76192 4.1377 7.67418 4.13836 7.58644C4.14659 6.55793 4.14659 6.55793 4.46551 6.12597C4.84863 5.75156 5.23346 5.65778 5.75709 5.65825C5.80758 5.65793 5.85807 5.65762 5.9101 5.65729C6.07676 5.65641 6.24342 5.65622 6.41009 5.65612C6.52627 5.65582 6.64245 5.6555 6.75863 5.65517C7.00214 5.65461 7.24566 5.65444 7.48917 5.6545C7.80052 5.6545 8.11185 5.65323 8.42319 5.65161C8.66319 5.65057 8.90318 5.65038 9.14318 5.65043C9.25793 5.65032 9.37268 5.6499 9.48742 5.64918C9.64829 5.64825 9.80911 5.64853 9.96998 5.64909C10.0169 5.64857 10.0639 5.64804 10.1123 5.6475C10.4848 5.6508 10.8231 5.73713 11.1247 5.96484C11.4751 6.3234 11.5914 6.69467 11.5982 7.18761C11.5996 7.24944 11.5996 7.24944 11.6009 7.31252C11.6037 7.44337 11.6059 7.57421 11.6081 7.70507C11.6099 7.79412 11.6117 7.88317 11.6136 7.97222C11.6181 8.1898 11.622 8.40739 11.6257 8.62499C11.8732 8.62499 12.1207 8.62499 12.3757 8.62499C12.3763 8.54347 12.3763 8.54347 12.377 8.46031C12.3789 8.25674 12.382 8.0532 12.3854 7.84965C12.3867 7.76192 12.3877 7.67418 12.3884 7.58644C12.3966 6.55793 12.3966 6.55793 12.7155 6.12597C13.0986 5.75156 13.4835 5.65778 14.0071 5.65825C14.0576 5.65793 14.1081 5.65762 14.1601 5.65729C14.3268 5.65641 14.4934 5.65622 14.6601 5.65612C14.7763 5.65582 14.8924 5.6555 15.0086 5.65517C15.2521 5.65461 15.4957 5.65444 15.7392 5.6545C16.0505 5.6545 16.3618 5.65323 16.6732 5.65161C16.9132 5.65057 17.1532 5.65038 17.3932 5.65043C17.5079 5.65032 17.6227 5.6499 17.7374 5.64918C17.8983 5.64825 18.0591 5.64853 18.22 5.64909C18.2669 5.64857 18.3139 5.64804 18.3623 5.6475C18.7348 5.6508 19.0731 5.73713 19.3747 5.96484C19.7251 6.3234 19.8414 6.69467 19.8482 7.18761C19.8496 7.24944 19.8496 7.24944 19.8509 7.31252C19.8537 7.44337 19.8559 7.57421 19.8581 7.70507C19.8599 7.79412 19.8617 7.88317 19.8636 7.97222C19.8681 8.1898 19.872 8.40739 19.8757 8.62499C20.1232 8.62499 20.3707 8.62499 20.6257 8.62499C20.6289 7.80108 20.6314 6.97718 20.6329 6.15326C20.6337 5.77068 20.6347 5.38809 20.6363 5.00551C20.6377 4.67193 20.6386 4.33835 20.6389 4.00477C20.6391 3.82825 20.6395 3.65174 20.6405 3.47522C20.6415 3.30882 20.6418 3.14243 20.6416 2.97602C20.6416 2.88636 20.6424 2.7967 20.6432 2.70705C20.6419 2.20039 20.6419 2.20039 20.4253 1.75406C20.0907 1.44613 19.6654 1.48652 19.2411 1.48777C19.1762 1.48763 19.1112 1.48745 19.0463 1.48723C18.8682 1.48675 18.6902 1.48685 18.5122 1.48705C18.32 1.48717 18.1279 1.48674 17.9357 1.48639C17.5594 1.48579 17.1831 1.48571 16.8068 1.48582C16.5009 1.4859 16.195 1.48582 15.8891 1.48562C15.8455 1.48559 15.802 1.48557 15.7571 1.48554C15.6687 1.48548 15.5802 1.48542 15.4917 1.48537C14.6622 1.48486 13.8327 1.48496 13.0031 1.48524C12.2444 1.48549 11.4857 1.48496 10.727 1.48407C9.94777 1.48316 9.16852 1.48277 8.38928 1.48295C7.95188 1.48304 7.51448 1.48292 7.07707 1.48226C6.7047 1.4817 6.33234 1.48163 5.95997 1.4822C5.77004 1.48248 5.58012 1.48253 5.3902 1.48197C5.21619 1.48146 5.04219 1.4816 4.86818 1.48226C4.77572 1.48244 4.68327 1.48194 4.59081 1.4814C4.02831 1.48356 4.02831 1.48356 3.56609 1.76952ZM5.06609 6.64452C4.69291 7.23257 4.87566 7.95767 4.87566 8.62499C6.85566 8.62499 8.83566 8.62499 10.8757 8.62499C10.9857 7.56441 10.9857 7.56441 10.6061 6.56542C10.3096 6.37724 10.0224 6.36114 9.68202 6.36212C9.63876 6.36188 9.5955 6.36164 9.55093 6.36139C9.40864 6.36074 9.26636 6.36079 9.12407 6.36089C9.02466 6.36071 8.92525 6.36051 8.82584 6.36028C8.61772 6.35994 8.4096 6.35995 8.20148 6.3602C7.93547 6.36047 7.66949 6.35967 7.40349 6.35859C7.19824 6.35789 6.99299 6.35785 6.78773 6.358C6.68969 6.35798 6.59166 6.35773 6.49362 6.35726C6.35621 6.35668 6.21884 6.357 6.08143 6.35754C6.02137 6.357 6.02137 6.357 5.96008 6.35645C5.64135 6.35921 5.29158 6.39685 5.06609 6.64452ZM13.3161 6.64452C12.9429 7.23257 13.1257 7.95767 13.1257 8.62499C15.1057 8.62499 17.0857 8.62499 19.1257 8.62499C19.2357 7.56441 19.2357 7.56441 18.8561 6.56542C18.5596 6.37724 18.2724 6.36114 17.932 6.36212C17.8888 6.36188 17.8455 6.36164 17.8009 6.36139C17.6586 6.36074 17.5164 6.36079 17.3741 6.36089C17.2747 6.36071 17.1753 6.36051 17.0758 6.36028C16.8677 6.35994 16.6596 6.35995 16.4515 6.3602C16.1855 6.36047 15.9195 6.35967 15.6535 6.35859C15.4482 6.35789 15.243 6.35785 15.0377 6.358C14.9397 6.35798 14.8417 6.35773 14.7436 6.35726C14.6062 6.35668 14.4688 6.357 14.3314 6.35754C14.2714 6.357 14.2714 6.357 14.2101 6.35645C13.8913 6.35921 13.5416 6.39685 13.3161 6.64452ZM2.06609 9.64452C1.48717 10.5568 1.87566 12.7698 1.87566 13.125C8.55816 13.125 15.2407 13.125 22.1257 13.125C22.3532 11.7126 22.3532 11.7126 21.8561 9.56542C21.5959 9.4003 21.348 9.36328 21.0436 9.36306C21.0117 9.36291 20.9798 9.36276 20.9469 9.36261C20.8404 9.36222 20.7338 9.3625 20.6272 9.36277C20.5499 9.36263 20.4726 9.36245 20.3953 9.36223C20.183 9.36175 19.9708 9.36185 19.7586 9.36205C19.5296 9.36216 19.3006 9.36174 19.0716 9.36139C18.6231 9.36079 18.1746 9.36071 17.7262 9.36082C17.3616 9.3609 16.9971 9.36082 16.6325 9.36062C16.5807 9.36059 16.5288 9.36057 16.4754 9.36054C16.37 9.36048 16.2646 9.36042 16.1592 9.36037C15.1709 9.35986 14.1825 9.35996 13.1942 9.36024C12.29 9.36049 11.3858 9.35996 10.4816 9.35907C9.55319 9.35816 8.62479 9.35777 7.69638 9.35795C7.17514 9.35804 6.6539 9.35792 6.13266 9.35726C5.68893 9.3567 5.24519 9.35663 4.80146 9.3572C4.57508 9.35748 4.3487 9.35753 4.12232 9.35697C3.91501 9.35646 3.7077 9.3566 3.50038 9.35726C3.42547 9.35738 3.35055 9.35727 3.27564 9.3569C2.61625 9.33415 2.61625 9.33415 2.06609 9.64452ZM1.12566 13.875C1.12566 14.1225 1.12566 14.37 1.12566 14.625C8.30316 14.625 15.4807 14.625 22.8757 14.625C22.8757 14.3775 22.8757 14.13 22.8757 13.875C15.6982 13.875 8.52066 13.875 1.12566 13.875ZM1.87566 15.375C1.87566 15.7462 1.87566 16.1175 1.87566 16.5C2.01488 16.5 2.1541 16.5 2.29754 16.5C2.37488 16.1287 2.45222 15.7575 2.53191 15.375C2.31535 15.375 2.09879 15.375 1.87566 15.375ZM21.4694 15.375C21.5468 15.7462 21.6241 16.1175 21.7038 16.5C21.843 16.5 21.9822 16.5 22.1257 16.5C22.1257 16.1287 22.1257 15.7575 22.1257 15.375C21.9091 15.375 21.6925 15.375 21.4694 15.375Z" fill="black"/>
</svg>
