<svg width="24" height="24" viewBox="0 0 24 24" fill="none" xmlns="http://www.w3.org/2000/svg">
<path d="M1.52877 2.89995C1.56573 2.89984 1.60269 2.89973 1.64077 2.89962C1.76565 2.89931 1.89053 2.89933 2.01541 2.89935C2.10543 2.89919 2.19545 2.89902 2.28547 2.89883C2.53366 2.89835 2.78186 2.89818 3.03005 2.89806C3.2974 2.89787 3.56476 2.89743 3.83212 2.89702C4.47813 2.89609 5.12414 2.89562 5.77016 2.8952C6.07414 2.895 6.37812 2.89474 6.68211 2.8945C7.69217 2.8937 8.70224 2.89302 9.71231 2.89268C9.77764 2.89266 9.84297 2.89264 9.9083 2.89261C9.9407 2.8926 9.9731 2.89259 10.0065 2.89258C10.1706 2.89252 10.3348 2.89247 10.4989 2.89241C10.5315 2.8924 10.5641 2.89239 10.5976 2.89238C11.6542 2.89201 12.7108 2.89091 13.7673 2.88938C14.884 2.88778 16.0007 2.88685 17.1174 2.8867C17.7263 2.8866 18.3352 2.88618 18.9441 2.88499C19.4624 2.88397 19.9808 2.88359 20.4992 2.88405C20.7638 2.88426 21.0284 2.88417 21.2931 2.88326C21.5352 2.88244 21.7772 2.88248 22.0194 2.88321C22.1071 2.88332 22.1948 2.88312 22.2825 2.88256C22.4015 2.88186 22.5205 2.88231 22.6395 2.88304C22.6738 2.88256 22.708 2.88209 22.7433 2.88159C22.9804 2.88481 23.1126 2.94653 23.2961 3.09375C23.5406 3.35073 23.5099 3.63077 23.5074 3.96539C23.5079 4.05556 23.5079 4.05556 23.5083 4.14755C23.5091 4.31411 23.5087 4.48064 23.5081 4.6472C23.5077 4.82694 23.5084 5.00667 23.5089 5.18641C23.5097 5.53841 23.5095 5.89041 23.509 6.24241C23.5086 6.52851 23.5085 6.81461 23.5087 7.10071C23.5087 7.14142 23.5088 7.18214 23.5088 7.22409C23.5089 7.30681 23.5089 7.38952 23.509 7.47224C23.5095 8.24795 23.5089 9.02365 23.5079 9.79936C23.507 10.4649 23.5072 11.1304 23.5081 11.7959C23.5091 12.5688 23.5095 13.3416 23.5089 14.1145C23.5088 14.1969 23.5088 14.2793 23.5087 14.3618C23.5087 14.4226 23.5087 14.4226 23.5086 14.4847C23.5085 14.7704 23.5087 15.0561 23.5092 15.3418C23.5097 15.6901 23.5096 16.0383 23.5086 16.3866C23.5081 16.5642 23.5079 16.7419 23.5085 16.9195C23.5092 17.1122 23.5084 17.3048 23.5074 17.4974C23.5081 17.5816 23.5081 17.5816 23.5087 17.6675C23.5058 17.9746 23.4932 18.1798 23.2961 18.4219C23.0847 18.5975 22.8783 18.6366 22.6064 18.6319C22.5715 18.6321 22.5366 18.6322 22.5006 18.6324C22.3843 18.6327 22.2681 18.6317 22.1519 18.6307C22.0683 18.6306 21.9846 18.6306 21.901 18.6307C21.6745 18.6308 21.448 18.6297 21.2215 18.6284C20.9846 18.6272 20.7476 18.6271 20.5107 18.6269C20.0623 18.6263 19.614 18.6248 19.1656 18.6229C18.655 18.6208 18.1444 18.6197 17.6338 18.6188C16.5838 18.6168 15.5337 18.6136 14.4836 18.6094C14.5122 18.7518 14.5414 18.8941 14.5706 19.0364C14.5786 19.0764 14.5867 19.1164 14.5949 19.1577C14.7181 19.7534 14.9664 20.1138 15.4156 20.5155C15.6712 20.7506 15.6712 20.7506 15.7 20.9507C15.7008 20.9979 15.7016 21.0451 15.7024 21.0937C15.337 21.3018 14.8364 21.2412 14.4282 21.2404C14.3737 21.2405 14.3191 21.2406 14.2629 21.2407C14.084 21.2409 13.9052 21.2408 13.7263 21.2406C13.6011 21.2406 13.4759 21.2407 13.3507 21.2407C13.0889 21.2408 12.8272 21.2407 12.5654 21.2405C12.264 21.2402 11.9626 21.2403 11.6612 21.2406C11.4011 21.2408 11.141 21.2408 10.8808 21.2407C10.7261 21.2406 10.5713 21.2406 10.4165 21.2408C10.2438 21.2409 10.0711 21.2407 9.89838 21.2404C9.82282 21.2406 9.82282 21.2406 9.74573 21.2407C8.77535 21.238 8.77535 21.238 8.57736 21.0469C8.55994 20.9098 8.56182 20.8373 8.63596 20.7191C8.66303 20.69 8.6901 20.6609 8.71799 20.6309C8.74784 20.5985 8.77769 20.5662 8.80844 20.5329C8.9015 20.4414 8.99797 20.359 9.09885 20.2764C9.50115 19.9332 9.63689 19.4293 9.70621 18.9234C9.71435 18.8645 9.7225 18.8057 9.73089 18.745C9.73695 18.7002 9.743 18.6555 9.74924 18.6094C9.70562 18.6095 9.66199 18.6097 9.61705 18.6099C8.55525 18.6141 7.49346 18.6171 6.43166 18.6191C5.91818 18.6201 5.4047 18.6214 4.89122 18.6235C4.44363 18.6254 3.99605 18.6266 3.54846 18.627C3.3115 18.6273 3.07455 18.6278 2.83759 18.6292C2.61444 18.6305 2.3913 18.6309 2.16814 18.6306C2.08636 18.6306 2.00458 18.631 1.9228 18.6317C1.12602 18.6384 1.12602 18.6384 0.842989 18.4219C0.619252 18.1269 0.629099 17.8583 0.631995 17.4971C0.631735 17.4369 0.631476 17.3766 0.631209 17.3146C0.630518 17.148 0.630994 16.9814 0.631665 16.8147C0.632186 16.6348 0.631626 16.4549 0.631204 16.275C0.630551 15.9229 0.630905 15.5707 0.63161 15.2185C0.632401 14.8084 0.63225 14.3983 0.632075 13.9882C0.631799 13.2566 0.632463 12.525 0.633619 11.7933C0.634741 11.0833 0.635072 10.3732 0.63458 9.66318C0.634046 8.88996 0.633955 8.11675 0.634632 7.34353C0.634703 7.26111 0.634775 7.17868 0.634846 7.09626C0.634881 7.05571 0.634917 7.01515 0.634953 6.97337C0.635176 6.68744 0.635089 6.40152 0.63489 6.1156C0.634659 5.76728 0.634938 5.41896 0.635869 5.07063C0.636332 4.89288 0.636571 4.71514 0.636202 4.53739C0.635811 4.34484 0.636507 4.1523 0.637316 3.95975C0.637035 3.90339 0.636753 3.84703 0.636463 3.78896C0.637056 3.71165 0.637056 3.71165 0.637661 3.63279C0.63771 3.58834 0.637758 3.5439 0.637808 3.4981C0.667331 3.29254 0.761452 3.17182 0.913301 3.03515C1.11425 2.89449 1.29276 2.89948 1.52877 2.89995ZM1.63986 3.84375C1.63986 7.71093 1.63986 11.5781 1.63986 15.5625C8.52346 15.5625 15.4071 15.5625 22.4992 15.5625C22.4992 11.6953 22.4992 7.82812 22.4992 3.84375C15.6156 3.84375 8.73205 3.84375 1.63986 3.84375ZM11.718 17.2031C11.6419 17.3553 11.6386 17.5079 11.6711 17.6719C11.7838 17.8238 11.7838 17.8238 11.9524 17.9062C12.1541 17.9132 12.2422 17.8927 12.3947 17.7598C12.489 17.5863 12.5028 17.4916 12.468 17.2969C12.3412 17.1582 12.2532 17.0755 12.0666 17.0391C11.9265 17.0678 11.8336 17.1196 11.718 17.2031Z" fill="#1A1A1A"/>
<path d="M13.7812 8.48438C14.1061 8.48438 14.4309 8.48438 14.7656 8.48438C14.7888 8.60903 14.8119 8.73369 14.8358 8.86212C14.8582 8.98236 14.8807 9.10258 14.9032 9.22281C14.9189 9.30659 14.9345 9.3904 14.95 9.47421C14.9723 9.59443 14.9948 9.71461 15.0174 9.83478C15.0243 9.87247 15.0313 9.91017 15.0384 9.94901C15.0581 10.1217 15.0581 10.1217 15.1406 10.2656C15.1532 10.215 15.1657 10.1644 15.1786 10.1122C15.2251 9.92471 15.2717 9.73725 15.3183 9.5498C15.3385 9.4686 15.3586 9.38739 15.3787 9.30618C15.4076 9.18956 15.4366 9.07299 15.4656 8.95642C15.4746 8.91999 15.4836 8.88356 15.4929 8.84603C15.5572 8.5888 15.5572 8.5888 15.6094 8.48438C15.8569 8.48438 16.1044 8.48438 16.3594 8.48438C16.5141 9.08766 16.6688 9.69094 16.8281 10.3125C16.8639 10.124 16.8997 9.93545 16.9365 9.74121C17.017 9.31987 17.1016 8.9012 17.2031 8.48438C17.5125 8.48438 17.8219 8.48438 18.1406 8.48438C18.049 8.86098 17.948 9.23219 17.8341 9.6026C17.8188 9.65267 17.8035 9.70275 17.7878 9.75434C17.7558 9.85894 17.7237 9.96351 17.6916 10.0681C17.6422 10.2289 17.5931 10.3897 17.5441 10.5506C17.5128 10.6526 17.4816 10.7546 17.4503 10.8565C17.4356 10.9047 17.4209 10.953 17.4058 11.0027C17.3922 11.0468 17.3785 11.091 17.3645 11.1365C17.3525 11.1755 17.3406 11.2145 17.3283 11.2547C17.2969 11.3438 17.2969 11.3438 17.25 11.3906C17.1836 11.3947 17.1171 11.3956 17.0506 11.3952C17.0106 11.3951 16.9705 11.3949 16.9293 11.3947C16.8662 11.3942 16.8662 11.3942 16.8018 11.3936C16.7595 11.3933 16.7172 11.3931 16.6737 11.3929C16.5689 11.3924 16.4641 11.3916 16.3594 11.3906C16.3483 11.3454 16.3371 11.3002 16.3257 11.2537C16.2845 11.0865 16.2432 10.9194 16.2017 10.7523C16.1838 10.6799 16.1659 10.6075 16.1481 10.535C16.1226 10.4311 16.0968 10.3272 16.071 10.2233C16.063 10.1908 16.0551 10.1582 16.0469 10.1246C16.0178 9.97135 16.0178 9.97135 15.9375 9.84375C15.9258 9.88906 15.9258 9.88906 15.9139 9.93528C15.8779 10.0747 15.8418 10.2141 15.8057 10.3535C15.7934 10.401 15.7812 10.4485 15.7686 10.4974C15.6907 10.7974 15.6065 11.0944 15.5156 11.3906C15.2217 11.3906 14.9278 11.3906 14.625 11.3906C14.4369 10.8013 14.2556 10.2106 14.0822 9.61685C14.0441 9.48653 14.0058 9.35629 13.9675 9.22604C13.9431 9.14283 13.9187 9.05961 13.8944 8.97638C13.883 8.93762 13.8716 8.89886 13.8598 8.85892C13.7812 8.58888 13.7812 8.58888 13.7812 8.48438Z" fill="#323232"/>
<path d="M9.28125 8.48438C9.59062 8.48438 9.9 8.48438 10.2188 8.48438C10.2903 8.69894 10.3433 8.90051 10.3832 9.12122C10.3893 9.15411 10.3954 9.18701 10.4017 9.2209C10.421 9.32497 10.44 9.42908 10.459 9.5332C10.4721 9.60419 10.4852 9.67517 10.4984 9.74615C10.5304 9.91927 10.5621 10.0924 10.5938 10.2656C10.6092 10.2656 10.6247 10.2656 10.6406 10.2656C10.6532 10.215 10.6657 10.1644 10.6786 10.1122C10.7251 9.92471 10.7717 9.73725 10.8183 9.5498C10.8385 9.4686 10.8586 9.38739 10.8787 9.30618C10.9076 9.18956 10.9366 9.07299 10.9656 8.95642C10.9746 8.91999 10.9836 8.88356 10.9929 8.84603C11.0572 8.5888 11.0572 8.5888 11.1094 8.48438C11.3569 8.48438 11.6044 8.48438 11.8594 8.48438C11.8719 8.53667 11.8844 8.58896 11.8974 8.64284C11.9438 8.8362 11.9904 9.02951 12.037 9.22281C12.0572 9.30659 12.0774 9.39039 12.0975 9.47421C12.1263 9.59444 12.1553 9.71461 12.1844 9.83478C12.1934 9.87247 12.2024 9.91017 12.2116 9.94901C12.2414 10.1214 12.2414 10.1214 12.3281 10.2656C12.3378 10.2167 12.3475 10.1677 12.3575 10.1173C12.3935 9.93562 12.4296 9.754 12.4657 9.5724C12.4814 9.49379 12.497 9.41518 12.5125 9.33656C12.5349 9.22356 12.5574 9.11059 12.5799 8.99762C12.5868 8.96246 12.5938 8.9273 12.6009 8.89107C12.6287 8.75213 12.6583 8.61896 12.7031 8.48438C12.997 8.48438 13.2909 8.48438 13.5938 8.48438C13.541 8.90628 13.541 8.90628 13.4734 9.12421C13.4586 9.17268 13.4437 9.22115 13.4284 9.27109C13.4124 9.32218 13.3964 9.37327 13.3799 9.4259C13.3552 9.50593 13.3552 9.50593 13.33 9.58757C13.2953 9.69973 13.2605 9.81185 13.2255 9.92393C13.1718 10.096 13.1185 10.2682 13.0653 10.4405C13.0315 10.5496 12.9977 10.6586 12.9639 10.7677C12.9479 10.8194 12.9318 10.871 12.9153 10.9242C12.9005 10.9718 12.8856 11.0194 12.8703 11.0684C12.8572 11.1104 12.8441 11.1524 12.8307 11.1956C12.7969 11.2969 12.7969 11.2969 12.75 11.3906C12.4561 11.3906 12.1622 11.3906 11.8594 11.3906C11.8066 11.1953 11.7539 11 11.7012 10.8047C11.6863 10.7497 11.6714 10.6947 11.6561 10.6381C11.5807 10.3583 11.5065 10.0784 11.4375 9.79688C11.4281 9.8335 11.4186 9.87012 11.4089 9.90785C11.3657 10.075 11.3225 10.2421 11.2793 10.4092C11.257 10.4956 11.257 10.4956 11.2343 10.5838C11.2198 10.6398 11.2052 10.6959 11.1903 10.7536C11.1771 10.8049 11.1638 10.8562 11.1501 10.9091C11.1073 11.0701 11.0614 11.2304 11.0156 11.3906C10.7217 11.3906 10.4278 11.3906 10.125 11.3906C9.96676 10.9687 9.96676 10.9687 9.90387 10.7508C9.88277 10.6781 9.88277 10.6781 9.86124 10.6039C9.84659 10.5528 9.83193 10.5017 9.81683 10.4491C9.80143 10.3957 9.78602 10.3424 9.77014 10.2874C9.73781 10.1753 9.70555 10.0632 9.67336 9.95107C9.62389 9.77882 9.57412 9.60666 9.52432 9.43451C9.4929 9.32544 9.4615 9.21637 9.43011 9.1073C9.40771 9.02981 9.40771 9.02981 9.38485 8.95076C9.37122 8.90318 9.3576 8.8556 9.34356 8.80657C9.32546 8.74363 9.32546 8.74363 9.307 8.67941C9.28125 8.57812 9.28125 8.57812 9.28125 8.48438Z" fill="#323232"/>
<path d="M4.78125 8.4844C5.09062 8.4844 5.4 8.4844 5.71875 8.4844C5.82509 8.8923 5.91081 9.30007 5.98535 9.71487C5.9959 9.77269 6.00644 9.83052 6.0173 9.8901C6.04295 10.0309 6.06843 10.1717 6.09375 10.3125C6.11915 10.2178 6.14453 10.1231 6.16992 10.0283C6.17868 9.99567 6.18744 9.963 6.19646 9.92934C6.25022 9.72792 6.3028 9.52622 6.35468 9.3243C6.36724 9.27558 6.3798 9.22685 6.39274 9.17664C6.41791 9.07886 6.44295 8.98104 6.46786 8.88319C6.48525 8.81576 6.48525 8.81576 6.50299 8.74697C6.51333 8.70653 6.52368 8.66608 6.53434 8.62441C6.5625 8.53127 6.5625 8.53127 6.60938 8.4844C6.72799 8.48097 6.8453 8.48006 6.96387 8.48147C7.01385 8.48179 7.01385 8.48179 7.06485 8.48211C7.1474 8.48266 7.22995 8.48351 7.3125 8.4844C7.4444 8.85413 7.53589 9.2306 7.62598 9.61233C7.64113 9.6759 7.65629 9.73947 7.67148 9.80303C7.70824 9.9572 7.74482 10.1114 7.78125 10.2656C7.84551 10.0487 7.89935 9.83345 7.94403 9.61141C7.95621 9.55156 7.96838 9.49171 7.98093 9.43005C7.99988 9.33603 8.01879 9.24201 8.0377 9.14799C8.05618 9.05635 8.07481 8.96474 8.09344 8.87313C8.10986 8.79158 8.10986 8.79158 8.1266 8.70837C8.15625 8.57815 8.15625 8.57815 8.20312 8.4844C8.49703 8.4844 8.79094 8.4844 9.09375 8.4844C9.06308 8.69907 9.03587 8.87014 8.97345 9.0713C8.95859 9.11962 8.94373 9.16794 8.92842 9.21773C8.9124 9.26891 8.89638 9.32009 8.87988 9.37283C8.86341 9.42613 8.84694 9.47944 8.82998 9.53436C8.77751 9.70398 8.72469 9.87348 8.67188 10.043C8.63633 10.1577 8.60081 10.2725 8.56531 10.3872C8.31437 11.1975 8.31437 11.1975 8.25 11.3906C7.95609 11.3906 7.66219 11.3906 7.35938 11.3906C7.31429 11.2354 7.2694 11.0801 7.22461 10.9248C7.21198 10.8814 7.19935 10.838 7.18634 10.7933C6.96639 10.0288 6.96639 10.0288 6.98438 9.75002C6.95344 9.75002 6.9225 9.75002 6.89062 9.75002C6.8841 9.83559 6.8841 9.83559 6.87744 9.92288C6.84462 10.2178 6.76174 10.4969 6.67969 10.7813C6.66464 10.8349 6.6496 10.8885 6.63409 10.9437C6.52229 11.3371 6.52229 11.3371 6.46875 11.3906C6.40581 11.3947 6.34267 11.3957 6.2796 11.3952C6.24169 11.3951 6.20377 11.3949 6.1647 11.3948C6.12485 11.3944 6.085 11.394 6.04395 11.3936C6.00391 11.3934 5.96388 11.3932 5.92264 11.3929C5.82342 11.3924 5.72421 11.3915 5.625 11.3906C5.5054 11.0852 5.40921 10.7757 5.31683 10.461C5.30143 10.4088 5.28602 10.3566 5.27014 10.3028C5.23781 10.1932 5.20555 10.0834 5.17336 9.9737C5.12392 9.80535 5.07414 9.6371 5.02432 9.46887C4.9929 9.36209 4.9615 9.25531 4.93011 9.14852C4.90771 9.07294 4.90771 9.07294 4.88485 8.99583C4.87122 8.94919 4.8576 8.90254 4.84356 8.85449C4.8315 8.81346 4.81943 8.77244 4.807 8.73017C4.78125 8.62502 4.78125 8.62502 4.78125 8.4844Z" fill="#323232"/>
<path d="M19.0311 10.4062C19.1666 10.512 19.2103 10.5819 19.2344 10.7519C19.2433 10.983 19.2363 11.1628 19.078 11.3437C18.8804 11.4626 18.6938 11.4705 18.4686 11.4375C18.3059 11.3406 18.1978 11.2449 18.1405 11.0625C18.118 10.8194 18.1392 10.6546 18.2811 10.4531C18.5405 10.2871 18.7472 10.2879 19.0311 10.4062Z" fill="#323232"/>
</svg>
