<svg width="42" height="38" viewBox="0 0 42 38" fill="none" xmlns="http://www.w3.org/2000/svg">
<path d="M31 18.0001H38.264C38.6048 18.0003 38.9399 18.0875 39.2375 18.2536C39.535 18.4196 39.7853 18.659 39.9644 18.9489C40.1435 19.2388 40.2456 19.5697 40.2609 19.9101C40.2762 20.2505 40.2043 20.5892 40.052 20.8941L35.984 29.0321C35.8298 29.3405 35.5984 29.6037 35.3124 29.7963C35.0264 29.9889 34.6955 30.1043 34.3517 30.1312C34.008 30.1582 33.6631 30.0958 33.3506 29.9502C33.038 29.8046 32.7685 29.5806 32.568 29.3001L28.32 23.3601M1.5 32.0001H9.02C9.76546 32.0053 10.4975 31.802 11.1336 31.4133C11.7697 31.0246 12.2846 30.4658 12.62 29.8001L15.5 24.0001M1.5 36.0001V28.0001M11.5 12.0001H11.52M31.712 12.1061C32.186 12.3434 32.5465 12.7591 32.7141 13.262C32.8817 13.7649 32.8428 14.3138 32.606 14.7881L26.394 27.2101C26.2765 27.445 26.1139 27.6546 25.9154 27.8267C25.7169 27.9988 25.4864 28.1301 25.2372 28.2131C24.988 28.2961 24.7248 28.3292 24.4628 28.3105C24.2007 28.2918 23.9449 28.2217 23.71 28.1041L4.72 18.6001C3.34067 17.9053 2.29271 16.6924 1.80544 15.2269C1.31817 13.7613 1.43127 12.1624 2.12 10.7801L4.88 5.20008C5.224 4.51452 5.69968 3.90344 6.27987 3.40174C6.86007 2.90005 7.53341 2.51756 8.26144 2.27612C8.98948 2.03468 9.75794 1.93902 10.5229 1.9946C11.288 2.05019 12.0345 2.25593 12.72 2.60008L31.712 12.1061Z" stroke="#7385AD" stroke-width="2.66667" stroke-linecap="round" stroke-linejoin="round"/>
</svg>
