<svg width="40" height="30" viewBox="0 0 40 30" fill="none" xmlns="http://www.w3.org/2000/svg">
<path d="M4.75 20.1168V16.3375H35.25V20.1168M8.47133 13.9655V10.1868H24.008M17.0233 4.06545C16.3162 3.57795 15.4776 3.31689 14.6187 3.31689C13.7598 3.31689 12.9211 3.57795 12.214 4.06545" stroke="#5F74A1" stroke-width="0.888889" stroke-linecap="round" stroke-linejoin="round"/>
<path d="M16.2387 0.704834C15.332 0.862807 14.4828 1.25649 13.7764 1.84637C13.07 2.43624 12.5312 3.20156 12.214 4.0655C11.509 3.32902 10.6154 2.80005 9.63061 2.53616C8.64581 2.27227 7.60749 2.28357 6.62866 2.56883" stroke="#5F74A1" stroke-width="0.888889" stroke-linecap="round" stroke-linejoin="round"/>
<path d="M8.28198 4.80806C8.8117 4.34504 9.45555 4.03203 10.1469 3.90145C10.8382 3.77088 11.5519 3.82748 12.214 4.06539M10.248 0.560059C12.0466 1.28806 12.2146 4.06539 12.2146 4.06539M26.1913 11.8534C26.9196 11.2373 27.8077 10.8405 28.7525 10.7092C29.6973 10.5778 30.66 10.7173 31.5286 11.1114M31.5286 11.1114C31.5286 11.1114 30.6693 7.81473 27.7713 7.81473M31.5286 11.1114C32.2337 10.3747 33.1273 9.84551 34.1122 9.5815C35.0972 9.31748 36.1357 9.32875 37.1147 9.61406" stroke="#5F74A1" stroke-width="0.888889" stroke-linecap="round" stroke-linejoin="round"/>
<path d="M35.4613 11.8534C34.9315 11.3904 34.2875 11.0774 33.596 10.947C32.9046 10.8165 32.1908 10.8733 31.5287 11.1114M31.5287 11.1114C31.5287 11.1114 31.696 8.3341 33.4947 7.60676M31.5287 11.1114V16.3381M33.98 16.3381C33.9796 15.7092 33.7297 15.1062 33.2851 14.6615C32.8405 14.2167 32.2375 13.9666 31.6087 13.9661H8.39132C7.76234 13.9665 7.15922 14.2165 6.71446 14.6612C6.2697 15.106 6.01968 15.7091 6.01932 16.3381M12.214 4.06543V13.9661M11.3867 20.1168H4.85732C4.22834 20.1171 3.62522 20.3671 3.18046 20.8119C2.7357 21.2567 2.48568 21.8598 2.48532 22.4888H37.5153C37.515 21.8597 37.2649 21.2564 36.82 20.8117C36.3751 20.3669 35.7718 20.1169 35.1427 20.1168H23.6507M38.8633 28.6401V22.4888H1.13666V28.6401H4.86466V28.2774C4.86466 27.9211 4.93484 27.5683 5.0712 27.2391C5.20756 26.9099 5.40742 26.6108 5.65938 26.3588C5.91133 26.1069 6.21045 25.907 6.53964 25.7706C6.86884 25.6343 7.22167 25.5641 7.57799 25.5641C7.93431 25.5641 8.28714 25.6343 8.61634 25.7706C8.94554 25.907 9.24465 26.1069 9.49661 26.3588C9.74856 26.6108 9.94843 26.9099 10.0848 27.2391C10.2211 27.5683 10.2913 27.9211 10.2913 28.2774V28.6401H13.146V28.2774C13.146 27.5578 13.4319 26.8677 13.9407 26.3588C14.4496 25.85 15.1397 25.5641 15.8593 25.5641C16.5789 25.5641 17.2691 25.85 17.7779 26.3588C18.2868 26.8677 18.5727 27.5578 18.5727 28.2774V28.6401H21.4273V28.2774C21.4273 27.5578 21.7132 26.8677 22.222 26.3588C22.7309 25.85 23.421 25.5641 24.1407 25.5641C24.8603 25.5641 25.5504 25.85 26.0593 26.3588C26.5681 26.8677 26.854 27.5578 26.854 28.2774V28.6401H29.7093V28.2774C29.7093 27.5578 29.9952 26.8677 30.504 26.3588C31.0129 25.85 31.703 25.5641 32.4227 25.5641C33.1423 25.5641 33.8324 25.85 34.3413 26.3588C34.8501 26.8677 35.136 27.5578 35.136 28.2774V28.6401H38.8633Z" stroke="#5F74A1" stroke-width="0.888889" stroke-linecap="round" stroke-linejoin="round"/>
<path d="M21.342 20.104C19.2126 20.104 17.7506 22.4887 17.7506 22.4887M17.7506 22.4887C17.9835 21.4098 17.9698 20.2922 17.7106 19.2194M17.7506 22.4887C17.3213 21.7936 16.7017 21.2368 15.9652 20.883C15.2287 20.5292 14.4063 20.394 13.5953 20.4934M25.23 7.8147H12.2286C11.5996 7.81505 10.9965 8.06507 10.5518 8.50983C10.107 8.95459 9.85698 9.55771 9.85663 10.1867H24.008" stroke="#5F74A1" stroke-width="0.888889" stroke-linecap="round" stroke-linejoin="round"/>
</svg>
