<svg width="43" height="42" viewBox="0 0 43 42" fill="none" xmlns="http://www.w3.org/2000/svg">
<path d="M25.5 41V13M25.5 41H13.5C7.844 41 5.014 41 3.258 39.242C1.5 37.486 1.5 34.656 1.5 29V13C1.5 7.344 1.5 4.514 3.258 2.758C5.014 1 7.844 1 13.5 1C19.156 1 21.986 1 23.742 2.758C25.5 4.514 25.5 7.344 25.5 13M25.5 41H33.5C37.272 41 39.156 41 40.328 39.828C41.5 38.656 41.5 36.772 41.5 33V21C41.5 17.228 41.5 15.344 40.328 14.172C39.156 13 37.272 13 33.5 13H25.5M10.5 19H8.5M18.5 19H16.5M10.5 11H8.5M10.5 27H8.5M18.5 11H16.5M18.5 27H16.5M34.5 27H32.5M34.5 19H32.5" stroke="#7385AD" stroke-width="2" stroke-linecap="round" stroke-linejoin="round"/>
</svg>
