<svg width="44" height="34" viewBox="0 0 44 34" fill="none" xmlns="http://www.w3.org/2000/svg">
<path d="M14.8 24.1999C15.4365 24.1999 16.047 23.9471 16.4971 23.497C16.9472 23.0469 17.2 22.4365 17.2 21.7999C17.2 21.1634 16.9472 20.553 16.4971 20.1029C16.047 19.6528 15.4365 19.4 14.8 19.4C14.1635 19.4 13.553 19.6528 13.103 20.1029C12.6529 20.553 12.4 21.1634 12.4 21.7999C12.4 22.4365 12.6529 23.0469 13.103 23.497C13.553 23.9471 14.1635 24.1999 14.8 24.1999ZM24.4 21.7999C24.4 22.4365 24.1472 23.0469 23.6971 23.497C23.247 23.9471 22.6365 24.1999 22 24.1999C21.3635 24.1999 20.753 23.9471 20.303 23.497C19.8529 23.0469 19.6 22.4365 19.6 21.7999C19.6 21.1634 19.8529 20.553 20.303 20.1029C20.753 19.6528 21.3635 19.4 22 19.4C22.6365 19.4 23.247 19.6528 23.6971 20.1029C24.1472 20.553 24.4 21.1634 24.4 21.7999ZM29.2 24.1999C29.8365 24.1999 30.447 23.9471 30.8971 23.497C31.3471 23.0469 31.6 22.4365 31.6 21.7999C31.6 21.1634 31.3471 20.553 30.8971 20.1029C30.447 19.6528 29.8365 19.4 29.2 19.4C28.5635 19.4 27.953 19.6528 27.503 20.1029C27.0529 20.553 26.8 21.1634 26.8 21.7999C26.8 22.4365 27.0529 23.0469 27.503 23.497C27.953 23.9471 28.5635 24.1999 29.2 24.1999ZM7.60001 0.903151C8.04999 0.453033 8.66034 0.200087 9.29681 0.199951H34.7032C35.3397 0.200087 35.95 0.453033 36.4 0.903151L42.7408 7.24155C44.5696 9.07275 43.2736 12.2 40.6864 12.2H38.8V29C38.8 30.273 38.2943 31.4939 37.3941 32.3941C36.4939 33.2942 35.273 33.7999 34 33.7999H10C8.72697 33.7999 7.50607 33.2942 6.60589 32.3941C5.70572 31.4939 5.20001 30.273 5.20001 29V12.2H3.31361C0.726407 12.2 -0.567193 9.07275 1.26401 7.24155L7.60001 0.903151ZM36.4 29V12.2H7.60001V29C7.60001 29.6365 7.85286 30.2469 8.30295 30.697C8.75304 31.1471 9.36349 31.4 10 31.4H34C34.6365 31.4 35.247 31.1471 35.6971 30.697C36.1472 30.2469 36.4 29.6365 36.4 29ZM40.6864 9.79995C40.7859 9.79996 40.8833 9.77049 40.9661 9.71526C41.0489 9.66003 41.1135 9.58151 41.1518 9.48961C41.19 9.39771 41.2002 9.29654 41.181 9.19886C41.1618 9.10118 41.1142 9.01137 41.044 8.94075L34.7032 2.59995H9.29681L2.95841 8.94075C2.88839 9.01123 2.84077 9.10082 2.82152 9.19828C2.80226 9.29573 2.81224 9.3967 2.85019 9.48851C2.88815 9.58031 2.95238 9.65885 3.03483 9.71426C3.11728 9.76968 3.21427 9.79949 3.31361 9.79995H40.6864Z" fill="#7385AD"/>
</svg>
