<svg width="51" height="50" viewBox="0 0 51 50" fill="none" xmlns="http://www.w3.org/2000/svg">
<path d="M31.4965 25.3385C41.8125 35.6544 47.6796 41.4894 49.0981 42.8434C49.8718 43.6815 50.2586 44.6648 50.2586 45.7931C50.2586 46.9214 49.8557 47.8885 49.0497 48.6944C48.2438 49.5004 47.2767 49.9033 46.1484 49.9033C45.0201 49.9033 44.0368 49.5165 43.1987 48.7428C37.396 42.9401 31.561 37.0729 25.6938 31.1412C24.8557 30.3675 24.6945 29.4327 25.2103 28.3366L23.953 27.0793L22.2122 28.8201C21.6964 29.3359 21.1 29.5777 20.423 29.5455C19.7461 29.5132 18.9885 29.078 18.1503 28.2399C18.0214 28.3688 17.8441 28.53 17.6184 28.7234C17.3927 28.9169 17.2477 29.0619 17.1832 29.1586C17.1187 29.2554 17.0059 29.3682 16.8447 29.4971C16.6835 29.6261 16.5546 29.7228 16.4579 29.7873C16.3611 29.8517 16.2322 29.9162 16.071 29.9807C15.9098 30.0452 15.7325 30.0774 15.5391 30.0774C15.7325 31.1735 15.4424 32.1406 14.6687 32.9788L13.4114 34.1393C13.0891 34.4617 12.7022 34.6229 12.2509 34.6229C11.7996 34.6229 11.4127 34.4617 11.0904 34.1393L1.80602 24.7583C1.48364 24.4359 1.32246 24.049 1.32246 23.5977C1.32246 23.1464 1.48364 22.7595 1.80602 22.4372L2.96656 21.2766C3.74025 20.5029 4.67513 20.2128 5.7712 20.4062C5.83568 19.826 6.06134 19.3424 6.44818 18.9555L19.3109 6.09288C19.6977 5.70603 20.149 5.48037 20.6648 5.41589C20.5359 4.31982 20.8582 3.38494 21.6319 2.61125L22.7925 1.45071C23.1149 1.12834 23.5017 0.967152 23.953 0.967152C24.4043 0.967152 24.7912 1.12834 25.1136 1.45071L34.4946 10.735C34.817 11.0574 34.9782 11.4443 34.9782 11.8956C34.9782 12.3469 34.817 12.7338 34.4946 13.0561L33.3341 14.2167C32.4959 14.9904 31.561 15.3127 30.5294 15.1838C30.4649 15.3772 30.4005 15.5545 30.336 15.7157C30.2715 15.8769 30.1748 16.0542 30.0459 16.2476C29.9169 16.441 29.8202 16.5861 29.7557 16.6828C29.6913 16.7795 29.5139 16.9568 29.2238 17.2147C28.9337 17.4726 28.7241 17.6661 28.5952 17.795L29.1755 18.3753C29.6913 18.8266 29.9492 19.3907 29.9492 20.0677C29.9492 20.7447 29.6913 21.3411 29.1755 21.8569L27.4346 23.5977L28.6919 24.855C29.788 24.3392 30.7228 24.5004 31.4965 25.3385ZM40.8776 44.0039L42.0381 45.1644L45.5198 41.6828L44.3592 40.5223L40.8776 44.0039ZM29.7557 32.9788L39.717 42.8434L43.1987 39.3617L33.3341 29.4004L29.7557 32.9788ZM22.7925 3.77179C22.4701 4.09417 22.3089 4.48101 22.3089 4.93233C22.3089 5.38366 22.4701 5.7705 22.7925 6.09288L29.7557 13.0561C30.0781 13.3785 30.4649 13.5397 30.9163 13.5397C31.3676 13.5397 31.7544 13.3785 32.0768 13.0561L33.3341 11.8956L23.953 2.61125L22.7925 3.77179ZM13.4114 31.7215C14.1851 30.9478 14.1851 30.1741 13.4114 29.4004L6.44818 22.4372C6.12581 22.1148 5.73896 21.9536 5.28764 21.9536C4.83632 21.9536 4.44947 22.1148 4.1271 22.4372L2.96656 23.5977L12.2509 32.9788L13.4114 31.7215ZM15.8292 28.2399C20.9227 23.0819 24.9201 19.0845 27.8215 16.2476C28.4018 15.7318 28.6597 15.4739 28.5952 15.4739C28.982 15.0871 28.982 14.7002 28.5952 14.3134L23.953 9.5745L14.0884 19.5358C13.895 19.6648 13.7016 19.7292 13.5081 19.7292C13.1213 19.7292 12.8634 19.5681 12.7345 19.2457C12.6055 18.9233 12.67 18.6332 12.9279 18.3753L22.7925 8.41396L21.6319 7.25342C21.2451 6.86657 20.8582 6.86657 20.4714 7.25342L7.60873 20.1161C7.4153 20.245 7.31859 20.4223 7.31859 20.648C7.31859 20.8737 7.57649 21.2444 8.09228 21.7602C8.35018 22.0181 8.57584 22.2437 8.76927 22.4372L10.5101 20.6964C10.8969 20.3095 11.2838 20.3095 11.6706 20.6964C11.864 20.8253 11.9608 21.0026 11.9608 21.2283C11.9608 21.4539 11.864 21.6635 11.6706 21.8569L9.92981 23.5977L14.6687 28.2399C15.0555 28.6267 15.4424 28.6267 15.8292 28.2399ZM21.0517 27.6596C22.9859 25.7898 25.307 23.4688 28.0149 20.6964C28.4018 20.3095 28.4018 19.9227 28.0149 19.5358L27.4346 18.8588L19.3109 27.0793L19.8911 27.6596C20.278 28.0465 20.6648 28.0465 21.0517 27.6596ZM26.3708 24.7583L25.1136 26.0155L26.3708 27.0793L27.4346 26.0155L26.3708 24.7583ZM26.6609 29.4004C26.6609 29.6583 27.0478 30.1741 27.8215 30.9478C27.886 31.0123 27.9504 31.0768 28.0149 31.1412C28.0794 31.2057 28.1761 31.3024 28.305 31.4314C28.434 31.5603 28.5307 31.657 28.5952 31.7215L32.0768 28.2399L30.4327 26.4991C30.2393 26.3701 30.0297 26.3056 29.8041 26.3056C29.5784 26.3056 29.4011 26.3701 29.2722 26.4991L26.9511 28.8201C26.7577 29.0136 26.6609 29.207 26.6609 29.4004ZM46.1484 48.2592C46.1484 48.2592 46.3176 48.2592 46.6561 48.2592C46.9946 48.2592 47.4056 48.0174 47.8892 47.5339C48.3727 47.0503 48.6145 46.4701 48.6145 45.7931C48.6145 45.1161 48.3566 44.5197 47.8408 44.0039L46.6803 42.8434L43.1987 46.325L44.3592 47.4855C44.875 48.0013 45.4714 48.2592 46.1484 48.2592ZM21.3418 44.1006C22.051 44.1006 22.6474 44.3424 23.131 44.826C23.6145 45.3095 23.8563 45.9059 23.8563 46.6151V49.0329C23.8563 49.6132 23.5662 49.9033 22.9859 49.9033H1.61259C1.03232 49.9033 0.742188 49.6132 0.742188 49.0329V46.6151C0.742188 45.9059 0.983967 45.3095 1.46753 44.826C1.95108 44.3424 2.54747 44.1006 3.25669 44.1006V43.3269C3.25669 42.4243 3.57907 41.6506 4.22381 41.0058C4.86856 40.3611 5.64225 40.0387 6.5449 40.0387H18.0536C18.9562 40.0387 19.7299 40.3611 20.3747 41.0058C21.0194 41.6506 21.3418 42.4243 21.3418 43.3269V44.1006ZM4.90079 43.3269V44.1006H19.6977V43.3269C19.6977 42.8756 19.5365 42.4887 19.2141 42.1664C18.8918 41.844 18.5049 41.6828 18.0536 41.6828H6.5449C6.09357 41.6828 5.70673 41.844 5.38435 42.1664C5.06198 42.4887 4.90079 42.8756 4.90079 43.3269ZM22.2122 48.2592V46.6151C22.2122 46.0348 21.9221 45.7447 21.3418 45.7447H3.25669C2.67642 45.7447 2.38629 46.0348 2.38629 46.6151V48.2592H22.2122ZM21.3418 36.6538C21.3418 37.2341 21.0678 37.5242 20.5198 37.5242C19.9717 37.5242 19.6977 37.2341 19.6977 36.6538V33.3656C19.6977 32.8498 19.9717 32.5919 20.5198 32.5919C21.0678 32.5919 21.3418 32.8498 21.3418 33.3656V36.6538ZM27.1445 39.1683C27.7248 39.1683 28.0149 39.4423 28.0149 39.9904C28.0149 40.5384 27.7248 40.8124 27.1445 40.8124H23.8563C23.276 40.8124 22.9859 40.5384 22.9859 39.9904C22.9859 39.4423 23.276 39.1683 23.8563 39.1683H27.1445ZM23.5662 38.1045C23.4372 38.2979 23.2438 38.3946 22.9859 38.3946C22.6635 38.3946 22.4217 38.2173 22.2606 37.8627C22.0994 37.5081 22.1477 37.2018 22.4056 36.9439L24.9201 34.4294C25.307 34.0426 25.6938 34.0426 26.0807 34.4294C26.4675 34.8163 26.4675 35.2031 26.0807 35.59L23.5662 38.1045Z" fill="#00216A"/>
</svg>
