<svg width="38" height="39" viewBox="0 0 38 39" fill="none" xmlns="http://www.w3.org/2000/svg">
<path d="M9.75182 13.0857C9.83734 13.0853 9.92286 13.0849 10.011 13.0845C10.1531 13.085 10.1531 13.085 10.2981 13.0855C10.3992 13.0853 10.5002 13.0851 10.6013 13.0848C10.8799 13.0842 11.1585 13.0845 11.4372 13.0849C11.7373 13.0853 12.0374 13.0847 12.3375 13.0843C12.9258 13.0837 13.5141 13.0838 14.1024 13.0842C14.5804 13.0846 15.0583 13.0846 15.5363 13.0845C15.6042 13.0844 15.6721 13.0844 15.742 13.0844C15.88 13.0844 16.0179 13.0843 16.1559 13.0843C17.4507 13.0838 18.7455 13.0843 20.0403 13.0851C21.1523 13.0858 22.2644 13.0857 23.3764 13.085C24.6664 13.0842 25.9565 13.0839 27.2465 13.0843C27.384 13.0844 27.5214 13.0844 27.6589 13.0845C27.7603 13.0845 27.7603 13.0845 27.8638 13.0845C28.3414 13.0847 28.819 13.0844 29.2966 13.0841C29.8783 13.0837 30.46 13.0838 31.0417 13.0846C31.3388 13.085 31.6358 13.0851 31.9329 13.0846C32.2044 13.0842 32.476 13.0844 32.7475 13.0852C32.8931 13.0855 33.0386 13.085 33.1841 13.0845C33.3124 13.0851 33.3124 13.0851 33.4433 13.0857C33.5176 13.0857 33.5918 13.0857 33.6683 13.0857C33.8436 13.1043 33.8437 13.1043 33.9921 13.2528C34.0119 13.4373 34.0119 13.4373 34.0136 13.6732C34.0146 13.7615 34.0155 13.8497 34.0165 13.9407C34.0168 14.085 34.0168 14.085 34.017 14.2321C34.0175 14.3322 34.018 14.4323 34.0185 14.5324C34.0194 14.7432 34.0197 14.954 34.0196 15.1647C34.0196 15.3788 34.0206 15.5928 34.0226 15.8069C34.0444 18.1158 33.6763 19.9912 32.003 21.7105C31.417 22.285 30.7119 22.6698 29.9767 23.0192C29.7547 23.1213 29.7547 23.1213 29.539 23.2723C29.7193 23.9128 29.8997 24.5533 30.0801 25.1938C30.1462 25.4283 30.2122 25.6628 30.2782 25.8972C30.655 27.2351 31.032 28.5729 31.4097 29.9105C31.4645 30.1047 31.5193 30.2989 31.5741 30.4931C31.6103 30.6213 31.6465 30.7496 31.6827 30.8778C31.7005 30.9407 31.7183 31.0037 31.7366 31.0685C31.8237 31.3772 31.9109 31.6859 31.9981 31.9946C32.0148 32.0536 32.0314 32.1125 32.0486 32.1733C32.0817 32.2906 32.1149 32.4079 32.1481 32.5253C32.2277 32.8074 32.3072 33.0896 32.3863 33.3719C32.4167 33.4803 32.447 33.5888 32.4774 33.6972C32.4922 33.75 32.507 33.8027 32.5222 33.8571C32.6113 34.1742 32.7024 34.4906 32.7952 34.8066C32.8538 35.0065 32.9115 35.2067 32.969 35.407C33.0086 35.5437 33.0496 35.68 33.0906 35.8163C33.1139 35.898 33.1372 35.9797 33.1613 36.0638C33.1821 36.1345 33.2029 36.2051 33.2243 36.2779C33.256 36.5325 33.1999 36.6941 33.1015 36.9285C32.9425 37.0876 32.5827 37.0186 32.3622 37.0205C32.2953 37.0211 32.2284 37.0217 32.1594 37.0223C32.0175 37.0233 31.8757 37.0241 31.7338 37.0247C31.5165 37.026 31.2992 37.0292 31.0819 37.0325C30.9443 37.0332 30.8067 37.0339 30.6691 37.0344C30.6039 37.0357 30.5387 37.037 30.4715 37.0383C30.3805 37.038 30.3805 37.038 30.2877 37.0376C30.2077 37.0383 30.2077 37.0383 30.1261 37.039C29.9843 37.0028 29.9843 37.0028 29.7616 36.7059C29.2718 34.9669 28.7819 33.228 28.2772 31.4364C23.8686 31.4364 19.4601 31.4364 14.9179 31.4364C14.4525 33.1018 13.9872 34.7673 13.5077 36.4832C13.2851 36.9285 13.2851 36.9285 13.2108 37.0028C12.994 37.0121 12.779 37.0168 12.562 37.0178C12.4967 37.0183 12.4315 37.0187 12.3642 37.0191C12.2259 37.0198 12.0875 37.0203 11.9491 37.0206C11.7371 37.0213 11.5253 37.0236 11.3133 37.026C11.1791 37.0264 11.0449 37.0268 10.9106 37.0271C10.8153 37.0285 10.8153 37.0285 10.718 37.0299C10.6589 37.0297 10.5997 37.0295 10.5387 37.0292C10.4867 37.0295 10.4347 37.0298 10.3811 37.03C10.1967 36.9939 10.1315 36.9288 10.0194 36.7801C9.95841 36.2484 10.1134 35.7798 10.2627 35.2728C10.3031 35.1319 10.3435 34.991 10.3839 34.85C10.4277 34.6977 10.4719 34.5456 10.5162 34.3934C10.6101 34.0707 10.703 33.7477 10.7956 33.4246C10.8281 33.3111 10.8607 33.1976 10.8932 33.0841C10.9097 33.0266 10.9262 32.9691 10.9431 32.9099C10.9946 32.7305 11.0462 32.5512 11.0977 32.3719C11.504 30.9588 11.9015 29.5434 12.2988 28.1279C12.4006 27.7654 12.5025 27.403 12.6045 27.0406C12.6823 26.7644 12.7599 26.4882 12.8374 26.2121C12.8733 26.0844 12.9092 25.9568 12.9451 25.8292C13.1914 24.9545 13.4274 24.0775 13.6562 23.1981C13.5565 23.1537 13.5565 23.1537 13.4549 23.1084C11.5983 22.2766 10.2721 21.0192 9.52135 19.1204C9.25709 18.3343 9.17013 17.5854 9.17606 16.7587C9.1761 16.6573 9.17606 16.5559 9.17595 16.4544C9.17596 16.2442 9.17672 16.0339 9.17807 15.8237C9.17978 15.5541 9.17979 15.2845 9.1793 15.0149C9.17905 14.8065 9.17954 14.5981 9.18027 14.3897C9.1807 14.2419 9.1806 14.0942 9.1805 13.9464C9.1812 13.8574 9.18191 13.7684 9.18264 13.6767C9.18298 13.5982 9.18332 13.5197 9.18368 13.4388C9.22228 13.0676 9.43167 13.0858 9.75182 13.0857ZM10.0937 13.995C10.0937 14.7542 10.0937 15.5135 10.0937 16.2957C10.3736 16.3025 10.3736 16.3025 10.6593 16.3094C10.8393 16.3139 11.0194 16.3187 11.1994 16.3234C11.3249 16.3266 11.4504 16.3297 11.5759 16.3326C11.7559 16.3369 11.9358 16.3416 12.1158 16.3465C12.2005 16.3483 12.2005 16.3483 12.2868 16.3502C12.6829 16.3615 12.6829 16.3615 12.7655 16.4442C12.7754 16.5787 12.7754 16.5787 12.7748 16.7411C12.7751 16.8214 12.7751 16.8214 12.7754 16.9034C12.7655 17.0379 12.7655 17.0379 12.6913 17.1121C12.499 17.124 12.3084 17.1314 12.1158 17.1356C12.0295 17.1379 12.0295 17.1379 11.9414 17.1403C11.7569 17.1452 11.5724 17.1495 11.3878 17.1539C11.263 17.1571 11.1382 17.1603 11.0134 17.1636C10.7068 17.1716 10.4002 17.1791 10.0937 17.1864C10.1261 17.3848 10.1593 17.583 10.1928 17.7813C10.2018 17.8366 10.2108 17.892 10.22 17.949C10.4647 19.3796 11.2896 20.6211 12.4455 21.4931C13.8546 22.4291 15.2345 22.6158 16.8846 22.6151C16.9983 22.6153 17.112 22.6156 17.2257 22.6159C17.5325 22.6165 17.8392 22.6167 18.1459 22.6167C18.3382 22.6168 18.5304 22.617 18.7227 22.6172C19.3954 22.6178 20.0681 22.6181 20.7408 22.6181C21.3648 22.618 21.9887 22.6188 22.6127 22.62C23.151 22.621 23.6892 22.6214 24.2275 22.6213C24.5478 22.6213 24.8682 22.6215 25.1885 22.6223C25.4903 22.623 25.792 22.623 26.0937 22.6225C26.2035 22.6224 26.3132 22.6226 26.4229 22.623C28.2782 22.6302 29.9071 22.3146 31.3002 20.9912C31.3558 20.9357 31.4114 20.8803 31.4687 20.8231C31.5204 20.7722 31.5722 20.7213 31.6255 20.6688C32.4147 19.8413 32.882 18.8048 33.0348 17.6781C33.0538 17.5394 33.0538 17.5394 33.0732 17.398C33.0825 17.3282 33.0919 17.2583 33.1015 17.1864C33.0086 17.186 32.9157 17.1857 32.82 17.1854C30.6175 17.1779 28.415 17.1701 26.2125 17.1618C25.9417 17.1608 25.6709 17.1597 25.4001 17.1587C25.3462 17.1585 25.2923 17.1583 25.2367 17.1581C24.3626 17.1548 23.4884 17.1518 22.6142 17.1489C21.7179 17.1459 20.8216 17.1426 19.9253 17.1391C19.3718 17.1369 18.8183 17.135 18.2648 17.1333C17.8411 17.132 17.4174 17.1303 16.9937 17.1284C16.8193 17.1277 16.645 17.1272 16.4706 17.1267C16.2337 17.1261 15.9968 17.1251 15.7599 17.1239C15.655 17.1238 15.655 17.1238 15.5479 17.1237C15.0748 17.1206 15.0748 17.1206 14.9921 17.0379C14.9822 16.9034 14.9822 16.9034 14.9828 16.7411C14.9825 16.6607 14.9825 16.6607 14.9822 16.5787C14.9921 16.4442 14.9921 16.4442 15.0663 16.37C15.298 16.3618 15.5281 16.3585 15.7599 16.3582C15.8336 16.3578 15.9073 16.3575 15.9833 16.3571C16.2323 16.356 16.4813 16.3553 16.7303 16.3547C16.908 16.354 17.0857 16.3533 17.2634 16.3525C17.647 16.3509 18.0306 16.3495 18.4142 16.3484C18.9688 16.3467 19.5234 16.3446 20.0781 16.3424C20.9778 16.3389 21.8776 16.3357 22.7774 16.3326C23.6516 16.3297 24.5258 16.3267 25.4001 16.3234C25.4809 16.3231 25.4809 16.3231 25.5633 16.3228C25.8334 16.3217 26.1036 16.3207 26.3737 16.3197C28.6163 16.3112 30.8589 16.3033 33.1015 16.2957C33.1015 15.5365 33.1015 14.7772 33.1015 13.995C25.5089 13.995 17.9163 13.995 10.0937 13.995ZM14.6952 23.4207C14.5562 23.7913 14.4305 24.1392 14.3245 24.5167C14.3112 24.5636 14.298 24.6105 14.2843 24.6588C14.2405 24.8141 14.1971 24.9695 14.1536 25.1249C14.122 25.2373 14.0904 25.3497 14.0587 25.462C13.973 25.7664 13.8876 26.0709 13.8023 26.3754C13.7126 26.6952 13.6228 27.0149 13.5329 27.3346C13.4198 27.737 13.3068 28.1394 13.1939 28.5419C12.9544 29.3956 12.7143 30.249 12.4736 31.1023C12.3344 31.5954 12.1955 32.0886 12.0567 32.5818C11.961 32.9218 11.8652 33.2618 11.7692 33.6017C11.6788 33.9216 11.5887 34.2416 11.4989 34.5616C11.4657 34.6795 11.4325 34.7973 11.3991 34.9151C11.3537 35.0758 11.3085 35.2366 11.2635 35.3974C11.2381 35.4876 11.2127 35.5777 11.1865 35.6706C11.1239 35.888 11.1239 35.888 11.1327 36.1121C11.5981 36.1121 12.0634 36.1121 12.5429 36.1121C12.7166 35.6573 12.7166 35.6573 12.8627 35.198C12.8867 35.1137 12.8867 35.1137 12.9111 35.0277C12.9277 34.9681 12.9444 34.9086 12.9615 34.8472C12.9798 34.7825 12.9981 34.7178 13.017 34.6512C13.0774 34.4374 13.1375 34.2235 13.1975 34.0097C13.2404 33.8577 13.2832 33.7058 13.3262 33.5539C13.4407 33.1483 13.5549 32.7426 13.669 32.3369C13.7867 31.9187 13.9046 31.5005 14.0225 31.0824C14.0697 30.9151 14.1169 30.7479 14.164 30.5806C14.1873 30.4981 14.2106 30.4155 14.2346 30.3305C14.305 30.0808 14.3753 29.8311 14.4456 29.5815C14.7007 28.6764 14.9566 27.7715 15.2144 26.8672C15.2607 26.7049 15.307 26.5426 15.3532 26.3803C15.5755 25.5998 15.5755 25.5998 15.6847 25.2183C15.7576 24.964 15.83 24.7096 15.9024 24.4552C15.9234 24.3822 15.9444 24.3093 15.9661 24.2342C15.9847 24.1685 16.0033 24.1028 16.0225 24.0351C16.0387 23.9786 16.0548 23.9222 16.0715 23.864C16.1137 23.7065 16.1137 23.7065 16.1054 23.495C15.64 23.4705 15.1747 23.446 14.6952 23.4207ZM17.1444 23.495C16.7878 24.6122 16.7878 24.6122 16.4608 25.7383C16.4417 25.807 16.4225 25.8757 16.4028 25.9464C16.3634 26.0879 16.3242 26.2294 16.285 26.3709C16.2247 26.5888 16.1641 26.8066 16.1033 27.0244C16.0648 27.1632 16.0262 27.3019 15.9877 27.4407C15.9696 27.5057 15.9515 27.5707 15.9329 27.6377C15.8467 27.9006 15.8467 27.9006 15.8085 28.1707C19.6293 28.1707 23.4501 28.1707 27.3866 28.1707C27.1299 27.1438 27.1299 27.1438 26.8523 26.1231C26.8315 26.0491 26.8107 25.9752 26.7892 25.899C26.746 25.7457 26.7026 25.5924 26.6592 25.4391C26.5924 25.2032 26.5262 24.9673 26.4599 24.7313C26.4176 24.5814 26.3752 24.4314 26.3328 24.2815C26.313 24.2109 26.2932 24.1404 26.2728 24.0677C26.2544 24.0031 26.2361 23.9386 26.2172 23.8722C26.2011 23.8153 26.185 23.7583 26.1685 23.6997C26.1356 23.5688 26.1356 23.5688 26.0507 23.495C25.9352 23.4878 25.8194 23.4859 25.7036 23.486C25.6286 23.4859 25.5536 23.4858 25.4762 23.4857C25.3932 23.486 25.3102 23.4863 25.2247 23.4865C25.0944 23.4865 25.0944 23.4865 24.9614 23.4865C24.7225 23.4865 24.4836 23.4869 24.2447 23.4874C23.9953 23.4879 23.7459 23.4879 23.4965 23.488C23.0239 23.4883 22.5513 23.4889 22.0786 23.4896C21.5407 23.4904 21.0028 23.4908 20.4649 23.4912C19.3581 23.492 18.2512 23.4933 17.1444 23.495ZM28.0537 23.437C27.9694 23.442 27.9694 23.442 27.8834 23.4471C27.7959 23.4524 27.7959 23.4524 27.7067 23.4578C27.6475 23.4614 27.5883 23.4649 27.5274 23.4686C27.3815 23.4773 27.2356 23.4861 27.0897 23.495C27.2903 24.316 27.5074 25.1311 27.7368 25.9445C27.7707 26.0649 27.8045 26.1854 27.8383 26.3059C27.9286 26.6275 28.0191 26.9492 28.1097 27.2707C28.2044 27.6069 28.2989 27.9431 28.3934 28.2793C28.51 28.6939 28.6266 29.1085 28.7433 29.5231C28.9716 30.3342 29.1995 31.1455 29.4268 31.9569C29.5479 32.3891 29.6691 32.8212 29.7904 33.2533C29.8722 33.5447 29.9539 33.8361 30.0354 34.1275C30.1114 34.399 30.1875 34.6704 30.2639 34.9418C30.2918 35.041 30.3195 35.1402 30.3472 35.2394C30.3847 35.3738 30.4226 35.5081 30.4604 35.6424C30.4815 35.7174 30.5025 35.7925 30.5242 35.8699C30.5626 36.0338 30.5626 36.0338 30.6522 36.1121C30.7573 36.1186 30.8627 36.1201 30.968 36.1194C31.063 36.119 31.063 36.119 31.16 36.1187C31.2267 36.118 31.2933 36.1174 31.362 36.1168C31.4289 36.1164 31.4958 36.1161 31.5648 36.1158C31.7306 36.1149 31.8965 36.1137 32.0624 36.1121C32.0151 35.7237 31.9329 35.3597 31.8262 34.9836C31.8097 34.9246 31.7932 34.8656 31.7762 34.8048C31.7215 34.6088 31.6662 34.413 31.611 34.2172C31.5718 34.0775 31.5327 33.9377 31.4936 33.7979C31.3884 33.4224 31.2828 33.047 31.1771 32.6716C31.0676 32.2825 30.9586 31.8933 30.8494 31.5041C30.6072 30.6407 30.3644 29.7775 30.1215 28.9142C30.0407 28.6272 29.96 28.3401 29.8793 28.053C29.445 26.5087 29.01 24.9646 28.5741 23.4207C28.3991 23.4207 28.2282 23.4265 28.0537 23.437ZM15.5858 29.0614C15.3415 29.6852 15.3415 29.6852 15.1405 30.4715C19.4022 30.4715 23.6638 30.4715 28.0546 30.4715C27.9321 30.0062 27.8097 29.5408 27.6835 29.0614C23.6913 29.0614 19.699 29.0614 15.5858 29.0614Z" fill="#379DFE"/>
<path d="M13.5237 7.14624C13.576 7.14654 13.6283 7.14684 13.6823 7.14715C13.763 7.14694 13.763 7.14694 13.8453 7.14672C13.9591 7.14662 14.0729 7.14689 14.1867 7.14751C14.3611 7.14831 14.5356 7.14752 14.71 7.14657C14.8205 7.14667 14.9309 7.14686 15.0414 7.14715C15.0937 7.14685 15.1461 7.14655 15.2 7.14624C15.5694 7.1498 15.5694 7.1498 15.7349 7.3153C15.7549 7.51483 15.7414 7.70803 15.7349 7.90905C15.8095 7.87289 15.8095 7.87289 15.8856 7.83599C16.1543 7.74407 16.379 7.74093 16.6626 7.74206C16.7583 7.74168 16.854 7.7413 16.9525 7.7409C17.2009 7.75926 17.3682 7.8014 17.5903 7.90905C17.5873 7.81415 17.5842 7.71924 17.5811 7.62145C17.5759 7.45968 17.5759 7.45968 17.5903 7.3153C17.7729 7.13272 17.8759 7.14864 18.1252 7.14624C18.1776 7.14654 18.2299 7.14684 18.2838 7.14715C18.3645 7.14694 18.3645 7.14694 18.4469 7.14672C18.5607 7.14662 18.6745 7.14689 18.7882 7.14751C18.9627 7.14831 19.1371 7.14752 19.3116 7.14657C19.422 7.14667 19.5325 7.14686 19.643 7.14715C19.6953 7.14685 19.7476 7.14655 19.8016 7.14624C20.1709 7.1498 20.1709 7.1498 20.3364 7.3153C20.3784 7.51238 20.3912 7.70803 20.4107 7.90905C20.4853 7.87289 20.4853 7.87289 20.5614 7.83599C20.8301 7.74407 21.0547 7.74093 21.3384 7.74206C21.4341 7.74168 21.5297 7.7413 21.6283 7.7409C21.8767 7.75926 22.044 7.8014 22.2661 7.90905C22.2631 7.81415 22.26 7.71924 22.2569 7.62145C22.2516 7.45968 22.2516 7.45968 22.2661 7.3153C22.4487 7.13272 22.5517 7.14864 22.801 7.14624C22.8533 7.14654 22.9057 7.14684 22.9596 7.14715C23.0134 7.14701 23.0672 7.14687 23.1226 7.14672C23.2364 7.14662 23.3502 7.14689 23.464 7.14751C23.6385 7.14831 23.8129 7.14752 23.9874 7.14657C24.0978 7.14667 24.2083 7.14686 24.3187 7.14715C24.3711 7.14685 24.4234 7.14655 24.4774 7.14624C24.8467 7.1498 24.8467 7.1498 25.0122 7.3153C25.0542 7.51238 25.067 7.70803 25.0864 7.90905C25.124 7.88494 25.1616 7.86083 25.2004 7.83599C25.4507 7.73286 25.6654 7.74099 25.9353 7.74206C26.0317 7.74168 26.128 7.7413 26.2273 7.7409C26.477 7.75918 26.6445 7.80068 26.8677 7.90905C26.8631 7.76669 26.8631 7.76669 26.8584 7.62145C26.8532 7.45968 26.8532 7.45968 26.8677 7.3153C27.0503 7.13272 27.1533 7.14864 27.4026 7.14624C27.4549 7.14654 27.5072 7.14684 27.5612 7.14715C27.615 7.14701 27.6688 7.14687 27.7242 7.14672C27.838 7.14662 27.9518 7.14689 28.0656 7.14751C28.2401 7.14831 28.4145 7.14752 28.5889 7.14657C28.6994 7.14667 28.8098 7.14686 28.9203 7.14715C28.9726 7.14685 29.025 7.14655 29.0789 7.14624C29.4483 7.1498 29.4483 7.1498 29.6138 7.3153C29.6306 7.49567 29.6306 7.49567 29.6283 7.71945C29.6278 7.79933 29.6273 7.87922 29.6268 7.96153C29.6256 8.04524 29.6243 8.12895 29.6231 8.2152C29.6224 8.29949 29.6217 8.38378 29.621 8.47062C29.6193 8.67928 29.6168 8.88791 29.6138 9.09655C29.6711 9.095 29.7284 9.09344 29.7874 9.09184C30.0465 9.08568 30.3056 9.08181 30.5647 9.078C30.6549 9.07551 30.7451 9.07302 30.838 9.07046C30.9675 9.06903 30.9675 9.06903 31.0996 9.06756C31.2191 9.06523 31.2191 9.06523 31.3411 9.06285C31.5435 9.09655 31.5435 9.09655 31.6834 9.23231C31.8 9.45935 31.76 9.59779 31.6919 9.83874C31.5435 9.98718 31.5435 9.98718 31.3495 10.004C31.2694 10.0033 31.1894 10.0025 31.1069 10.0017C31.0203 10.0012 30.9337 10.0007 30.8445 10.0002C30.7537 9.99898 30.6629 9.99774 30.5694 9.99645C30.478 9.99579 30.3866 9.99512 30.2925 9.99443C30.0662 9.99267 29.84 9.99023 29.6138 9.98718C29.6146 10.0426 29.6153 10.098 29.6161 10.1551C29.6192 10.4053 29.6212 10.6555 29.6231 10.9056C29.6243 10.9929 29.6255 11.0801 29.6268 11.17C29.6273 11.2533 29.6278 11.3365 29.6283 11.4223C29.6291 11.4992 29.6298 11.5762 29.6306 11.6555C29.6138 11.8426 29.6138 11.8426 29.4653 11.9911C29.2809 12.0059 29.1048 12.0119 28.9203 12.0108C28.8665 12.0109 28.8127 12.0111 28.7573 12.0112C28.6435 12.0113 28.5297 12.0111 28.4159 12.0104C28.2414 12.0096 28.067 12.0104 27.8925 12.0114C27.7821 12.0113 27.6716 12.0111 27.5612 12.0108C27.5088 12.0111 27.4565 12.0114 27.4026 12.0117C27.0332 12.0081 27.0332 12.0081 26.8677 11.8426C26.8477 11.6431 26.8612 11.4499 26.8677 11.2489C26.818 11.273 26.7684 11.2971 26.7172 11.322C26.4471 11.4142 26.2204 11.417 25.9353 11.4159C25.8388 11.4163 25.7423 11.4167 25.6428 11.417C25.4079 11.3992 25.2814 11.3739 25.0864 11.2489C25.0773 11.3438 25.0681 11.4387 25.0586 11.5365C25.0308 11.8241 25.0308 11.8241 24.8638 11.9911C24.6793 12.0059 24.5033 12.0119 24.3187 12.0108C24.2649 12.0109 24.2111 12.0111 24.1557 12.0112C24.0419 12.0113 23.9281 12.0111 23.8143 12.0104C23.6399 12.0096 23.4654 12.0104 23.291 12.0114C23.1805 12.0113 23.0701 12.0111 22.9596 12.0108C22.9073 12.0111 22.8549 12.0114 22.801 12.0117C22.4316 12.0081 22.4316 12.0081 22.2661 11.8426C22.2242 11.6456 22.2114 11.4499 22.1919 11.2489C22.1414 11.273 22.0909 11.2971 22.0388 11.322C21.7819 11.4108 21.5727 11.4171 21.3013 11.4159C21.2125 11.4163 21.1237 11.4167 21.0322 11.417C20.7923 11.3982 20.6263 11.3518 20.4107 11.2489C20.3969 11.3913 20.3969 11.3913 20.3828 11.5365C20.355 11.8241 20.355 11.8241 20.188 11.9911C20.0035 12.0059 19.8275 12.0119 19.643 12.0108C19.5892 12.0109 19.5354 12.0111 19.4799 12.0112C19.3661 12.0113 19.2523 12.0111 19.1385 12.0104C18.9641 12.0096 18.7897 12.0104 18.6152 12.0114C18.5047 12.0113 18.3943 12.0111 18.2838 12.0108C18.2315 12.0111 18.1791 12.0114 18.1252 12.0117C17.7558 12.0081 17.7558 12.0081 17.5903 11.8426C17.5703 11.6431 17.5839 11.4499 17.5903 11.2489C17.5406 11.273 17.4908 11.2971 17.4396 11.322C17.1709 11.4139 16.9463 11.417 16.6626 11.4159C16.5191 11.4165 16.5191 11.4165 16.3727 11.417C16.1244 11.3987 15.957 11.3566 15.7349 11.2489C15.7379 11.3438 15.741 11.4387 15.7442 11.5365C15.7494 11.6983 15.7494 11.6983 15.7349 11.8426C15.5523 12.0252 15.4493 12.0093 15.2 12.0117C15.1215 12.0113 15.1215 12.0113 15.0414 12.0108C14.9876 12.0109 14.9338 12.0111 14.8784 12.0112C14.7646 12.0113 14.6508 12.0111 14.537 12.0104C14.3625 12.0096 14.1881 12.0104 14.0136 12.0114C13.9032 12.0113 13.7927 12.0111 13.6823 12.0108C13.6299 12.0111 13.5776 12.0114 13.5237 12.0117C13.1543 12.0081 13.1543 12.0081 12.9888 11.8426C12.9719 11.6555 12.9719 11.6555 12.9743 11.4223C12.9748 11.339 12.9752 11.2558 12.9757 11.17C12.9776 11.0392 12.9776 11.0392 12.9795 10.9056C12.9802 10.8178 12.9808 10.73 12.9815 10.6395C12.9833 10.422 12.986 10.2046 12.9888 9.98718C12.401 9.98718 11.8132 9.98718 11.2075 9.98718C11.2121 10.1433 11.2167 10.2995 11.2215 10.4603C11.2293 10.7265 11.2293 10.7265 11.2075 10.952C10.9372 11.1322 10.7365 11.1224 10.424 11.122C10.367 11.1225 10.31 11.123 10.2513 11.1235C10.0626 11.1249 9.87389 11.1252 9.68518 11.1254C9.5538 11.1259 9.42242 11.1264 9.29104 11.1269C9.01533 11.1278 8.73963 11.1281 8.46392 11.128C8.11162 11.1279 7.75936 11.13 7.40707 11.1325C7.1355 11.1342 6.86394 11.1345 6.59237 11.1344C6.46256 11.1346 6.33275 11.1352 6.20295 11.1364C6.0207 11.1378 5.83855 11.1374 5.65629 11.1365C5.60326 11.1374 5.55022 11.1382 5.49558 11.139C5.09573 11.1341 4.78961 11.0207 4.45363 10.8036C4.30084 10.6389 4.30084 10.6389 4.1985 10.4696C4.16339 10.4137 4.12828 10.3579 4.0921 10.3003C3.90917 9.94075 3.87164 9.56078 3.97353 9.16671C4.14167 8.68238 4.36842 8.37365 4.82596 8.12012C5.07196 8.01545 5.31808 8.01738 5.58046 8.02143C5.63882 8.02115 5.69717 8.02087 5.75729 8.02058C5.9486 8.02003 6.13983 8.02161 6.33113 8.02328C6.46464 8.02346 6.59815 8.02352 6.73166 8.02349C7.01065 8.02372 7.28962 8.02494 7.5686 8.02694C7.92642 8.02947 8.2842 8.03003 8.64202 8.02992C8.91733 8.02996 9.19263 8.03077 9.46794 8.03185C9.59991 8.03232 9.73189 8.03261 9.86387 8.03272C10.0479 8.03304 10.2319 8.03434 10.416 8.03593C10.4706 8.03586 10.5252 8.03579 10.5814 8.03572C10.8556 8.03919 10.9732 8.04967 11.2075 8.20593C11.2075 8.49983 11.2075 8.79374 11.2075 9.09655C11.7953 9.09655 12.3832 9.09655 12.9888 9.09655C12.9829 8.51702 12.9829 8.51702 12.9754 7.9375C12.975 7.86554 12.9747 7.79359 12.9743 7.71945C12.9735 7.6456 12.9727 7.57175 12.9719 7.49567C13.0055 7.13642 13.2107 7.14926 13.5237 7.14624ZM13.8794 8.05749C13.8794 9.06167 13.8794 10.0658 13.8794 11.1005C14.1978 11.1005 14.5162 11.1005 14.8443 11.1005C14.8443 10.0963 14.8443 9.0921 14.8443 8.05749C14.5259 8.05749 14.2075 8.05749 13.8794 8.05749ZM18.481 8.05749C18.481 9.06167 18.481 10.0658 18.481 11.1005C18.7994 11.1005 19.1178 11.1005 19.4458 11.1005C19.4458 10.0963 19.4458 9.0921 19.4458 8.05749C19.1274 8.05749 18.809 8.05749 18.481 8.05749ZM23.1568 8.05749C23.1568 9.06167 23.1568 10.0658 23.1568 11.1005C23.4752 11.1005 23.7936 11.1005 24.1216 11.1005C24.1216 10.0963 24.1216 9.0921 24.1216 8.05749C23.8032 8.05749 23.4848 8.05749 23.1568 8.05749ZM27.7583 8.05749C27.7583 9.06167 27.7583 10.0658 27.7583 11.1005C28.0767 11.1005 28.3951 11.1005 28.7232 11.1005C28.7232 10.0963 28.7232 9.0921 28.7232 8.05749C28.4048 8.05749 28.0864 8.05749 27.7583 8.05749ZM15.8833 9.09655C15.754 9.35516 15.7655 9.63084 15.8091 9.91296C15.9355 10.1412 16.092 10.3142 16.3286 10.4325C16.6676 10.4799 16.9696 10.4918 17.2517 10.2794C17.4725 10.0264 17.5501 9.87521 17.5903 9.54187C17.5065 9.25104 17.4083 9.06893 17.21 8.84143C16.6858 8.55654 16.2768 8.6834 15.8833 9.09655ZM20.6333 8.94812C20.4204 9.25322 20.3754 9.48811 20.4365 9.84628C20.5331 10.1274 20.7448 10.3027 21.0044 10.4325C21.3413 10.4729 21.5948 10.4787 21.8904 10.3026C22.117 10.0554 22.1824 9.9246 22.2197 9.58825C22.1868 9.26942 22.0957 9.12046 21.895 8.8739C21.5036 8.61292 20.9939 8.62999 20.6333 8.94812ZM25.2349 9.02233C25.0475 9.28111 25.0542 9.52684 25.0864 9.83874C25.2369 10.1136 25.3448 10.2583 25.606 10.4325C25.8836 10.4827 26.1577 10.494 26.4114 10.3597C26.6186 10.1939 26.7993 10.0231 26.8677 9.76452C26.8593 9.31153 26.727 9.11169 26.4224 8.79968C26.0015 8.58926 25.546 8.68296 25.2349 9.02233ZM5.04738 9.17077C4.89745 9.35981 4.8983 9.45201 4.90822 9.69494C4.9833 9.94699 5.04413 10.0094 5.27003 10.1356C5.48394 10.2069 5.61875 10.2177 5.84059 10.2145C5.94621 10.2129 6.05184 10.2114 6.16066 10.2098C6.16066 9.79347 6.16066 9.3771 6.16066 8.94812C5.72467 8.9283 5.42077 8.91577 5.04738 9.17077ZM7.05128 8.94812C7.05128 9.36448 7.05128 9.78085 7.05128 10.2098C8.12894 10.2098 9.2066 10.2098 10.3169 10.2098C10.3169 9.79347 10.3169 9.3771 10.3169 8.94812C9.23925 8.94812 8.1616 8.94812 7.05128 8.94812Z" fill="#379DFE"/>
<path d="M14.4463 18.3427C14.5119 18.342 14.5774 18.3414 14.6449 18.3408C14.8619 18.339 15.0789 18.339 15.2959 18.3391C15.4465 18.3385 15.597 18.338 15.7476 18.3373C16.0633 18.3363 16.379 18.3362 16.6947 18.3367C17.0998 18.3371 17.5048 18.3348 17.9099 18.3318C18.2209 18.3299 18.5318 18.3297 18.8428 18.33C18.9922 18.3298 19.1416 18.3291 19.2909 18.3278C19.4996 18.3262 19.7081 18.3269 19.9167 18.3282C19.9787 18.3272 20.0408 18.3262 20.1046 18.3252C20.2768 18.3277 20.2768 18.3277 20.5585 18.3738C20.7134 18.5472 20.7134 18.5472 20.7811 18.7449C20.6921 19.1309 20.6921 19.1309 20.5585 19.2645C20.3496 19.2727 20.1425 19.2761 19.9336 19.2764C19.8681 19.2768 19.8025 19.2772 19.735 19.2775C19.5172 19.2786 19.2994 19.2791 19.0816 19.2795C18.9309 19.28 18.7801 19.2804 18.6293 19.2808C18.3127 19.2816 17.9961 19.282 17.6795 19.2823C17.2733 19.2827 16.8671 19.2845 16.4608 19.2866C16.1492 19.288 15.8376 19.2884 15.526 19.2885C15.3762 19.2887 15.2264 19.2893 15.0766 19.2903C14.8673 19.2915 14.658 19.2914 14.4487 19.2909C14.3864 19.2916 14.3242 19.2923 14.2601 19.293C13.8373 19.2899 13.8373 19.2899 13.6773 19.1653C13.5303 18.975 13.5528 18.8291 13.5819 18.5965C13.8129 18.2979 14.0959 18.3414 14.4463 18.3427Z" fill="#379DFE"/>
<path d="M25.7166 1.1969C25.9763 1.22937 25.9763 1.22937 26.1108 1.30359C26.199 1.45203 26.199 1.45203 26.2454 1.71179C26.3297 2.11213 26.594 2.36981 26.86 2.66823C27.2203 3.1179 27.2091 3.56843 27.1638 4.1239C27.0422 4.56493 26.7735 4.85051 26.486 5.19485C26.3173 5.42701 26.2371 5.64303 26.1671 5.91907C26.1248 6.05359 26.1248 6.05359 25.9763 6.20203C25.7124 6.23645 25.5793 6.23377 25.3547 6.08606C25.1862 5.83321 25.1991 5.68594 25.2341 5.38562C25.3624 4.87248 25.6282 4.56841 25.9865 4.18391C26.1661 3.91322 26.1762 3.77553 26.1248 3.45593C26.0091 3.27479 25.9025 3.12828 25.7629 2.96887C25.4383 2.58927 25.2545 2.28264 25.2109 1.77673C25.2341 1.52625 25.2341 1.52625 25.313 1.34534C25.4568 1.22937 25.4568 1.22937 25.7166 1.1969Z" fill="#379DFE"/>
<path d="M22.5251 1.1969C22.7849 1.22937 22.7849 1.22937 22.9194 1.30359C23.0076 1.45203 23.0076 1.45203 23.054 1.71179C23.1383 2.11213 23.4026 2.36981 23.6686 2.66823C24.0409 3.13291 24.0275 3.62398 23.9724 4.19812C23.8525 4.62903 23.573 4.90949 23.2755 5.23051C23.1117 5.44312 23.0451 5.65641 22.9783 5.91385C22.9333 6.05359 22.9333 6.05359 22.7849 6.20203C22.5276 6.23559 22.3861 6.22826 22.1587 6.09998C21.9737 5.78926 22.0424 5.5062 22.1169 5.16296C22.2577 4.76543 22.5324 4.48196 22.8113 4.1729C22.9746 3.90869 22.9797 3.76211 22.9333 3.45593C22.8176 3.27659 22.7109 3.13128 22.5715 2.97351C22.2342 2.58517 22.0711 2.26141 22.0195 1.73499C22.0607 1.36454 22.1492 1.2439 22.5251 1.1969Z" fill="#379DFE"/>
<path d="M19.6677 1.22938C19.864 1.38466 19.9207 1.51418 19.9785 1.75355C20.0943 2.13513 20.3099 2.39038 20.5702 2.68708C20.9265 3.14399 20.9087 3.64076 20.8552 4.19813C20.7353 4.62903 20.4558 4.90949 20.1583 5.23052C19.9945 5.44313 19.9279 5.65642 19.8611 5.91386C19.8162 6.0536 19.8162 6.0536 19.6677 6.20203C19.367 6.22763 19.256 6.22442 18.9998 6.0536C18.8923 5.6084 18.9168 5.26991 19.1482 4.8661C19.3195 4.63906 19.4948 4.41775 19.6779 4.20016C19.8467 3.92589 19.8573 3.77287 19.8162 3.45594C19.7379 3.29306 19.7379 3.29306 19.6167 3.1637C19.5562 3.08894 19.5562 3.08894 19.4944 3.01266C19.4536 2.963 19.4129 2.91335 19.3709 2.86219C19.0541 2.44734 18.8784 2.05989 18.9255 1.52625C19.1138 1.20995 19.3134 1.17661 19.6677 1.22938Z" fill="#379DFE"/>
<path d="M16.4766 1.2294C16.6734 1.3838 16.7297 1.5145 16.7874 1.75357C16.9032 2.13515 17.1188 2.3904 17.3791 2.6871C17.7354 3.14401 17.7175 3.64078 17.6641 4.19815C17.5441 4.62905 17.2646 4.90951 16.9671 5.23054C16.8034 5.44315 16.7368 5.65644 16.67 5.91387C16.625 6.05361 16.625 6.05361 16.4766 6.20205C16.1758 6.22765 16.0648 6.22444 15.8086 6.05361C15.6821 5.61096 15.7508 5.26624 15.957 4.86611C16.0703 4.71411 16.1865 4.56422 16.3049 4.41616C16.6299 4.0193 16.6299 4.0193 16.692 3.53424C16.5619 3.23805 16.3325 3.00954 16.1208 2.76856C15.8239 2.40016 15.7288 2.07346 15.7437 1.60513C15.8576 1.20621 16.1018 1.19035 16.4766 1.2294Z" fill="#379DFE"/>
<path d="M12.3955 18.3368C12.4736 18.3345 12.5516 18.3322 12.6321 18.3298C12.8408 18.3739 12.8408 18.3739 12.9835 18.5467C13.0635 18.745 13.0635 18.745 13.0078 18.9862C12.915 19.1903 12.915 19.1903 12.8408 19.2645C12.6958 19.2758 12.5502 19.281 12.4048 19.2831C12.2857 19.286 12.2857 19.286 12.1642 19.2889C11.9502 19.2645 11.9502 19.2645 11.8122 19.166C11.6803 18.9726 11.6991 18.8238 11.7275 18.5966C11.9074 18.3371 12.093 18.3398 12.3955 18.3368Z" fill="#379DFE"/>
</svg>
