<svg width="38" height="39" viewBox="0 0 38 39" fill="none" xmlns="http://www.w3.org/2000/svg">
<path d="M33.1163 15.259C33.2 15.0689 33.2453 14.8642 33.2498 14.6565C33.2542 14.4488 33.2177 14.2423 33.1422 14.0488C33.0668 13.8553 32.9539 13.6785 32.8101 13.5287C32.6663 13.3788 32.4944 13.2587 32.3041 13.1754L11.602 4.06171C10.0266 3.36821 8.08702 4.14246 7.4141 5.71155L3.91493 13.872C3.58574 14.644 3.57624 15.515 3.88852 16.2939C4.20079 17.0728 4.80934 17.696 5.5806 18.0267L15.1408 22.1244L13.1774 27.0327H6.33268V22.2827H3.16602V34.9494H6.33268V30.1994H13.1774C14.4805 30.1994 15.6348 29.4172 16.1161 28.2075L18.0509 23.372L26.2922 26.9029C26.676 27.0676 27.1093 27.074 27.4978 26.9206C27.8863 26.7673 28.1985 26.4667 28.3663 26.0843L28.8603 24.9601L31.5536 26.0368L34.7203 18.1201L32.2883 17.1495L33.1163 15.259ZM26.0958 23.3752L6.82827 15.1181L10.3243 6.9608L29.5808 15.438L26.0958 23.3752Z" fill="#379DFE"/>
</svg>
