<svg width="38" height="39" viewBox="0 0 38 39" fill="none" xmlns="http://www.w3.org/2000/svg">
<g clip-path="url(#clip0_1237_1077)">
<path d="M8.01564 3.08481C8.20119 3.1915 8.20119 3.1915 8.31252 3.38168C8.4219 3.93088 8.20847 4.33579 8.01564 4.86606C9.0933 4.86606 10.171 4.86606 11.2813 4.86606C11.3058 4.69461 11.3303 4.52317 11.3555 4.34652C11.511 3.89897 11.7406 3.59731 12.1719 3.38168C12.4738 3.36256 12.7758 3.36156 13.0782 3.35977C13.2279 3.3585 13.3776 3.35524 13.5273 3.35196C13.6223 3.35134 13.7173 3.35072 13.8151 3.35008C13.902 3.349 13.9889 3.34792 14.0785 3.3468C14.4621 3.40125 14.6896 3.58775 14.9412 3.87338C15.2166 4.26105 15.1862 4.6242 15.1406 5.08871C15.0423 5.56008 14.8846 6.01729 14.7374 6.4751C14.6958 6.6075 14.6544 6.73995 14.6131 6.87243C14.5048 7.21888 14.395 7.56484 14.2848 7.91071C14.1084 8.46561 13.9345 9.02127 13.7601 9.57681C13.6993 9.77008 13.6379 9.96317 13.5765 10.1562C13.539 10.2749 13.5014 10.3935 13.4639 10.5122C13.4468 10.5654 13.4298 10.6186 13.4122 10.6734C13.3211 10.9627 13.2529 11.2453 13.211 11.5457C13.2639 11.562 13.3168 11.5783 13.3713 11.595C13.9596 11.7898 14.3996 12.0111 14.7278 12.5523C15.0259 13.2257 14.846 13.9951 14.6211 14.6629C15.3704 14.9913 16.0349 15.1109 16.8477 15.1454C17.966 15.1943 18.9165 15.3761 19.7164 16.2354C20.1526 16.7581 20.5516 17.3094 20.9465 17.8636C21.6898 18.906 22.3521 19.5604 23.6459 19.8188C25.1968 20.061 26.8934 19.9035 28.2031 18.9676C28.2827 18.911 28.3623 18.8543 28.4444 18.796C28.8829 18.3674 29.2283 17.8592 29.2515 17.2328C29.2484 17.1685 29.2454 17.1042 29.2422 17.0379C29.1932 17.0808 29.1442 17.1237 29.0938 17.1678C28.4005 17.6878 27.6047 17.9058 26.7396 17.8387C26.1121 17.736 25.6466 17.4469 25.2529 16.9495C24.8815 16.4121 24.8054 15.8062 24.9143 15.1732C25.081 14.4804 25.3872 14.0374 25.9766 13.6239C26.6772 13.2576 27.3656 13.37 28.0941 13.5897C28.4492 13.7392 28.7679 13.939 29.0938 14.1434C29.1045 13.8109 29.1151 13.4784 29.1255 13.1459C29.129 13.0332 29.1326 12.9205 29.1363 12.8078C29.1579 12.1395 29.1738 11.4723 29.168 10.8036C29.0394 10.8127 29.0394 10.8127 28.9082 10.8221C28.4685 10.819 28.1518 10.6679 27.8329 10.3678C27.3967 9.8901 27.2893 9.51862 27.2876 8.88286C27.2871 8.81984 27.2866 8.75682 27.2861 8.69189C27.2853 8.55909 27.285 8.42628 27.285 8.29347C27.2847 8.09033 27.282 7.88731 27.2792 7.68419C27.2787 7.55494 27.2784 7.42568 27.2783 7.29643C27.2772 7.23581 27.2762 7.17519 27.2751 7.11274C27.2772 6.84565 27.2896 6.68009 27.4445 6.4583C27.6094 6.35043 27.6094 6.35043 27.9063 6.35043C27.9028 6.26815 27.8994 6.18587 27.8958 6.1011C27.893 5.99248 27.8903 5.88386 27.8877 5.77524C27.8852 5.72108 27.8827 5.66693 27.8802 5.61114C27.8754 5.34935 27.8837 5.19474 28.0373 4.97854C28.2114 4.86048 28.2925 4.8257 28.5 4.82895C28.549 4.82818 28.598 4.82742 28.6485 4.82663C28.8758 4.88701 28.9575 4.97125 29.0938 5.16293C29.1156 5.37999 29.1221 5.56038 29.1123 5.77524C29.1062 5.96505 29.1001 6.15486 29.0938 6.35043C29.4856 6.35043 29.8775 6.35043 30.2813 6.35043C30.2696 5.97293 30.2696 5.97293 30.2545 5.59556C30.2505 5.33846 30.2619 5.19014 30.4123 4.97854C30.5864 4.86048 30.6675 4.8257 30.875 4.82895C30.924 4.82818 30.973 4.82742 31.0235 4.82663C31.2508 4.88701 31.3325 4.97125 31.4688 5.16293C31.4903 5.37776 31.4971 5.56219 31.4873 5.77524C31.486 5.83053 31.4846 5.88583 31.4833 5.94281C31.4798 6.07872 31.4745 6.21459 31.4688 6.35043C31.5392 6.35808 31.6096 6.36574 31.6821 6.37362C31.9141 6.42465 31.9141 6.42465 32.0625 6.64731C32.0789 6.86107 32.0869 7.06747 32.0875 7.28135C32.0879 7.34388 32.0884 7.4064 32.0889 7.47082C32.0897 7.60327 32.09 7.73572 32.09 7.86816C32.0903 8.06936 32.093 8.27043 32.0959 8.47161C32.0963 8.60057 32.0966 8.72954 32.0967 8.8585C32.0978 8.91805 32.0989 8.97761 32.1 9.03896C32.096 9.53928 31.951 9.92412 31.6198 10.302C31.2225 10.6309 30.9564 10.8114 30.4297 10.8036C30.4403 10.9201 30.4403 10.9201 30.4512 11.039C30.5526 12.3383 30.4695 13.652 30.2534 14.9366C30.1929 15.3358 30.2238 15.5864 30.4265 15.9371C30.7305 16.4712 30.6495 17.3637 30.5274 17.9491C30.458 18.1497 30.378 18.3334 30.2813 18.5223C30.2507 18.5844 30.22 18.6465 30.1885 18.7105C29.5219 19.9357 28.3731 20.5692 27.0899 20.9715C27.0089 20.997 26.928 21.0224 26.8446 21.0486C25.4746 21.3936 23.8268 21.3535 22.4883 20.8973C22.4076 20.8713 22.3268 20.8453 22.2436 20.8184C21.0739 20.391 20.4106 19.4416 19.7147 18.471C19.6509 18.3822 19.6509 18.3822 19.5859 18.2915C19.5036 18.1763 19.4219 18.0607 19.3407 17.9447C19.158 17.6866 18.9762 17.4507 18.7487 17.2304C18.6847 17.1669 18.6206 17.1034 18.5547 17.0379C18.5547 16.9889 18.5547 16.94 18.5547 16.8895C18.4313 16.8394 18.3075 16.7901 18.1836 16.7411C18.054 16.6844 18.054 16.6844 17.9218 16.6265C17.5517 16.4883 17.1973 16.486 16.8059 16.4813C15.9168 16.4556 15.0756 16.3527 14.25 15.9989C14.232 16.0374 14.214 16.076 14.1955 16.1157C13.9351 16.6575 13.6919 17.0027 13.1359 17.2646C12.5633 17.4458 11.9139 17.3991 11.3555 17.1864C11.3484 17.2547 11.3412 17.3231 11.3339 17.3936C11.2769 17.7897 11.1516 18.1657 11.0331 18.547C11.0087 18.6266 10.9842 18.7062 10.9591 18.7883C10.9076 18.9558 10.8559 19.1233 10.8041 19.2907C10.7245 19.5478 10.6455 19.805 10.5666 20.0622C10.5165 20.2251 10.4663 20.388 10.4162 20.5509C10.3924 20.628 10.3687 20.7052 10.3442 20.7847C10.3222 20.8558 10.3001 20.9269 10.2774 21.0002C10.2483 21.0942 10.2483 21.0942 10.2187 21.1902C10.168 21.3426 10.168 21.3426 10.0938 21.4911C10.1472 21.5109 10.2005 21.5307 10.2555 21.5511C12.031 22.3011 13.3662 23.9871 14.1016 25.7215C14.3264 26.2878 14.4707 26.8188 14.5469 27.4286C17.5349 27.4286 20.523 27.4286 23.6016 27.4286C23.6506 27.1836 23.6995 26.9387 23.75 26.6864C24.1007 25.6096 24.6429 24.6487 25.3828 23.7918C25.4266 23.7373 25.4705 23.6828 25.5156 23.6266C26.6458 22.2656 28.5168 21.2157 30.2847 21.0208C30.8166 21.0131 30.8166 21.0131 31.0745 21.1571C31.2086 21.4125 31.2467 21.6548 31.1719 21.9364C30.9291 22.2832 30.597 22.3264 30.207 22.4142C28.3683 22.8651 26.7782 23.8817 25.7632 25.5047C25.4058 26.1152 25.1315 26.7495 24.9375 27.4286C25.6355 27.3918 25.6355 27.3918 26.3477 27.3543C26.3951 27.2288 26.4426 27.1033 26.4915 26.974C27.1743 25.3553 28.3422 24.2506 29.9592 23.577C30.661 23.3447 31.3086 23.2328 32.0486 23.2398C32.1332 23.2405 32.2178 23.2412 32.305 23.2419C33.6874 23.2702 34.9522 23.7716 35.9961 24.6825C36.068 24.7398 36.1398 24.7971 36.2138 24.8561C36.9264 25.4509 37.375 26.2789 37.7031 27.1317C37.7354 27.2142 37.7676 27.2968 37.8008 27.3819C38.2846 28.8668 38.0925 30.5256 37.4202 31.9095C37.1067 32.5222 36.7241 33.0444 36.2188 33.5145C36.1697 33.564 36.1206 33.6134 36.07 33.6644C34.8338 34.8599 33.3003 35.1894 31.6271 35.1673C30.3471 35.1275 29.0765 34.6034 28.1289 33.7372C28.0627 33.6777 27.9965 33.6183 27.9283 33.5571C27.1524 32.8247 26.7605 32.0561 26.3477 31.0653C21.4982 31.0653 16.6488 31.0653 11.6524 31.0653C11.5299 31.3592 11.4074 31.6531 11.2813 31.9559C10.4341 33.4996 9.18158 34.4814 7.51669 35.0055C5.90099 35.4542 4.23626 35.1392 2.8005 34.3335C2.51224 34.1614 2.25703 33.9563 2.00392 33.7372C1.94422 33.692 1.88452 33.6468 1.82301 33.6003C0.845953 32.7782 0.145366 31.3566 1.5147e-05 30.1004C-0.127655 28.4082 0.138209 26.7678 1.26492 25.4351C1.33682 25.3564 1.33682 25.3564 1.41017 25.2762C1.49929 25.1769 1.49929 25.1769 1.59021 25.0756C2.51107 24.1001 3.85467 23.3269 5.22403 23.2642C5.36292 23.2632 5.50184 23.2672 5.64064 23.2723C5.64769 23.2309 5.65473 23.1895 5.66199 23.1468C5.76657 22.5779 5.9325 22.0328 6.10538 21.4815C6.13714 21.3792 6.16887 21.2769 6.20056 21.1747C6.26783 20.9578 6.33533 20.741 6.40301 20.5242C6.50877 20.1855 6.61403 19.8467 6.71919 19.5078C6.75462 19.3936 6.79005 19.2795 6.82548 19.1653C6.85181 19.0805 6.85181 19.0805 6.87867 18.9939C6.93199 18.8222 6.98536 18.6505 7.03874 18.4787C7.36267 17.4365 7.68285 16.3932 8.00173 15.3495C8.04919 15.1942 8.09666 15.0389 8.14413 14.8837C8.24981 14.538 8.35541 14.1923 8.46095 13.8465C8.41197 13.871 8.36298 13.8955 8.31252 13.9207C7.74802 14.0082 7.19029 14.0701 6.6797 13.7723C6.45088 13.5655 6.25381 13.3308 6.21393 13.0182C6.18856 12.3322 6.35729 11.7296 6.55466 11.0801C6.61017 10.8962 6.66263 10.7115 6.71493 10.5267C7.05759 9.35551 7.05759 9.35551 7.57033 8.94809C7.886 8.79025 8.26755 8.8293 8.60939 8.87387C8.86378 8.98855 9.06496 9.13985 9.27736 9.31918C9.42431 9.44164 9.57127 9.5641 9.72267 9.69027C10.0901 8.49016 10.4574 7.29004 10.836 6.05356C9.7583 6.05356 8.68064 6.05356 7.57033 6.05356C7.52134 6.27399 7.47236 6.49442 7.42189 6.72152C7.36581 6.89458 7.30585 7.06646 7.24098 7.23642C7.1952 7.35912 7.1952 7.35912 7.1485 7.4843C7.0508 7.68637 7.0508 7.68637 6.82814 7.83481C6.31876 7.88332 6.31876 7.88332 6.04884 7.72812C5.85784 7.40182 5.89765 7.04605 5.97964 6.6839C6.03927 6.48303 6.10478 6.28523 6.17322 6.08719C6.1974 6.01488 6.22158 5.94257 6.2465 5.86808C6.2975 5.71623 6.34899 5.56455 6.40093 5.41302C6.48024 5.18149 6.55798 4.94947 6.63549 4.71733C6.68541 4.56934 6.73542 4.42139 6.78552 4.27347C6.82033 4.1699 6.82033 4.1699 6.85583 4.06424C7.22946 2.97915 7.22946 2.97915 8.01564 3.08481ZM12.6914 4.56918C12.4459 5.15529 12.2517 5.7491 12.0684 6.3571C12.037 6.46048 12.0055 6.56386 11.974 6.66722C11.9065 6.88891 11.8392 7.11066 11.7721 7.33245C11.6643 7.68855 11.556 8.0445 11.4477 8.40043C11.4103 8.52327 11.3729 8.64612 11.3355 8.76896C11.3075 8.86111 11.3075 8.86111 11.2789 8.95512C11.2214 9.14403 11.164 9.33296 11.1066 9.52188C10.7445 10.7131 10.3796 11.9033 10.0141 13.0934C9.83633 13.6724 9.65875 14.2515 9.48117 14.8305C9.46358 14.8879 9.44599 14.9452 9.42786 15.0043C8.78888 17.0879 8.15128 19.172 7.51595 21.2567C7.45336 21.462 7.39076 21.6674 7.32813 21.8727C7.15336 22.4457 6.97892 23.0188 6.80504 23.5921C6.7529 23.7638 6.70067 23.9355 6.64832 24.1072C6.5775 24.3395 6.50707 24.572 6.43675 24.8045C6.41597 24.8724 6.39518 24.9403 6.37377 25.0103C6.3552 25.072 6.33662 25.1337 6.31749 25.1973C6.30132 25.2506 6.28515 25.3038 6.26849 25.3587C6.22562 25.5109 6.22562 25.5109 6.23439 25.7215C6.13767 25.7189 6.13767 25.7189 6.03899 25.7163C5.95346 25.715 5.86792 25.7136 5.7798 25.7122C5.65323 25.7097 5.65323 25.7097 5.52409 25.707C5.26527 25.7218 5.06505 25.777 4.82423 25.87C4.85102 25.7913 4.87781 25.7127 4.90541 25.6317C4.94021 25.5286 4.975 25.4256 5.00978 25.3226C5.02748 25.2707 5.04518 25.2189 5.06342 25.1655C5.16099 24.8929 5.16099 24.8929 5.19533 24.6082C4.16324 24.659 3.15114 25.24 2.44749 25.9871C1.44726 27.2127 1.13694 28.4601 1.26173 30.0262C1.46348 31.2995 2.25622 32.3772 3.27956 33.1295C4.40169 33.8754 5.62672 34.0023 6.94121 33.8566C8.13137 33.6023 9.21444 32.8299 9.88039 31.8214C10.0517 31.5396 10.1343 31.3147 10.2422 30.9911C9.85033 30.9666 9.45845 30.9421 9.0547 30.9168C9.1296 30.7332 9.20449 30.5496 9.27939 30.366C9.36131 30.16 9.36131 30.16 9.4258 29.8778C15.7448 29.8778 22.0638 29.8778 28.5742 29.8778C28.6722 30.1717 28.7702 30.4656 28.8711 30.7684C28.8956 30.8174 28.9201 30.8664 28.9453 30.9168C28.5535 30.9413 28.1616 30.9658 27.7578 30.9911C28.1523 32.1744 28.9609 32.9154 30.0488 33.4756C31.1595 34.0018 32.48 34.0932 33.6527 33.693C34.909 33.2099 35.8551 32.2845 36.4327 31.0769C36.9165 29.9587 36.9166 28.5973 36.4817 27.4642C35.9139 26.1834 34.9741 25.3579 33.7229 24.7761C32.5271 24.3286 31.2137 24.4281 30.0663 24.947C29.0326 25.4375 28.2115 26.2127 27.7578 27.2801C27.7578 27.3291 27.7578 27.3781 27.7578 27.4286C28.1497 27.4531 28.5416 27.4775 28.9453 27.5028C28.8704 27.6864 28.7955 27.87 28.7206 28.0536C28.6387 28.2596 28.6387 28.2596 28.5742 28.5418C22.2553 28.5418 15.9363 28.5418 9.4258 28.5418C9.32783 28.2479 9.22986 27.954 9.12892 27.6512C9.10443 27.6022 9.07994 27.5532 9.0547 27.5028C9.44658 27.4783 9.83845 27.4538 10.2422 27.4286C10.0094 26.7302 9.58778 26.1565 9.0547 25.6473C8.98123 25.6228 8.90775 25.5983 8.83205 25.5731C8.78216 25.7167 8.73277 25.8606 8.68361 26.0045C8.65606 26.0846 8.6285 26.1646 8.60011 26.2471C8.52451 26.4616 8.52451 26.4616 8.53517 26.6864C8.17848 26.4793 7.8381 26.2486 7.49611 26.0184C7.54582 25.4977 7.7073 25.0138 7.86112 24.5158C7.89147 24.4165 7.92179 24.3172 7.95208 24.2179C8.03441 23.9483 8.1172 23.6789 8.20008 23.4095C8.28835 23.1222 8.37617 22.8349 8.46403 22.5476C8.61158 22.0652 8.75937 21.5829 8.90732 21.1006C9.11738 20.4158 9.32665 19.7308 9.53568 19.0456C9.60235 18.8271 9.66903 18.6086 9.73572 18.39C9.7522 18.336 9.76869 18.282 9.78567 18.2264C10.3626 16.336 10.9416 14.4463 11.5211 12.5567C11.6105 12.2655 11.6997 11.9742 11.789 11.683C12.1206 10.6012 12.4526 9.51953 12.786 8.43832C12.9035 8.05739 13.0208 7.67639 13.1381 7.29537C13.2317 6.99118 13.3256 6.68707 13.4197 6.38302C13.4902 6.15499 13.5603 5.92683 13.6305 5.6987C13.6559 5.61688 13.6813 5.53507 13.7075 5.45078C13.7303 5.3764 13.7531 5.30203 13.7766 5.22541C13.8064 5.12871 13.8064 5.12871 13.8369 5.03007C13.8881 4.85833 13.8881 4.85833 13.8789 4.6434C13.487 4.61891 13.0952 4.59442 12.6914 4.56918ZM28.5 7.53793C28.4954 7.77367 28.4908 8.00941 28.4861 8.25229C28.4841 8.32573 28.482 8.39917 28.48 8.47483C28.4764 8.85742 28.4893 9.1467 28.7227 9.46762C29.0203 9.65171 29.342 9.64083 29.6829 9.63925C29.7597 9.64104 29.7597 9.64104 29.8381 9.64287C30.1889 9.64321 30.436 9.59216 30.7266 9.3934C30.9483 9.06206 30.8913 8.6408 30.8843 8.25693C30.8812 8.01966 30.8782 7.78239 30.875 7.53793C30.0913 7.53793 29.3075 7.53793 28.5 7.53793ZM8.2383 10.2098C8.04923 10.695 7.89264 11.1866 7.74196 11.6849C7.71818 11.7624 7.69441 11.8399 7.66992 11.9197C7.64748 11.9936 7.62504 12.0675 7.60193 12.1436C7.58158 12.2105 7.56123 12.2775 7.54027 12.3465C7.48968 12.5062 7.48968 12.5062 7.49611 12.659C8.05144 12.7053 8.43849 12.6172 8.87727 12.2668C9.08692 12.0554 9.15442 11.8708 9.16603 11.5829C9.13213 11.0493 8.84171 10.644 8.46095 10.284C8.38748 10.2595 8.314 10.235 8.2383 10.2098ZM12.6914 12.8075C12.5624 13.2259 12.4342 13.6446 12.3068 14.0636C12.2634 14.2062 12.2197 14.3486 12.1757 14.491C12.1127 14.6955 12.0504 14.9003 11.9884 15.1051C11.9685 15.1688 11.9486 15.2326 11.9282 15.2984C11.9103 15.3578 11.8925 15.4172 11.8741 15.4784C11.8581 15.5307 11.8422 15.5829 11.8257 15.6367C11.7865 15.7923 11.7865 15.7923 11.875 15.9989C12.2748 16.1492 12.2748 16.1492 12.6775 16.0731C13.0845 15.701 13.1874 15.1057 13.3362 14.5934C13.36 14.5148 13.3837 14.4362 13.4082 14.3552C13.578 13.7756 13.578 13.7756 13.582 13.1786C13.3193 12.8759 13.0761 12.8537 12.6914 12.8075ZM26.4219 14.8856C26.2199 15.1433 26.145 15.3761 26.125 15.702C26.1979 16.0332 26.2954 16.2416 26.5703 16.4442C27.026 16.6141 27.3767 16.6214 27.832 16.4442C28.1967 16.2465 28.4858 16.0461 28.7227 15.702C28.5374 15.2742 28.187 15.0526 27.7703 14.8653C27.2527 14.6699 26.9195 14.5785 26.4219 14.8856ZM9.72267 22.7528C9.39437 23.5074 9.39437 23.5074 9.27736 24.3114C9.38184 24.4189 9.38184 24.4189 9.52785 24.5062C10.5844 25.2547 11.1424 26.2685 11.6524 27.4286C12.1912 27.4286 12.73 27.4286 13.2852 27.4286C12.9378 25.6918 11.838 24.1244 10.3875 23.1152C10.0763 22.877 10.0763 22.877 9.72267 22.7528Z" fill="#379DFE"/>
<path d="M33.2419 27.0383C33.8612 27.4076 34.2464 27.9188 34.4375 28.6161C34.5116 29.4399 34.4634 30.1549 33.9365 30.8287C33.5166 31.2783 32.9936 31.5545 32.3791 31.6097C31.5913 31.6275 30.9274 31.5382 30.3259 30.9795C29.7292 30.2926 29.6334 29.6382 29.6742 28.7607C29.7255 28.2031 30.0191 27.7235 30.4297 27.3543C31.2267 26.755 32.3272 26.5994 33.2419 27.0383ZM31.0698 28.5882C30.9062 28.928 30.8901 29.2102 30.9492 29.5809C31.1221 29.94 31.3323 30.1502 31.6914 30.3231C32.0621 30.3822 32.3443 30.3661 32.6841 30.2025C32.9501 29.9618 33.1458 29.7691 33.2042 29.4029C33.2232 28.981 33.1711 28.7163 32.8789 28.3934C32.556 28.1012 32.2913 28.0491 31.8694 28.0681C31.5033 28.1266 31.3105 28.3222 31.0698 28.5882Z" fill="#379DFE"/>
<path d="M7.11689 27.0383C7.73622 27.4076 8.12136 27.9188 8.31251 28.6161C8.38662 29.4399 8.33845 30.1549 7.81153 30.8287C7.39163 31.2783 6.86864 31.5545 6.2541 31.6097C5.46626 31.6275 4.80242 31.5382 4.20091 30.9795C3.60424 30.2926 3.50839 29.6382 3.54921 28.7607C3.60049 28.2031 3.89411 27.7235 4.3047 27.3543C5.10171 26.755 6.20222 26.5994 7.11689 27.0383ZM4.94483 28.5882C4.78125 28.928 4.76506 29.2102 4.82423 29.5809C4.99713 29.94 5.2073 30.1502 5.56642 30.3231C5.9371 30.3822 6.21934 30.3661 6.55909 30.2025C6.8251 29.9618 7.02076 29.7691 7.0792 29.4029C7.0982 28.981 7.04606 28.7163 6.75392 28.3934C6.43102 28.1012 6.16627 28.0491 5.74442 28.0681C5.37825 28.1266 5.18551 28.3222 4.94483 28.5882Z" fill="#379DFE"/>
</g>
<defs>
<clipPath id="clip0_1237_1077">
<rect width="38" height="38" fill="white" transform="translate(0 0.116089)"/>
</clipPath>
</defs>
</svg>
