<svg width="38" height="39" viewBox="0 0 38 39" fill="none" xmlns="http://www.w3.org/2000/svg">
<path d="M22.7642 1.29267C22.8545 1.29214 22.9448 1.29161 23.0379 1.29107C23.1385 1.29085 23.2392 1.29065 23.3398 1.29046C23.4454 1.29 23.5509 1.2895 23.6565 1.28898C23.9437 1.28769 24.2309 1.28691 24.5181 1.2863C24.6975 1.28591 24.8768 1.28546 25.0562 1.285C25.6171 1.28358 26.178 1.28253 26.7389 1.28191C27.3868 1.28118 28.0348 1.27923 28.6827 1.27623C29.1833 1.27399 29.6838 1.27289 30.1843 1.27265C30.4834 1.27247 30.7825 1.2718 31.0816 1.26994C31.3629 1.26822 31.6442 1.2679 31.9256 1.26866C32.0288 1.2687 32.1321 1.26823 32.2354 1.26721C32.3763 1.2659 32.5173 1.2666 32.6582 1.2674C32.7371 1.26722 32.816 1.26704 32.8973 1.26686C33.1538 1.31302 33.2415 1.39583 33.3984 1.60047C33.4341 1.82777 33.4341 1.82777 33.4321 2.09746C33.4321 2.14673 33.4321 2.196 33.4322 2.24676C33.432 2.40904 33.4297 2.57121 33.4273 2.73347C33.4268 2.8462 33.4264 2.95892 33.4261 3.07165C33.4249 3.36792 33.422 3.66415 33.4187 3.9604C33.4157 4.26287 33.4143 4.56535 33.4129 4.86784C33.4097 5.46103 33.4046 6.05418 33.3984 6.64735C33.5377 6.64502 33.5377 6.64502 33.6798 6.64264C34.0245 6.63726 34.3691 6.63385 34.7139 6.63104C34.863 6.62955 35.0122 6.62752 35.1613 6.62495C35.3758 6.62135 35.5902 6.61967 35.8047 6.61836C35.8713 6.61682 35.938 6.61529 36.0066 6.61371C36.069 6.61369 36.1314 6.61367 36.1957 6.61364C36.2778 6.61266 36.2778 6.61266 36.3615 6.61165C36.5848 6.66339 36.6684 6.76856 36.8124 6.94422C36.8496 7.13685 36.8496 7.13685 36.8498 7.36011C36.8506 7.44532 36.8513 7.53052 36.8521 7.61831C36.8515 7.71196 36.8508 7.80562 36.8501 7.90211C36.8505 8.00257 36.8509 8.10302 36.8515 8.20348C36.8528 8.4798 36.8521 8.7561 36.8512 9.03242C36.8506 9.33031 36.8516 9.6282 36.8524 9.92609C36.8537 10.5098 36.8534 11.0934 36.8526 11.6771C36.8519 12.1514 36.8518 12.6256 36.8521 13.0999C36.8522 13.1673 36.8522 13.2348 36.8523 13.3042C36.8524 13.4412 36.8525 13.5782 36.8526 13.7152C36.8534 15.0005 36.8524 16.2857 36.8509 17.571C36.8495 18.6743 36.8498 19.7777 36.8511 20.8811C36.8527 22.1617 36.8533 23.4423 36.8524 24.7228C36.8523 24.8593 36.8522 24.9958 36.8521 25.1323C36.8521 25.233 36.8521 25.233 36.852 25.3358C36.8518 25.8096 36.8522 26.2835 36.8529 26.7573C36.8537 27.3345 36.8535 27.9118 36.8519 28.489C36.8511 28.7837 36.8508 29.0783 36.8518 29.373C36.8527 29.6425 36.8522 29.9121 36.8506 30.1816C36.8501 30.3257 36.8511 30.4698 36.8521 30.6139C36.851 30.7417 36.851 30.7417 36.8498 30.8721C36.8497 30.9458 36.8497 31.0194 36.8496 31.0954C36.8021 31.3416 36.7088 31.4302 36.5155 31.5848C36.3615 31.6205 36.3615 31.6205 36.1957 31.6185C36.1333 31.6185 36.0709 31.6185 36.0066 31.6185C35.94 31.617 35.8733 31.6154 35.8047 31.6138C35.7359 31.6134 35.6671 31.613 35.5963 31.6126C35.3769 31.6109 35.1577 31.6072 34.9384 31.6034C34.7896 31.6019 34.6408 31.6006 34.4919 31.5993C34.1274 31.5961 33.7629 31.5909 33.3984 31.5848C33.399 31.6474 33.3997 31.71 33.4004 31.7744C33.4063 32.3641 33.4108 32.9538 33.4137 33.5436C33.4153 33.8467 33.4174 34.1499 33.4208 34.4531C33.424 34.7457 33.4258 35.0382 33.4265 35.3308C33.4271 35.4424 33.4281 35.5541 33.4297 35.6657C33.4319 35.8221 33.4322 35.9783 33.4321 36.1347C33.4327 36.2237 33.4334 36.3127 33.4341 36.4044C33.3984 36.6317 33.3984 36.6317 33.2752 36.8088C33.0563 36.9597 32.9285 36.9662 32.6637 36.967C32.5314 36.9684 32.5314 36.9684 32.3965 36.9698C32.3016 36.9692 32.2066 36.9686 32.1088 36.968C32.0111 36.9683 31.9134 36.9686 31.8127 36.9689C31.6061 36.9693 31.3995 36.9687 31.1928 36.9673C30.9282 36.9656 30.6638 36.9666 30.3992 36.9684C30.1465 36.9697 29.8938 36.9688 29.641 36.968C29.5461 36.9686 29.4511 36.9692 29.3533 36.9698C29.2652 36.9689 29.177 36.968 29.0861 36.967C29.0086 36.9668 28.931 36.9665 28.8511 36.9663C28.6484 36.9286 28.6484 36.9286 28.3515 36.6317C28.3515 34.9663 28.3515 33.3008 28.3515 31.5848C22.1795 31.5848 16.0074 31.5848 9.64836 31.5848C9.64836 33.2503 9.64836 34.9158 9.64836 36.6317C9.31429 36.9658 9.31429 36.9658 8.91371 36.967C8.78145 36.9684 8.78145 36.9684 8.64652 36.9698C8.55157 36.9692 8.45663 36.9686 8.35881 36.968C8.26109 36.9683 8.16337 36.9686 8.0627 36.9689C7.85605 36.9693 7.64945 36.9687 7.44282 36.9673C7.17825 36.9656 6.91377 36.9666 6.64921 36.9684C6.39648 36.9697 6.14377 36.9688 5.89104 36.968C5.79609 36.9686 5.70115 36.9692 5.60333 36.9698C5.51515 36.9689 5.42698 36.968 5.33613 36.967C5.25858 36.9668 5.18103 36.9665 5.10112 36.9663C4.83881 36.9175 4.75344 36.8502 4.60149 36.6317C4.56578 36.4044 4.56578 36.4044 4.56778 36.1347C4.56774 36.0855 4.5677 36.0362 4.56765 35.9854C4.56786 35.8232 4.57016 35.661 4.57249 35.4987C4.57305 35.386 4.57347 35.2733 4.57377 35.1605C4.5749 34.8643 4.57781 34.568 4.5811 34.2718C4.58414 33.9693 4.58549 33.6668 4.58699 33.3644C4.59017 32.7712 4.59524 32.178 4.60149 31.5848C4.50861 31.5864 4.41574 31.588 4.32005 31.5896C3.97537 31.5949 3.63069 31.5983 3.28599 31.6012C3.13682 31.6026 2.98765 31.6047 2.8385 31.6072C2.62405 31.6108 2.40965 31.6125 2.19517 31.6138C2.0952 31.6161 2.0952 31.6161 1.9932 31.6185C1.93081 31.6185 1.86842 31.6185 1.80415 31.6185C1.74943 31.6192 1.69471 31.6199 1.63834 31.6205C1.41507 31.5688 1.33141 31.4636 1.18742 31.288C1.15021 31.0953 1.15021 31.0954 1.15006 30.8721C1.14929 30.7869 1.14851 30.7017 1.14772 30.6139C1.14838 30.5202 1.14904 30.4266 1.14972 30.3301C1.14938 30.2296 1.14891 30.1292 1.14832 30.0287C1.14708 29.7524 1.1477 29.4761 1.14861 29.1998C1.14928 28.9019 1.14825 28.604 1.14743 28.3061C1.14611 27.7224 1.1464 27.1388 1.14726 26.5551C1.14793 26.0808 1.14802 25.6066 1.1477 25.1323C1.14765 25.0649 1.14761 24.9974 1.14756 24.928C1.14746 24.791 1.14737 24.654 1.14727 24.517C1.14642 23.2317 1.1474 21.9465 1.14899 20.6612C1.15032 19.5579 1.15009 18.4545 1.14872 17.3511C1.14713 16.0705 1.1465 14.7899 1.14742 13.5094C1.14751 13.3729 1.1476 13.2364 1.1477 13.0999C1.14774 13.0327 1.14779 12.9656 1.14784 12.8964C1.14809 12.4225 1.14766 11.9487 1.14696 11.4749C1.14613 10.8977 1.14635 10.3204 1.14793 9.74318C1.14872 9.44852 1.14902 9.15388 1.14804 8.85922C1.14715 8.58966 1.14764 8.32014 1.14922 8.05058C1.14971 7.90649 1.14874 7.7624 1.14772 7.61831C1.14849 7.5331 1.14927 7.4479 1.15006 7.36011C1.15011 7.28643 1.15016 7.21275 1.15021 7.13685C1.19873 6.88567 1.28026 6.79849 1.4843 6.64735C1.65252 6.61048 1.65251 6.61048 1.84074 6.61082C1.94866 6.60993 1.94866 6.60993 2.05876 6.60903C2.17702 6.61032 2.17702 6.61032 2.29766 6.61165C2.38157 6.61139 2.46547 6.61114 2.55191 6.61088C2.8341 6.61039 3.11623 6.61202 3.3984 6.61364C3.60026 6.61389 3.80212 6.61369 4.00398 6.61351C4.43909 6.61336 4.87419 6.61429 5.30931 6.61596C5.93841 6.61837 6.5675 6.61914 7.19661 6.61952C8.21726 6.62017 9.23791 6.62214 10.2586 6.62495C11.2501 6.62768 12.2416 6.62978 13.2331 6.63104C13.2942 6.63112 13.3553 6.6312 13.4183 6.63128C13.7249 6.63166 14.0314 6.63204 14.338 6.63241C16.8815 6.63549 19.4251 6.64071 21.9687 6.64735C21.9679 6.55817 21.9679 6.55817 21.9672 6.4672C21.9627 5.90594 21.9593 5.34469 21.9571 4.78342C21.956 4.49489 21.9544 4.20637 21.9519 3.91785C21.9494 3.63922 21.9481 3.3606 21.9475 3.08196C21.9471 2.97585 21.9463 2.86974 21.9451 2.76364C21.9435 2.61461 21.9434 2.46557 21.9434 2.31653C21.9427 2.18946 21.9427 2.18946 21.9419 2.05983C21.9725 1.78887 22.0506 1.61011 22.1913 1.37782C22.3898 1.2786 22.5419 1.29357 22.7642 1.29267ZM23.2304 2.4911C23.2304 2.98094 23.2304 3.47079 23.2304 3.97547C26.1695 3.97547 29.1085 3.97547 32.1366 3.97547C32.1366 3.48563 32.1366 2.99579 32.1366 2.4911C29.1976 2.4911 26.2585 2.4911 23.2304 2.4911ZM23.2304 5.16297C23.2304 5.65282 23.2304 6.14266 23.2304 6.64735C26.1695 6.64735 29.1085 6.64735 32.1366 6.64735C32.1366 6.1575 32.1366 5.66766 32.1366 5.16297C29.1976 5.16297 26.2585 5.16297 23.2304 5.16297ZM2.37492 7.83485C2.37492 14.2763 2.37492 20.7177 2.37492 27.3544C4.9466 27.3544 7.51828 27.3544 10.1679 27.3544C10.1715 26.1202 10.1752 24.886 10.1789 23.6144C10.1815 22.8345 10.1842 22.0545 10.187 21.2745C10.1885 20.8649 10.19 20.4553 10.1914 20.0458C10.1916 19.9944 10.1918 19.9431 10.192 19.8902C10.195 19.061 10.1974 18.2317 10.1996 17.4025C10.2019 16.5517 10.2048 15.701 10.2082 14.8502C10.2101 14.3723 10.2117 13.8943 10.2127 13.4163C10.2136 12.9668 10.2153 12.5172 10.2174 12.0676C10.2181 11.9024 10.2185 11.7371 10.2187 11.5718C10.2189 11.3467 10.2201 11.1216 10.2214 10.8964C10.2213 10.8306 10.2212 10.7647 10.221 10.6969C10.2216 10.6366 10.2221 10.5763 10.2227 10.5141C10.2229 10.4622 10.223 10.4102 10.2232 10.3567C10.2458 10.1815 10.2984 10.0631 10.3905 9.91297C10.5857 9.81541 10.7304 9.82903 10.949 9.82846C11.0367 9.82806 11.1244 9.82765 11.2147 9.82723C11.3119 9.82716 11.4091 9.82709 11.5092 9.82701C11.6128 9.82667 11.7164 9.8263 11.82 9.8259C12.1057 9.82489 12.3914 9.82434 12.6771 9.82386C12.9848 9.82327 13.2925 9.82226 13.6002 9.82129C14.1336 9.81967 14.667 9.81833 15.2005 9.81716C15.9718 9.81548 16.743 9.81339 17.5143 9.8112C18.7656 9.80766 20.0168 9.80445 21.2681 9.80145C22.4838 9.79852 23.6995 9.79545 24.9152 9.79217C25.0275 9.79186 25.0275 9.79186 25.1422 9.79155C25.5179 9.79054 25.8936 9.78952 26.2693 9.7885C29.3878 9.78004 32.5064 9.77213 35.6249 9.76453C35.6249 9.12774 35.6249 8.49094 35.6249 7.83485C24.6524 7.83485 13.6799 7.83485 2.37492 7.83485ZM11.4296 11.0263C11.4296 16.4145 11.4296 21.8028 11.4296 27.3544C13.3155 27.3544 15.2014 27.3544 17.1445 27.3544C17.1445 21.9661 17.1445 16.5778 17.1445 11.0263C15.2586 11.0263 13.3727 11.0263 11.4296 11.0263ZM18.4062 11.0263C18.4062 16.4145 18.4062 21.8028 18.4062 27.3544C24.0884 27.3544 29.7705 27.3544 35.6249 27.3544C35.6249 21.9661 35.6249 16.5778 35.6249 11.0263C29.9427 11.0263 24.2605 11.0263 18.4062 11.0263ZM2.37492 28.6161C2.37492 29.2039 2.37492 29.7917 2.37492 30.3973C13.3474 30.3973 24.3199 30.3973 35.6249 30.3973C35.6249 29.8095 35.6249 29.2217 35.6249 28.6161C24.6524 28.6161 13.6799 28.6161 2.37492 28.6161ZM5.8632 31.5848C5.8632 32.9564 5.8632 34.328 5.8632 35.7411C6.69594 35.7411 7.52867 35.7411 8.38664 35.7411C8.38664 34.3695 8.38664 32.998 8.38664 31.5848C7.55391 31.5848 6.72117 31.5848 5.8632 31.5848ZM29.6132 31.5848C29.6132 32.9564 29.6132 34.328 29.6132 35.7411C30.4459 35.7411 31.2787 35.7411 32.1366 35.7411C32.1366 34.3695 32.1366 32.998 32.1366 31.5848C31.3039 31.5848 30.4712 31.5848 29.6132 31.5848Z" fill="#379DFE"/>
<path d="M26.0502 12.659C26.2807 12.7851 26.2807 12.7851 26.5254 12.9487C26.5696 12.9779 26.6138 13.0071 26.6593 13.0372C26.8016 13.1315 26.9431 13.2269 27.0846 13.3224C27.182 13.3873 27.2794 13.4522 27.3769 13.5171C27.5672 13.6438 27.7572 13.771 27.9471 13.8985C28.1572 14.0393 28.3686 14.1778 28.5812 14.3148C28.6325 14.348 28.6838 14.3813 28.7366 14.4155C28.864 14.498 28.9915 14.5802 29.119 14.6624C29.3323 14.8238 29.4773 14.9508 29.6127 15.1825C29.6361 15.6877 29.3476 16.0295 29.0654 16.421C29.0215 16.4834 28.9777 16.5459 28.9326 16.6102C28.775 16.8339 28.6176 17.0565 28.4479 17.2713C28.3368 17.4012 28.3368 17.4012 28.351 17.5575C28.5701 17.7114 28.7973 17.8496 29.0251 17.9903C29.2502 18.1576 29.36 18.263 29.4643 18.5223C29.4482 18.9643 29.2271 19.2589 28.9877 19.6133C28.9458 19.6765 28.9039 19.7398 28.8608 19.805C28.7225 20.0134 28.5832 20.2211 28.4438 20.4288C28.3473 20.5736 28.2509 20.7184 28.1546 20.8633C27.9015 21.2432 27.6475 21.6225 27.3931 22.0015C27.2383 22.2323 27.0839 22.4633 26.9296 22.6944C26.6826 23.0643 26.4352 23.4339 26.1873 23.8033C26.0931 23.9437 25.999 24.0841 25.905 24.2246C25.7735 24.4207 25.6416 24.6166 25.5095 24.8124C25.4708 24.8703 25.4321 24.9282 25.3922 24.9879C24.9187 25.6869 24.9187 25.6869 24.6401 25.761C24.3905 25.7571 24.231 25.7415 24.0092 25.6195C23.7005 25.0793 23.9487 24.2639 24.044 23.684C24.0588 23.5906 24.0736 23.4971 24.0889 23.4008C24.1281 23.1545 24.1676 22.9082 24.2075 22.662C24.2638 22.3144 24.3195 21.9668 24.3748 21.6191C24.4042 21.4345 24.4339 21.25 24.464 21.0655C24.4774 20.9818 24.4907 20.898 24.5045 20.8117C24.5164 20.7385 24.5283 20.6652 24.5405 20.5898C24.5861 20.2085 24.6145 19.9407 24.3757 19.6281C24.3351 19.5737 24.2946 19.5194 24.2528 19.4635C24.2091 19.407 24.1655 19.3505 24.1205 19.2923C24.032 19.1734 23.9436 19.0545 23.8553 18.9354C23.8119 18.8777 23.7685 18.8199 23.7238 18.7604C23.5604 18.5424 23.4003 18.3232 23.2438 18.1002C23.1974 18.0356 23.151 17.971 23.1032 17.9045C22.9786 17.6467 22.9885 17.4713 23.0072 17.1864C23.0875 16.962 23.0875 16.962 23.2013 16.7358C23.2648 16.6076 23.2648 16.6076 23.3297 16.4769C23.3765 16.3852 23.4234 16.2935 23.4702 16.2018C23.518 16.1066 23.5658 16.0114 23.6134 15.9161C23.7132 15.7172 23.8136 15.5186 23.9146 15.3203C24.0439 15.0663 24.1719 14.8117 24.2994 14.5568C24.3978 14.3604 24.4967 14.1642 24.5957 13.9682C24.643 13.8743 24.6903 13.7805 24.7374 13.6866C24.8034 13.5554 24.8701 13.4247 24.9367 13.2939C24.9745 13.2195 25.0122 13.1451 25.0511 13.0684C25.3058 12.6301 25.5537 12.5344 26.0502 12.659ZM25.9018 14.2176C25.7035 14.6124 25.5054 15.0073 25.3074 15.4022C25.2401 15.5365 25.1727 15.6708 25.1053 15.805C25.0083 15.9982 24.9114 16.1915 24.8146 16.3848C24.7845 16.4445 24.7544 16.5043 24.7234 16.5659C24.645 16.7227 24.5682 16.8802 24.4916 17.0379C24.4568 17.1066 24.4221 17.1752 24.3862 17.2459C24.3255 17.4092 24.3255 17.4092 24.4055 17.5585C24.4429 17.6064 24.4803 17.6543 24.5189 17.7036C24.5599 17.7577 24.6009 17.8118 24.6432 17.8676C24.7105 17.9529 24.7105 17.9529 24.7792 18.0399C24.869 18.1603 24.9585 18.2808 25.048 18.4014C25.1691 18.5623 25.2905 18.7227 25.415 18.881C25.7389 19.2957 25.9433 19.6217 25.8958 20.1622C25.8663 20.3777 25.8272 20.5903 25.7845 20.8035C25.7306 21.0941 25.7017 21.3875 25.6698 21.6813C25.6574 21.7881 25.6448 21.8948 25.6322 22.0016C25.6232 22.0781 25.6142 22.1545 25.6049 22.2333C25.926 21.9505 26.1378 21.5973 26.3691 21.2417C26.4132 21.1746 26.4572 21.1075 26.5026 21.0383C26.6429 20.8246 26.7826 20.6105 26.9223 20.3963C27.0174 20.2511 27.1126 20.1058 27.2079 19.9606C27.4408 19.6051 27.6734 19.2494 27.9057 18.8934C27.6349 18.6163 27.347 18.4101 27.0258 18.1947C26.8666 18.077 26.8666 18.077 26.7924 17.9286C26.7339 17.4949 26.8438 17.2811 27.0909 16.9439C27.1317 16.8907 27.1725 16.8376 27.2145 16.7828C27.2938 16.6763 27.373 16.5697 27.452 16.463C27.4906 16.4113 27.5291 16.3595 27.5689 16.3062C27.7434 16.0632 27.8999 15.8098 28.0541 15.5536C27.5912 15.209 27.1216 14.8753 26.644 14.5516C26.572 14.502 26.572 14.502 26.4986 14.4515C26.2249 14.2627 26.2249 14.2627 25.9018 14.2176Z" fill="#379DFE"/>
<path d="M4.69123 14.1315C4.80977 14.1305 4.80977 14.1305 4.9307 14.1294C5.01606 14.1291 5.10141 14.1287 5.18935 14.1284C5.27711 14.128 5.36487 14.1276 5.4553 14.1271C5.64109 14.1264 5.82688 14.1259 6.01268 14.1257C6.29692 14.1249 6.58112 14.1226 6.86536 14.1203C7.04578 14.1198 7.22621 14.1194 7.40663 14.1191C7.53421 14.1178 7.53421 14.1178 7.66437 14.1164C7.74386 14.1166 7.82335 14.1168 7.90525 14.117C7.97496 14.1168 8.04466 14.1165 8.11648 14.1162C8.35153 14.149 8.49148 14.228 8.68285 14.3661C8.79898 14.5984 8.8088 14.8568 8.75707 15.1083C8.60098 15.3044 8.51239 15.3952 8.26307 15.4429C8.15069 15.4433 8.15069 15.4433 8.03604 15.4436C7.90824 15.445 7.90824 15.445 7.77785 15.4465C7.68616 15.4459 7.59446 15.4453 7.49999 15.4446C7.40556 15.4449 7.31114 15.4452 7.21386 15.4455C7.01418 15.4457 6.81461 15.4453 6.61494 15.4439C6.35936 15.4422 6.10387 15.4432 5.84829 15.445C5.60409 15.4463 5.35991 15.4454 5.11571 15.4446C5.02401 15.4452 4.93232 15.4458 4.83784 15.4465C4.75264 15.4455 4.66744 15.4446 4.57965 15.4436C4.50474 15.4434 4.42982 15.4431 4.35263 15.4429C4.10302 15.3952 4.01466 15.3049 3.85863 15.1083C3.82181 14.941 3.82181 14.941 3.82616 14.7697C3.82625 14.713 3.82635 14.6562 3.82645 14.5978C3.86623 14.4032 3.92563 14.3382 4.08129 14.2177C4.30503 14.1431 4.45723 14.1332 4.69123 14.1315Z" fill="#379DFE"/>
<path d="M5.1633 19.9647C5.25415 19.9642 5.34499 19.9637 5.43859 19.9633C5.63049 19.9627 5.82239 19.963 6.01428 19.9639C6.308 19.9649 6.60155 19.9624 6.89526 19.9596C7.08178 19.9595 7.26829 19.9596 7.4548 19.96C7.54264 19.959 7.63047 19.958 7.72097 19.957C8.32734 19.9639 8.32734 19.9639 8.6281 20.1789C8.8014 20.4437 8.81373 20.5867 8.75827 20.8973C8.6281 21.0962 8.6281 21.0962 8.38718 21.2684C8.0766 21.3238 7.76955 21.3186 7.4548 21.3151C7.36396 21.3153 7.27311 21.3154 7.17951 21.3156C6.98761 21.3156 6.79571 21.3146 6.60382 21.3127C6.31011 21.3102 6.01656 21.3112 5.72284 21.3126C5.53633 21.3121 5.34981 21.3114 5.1633 21.3104C5.03155 21.311 5.03155 21.311 4.89714 21.3116C4.28984 21.3029 4.28984 21.3029 3.99019 21.1276C3.84133 20.9494 3.8095 20.8678 3.81345 20.6375C3.81249 20.5817 3.81153 20.5258 3.81055 20.4682C3.99119 19.8647 4.65658 19.9625 5.1633 19.9647Z" fill="#379DFE"/>
<path d="M4.75066 22.8893C4.86438 22.8882 4.86438 22.8882 4.9804 22.8872C5.10321 22.8867 5.10321 22.8867 5.2285 22.8862C5.31279 22.8858 5.39708 22.8854 5.48393 22.8849C5.66242 22.8842 5.84092 22.8837 6.01941 22.8834C6.29209 22.8827 6.56473 22.8804 6.83739 22.8781C7.01081 22.8776 7.18423 22.8772 7.35765 22.8769C7.43907 22.876 7.52049 22.8751 7.60438 22.8741C8.01672 22.8753 8.33124 22.8809 8.68286 23.1239C8.79899 23.3562 8.80881 23.6146 8.75708 23.8661C8.601 24.0622 8.5124 24.153 8.26308 24.2007C8.1507 24.201 8.1507 24.201 8.03606 24.2014C7.90825 24.2028 7.90825 24.2028 7.77787 24.2042C7.68617 24.2036 7.59447 24.203 7.5 24.2024C7.40558 24.2027 7.31115 24.203 7.21387 24.2033C7.01419 24.2035 6.81462 24.2031 6.61495 24.2017C6.35937 24.2 6.10388 24.201 5.8483 24.2028C5.60411 24.2041 5.35992 24.2032 5.11572 24.2024C5.02403 24.203 4.93233 24.2036 4.83785 24.2042C4.75265 24.2033 4.66745 24.2024 4.57967 24.2014C4.50475 24.2012 4.42983 24.2009 4.35264 24.2007C4.1034 24.153 4.01521 24.0616 3.85864 23.8661C3.80461 23.6627 3.81601 23.4779 3.85864 23.2724C4.10595 22.9398 4.35274 22.8923 4.75066 22.8893Z" fill="#379DFE"/>
<path d="M4.58098 17.0738C4.66618 17.0728 4.75138 17.0719 4.83917 17.0709C4.93086 17.0715 5.02256 17.0721 5.11703 17.0727C5.21146 17.0725 5.30588 17.0722 5.40316 17.0719C5.60284 17.0717 5.80241 17.0721 6.00208 17.0735C6.25766 17.0752 6.51315 17.0742 6.76873 17.0724C7.01293 17.0711 7.25711 17.072 7.50131 17.0727C7.59301 17.0721 7.6847 17.0715 7.77918 17.0709C7.90698 17.0723 7.90698 17.0723 8.03737 17.0738C8.11229 17.074 8.1872 17.0742 8.26439 17.0745C8.51364 17.1221 8.60183 17.2136 8.75839 17.409C8.81243 17.6125 8.80103 17.7972 8.75839 18.0028C8.59456 18.2231 8.49967 18.287 8.23886 18.3739C8.11487 18.3815 7.99059 18.3849 7.86637 18.3859C7.79056 18.3866 7.71474 18.3873 7.63663 18.388C7.51382 18.3885 7.51382 18.3885 7.38853 18.389C7.30424 18.3894 7.21995 18.3898 7.1331 18.3902C6.95461 18.391 6.77612 18.3914 6.59762 18.3917C6.32494 18.3924 6.05231 18.3947 5.77964 18.3971C5.60622 18.3976 5.4328 18.398 5.25938 18.3982C5.17796 18.3992 5.09654 18.4001 5.01265 18.401C4.60031 18.3998 4.2858 18.3943 3.93417 18.1512C3.81804 17.919 3.80822 17.6606 3.85995 17.409C4.08345 17.1283 4.22624 17.0749 4.58098 17.0738Z" fill="#379DFE"/>
</svg>
