<svg width="38" height="39" viewBox="0 0 38 39" fill="none" xmlns="http://www.w3.org/2000/svg">
<g clip-path="url(#clip0_1237_1116)">
<path d="M0.85339 0.105704C0.912625 0.105793 0.97186 0.105882 1.03289 0.105973C1.09552 0.105776 1.15815 0.10558 1.22268 0.105377C1.43528 0.104802 1.64788 0.104764 1.86049 0.10472C2.01336 0.104422 2.16622 0.104093 2.31909 0.103734C2.74131 0.102843 3.16353 0.102426 3.58576 0.102088C4.04029 0.101647 4.49482 0.100785 4.94935 0.0999885C5.99615 0.098252 7.04296 0.0971729 8.08976 0.0962605C8.45182 0.0959449 8.81388 0.095606 9.17594 0.0952524C11.0998 0.0933777 13.0236 0.0917409 14.9475 0.0908194C15.3934 0.0906026 15.8394 0.0903823 16.2853 0.0901585C16.3407 0.0901309 16.3961 0.0901034 16.4532 0.090075C18.25 0.0891726 20.0467 0.0868757 21.8435 0.0837815C23.6897 0.0806079 25.5359 0.0786299 27.3822 0.0782412C27.6428 0.0781862 27.9034 0.0781187 28.164 0.0780439C28.2153 0.0780298 28.2666 0.0780157 28.3194 0.0780011C29.1459 0.07774 29.9723 0.0762321 30.7988 0.0742739C31.6291 0.0723362 32.4595 0.0717896 33.2898 0.0725744C33.7399 0.0729606 34.1899 0.0727365 34.64 0.070907C35.0517 0.0692476 35.4633 0.0692848 35.875 0.0706995C36.0243 0.0709087 36.1736 0.0704841 36.3229 0.0693774C36.5252 0.067969 36.7273 0.0688278 36.9296 0.0702727C37.0174 0.0688422 37.0174 0.0688422 37.107 0.0673828C37.4105 0.0721761 37.5382 0.102426 37.7746 0.299917C37.8245 0.361732 37.8743 0.423548 37.9257 0.487236C37.9502 0.511728 37.9747 0.53622 37.9999 0.561455C38.0076 0.75796 38.0104 0.952545 38.0101 1.1491C38.0103 1.21173 38.0105 1.27436 38.0107 1.33889C38.0113 1.55149 38.0113 1.76409 38.0114 1.9767C38.0117 2.12957 38.012 2.28243 38.0123 2.4353C38.0132 2.85752 38.0136 3.27974 38.014 3.70197C38.0144 4.1565 38.0153 4.61103 38.0161 5.06556C38.0178 6.11236 38.0189 7.15917 38.0198 8.20597C38.0201 8.56803 38.0205 8.93009 38.0208 9.29215C38.0227 11.216 38.0243 13.1399 38.0253 15.0637C38.0255 15.5096 38.0257 15.9556 38.0259 16.4015C38.0259 16.4569 38.026 16.5123 38.026 16.5694C38.0269 18.3662 38.0292 20.163 38.0323 21.9597C38.0355 23.806 38.0374 25.6522 38.0378 27.4984C38.0379 27.759 38.038 28.0196 38.038 28.2802C38.038 28.3315 38.0381 28.3828 38.0381 28.4356C38.0383 29.2621 38.0398 30.0886 38.0418 30.915C38.0437 31.7454 38.0443 32.5757 38.0435 33.406C38.0431 33.8561 38.0433 34.3062 38.0452 34.7562C38.0468 35.1679 38.0468 35.5795 38.0454 35.9912C38.0452 36.1405 38.0456 36.2898 38.0467 36.4391C38.0481 36.6414 38.0472 36.8435 38.0458 37.0458C38.0472 37.1336 38.0472 37.1336 38.0487 37.2232C38.0439 37.5267 38.0136 37.6544 37.8162 37.8908C37.7543 37.9407 37.6925 37.9905 37.6288 38.0419C37.6043 38.0664 37.5799 38.0909 37.5546 38.1161C37.3284 38.1248 37.1039 38.1286 36.8776 38.1293C36.771 38.13 36.771 38.13 36.6622 38.1308C36.4258 38.1322 36.1895 38.1331 35.9531 38.1338C35.8726 38.1341 35.792 38.1344 35.7091 38.1347C35.2828 38.1363 34.8565 38.1374 34.4301 38.138C33.9893 38.1389 33.5485 38.1414 33.1076 38.1444C32.7692 38.1463 32.4307 38.1469 32.0922 38.1472C31.9297 38.1476 31.7672 38.1484 31.6047 38.1498C31.3772 38.1516 31.1499 38.1515 30.9224 38.151C30.8551 38.152 30.7879 38.1529 30.7186 38.1539C30.4203 38.1514 30.2486 38.1402 29.986 37.9887C29.5681 37.517 29.6874 37.1408 29.6874 36.4833C22.6337 36.4833 15.5799 36.4833 8.31243 36.4833C8.31243 36.8017 8.31243 37.1201 8.31243 37.4482C8.20182 37.7689 8.0892 37.9517 7.7929 38.1161C7.55903 38.1503 7.32661 38.1481 7.09059 38.1473C7.01948 38.1479 6.94837 38.1486 6.8751 38.1492C6.63994 38.1509 6.40482 38.151 6.16966 38.1509C6.00623 38.1515 5.84281 38.152 5.67939 38.1526C5.3368 38.1536 4.99422 38.1538 4.65163 38.1533C4.21253 38.1529 3.77348 38.1552 3.33439 38.1582C2.99687 38.1601 2.65936 38.1603 2.32184 38.16C2.15995 38.1601 1.99805 38.1609 1.83616 38.1622C1.60978 38.1638 1.38353 38.1631 1.15715 38.1618C1.0568 38.1633 1.0568 38.1633 0.954409 38.1648C0.618648 38.1603 0.488815 38.1517 0.219841 37.9324C0.171763 37.8706 0.123685 37.8087 0.07415 37.745C0.0496579 37.7206 0.0251657 37.6961 -6.87018e-05 37.6708C-0.00775002 37.4743 -0.0105327 37.2797 -0.0102377 37.0832C-0.0104345 37.0206 -0.0106314 36.9579 -0.0108341 36.8934C-0.0114085 36.6808 -0.0114467 36.4682 -0.0114909 36.2556C-0.0117886 36.1027 -0.012118 35.9498 -0.0124765 35.797C-0.0133675 35.3748 -0.0137845 34.9525 -0.0141228 34.5303C-0.0145638 34.0758 -0.0154256 33.6213 -0.0162224 33.1667C-0.0179589 32.1199 -0.0190381 31.0731 -0.0199505 30.0263C-0.0202661 29.6643 -0.0206049 29.3022 -0.0209586 28.9401C-0.0228332 27.0163 -0.02447 25.0924 -0.0253915 23.1686C-0.0256083 22.7226 -0.0258286 22.2767 -0.0260524 21.8308C-0.0260937 21.7477 -0.0260938 21.7477 -0.0261359 21.6629C-0.0270383 19.8661 -0.0293353 18.0693 -0.0324295 16.2725C-0.0356031 14.4263 -0.0375811 12.5801 -0.0379698 10.7339C-0.0380247 10.4733 -0.0380922 10.2127 -0.038167 9.95209C-0.0381811 9.9008 -0.0381953 9.84951 -0.0382098 9.79666C-0.0384709 8.97019 -0.0399789 8.14372 -0.0419371 7.31726C-0.0438748 6.48693 -0.0444213 5.65662 -0.0436366 4.82629C-0.0432503 4.3762 -0.0434744 3.92613 -0.0453039 3.47605C-0.0469633 3.06437 -0.0469261 2.65274 -0.0455114 2.24107C-0.0453022 2.09178 -0.0457269 1.94249 -0.0468335 1.7932C-0.048242 1.59091 -0.0473831 1.38875 -0.0459382 1.18646C-0.0468919 1.12792 -0.0478456 1.06938 -0.0488281 1.00907C-0.0440348 0.705566 -0.0137852 0.577873 0.183706 0.341484C0.245522 0.291613 0.307337 0.241743 0.371025 0.190361C0.502561 0.0588251 0.67814 0.106565 0.85339 0.105704ZM1.70696 1.82317C1.70696 13.2365 1.70696 24.6499 1.70696 36.4091C3.32345 36.4091 4.93993 36.4091 6.6054 36.4091C6.60567 36.065 6.60594 35.7208 6.60622 35.3663C6.60884 32.2124 6.61292 29.0585 6.61861 25.9046C6.61935 25.4915 6.62008 25.0783 6.6208 24.6652C6.62102 24.5418 6.62102 24.5418 6.62124 24.416C6.62354 23.0832 6.6248 21.7504 6.62568 20.4176C6.6266 19.0507 6.62864 17.6837 6.63172 16.3167C6.63359 15.4729 6.63458 14.629 6.63445 13.7851C6.63445 13.2069 6.63553 12.6286 6.63748 12.0504C6.63856 11.7165 6.63917 11.3826 6.63849 11.0487C6.63787 10.7432 6.63862 10.4377 6.64046 10.1322C6.64088 10.0216 6.6408 9.91086 6.64017 9.80018C6.63939 9.65 6.64061 9.49982 6.64193 9.34964C6.64204 9.26614 6.64216 9.18264 6.64227 9.0966C6.68807 8.82357 6.78579 8.69982 6.97649 8.50286C7.16642 8.4079 7.30032 8.41907 7.51307 8.41868C7.63727 8.41818 7.63727 8.41818 7.76397 8.41768C7.90156 8.4177 7.90156 8.4177 8.04193 8.41772C8.13878 8.41745 8.23563 8.41717 8.33541 8.41689C8.60515 8.41615 8.87488 8.41587 9.14462 8.41568C9.43517 8.41539 9.72573 8.41468 10.0163 8.41403C10.7184 8.41256 11.4205 8.41181 12.1227 8.41115C12.4531 8.41083 12.7835 8.41043 13.1139 8.41004C14.2118 8.40878 15.3098 8.4077 16.4077 8.40716C16.6928 8.40702 16.9778 8.40688 17.2628 8.40674C17.3337 8.4067 17.4045 8.40666 17.4775 8.40663C18.6258 8.40601 19.774 8.40413 20.9222 8.40172C22.1003 8.39927 23.2784 8.39793 24.4565 8.39769C25.1183 8.39753 25.7801 8.39688 26.4418 8.39499C27.0053 8.39338 27.5688 8.39277 28.1322 8.3935C28.4198 8.39384 28.7074 8.39369 28.995 8.39225C29.3066 8.39071 29.6181 8.39146 29.9297 8.39244C30.0209 8.39163 30.1121 8.39081 30.2061 8.38998C30.8172 8.39464 30.8172 8.39464 31.1149 8.57006C31.3339 8.82973 31.3297 8.98642 31.3305 9.32225C31.3309 9.41846 31.3313 9.51467 31.3318 9.6138C31.3318 9.72158 31.3319 9.82936 31.332 9.93715C31.3323 10.0509 31.3327 10.1646 31.3331 10.2783C31.3341 10.5919 31.3347 10.9055 31.3351 11.2191C31.3357 11.5568 31.3367 11.8946 31.3377 12.2323C31.3393 12.8179 31.3407 13.4035 31.3418 13.989C31.3435 14.8357 31.3456 15.6823 31.3478 16.529C31.3513 17.9025 31.3545 19.2759 31.3576 20.6494C31.3605 21.984 31.3635 23.3185 31.3668 24.653C31.367 24.7352 31.3672 24.8174 31.3674 24.9021C31.3685 25.3145 31.3695 25.7269 31.3705 26.1393C31.379 29.5626 31.3869 32.9858 31.3945 36.4091C33.0109 36.4091 34.6274 36.4091 36.2929 36.4091C36.2929 24.9958 36.2929 13.5824 36.2929 1.82317C24.8795 1.82317 13.4662 1.82317 1.70696 1.82317ZM8.31243 10.0615C8.31243 18.2174 8.31243 26.3733 8.31243 34.7763C11.5454 34.7763 14.7784 34.7763 18.1093 34.7763C18.1093 26.6204 18.1093 18.4645 18.1093 10.0615C14.8763 10.0615 11.6434 10.0615 8.31243 10.0615ZM19.8906 10.0615C19.8906 18.2174 19.8906 26.3733 19.8906 34.7763C23.1235 34.7763 26.3565 34.7763 29.6874 34.7763C29.6874 26.6204 29.6874 18.4645 29.6874 10.0615C26.4545 10.0615 23.2215 10.0615 19.8906 10.0615Z" fill="#379DFE"/>
<path d="M14.4732 3.45592C14.7045 3.61813 14.9016 3.80825 15.1004 4.00843C15.2329 4.14145 15.3676 4.27206 15.5024 4.40279C15.6032 4.50145 15.7039 4.60021 15.8045 4.69908C15.8528 4.7464 15.9011 4.79373 15.9509 4.84248C16.5314 5.42227 16.5314 5.42227 16.5792 5.86803C16.5423 6.21238 16.4407 6.39429 16.1895 6.62877C15.9995 6.74052 15.8822 6.78546 15.6607 6.79576C15.0106 6.59951 14.5648 6.08253 14.1021 5.60826C13.7638 5.74215 13.5497 6.00835 13.3102 6.27058C13.0469 6.54658 12.8253 6.67735 12.4693 6.79576C12.0604 6.73937 11.8307 6.60238 11.5787 6.27623C11.4655 5.95083 11.5135 5.75584 11.653 5.44594C11.7753 5.22387 11.9458 5.05178 12.1254 4.87622C12.1638 4.83777 12.2021 4.79932 12.2416 4.75971C12.3222 4.67922 12.4032 4.59909 12.4845 4.51932C12.6085 4.39751 12.731 4.27436 12.8534 4.15099C12.9323 4.07258 13.0113 3.99426 13.0903 3.91602C13.1448 3.86117 13.1448 3.86117 13.2004 3.80521C13.5758 3.43996 13.9595 3.26262 14.4732 3.45592Z" fill="#379DFE"/>
<path d="M22.7114 3.45595C22.934 3.60548 23.1171 3.78521 23.3052 3.97548C23.361 4.03039 23.4169 4.08531 23.4745 4.14189C23.6172 4.28314 23.7586 4.42555 23.8989 4.56923C24.1149 4.47271 24.2561 4.37473 24.4124 4.19784C24.4717 4.13377 24.4717 4.13377 24.5322 4.0684C24.6136 3.97918 24.694 3.88911 24.7735 3.79819C25.0569 3.49646 25.2654 3.39967 25.6794 3.37256C25.975 3.39073 26.1319 3.53414 26.3296 3.7389C26.4513 3.95184 26.4869 4.10052 26.4966 4.34657C26.3575 4.74567 26.1918 4.98458 25.8866 5.28503C25.8496 5.32183 25.8125 5.35864 25.7743 5.39655C25.657 5.51269 25.5387 5.62773 25.4204 5.74281C25.341 5.82136 25.2617 5.89998 25.1824 5.97866C24.3827 6.76788 24.3827 6.76788 23.8989 6.79579C23.5011 6.65859 23.238 6.4747 22.9442 6.17218C22.9058 6.13366 22.8673 6.09514 22.8277 6.05546C22.7472 5.97453 22.6671 5.89324 22.5873 5.81161C22.4654 5.68696 22.3423 5.56356 22.219 5.44028C22.1406 5.36116 22.0623 5.28196 21.984 5.2027C21.9292 5.1476 21.9292 5.1476 21.8732 5.09139C21.6044 4.81508 21.4645 4.62855 21.4219 4.24452C21.4552 3.92219 21.5363 3.77459 21.7466 3.53016C22.0507 3.33587 22.3758 3.34012 22.7114 3.45595Z" fill="#379DFE"/>
<path d="M34.215 19.9326C34.4443 20.0643 34.5514 20.1726 34.6882 20.3964C34.7526 20.6798 34.7458 20.9159 34.6603 21.1943C34.4727 21.4616 34.3139 21.5819 33.997 21.6396C33.695 21.659 33.5014 21.5922 33.2502 21.4169C33.0347 21.1656 32.9843 20.9321 32.9956 20.6005C33.0532 20.3325 33.2049 20.1958 33.3986 20.0068C33.6558 19.8782 33.9338 19.8975 34.215 19.9326Z" fill="#379DFE"/>
<path d="M34.2894 16.6669C34.5566 16.8545 34.677 17.0133 34.7347 17.3302C34.7589 17.6979 34.6302 17.9406 34.3914 18.2162C34.1121 18.3485 33.8496 18.3572 33.5472 18.2997C33.3194 18.1721 33.1461 18.0171 33.0276 17.7802C32.9984 17.429 32.994 17.2536 33.1529 16.9359C33.4791 16.5656 33.8298 16.5257 34.2894 16.6669Z" fill="#379DFE"/>
</g>
<defs>
<clipPath id="clip0_1237_1116">
<rect width="38" height="38" fill="white" transform="translate(0 0.116089)"/>
</clipPath>
</defs>
</svg>
