<svg width="38" height="39" viewBox="0 0 38 39" fill="none" xmlns="http://www.w3.org/2000/svg">
<path d="M20.0028 24.599C20.0028 20.953 17.0366 17.9868 13.3906 17.9868V18.729C16.6274 18.729 19.2607 21.3622 19.2607 24.599H20.0028Z" fill="#379DFE"/>
<path d="M1.94795 24.3504H8.00354V17.2936H11.0389V20.2197C11.0389 22.0916 11.8236 23.8985 13.1918 25.1771C14.6312 26.5222 15.4567 28.3823 15.4567 30.2805V33.9187H16.1989V30.2805C16.1989 28.1776 15.2876 26.1197 13.6986 24.6349C12.48 23.4961 11.7811 21.8868 11.7811 20.2197V16.4122C11.7811 15.3993 12.6052 14.5752 13.618 14.5752H18.1325C18.3196 14.5752 18.4719 14.7275 18.4719 14.9146C18.4719 15.8491 17.7116 16.6094 16.777 16.6094H13.4212V17.3516H16.777C17.439 17.3516 18.0398 17.086 18.4794 16.6562C18.8332 16.9741 19.2959 17.1576 19.7924 17.1576C20.4499 17.1576 21.0328 16.8335 21.3907 16.3371C21.7485 16.8335 22.3311 17.1576 22.9882 17.1576C23.801 17.1576 24.5002 16.6629 24.8007 15.9591H25.4947V23.1674C25.4947 23.8415 25.2816 24.4825 24.8786 25.0207C24.1489 25.9946 23.7631 27.1209 23.7631 28.2781V33.9187H24.5053V28.2781C24.5053 27.2827 24.8398 26.3102 25.4726 25.4657C25.9726 24.7979 26.2369 24.0031 26.2369 23.1674V15.9591H29.9972V16.5515H27.2447V17.2937H29.9972V24.3505H36.0528V19.8755L37.4929 18.1044V10.5596L36.0528 8.78842V4.31348H29.9972V12.7049H24.9578V10.7505C24.9578 10.2249 24.7529 9.73041 24.3811 9.35857C24.0098 8.98607 23.5153 8.781 22.9883 8.781C22.5203 8.781 22.0902 8.94554 21.752 9.21941C21.707 8.76801 21.5095 8.35001 21.1848 8.02649C20.8127 7.65429 20.3181 7.44937 19.7924 7.44937C19.1355 7.44937 18.5531 7.77318 18.1953 8.26941C18.1336 8.18398 18.0649 8.10257 17.9889 8.02657C17.6166 7.65436 17.1225 7.44944 16.5974 7.44944C15.5793 7.44944 14.739 8.22599 14.6381 9.218C14.2894 8.935 13.8577 8.78107 13.4015 8.78107C12.3155 8.78107 11.432 9.66457 11.432 10.7506V13.076H12.1742V10.7506C12.1742 10.0739 12.7247 9.52326 13.4015 9.52326C13.7297 9.52326 14.0377 9.65092 14.2691 9.88307C14.5005 10.1144 14.6279 10.4226 14.6279 10.7506H15.37V9.41891C15.37 8.74218 15.9206 8.19163 16.5974 8.19163C16.9243 8.19163 17.232 8.31943 17.464 8.55144C17.696 8.78345 17.8238 9.09153 17.8238 9.41891V10.3821H18.566V9.41891C18.566 8.74218 19.1162 8.19163 19.7923 8.19163C20.1198 8.19163 20.4278 8.31936 20.6603 8.55189C20.892 8.78278 21.0196 9.09079 21.0196 9.41898V10.7507H21.7618C21.7618 10.074 22.3119 9.52334 22.9882 9.52334C23.3164 9.52334 23.6243 9.65099 23.8557 9.88315C24.0877 10.1152 24.2155 10.4232 24.2155 10.7507V15.189C24.2155 15.8653 23.6649 16.4154 22.9882 16.4154C22.3119 16.4154 21.7618 15.8653 21.7618 15.189V12.2492H21.0196V15.189C21.0196 15.8653 20.469 16.4154 19.7923 16.4154C19.4607 16.4154 19.1533 16.2841 18.9278 16.059C19.1102 15.7176 19.214 15.3281 19.214 14.9147C19.214 14.4725 18.9469 14.0919 18.566 13.9244V11.4247H17.8238V13.833H15.37V12.2414H14.6279V13.833H13.618C12.627 13.833 11.7654 14.3951 11.3337 15.2169H8.00354V13.4471H10.4537V12.7049H8.00354V4.31348H1.94795V8.78842L0.507812 10.5596V18.1043L1.94795 19.8754V24.3504ZM36.7508 10.8233V17.8407L36.0528 18.6991V9.96479L36.7508 10.8233ZM30.7394 5.05566H32.654V21.1369H33.3961V5.05566H35.3106V7.87561V20.7883V23.6082H33.3961V22.1996H32.654V23.6082H30.7394V15.959V12.7049V5.05566ZM29.9972 13.4471V15.2168H24.9571C24.9573 15.2075 24.9578 15.1983 24.9578 15.1889V13.4471H29.9972ZM11.0795 15.959C11.0533 16.1062 11.0389 16.2574 11.0389 16.4121V16.5514H8.00354V15.959H11.0795ZM2.69014 5.05566H4.60461V6.46426H5.3468V5.05566H7.26135V12.7049V15.959V23.6082H5.3468V7.527H4.60461V23.6083H2.69014V20.7883V7.87561V5.05566ZM1.25 17.8406V10.8232L1.94795 9.96486V18.699L1.25 17.8406Z" fill="#379DFE"/>
</svg>
