<svg width="38" height="39" viewBox="0 0 38 39" fill="none" xmlns="http://www.w3.org/2000/svg">
<g clip-path="url(#clip0_1237_1106)">
<path d="M3.6181 0.584595C3.78509 0.709839 3.78509 0.709839 3.93353 0.932495C3.92421 1.1217 3.92421 1.1217 3.8912 1.34824C3.83937 1.89704 3.79718 2.41623 4.00774 2.9364C4.51006 3.46609 5.19629 3.77538 5.85415 4.07197C6.27964 4.30361 6.27964 4.30361 6.45696 4.56921C6.50845 4.91647 6.50013 5.26202 6.4932 5.61205C6.49251 5.71468 6.49198 5.81732 6.49161 5.91996C6.4902 6.18928 6.48656 6.45852 6.48244 6.7278C6.47864 7.00292 6.47695 7.27805 6.47508 7.55318C6.47111 8.09242 6.46478 8.63159 6.45696 9.17078C6.77689 9.12452 7.09674 9.07782 7.41659 9.03104C7.50649 9.01804 7.59639 9.00505 7.68902 8.99166C9.19729 8.77035 10.5328 8.36184 11.9028 7.69104C15.7477 5.81159 19.9855 5.4655 24.0561 6.8378C24.796 7.10105 25.5007 7.43201 26.2084 7.7699C27.7637 8.51192 29.307 8.87567 31.0121 9.10054C31.0633 9.10734 31.1146 9.11413 31.1674 9.12113C31.2925 9.13772 31.4177 9.15425 31.5429 9.17078C31.5421 9.11395 31.5413 9.05713 31.5404 8.99858C31.533 8.46242 31.5273 7.92629 31.5237 7.3901C31.5217 7.11444 31.5191 6.83884 31.5149 6.56321C31.5109 6.29709 31.5087 6.031 31.5077 5.76485C31.507 5.66344 31.5057 5.56203 31.5037 5.46064C31.4882 4.6467 31.4882 4.6467 31.7101 4.33228C31.7774 4.28801 31.8447 4.24373 31.914 4.19812C31.9683 4.15879 32.0226 4.11947 32.0785 4.07895C32.1328 4.04547 32.1871 4.01199 32.243 3.97749C32.3035 3.93985 32.3639 3.9022 32.4261 3.86341C32.4883 3.82538 32.5504 3.78735 32.6144 3.74817C32.7381 3.67158 32.8617 3.59495 32.9852 3.51826C33.0435 3.48238 33.1017 3.44649 33.1618 3.40951C33.3043 3.31996 33.4433 3.22709 33.5819 3.13152C33.7695 3.01062 33.7695 3.01062 33.9179 3.01062C33.9167 2.95674 33.9156 2.90287 33.9144 2.84736C33.9097 2.60182 33.9068 2.35629 33.904 2.11072C33.9012 1.98357 33.9012 1.98357 33.8983 1.85385C33.8914 1.06267 33.8914 1.06267 34.1406 0.709839C34.3418 0.546708 34.4738 0.492825 34.7297 0.454712C35.0173 0.495797 35.1762 0.605319 35.4023 0.784058C35.5043 0.988019 35.4584 1.11573 35.4269 1.34099C35.3766 1.89221 35.3381 2.4149 35.5507 2.9364C36.0531 3.46612 36.7392 3.77535 37.3971 4.07197C37.6574 4.21366 37.8119 4.33964 37.9999 4.56921C38.0365 4.77019 38.05 4.92457 38.0466 5.125C38.0472 5.18058 38.0477 5.23616 38.0483 5.29342C38.0496 5.48029 38.0483 5.66705 38.0471 5.85392C38.0475 5.98898 38.0481 6.12404 38.0488 6.2591C38.0504 6.63074 38.0496 7.00234 38.0484 7.37398C38.0476 7.77457 38.0489 8.17516 38.0499 8.57576C38.0516 9.36071 38.0512 10.1457 38.0501 10.9306C38.0493 11.5684 38.0492 12.2062 38.0496 12.844C38.0497 12.98 38.0497 12.98 38.0498 13.1188C38.0499 13.303 38.05 13.4872 38.0501 13.6714C38.0512 15.3998 38.05 17.1281 38.048 18.8565C38.0463 20.3404 38.0466 21.8242 38.0483 23.3081C38.0503 25.0302 38.0511 26.7522 38.0499 28.4743C38.0498 28.6578 38.0497 28.8414 38.0496 29.0249C38.0495 29.1604 38.0495 29.1604 38.0494 29.2986C38.0491 29.9358 38.0496 30.573 38.0505 31.2102C38.0515 31.9865 38.0513 32.7628 38.0493 33.5391C38.0483 33.9354 38.0479 34.3316 38.0492 34.7279C38.0503 35.0904 38.0497 35.4529 38.0477 35.8153C38.0473 35.9467 38.0475 36.0782 38.0484 36.2095C38.0495 36.3877 38.0484 36.5657 38.0466 36.7439C38.0475 36.7953 38.0484 36.8468 38.0493 36.8997C38.0437 37.1837 38.0049 37.2936 37.8207 37.5153C37.5074 37.7692 37.2758 37.7557 36.8861 37.755C36.8237 37.7551 36.7613 37.7553 36.6969 37.7555C36.4854 37.756 36.2739 37.7559 36.0624 37.7559C35.9101 37.7562 35.7578 37.7564 35.6056 37.7567C35.1853 37.7575 34.7651 37.7578 34.3449 37.758C33.8924 37.7583 33.4399 37.759 32.9874 37.7596C31.9454 37.761 30.9035 37.7618 29.8615 37.7624C29.3468 37.7627 28.8321 37.7631 28.3175 37.7635C26.5563 37.7648 24.7951 37.7659 23.034 37.7665C22.9234 37.7665 22.8128 37.7665 22.7022 37.7666C22.6473 37.7666 22.5925 37.7666 22.5359 37.7666C22.258 37.7667 21.9801 37.7668 21.7022 37.7669C21.6195 37.7669 21.6195 37.7669 21.5351 37.767C19.7466 37.7675 17.958 37.7693 16.1694 37.7717C14.2793 37.7742 12.3892 37.7757 10.499 37.7759C10.2916 37.776 10.0842 37.776 9.87682 37.7761C9.80021 37.7761 9.80021 37.7761 9.72206 37.7761C8.8994 37.7763 8.07675 37.7774 7.2541 37.7789C6.42752 37.7804 5.60096 37.7808 4.77438 37.7801C4.32639 37.7798 3.87841 37.7799 3.43042 37.7814C3.02058 37.7827 2.61077 37.7826 2.20093 37.7815C2.05239 37.7813 1.90385 37.7816 1.75531 37.7825C1.55387 37.7836 1.35251 37.7829 1.15108 37.7817C1.09299 37.7825 1.0349 37.7832 0.975058 37.784C0.590603 37.7791 0.369656 37.6926 0.0741502 37.4481C-0.0348667 37.2301 -0.0106462 37.0103 -0.0102377 36.7713C-0.0104346 36.716 -0.0106312 36.6606 -0.010834 36.6036C-0.0114072 36.4164 -0.0114466 36.2291 -0.0114908 36.0418C-0.0117887 35.9069 -0.012118 35.772 -0.0124764 35.6371C-0.0133665 35.265 -0.0137842 34.8929 -0.0141227 34.5208C-0.014564 34.12 -0.0154258 33.7193 -0.0162224 33.3185C-0.0180442 32.35 -0.0191282 31.3815 -0.0200861 30.413C-0.0203615 30.1396 -0.0206564 29.8662 -0.0209584 29.5929C-0.0228312 27.8966 -0.0244687 26.2004 -0.0253916 24.5041C-0.025609 24.1111 -0.0258287 23.718 -0.0260524 23.3249C-0.0261077 23.2272 -0.0261632 23.1295 -0.0262203 23.0288C-0.02716 21.4451 -0.0296264 19.8613 -0.0327173 18.2775C-0.0358621 16.6529 -0.0376144 15.0283 -0.0380027 13.4037C-0.0382564 12.4909 -0.0391335 11.5782 -0.0415728 10.6655C-0.0436462 9.88836 -0.0444695 9.11126 -0.0436365 8.33415C-0.0432504 7.93742 -0.0434736 7.54071 -0.0453038 7.14399C-0.0469641 6.78107 -0.0469254 6.4182 -0.0455114 6.05528C-0.0453023 5.92372 -0.0457262 5.79216 -0.0468335 5.66061C-0.0482436 5.48223 -0.0473822 5.304 -0.0459383 5.12563C-0.046892 5.07413 -0.0478456 5.02264 -0.0488281 4.96958C-0.0437688 4.68658 -0.00618517 4.57652 0.178063 4.35634C0.347911 4.21707 0.513317 4.09264 0.700081 3.97749C0.790707 3.92102 0.790707 3.92102 0.883164 3.86341C0.945303 3.82538 1.00744 3.78735 1.07146 3.74817C1.1951 3.67158 1.3187 3.59495 1.44227 3.51826C1.50052 3.48238 1.55877 3.44649 1.61879 3.40951C1.76134 3.31996 1.90038 3.22709 2.03892 3.13152C2.22649 3.01062 2.22649 3.01062 2.37493 3.01062C2.37338 2.9545 2.37182 2.89837 2.37022 2.84055C2.36403 2.58491 2.36018 2.32929 2.35638 2.07361C2.35389 1.9853 2.3514 1.897 2.34884 1.80602C2.33973 0.991147 2.33973 0.991147 2.67181 0.63562C2.97057 0.41653 3.29085 0.428411 3.6181 0.584595ZM2.76429 4.55501C2.69478 4.5982 2.62528 4.6414 2.55367 4.68591C2.48091 4.73159 2.40815 4.77727 2.33318 4.82434C2.26014 4.86974 2.18709 4.91513 2.11183 4.96191C1.78103 5.15127 1.78103 5.15127 1.48431 5.38562C1.47737 5.50636 1.47559 5.62739 1.47588 5.74832C1.47589 5.82559 1.47589 5.90285 1.4759 5.98245C1.47628 6.06649 1.47666 6.15052 1.47706 6.23711C1.47716 6.32266 1.47727 6.40822 1.47738 6.49637C1.47779 6.7709 1.47873 7.04542 1.47967 7.31995C1.48004 7.50554 1.48038 7.69114 1.48068 7.87673C1.48144 8.33282 1.48289 8.7889 1.48431 9.245C2.61095 9.245 3.73759 9.245 4.89837 9.245C4.93615 8.70102 4.96844 8.16163 4.98806 7.61738C4.99623 7.43303 5.00734 7.24879 5.02155 7.0648C5.09635 6.17211 5.09635 6.17211 4.89837 5.3114C4.47289 4.83589 3.86271 4.55053 3.26556 4.34656C3.05367 4.34656 2.94353 4.44321 2.76429 4.55501ZM33.2571 5.12908C32.7659 5.70463 32.9525 6.63852 33.0041 7.3385C33.0119 7.52358 33.019 7.7087 33.0254 7.89384C33.0412 8.34566 33.0715 8.79302 33.1015 9.245C34.2281 9.245 35.3548 9.245 36.5156 9.245C36.8161 7.10887 36.8161 7.10887 36.3504 5.10085C35.3251 4.109 34.2863 4.27782 33.2571 5.12908ZM19.7421 7.53796C19.7421 9.71777 19.7421 11.8976 19.7421 14.1434C22.7792 14.1434 25.8162 14.1434 28.9452 14.1434C28.9743 13.4876 28.9743 13.4876 28.6484 13.0302C28.0945 12.6119 27.6173 12.6132 26.9413 12.6591C26.1618 12.7897 25.4328 13.0989 24.7041 13.3948C24.5989 13.4375 24.5989 13.4375 24.4915 13.481C24.4291 13.5067 24.3666 13.5324 24.3022 13.5589C23.5993 13.8112 22.6929 13.8136 21.9965 13.545C21.3881 13.2483 21.033 12.8365 20.7812 12.2137C20.58 11.6102 20.6279 10.8827 20.8971 10.3119C21.2441 9.71636 21.6292 9.43714 22.2815 9.2218C22.7016 9.1181 23.0731 9.09382 23.4531 9.31921C23.6418 9.57407 23.6235 9.82799 23.6015 10.1356C23.5401 10.3249 23.4954 10.4032 23.3325 10.516C23.1741 10.5743 23.0286 10.6074 22.8639 10.6412C22.5493 10.7183 22.3807 10.8282 22.1913 11.1005C22.1449 11.3932 22.1211 11.5703 22.2676 11.8287C22.4613 12.0736 22.616 12.186 22.9248 12.2366C23.6748 12.2798 24.366 11.9388 25.0482 11.6641C26.2713 11.1736 27.6146 10.9214 28.8881 11.3779C29.196 11.5182 29.4425 11.6843 29.6874 11.9169C29.7285 11.9558 29.7695 11.9947 29.8118 12.0349C30.3879 12.6424 30.4694 13.3342 30.5038 14.1434C30.8467 14.1434 31.1896 14.1434 31.5429 14.1434C31.5429 13.0168 31.5429 11.8902 31.5429 10.7294C31.272 10.7003 31.001 10.6712 30.7219 10.6412C28.7736 10.414 27.0053 9.91908 25.2461 9.05331C24.2835 8.58157 23.3168 8.23408 22.2795 7.96472C22.2136 7.94732 22.1478 7.92992 22.08 7.91199C21.3037 7.72133 20.5462 7.64761 19.7421 7.53796ZM17.0778 7.6777C17.0001 7.69214 16.9224 7.70658 16.8423 7.72146C16.7209 7.74544 16.7209 7.74544 16.5971 7.7699C16.5123 7.7865 16.4275 7.80311 16.3401 7.82022C15.599 7.97085 14.8864 8.17125 14.1757 8.42859C14.0853 8.46112 13.9949 8.49365 13.9017 8.52716C13.4023 8.71794 12.9244 8.93887 12.4446 9.17373C10.5158 10.1164 8.58405 10.4888 6.45696 10.7294C6.45696 11.856 6.45696 12.9827 6.45696 14.1434C6.75087 14.1434 7.04478 14.1434 7.34759 14.1434C7.3572 14.0358 7.3572 14.0358 7.36701 13.926C7.45469 13.1135 7.6317 12.4357 8.23821 11.8427C9.17774 11.1598 10.1629 11.0573 11.2926 11.194C12.2158 11.3408 13.0807 11.7202 13.9395 12.0745C14.3439 12.2369 14.7081 12.2588 15.1406 12.2137C15.3877 12.0923 15.5264 11.9979 15.6879 11.7777C15.753 11.5565 15.7665 11.4049 15.7343 11.1747C15.5725 10.8901 15.4763 10.7675 15.1646 10.6624C15.022 10.6274 14.8784 10.596 14.7341 10.5688C14.5042 10.4926 14.4385 10.4212 14.3242 10.2098C14.2697 9.90675 14.2779 9.63006 14.4216 9.35632C14.6685 9.13679 14.9413 9.15026 15.2542 9.15483C15.7697 9.19969 16.2519 9.40403 16.6249 9.76453C17.1631 10.4242 17.2978 11.0753 17.2187 11.9169C17.0931 12.4524 16.8214 12.8963 16.4023 13.2528C15.6248 13.7344 14.8118 13.8108 13.9188 13.6526C13.323 13.492 12.7536 13.2569 12.1859 13.0167C11.3754 12.6784 10.4157 12.4427 9.56487 12.7797C9.27446 12.934 9.12035 13.098 8.9804 13.4012C8.88969 13.7784 8.88969 13.7784 8.9804 14.1434C12.0174 14.1434 15.0545 14.1434 18.1835 14.1434C18.1835 11.9881 18.1835 9.83281 18.1835 7.61218C17.6179 7.60903 17.6179 7.60903 17.0778 7.6777ZM1.48431 10.8036C1.48431 16.4123 1.48431 22.021 1.48431 27.7997C2.61095 27.7997 3.73759 27.7997 4.89837 27.7997C4.89837 22.191 4.89837 16.5823 4.89837 10.8036C3.77173 10.8036 2.64509 10.8036 1.48431 10.8036ZM33.1015 10.8036C33.1015 16.4123 33.1015 22.021 33.1015 27.7997C34.2281 27.7997 35.3548 27.7997 36.5156 27.7997C36.5156 22.191 36.5156 16.5823 36.5156 10.8036C35.3889 10.8036 34.2623 10.8036 33.1015 10.8036ZM6.45696 15.702C6.45696 18.9105 6.45696 22.119 6.45696 25.4247C7.38767 25.4247 8.31837 25.4247 9.27728 25.4247C9.28005 25.12 9.28282 24.8152 9.28568 24.5013C9.28851 24.2573 9.29156 24.0133 9.29476 23.7693C9.29806 23.5123 9.30099 23.2554 9.30299 22.9983C9.3053 22.703 9.30936 22.4077 9.31351 22.1124C9.31399 22.0209 9.31446 21.9294 9.31495 21.8352C9.32289 21.3699 9.34018 21.008 9.57415 20.6005C9.8037 20.4184 10.0308 20.4229 10.3163 20.452C10.6601 20.6201 10.6601 20.6201 10.7617 20.8231C10.7706 20.9694 10.7748 21.1159 10.7769 21.2624C10.7791 21.4006 10.7791 21.4006 10.7814 21.5415C10.7826 21.6424 10.7839 21.7433 10.7851 21.8442C10.7867 21.9472 10.7882 22.0501 10.7898 22.1531C10.7939 22.4242 10.7976 22.6953 10.8012 22.9664C10.8049 23.243 10.809 23.5196 10.8131 23.7962C10.8211 24.339 10.8285 24.8819 10.8359 25.4247C11.7666 25.4247 12.6973 25.4247 13.6562 25.4247C13.6562 22.2162 13.6562 19.0077 13.6562 15.702C11.2804 15.702 8.9047 15.702 6.45696 15.702ZM15.2148 15.702C15.2148 18.9105 15.2148 22.119 15.2148 25.4247C16.1945 25.4247 17.1742 25.4247 18.1835 25.4247C18.1835 22.2162 18.1835 19.0077 18.1835 15.702C17.2038 15.702 16.2241 15.702 15.2148 15.702ZM19.7421 15.702C19.7421 18.9105 19.7421 22.119 19.7421 25.4247C20.7463 25.4247 21.7505 25.4247 22.7851 25.4247C22.7851 22.2162 22.7851 19.0077 22.7851 15.702C21.7809 15.702 20.7767 15.702 19.7421 15.702ZM24.3437 15.702C24.3437 18.9105 24.3437 22.119 24.3437 25.4247C25.2744 25.4247 26.2051 25.4247 27.164 25.4247C27.164 22.2162 27.164 19.0077 27.164 15.702C26.2333 15.702 25.3026 15.702 24.3437 15.702ZM28.7226 15.702C28.7226 18.9105 28.7226 22.119 28.7226 25.4247C29.6533 25.4247 30.584 25.4247 31.5429 25.4247C31.5429 22.2162 31.5429 19.0077 31.5429 15.702C30.6122 15.702 29.6815 15.702 28.7226 15.702ZM6.45696 26.9833C6.45696 27.2527 6.45696 27.5221 6.45696 27.7997C6.56105 27.8181 6.66515 27.8364 6.77239 27.8553C7.07025 27.9209 7.2336 27.9941 7.42181 28.245C7.50756 28.4165 7.50617 28.5162 7.50777 28.7071C7.50849 28.7728 7.50922 28.8384 7.50997 28.906C7.51039 28.9785 7.51082 29.051 7.51126 29.1257C7.51201 29.2029 7.51275 29.2802 7.51352 29.3598C7.51586 29.6107 7.51769 29.8617 7.51951 30.1126C7.52087 30.2672 7.52227 30.4218 7.5237 30.5764C7.52879 31.1507 7.53324 31.7249 7.53777 32.2992C7.54849 33.582 7.5592 34.8647 7.57024 36.1864C11.0726 36.1864 14.575 36.1864 18.1835 36.1864C18.1835 33.1494 18.1835 30.1123 18.1835 26.9833C14.3138 26.9833 10.444 26.9833 6.45696 26.9833ZM19.7421 26.9833C19.7421 30.0203 19.7421 33.0573 19.7421 36.1864C23.269 36.1864 26.7959 36.1864 30.4296 36.1864C30.4452 33.6384 30.4452 33.6384 30.4584 31.0905C30.4621 30.5975 30.4621 30.5975 30.4641 30.3666C30.4653 30.2055 30.4661 30.0444 30.4665 29.8833C30.4672 29.6392 30.4693 29.3951 30.4717 29.1509C30.4716 29.0793 30.4715 29.0076 30.4714 28.9337C30.4765 28.5704 30.4871 28.3159 30.7265 28.0223C30.9727 27.8465 31.2477 27.8337 31.5429 27.7997C31.5429 27.5303 31.5429 27.2609 31.5429 26.9833C27.6486 26.9833 23.7544 26.9833 19.7421 26.9833ZM1.48431 29.3583C1.48431 31.6116 1.48431 33.8648 1.48431 36.1864C2.97833 36.1864 4.47235 36.1864 6.01165 36.1864C6.01165 33.9331 6.01165 31.6798 6.01165 29.3583C4.51763 29.3583 3.0236 29.3583 1.48431 29.3583ZM31.9882 29.3583C31.9882 31.6116 31.9882 33.8648 31.9882 36.1864C33.4822 36.1864 34.9763 36.1864 36.5156 36.1864C36.5156 33.9331 36.5156 31.6798 36.5156 29.3583C35.0215 29.3583 33.5275 29.3583 31.9882 29.3583Z" fill="#379DFE"/>
<path d="M22.3761 28.3803C22.4738 28.3796 22.4738 28.3796 22.5736 28.3789C22.7899 28.3774 23.0062 28.3765 23.2226 28.3758C23.2964 28.3755 23.3702 28.3752 23.4463 28.3749C23.837 28.3733 24.2278 28.3723 24.6186 28.3716C25.0223 28.3707 25.4259 28.3682 25.8295 28.3652C26.1399 28.3633 26.4502 28.3627 26.7605 28.3624C26.9093 28.3621 27.0581 28.3612 27.2069 28.3598C27.4153 28.358 27.6236 28.3581 27.832 28.3586C27.8933 28.3576 27.9547 28.3567 28.0178 28.3557C28.4073 28.3592 28.6467 28.4168 28.9455 28.6903C29.0951 29.0027 29.1129 29.2845 29.1143 29.6276C29.115 29.724 29.1158 29.8204 29.1165 29.9196C29.1165 30.0239 29.1164 30.1282 29.1163 30.2324C29.1166 30.3404 29.1169 30.4483 29.1172 30.5562C29.1178 30.782 29.1178 31.0078 29.1174 31.2336C29.117 31.5219 29.1182 31.8102 29.1199 32.0985C29.121 32.3213 29.1211 32.5441 29.1209 32.7668C29.1209 32.8731 29.1213 32.9794 29.122 33.0856C29.1287 34.1574 29.1287 34.1574 28.8713 34.5536C28.5427 34.8163 28.2472 34.8085 27.8452 34.8063C27.7799 34.8068 27.7147 34.8073 27.6475 34.8078C27.4324 34.8092 27.2173 34.8089 27.0022 34.8085C26.8524 34.8088 26.7025 34.8092 26.5527 34.8096C26.2388 34.8103 25.925 34.8101 25.6111 34.8094C25.2092 34.8085 24.8073 34.81 24.4054 34.8122C24.0961 34.8136 23.7867 34.8135 23.4773 34.8131C23.3292 34.8131 23.181 34.8136 23.0328 34.8145C22.8255 34.8156 22.6183 34.8148 22.4109 34.8135C22.35 34.8142 22.289 34.815 22.2262 34.8157C21.8353 34.8107 21.6111 34.7389 21.301 34.4794C21.1912 34.2597 21.2149 34.061 21.2125 33.8158C21.2118 33.7629 21.2112 33.7099 21.2106 33.6553C21.2088 33.4795 21.2075 33.3038 21.2065 33.1281C21.2061 33.0681 21.2057 33.0081 21.2053 32.9463C21.2033 32.6288 21.2019 32.3112 21.2008 31.9936C21.1995 31.6657 21.1962 31.3378 21.1924 31.0099C21.1899 30.7576 21.1891 30.5055 21.1887 30.2532C21.1882 30.1324 21.187 30.0115 21.1853 29.8906C21.1829 29.7213 21.1829 29.5521 21.1835 29.3827C21.1829 29.2864 21.1823 29.1901 21.1816 29.0909C21.2383 28.7746 21.3521 28.6675 21.5979 28.4677C21.8406 28.3463 22.1092 28.3812 22.3761 28.3803ZM22.7111 29.9521C22.7111 31.0297 22.7111 32.1074 22.7111 33.2177C24.3031 33.2177 25.8951 33.2177 27.5354 33.2177C27.5354 32.14 27.5354 31.0624 27.5354 29.9521C25.9434 29.9521 24.3514 29.9521 22.7111 29.9521Z" fill="#379DFE"/>
<path d="M10.1555 28.3634C10.2208 28.3629 10.286 28.3624 10.3532 28.3619C10.5683 28.3605 10.7834 28.3608 10.9985 28.3612C11.1483 28.3609 11.2981 28.3605 11.448 28.3601C11.7619 28.3594 12.0757 28.3596 12.3896 28.3603C12.7915 28.3612 13.1934 28.3597 13.5953 28.3575C13.9046 28.3561 14.214 28.3562 14.5234 28.3566C14.6715 28.3566 14.8197 28.3561 14.9679 28.3552C15.1752 28.3541 15.3824 28.3549 15.5897 28.3562C15.6507 28.3555 15.7117 28.3547 15.7745 28.354C16.1654 28.359 16.3896 28.4308 16.6997 28.6903C16.8095 28.91 16.7858 29.1087 16.7882 29.3539C16.7892 29.4333 16.7892 29.4333 16.7901 29.5144C16.7919 29.6902 16.7932 29.8659 16.7942 30.0416C16.7946 30.1016 16.795 30.1616 16.7954 30.2234C16.7974 30.5409 16.7988 30.8585 16.7999 31.1761C16.8011 31.504 16.8045 31.8319 16.8083 32.1598C16.8108 32.4121 16.8116 32.6642 16.812 32.9165C16.8125 33.0373 16.8137 33.1582 16.8154 33.2791C16.8178 33.4484 16.8178 33.6176 16.8172 33.787C16.8178 33.8833 16.8184 33.9796 16.8191 34.0788C16.7624 34.3951 16.6486 34.5022 16.4028 34.702C16.1601 34.8234 15.8915 34.7885 15.6246 34.7894C15.5269 34.7901 15.5269 34.7901 15.4271 34.7908C15.2108 34.7923 14.9945 34.7932 14.7781 34.7939C14.7043 34.7942 14.6305 34.7945 14.5544 34.7948C14.1637 34.7964 13.7729 34.7974 13.3821 34.7981C12.9784 34.799 12.5748 34.8015 12.1712 34.8045C11.8608 34.8064 11.5505 34.807 11.2402 34.8073C11.0914 34.8076 10.9426 34.8085 10.7938 34.8099C10.5854 34.8117 10.3771 34.8116 10.1687 34.8111C10.1074 34.8121 10.046 34.813 9.98286 34.814C9.59335 34.8105 9.35395 34.7529 9.05518 34.4794C8.90564 34.167 8.88775 33.8852 8.88636 33.5421C8.88565 33.4457 8.88494 33.3493 8.88421 33.2501C8.88423 33.1458 8.8843 33.0415 8.88442 32.9373C8.88413 32.8293 8.88381 32.7214 8.88345 32.6135C8.8829 32.3877 8.88292 32.1619 8.88331 31.9361C8.88374 31.6478 8.88249 31.3595 8.88076 31.0712C8.87967 30.8484 8.87961 30.6256 8.87984 30.4029C8.8798 30.2966 8.87941 30.1903 8.87866 30.0841C8.87202 29.0123 8.87202 29.0123 9.1294 28.6161C9.45801 28.3534 9.75354 28.3612 10.1555 28.3634ZM10.4653 29.952C10.4653 31.0297 10.4653 32.1073 10.4653 33.2176C12.0573 33.2176 13.6493 33.2176 15.2896 33.2176C15.2896 32.14 15.2896 31.0623 15.2896 29.952C13.6976 29.952 12.1056 29.952 10.4653 29.952Z" fill="#379DFE"/>
<path d="M10.39 17.3349C10.7149 17.5089 10.7149 17.5089 10.8353 17.7059C10.8944 17.9653 10.892 18.1884 10.8353 18.4481C10.6595 18.7015 10.5403 18.7928 10.2508 18.8934C9.95187 18.8934 9.76116 18.8118 9.49937 18.6708C9.30053 18.3725 9.29927 18.1307 9.35093 17.7802C9.61807 17.3527 9.89491 17.2578 10.39 17.3349Z" fill="#379DFE"/>
</g>
<defs>
<clipPath id="clip0_1237_1106">
<rect width="38" height="38" fill="white" transform="translate(0 0.116089)"/>
</clipPath>
</defs>
</svg>
