<svg width="38" height="39" viewBox="0 0 38 39" fill="none" xmlns="http://www.w3.org/2000/svg">
<path d="M19.2969 3.30751C19.5314 3.42126 19.7332 3.56941 19.9417 3.72499C20.067 3.81438 20.1923 3.90367 20.3177 3.99287C20.382 4.03922 20.4463 4.08558 20.5126 4.13334C22.3418 5.44073 24.2984 6.54421 26.2735 7.61219C26.3439 7.65045 26.4142 7.68871 26.4867 7.72813C27.519 8.28759 28.5776 8.7839 29.6452 9.27201C29.9071 9.39205 30.1687 9.51303 30.43 9.63437C30.5969 9.71178 30.7638 9.78919 30.9307 9.86659C31.0106 9.90367 31.0906 9.94075 31.173 9.97895C31.5681 10.1615 31.9645 10.339 32.3657 10.5077C33.1546 10.8409 33.7324 11.2098 34.1407 11.9911C34.3316 12.5003 34.398 12.969 34.3981 13.5103C34.3987 13.5816 34.3992 13.6529 34.3998 13.7264C34.4006 13.8761 34.4008 14.0258 34.4005 14.1754C34.4004 14.4027 34.4035 14.6297 34.4068 14.8569C34.4072 15.0033 34.4074 15.1497 34.4074 15.2962C34.4086 15.3631 34.4098 15.4299 34.4111 15.4989C34.4057 16.0013 34.2764 16.398 33.9922 16.8153C33.1096 17.645 32.5462 17.3349 31.0977 17.3349C31.0977 21.719 31.0977 26.1031 31.0977 30.62C31.7835 30.62 32.4693 30.62 33.1758 30.62C33.846 30.9551 33.846 30.9551 34.0201 31.2091C34.0543 31.2572 34.0886 31.3054 34.1239 31.3549C34.3432 31.7301 34.3878 32.0593 34.3909 32.4894C34.3915 32.5473 34.3922 32.6052 34.3929 32.6648C34.394 32.7869 34.3946 32.9089 34.3949 33.0309C34.3958 33.2171 34.3994 33.4032 34.4032 33.5893C34.4039 33.7082 34.4044 33.8271 34.4048 33.9459C34.4062 34.0013 34.4077 34.0567 34.4092 34.1137C34.4068 34.3913 34.3794 34.5329 34.2071 34.7538C33.9426 34.9642 33.8141 34.9712 33.4793 34.9714C33.4029 34.9722 33.4029 34.9722 33.325 34.973C33.1539 34.9744 32.9829 34.9731 32.8118 34.9718C32.688 34.9722 32.5643 34.9728 32.4406 34.9736C32.1002 34.9751 31.76 34.9744 31.4196 34.9732C31.0527 34.9724 30.6858 34.9737 30.3189 34.9747C29.6001 34.9763 28.8812 34.976 28.1623 34.9749C27.5782 34.9741 26.9941 34.9739 26.41 34.9743C26.3269 34.9744 26.2438 34.9745 26.1583 34.9745C25.9895 34.9746 25.8208 34.9748 25.6521 34.9749C24.0691 34.9759 22.4861 34.9747 20.9031 34.9727C19.5441 34.9711 18.1852 34.9714 16.8262 34.9731C15.2489 34.9751 13.6717 34.9758 12.0945 34.9747C11.9264 34.9746 11.7582 34.9745 11.5901 34.9743C11.5074 34.9743 11.4247 34.9742 11.3395 34.9742C10.7559 34.9739 10.1723 34.9744 9.58873 34.9753C8.87777 34.9763 8.16682 34.976 7.45586 34.9741C7.09295 34.9731 6.73006 34.9727 6.36715 34.9739C6.03514 34.975 5.70318 34.9744 5.37118 34.9724C5.25086 34.972 5.13055 34.9722 5.01024 34.9731C4.84702 34.9743 4.68397 34.9731 4.52076 34.9714C4.43002 34.9713 4.33927 34.9713 4.24578 34.9712C3.93827 34.9111 3.82772 34.7975 3.63676 34.5536C3.59959 34.3403 3.58453 34.1717 3.58748 33.959C3.58712 33.902 3.58677 33.8449 3.5864 33.7862C3.58615 33.6657 3.58683 33.5453 3.58838 33.4248C3.59036 33.2426 3.58841 33.0608 3.58603 32.8786C3.58454 32.2396 3.5969 31.6667 4.00786 31.1395C4.9021 30.3119 5.42267 30.62 6.90239 30.62C6.90239 26.2359 6.90239 21.8518 6.90239 17.3349C6.21661 17.3349 5.53082 17.3349 4.82426 17.3349C4.15406 16.9997 4.15406 16.9997 3.98002 16.7457C3.94577 16.6976 3.91152 16.6495 3.87623 16.5999C3.6286 16.1764 3.61299 15.8187 3.61183 15.3376C3.61134 15.2661 3.61084 15.1946 3.61033 15.121C3.60958 14.9697 3.60923 14.8184 3.60926 14.6671C3.60893 14.4383 3.60624 14.2095 3.60342 13.9807C3.59767 12.987 3.62497 12.1183 4.29795 11.3237C4.81114 10.831 5.48006 10.542 6.12773 10.2702C6.2914 10.1998 6.45501 10.1292 6.61856 10.0585C6.70204 10.0225 6.78553 9.98652 6.87155 9.94943C7.60527 9.62909 8.32948 9.28709 9.05473 8.94813C9.12518 8.9153 9.19563 8.88248 9.26822 8.84865C10.2013 8.41308 11.118 7.9539 12.0235 7.46376C12.1027 7.42109 12.1819 7.37842 12.2636 7.33445C14.1224 6.331 15.9333 5.25895 17.6548 4.03114C17.8094 3.92116 17.9639 3.81133 18.1195 3.70281C18.2426 3.6152 18.3622 3.52255 18.4811 3.42927C18.7624 3.27503 18.9875 3.23623 19.2969 3.30751ZM18.3924 5.11195C17.9372 5.44906 17.4704 5.76126 16.9925 6.06514C16.8928 6.12874 16.7937 6.19339 16.6954 6.25915C16.5508 6.35048 16.5508 6.35048 16.3964 6.42209C16.2318 6.50795 16.1387 6.56919 16.0313 6.72157C15.9893 7.05783 16.0356 7.37946 16.0777 7.71425C16.0966 7.90978 16.1147 8.10538 16.1322 8.30104C16.141 8.39814 16.1499 8.49525 16.159 8.5953C16.2519 9.84404 16.0536 11.0675 15.8086 12.288C15.7597 12.5329 15.7107 12.7778 15.6602 13.0302C17.8645 13.0302 20.0688 13.0302 22.3399 13.0302C22.2412 12.5314 22.2412 12.5314 22.1335 12.0346C21.7741 10.4293 21.7039 8.71064 21.9827 7.08802C22.0053 6.90474 22.0053 6.90474 21.9688 6.72157C21.8372 6.58484 21.8372 6.58484 21.6542 6.47717C21.5865 6.43297 21.5188 6.38878 21.449 6.34325C21.3756 6.29665 21.3022 6.25005 21.2266 6.20204C21.0759 6.10139 20.9253 6.00049 20.7749 5.89936C20.6194 5.79607 20.4638 5.69286 20.3081 5.58973C20.1513 5.48583 19.9946 5.38185 19.8379 5.27778C19.7696 5.23251 19.7012 5.18723 19.6308 5.14058C19.4454 5.01454 19.4454 5.01454 19.2909 4.88676C18.931 4.64705 18.6796 4.89242 18.3924 5.11195ZM14.3611 7.64669C14.2905 7.68707 14.2199 7.72745 14.1472 7.76906C14.0694 7.81373 13.9916 7.8584 13.9114 7.90443C11.8911 9.04928 9.80981 10.1318 7.67009 11.0347C7.60815 11.0609 7.54621 11.0872 7.48239 11.1142C7.1759 11.244 6.86894 11.3723 6.56079 11.4981C5.66569 11.8671 5.66569 11.8671 5.0351 12.5815C4.95389 12.7517 4.95389 12.7517 4.9727 13.0302C8.03422 13.0302 11.0957 13.0302 14.25 13.0302C14.3982 12.635 14.524 12.2752 14.6258 11.8705C14.6496 11.7777 14.6734 11.6849 14.698 11.5893C14.8829 10.763 14.9403 9.9508 14.9319 9.10585C14.9319 9.01285 14.9318 8.91986 14.9318 8.82405C14.9296 8.36408 14.915 7.91837 14.8438 7.46376C14.6408 7.46376 14.5369 7.54496 14.3611 7.64669ZM23.1563 7.46376C22.8658 9.30496 23.1076 11.1941 23.6758 12.9559C23.7508 13.0473 23.7508 13.0473 23.9041 13.0393C23.9724 13.0392 24.0408 13.0392 24.1112 13.0391C24.2284 13.0392 24.2284 13.0392 24.348 13.0394C24.4345 13.0391 24.521 13.0389 24.6101 13.0386C24.7458 13.0386 24.7458 13.0386 24.8843 13.0386C25.1332 13.0386 25.3821 13.0382 25.6309 13.0377C25.8908 13.0372 26.1506 13.0372 26.4104 13.0371C26.9027 13.0369 27.395 13.0363 27.8874 13.0355C28.4477 13.0347 29.0081 13.0343 29.5684 13.0339C30.7214 13.0331 31.8744 13.0318 33.0274 13.0302C32.9814 12.7167 32.9457 12.5246 32.7351 12.2833C32.6962 12.2366 32.6573 12.1898 32.6172 12.1416C32.1487 11.7575 31.5426 11.5527 30.9891 11.3198C28.5098 10.2748 26.043 9.08828 23.732 7.70857C23.6777 7.67639 23.6235 7.6442 23.5677 7.61103C23.4965 7.56823 23.4965 7.56823 23.4239 7.52457C23.305 7.45252 23.305 7.45252 23.1563 7.46376ZM4.89848 14.2919C4.79337 15.5471 4.79337 15.5471 5.04692 15.9989C5.25144 16.1012 5.41516 16.0825 5.64418 16.0827C5.78868 16.083 5.78868 16.083 5.9361 16.0834C6.04402 16.0833 6.15194 16.0832 6.25987 16.0831C6.37372 16.0832 6.48757 16.0834 6.60142 16.0836C6.91545 16.084 7.22947 16.084 7.5435 16.0839C7.88171 16.0839 8.21993 16.0843 8.55814 16.0847C9.22118 16.0853 9.88422 16.0855 10.5473 16.0855C11.086 16.0856 11.6247 16.0857 12.1634 16.086C13.6892 16.0866 15.215 16.0869 16.7408 16.0869C16.8232 16.0869 16.9055 16.0869 16.9903 16.0869C17.114 16.0869 17.114 16.0869 17.2401 16.0869C18.5766 16.0868 19.913 16.0876 21.2495 16.0886C22.6203 16.0897 23.9912 16.0902 25.362 16.0901C26.1322 16.0901 26.9024 16.0903 27.6726 16.0911C28.3282 16.0918 28.9839 16.0919 29.6396 16.0914C29.9744 16.0912 30.3091 16.0912 30.6439 16.0918C30.95 16.0924 31.2562 16.0923 31.5623 16.0917C31.6734 16.0915 31.7844 16.0917 31.8955 16.0921C32.0459 16.0926 32.1962 16.0921 32.3466 16.0916C32.4721 16.0916 32.4721 16.0916 32.6002 16.0917C32.8207 16.0881 32.8207 16.0881 33.0274 15.9247C33.1997 15.4078 33.1016 14.8367 33.1016 14.2919C23.7946 14.2919 14.4875 14.2919 4.89848 14.2919ZM8.23832 17.3349C8.23832 21.719 8.23832 26.1031 8.23832 30.62C8.80164 30.62 9.36496 30.62 9.94536 30.62C9.94536 26.2359 9.94536 21.8518 9.94536 17.3349C9.38204 17.3349 8.81872 17.3349 8.23832 17.3349ZM11.2071 17.3349C11.2071 19.8575 11.2071 22.3802 11.2071 24.9794C12.4562 25.0039 13.7053 25.0284 14.9922 25.0536C15.2891 25.202 15.2891 25.202 15.3633 25.3505C15.3723 25.5172 15.3765 25.6841 15.3786 25.8511C15.3793 25.9033 15.3801 25.9556 15.3808 26.0094C15.3832 26.1788 15.385 26.3482 15.3868 26.5177C15.3882 26.6222 15.3896 26.7267 15.391 26.8311C15.3961 27.2189 15.4005 27.6067 15.4051 27.9945C15.4211 29.2941 15.4211 29.2941 15.4375 30.62C17.7888 30.62 20.14 30.62 22.5625 30.62C22.5781 28.8958 22.5781 28.8958 22.5913 27.1716C22.595 26.8382 22.595 26.8382 22.5971 26.682C22.5983 26.573 22.599 26.464 22.5994 26.3549C22.6002 26.1898 22.6023 26.0246 22.6047 25.8595C22.6059 25.7198 22.6059 25.7198 22.6072 25.5773C22.6368 25.3505 22.6368 25.3505 22.7408 25.212C23.8442 24.429 25.4403 25.0059 26.793 24.9794C26.793 22.4567 26.793 19.934 26.793 17.3349C21.6497 17.3349 16.5063 17.3349 11.2071 17.3349ZM28.0547 17.3349C28.0547 21.719 28.0547 26.1031 28.0547 30.62C28.618 30.62 29.1814 30.62 29.7618 30.62C29.7618 26.2359 29.7618 21.8518 29.7618 17.3349C29.1984 17.3349 28.6351 17.3349 28.0547 17.3349ZM11.2071 26.3153C11.2071 27.7359 11.2071 29.1564 11.2071 30.62C12.1868 30.62 13.1664 30.62 14.1758 30.62C14.1758 29.1995 14.1758 27.7789 14.1758 26.3153C13.1961 26.3153 12.2164 26.3153 11.2071 26.3153ZM23.8243 26.3153C23.8243 27.7359 23.8243 29.1564 23.8243 30.62C24.8039 30.62 25.7836 30.62 26.793 30.62C26.793 29.1995 26.793 27.7789 26.793 26.3153C25.8133 26.3153 24.8336 26.3153 23.8243 26.3153ZM4.9727 32.0302C4.80041 32.547 4.89848 33.1181 4.89848 33.663C14.2055 33.663 23.5125 33.663 33.1016 33.663C33.2067 32.4077 33.2067 32.4077 32.9532 31.9559C32.7486 31.8537 32.5849 31.8723 32.3559 31.8722C32.2596 31.8719 32.1632 31.8717 32.064 31.8715C31.9561 31.8716 31.8481 31.8717 31.7402 31.8718C31.6264 31.8717 31.5125 31.8715 31.3987 31.8713C31.0846 31.8708 30.7706 31.8708 30.4566 31.8709C30.1184 31.8709 29.7802 31.8705 29.4419 31.8702C28.7789 31.8696 28.1159 31.8694 27.4528 31.8693C26.9141 31.8693 26.3754 31.8691 25.8367 31.8689C24.3109 31.8682 22.7851 31.8679 21.2592 31.868C21.1769 31.868 21.0946 31.868 21.0098 31.868C20.8861 31.868 20.8861 31.868 20.76 31.868C19.4235 31.868 18.0871 31.8673 16.7506 31.8663C15.3798 31.8652 14.0089 31.8647 12.6381 31.8647C11.8679 31.8648 11.0977 31.8646 10.3275 31.8638C9.67184 31.8631 9.01618 31.8629 8.36051 31.8634C8.02574 31.8637 7.69096 31.8637 7.35619 31.863C7.05006 31.8625 6.74393 31.8626 6.4378 31.8632C6.32673 31.8633 6.21565 31.8632 6.10457 31.8628C5.95422 31.8622 5.80387 31.8627 5.65352 31.8633C5.56982 31.8632 5.48611 31.8632 5.39987 31.8632C5.17941 31.8668 5.17941 31.8668 4.9727 32.0302Z" fill="#379DFE"/>
</svg>
