<svg width="38" height="39" viewBox="0 0 38 39" fill="none" xmlns="http://www.w3.org/2000/svg">
<path d="M14.547 9.76455C14.8942 9.91715 15.2016 9.91316 15.5788 9.89949C16.3669 9.87464 16.3669 9.87464 16.639 10.0893C17.1535 10.6563 17.3284 11.3225 17.2931 12.0653C17.2691 12.297 17.2333 12.5259 17.1951 12.7556C17.1796 12.8521 17.1796 12.8521 17.1638 12.9506C17.1302 13.1581 17.0957 13.3655 17.0612 13.5729C17.0495 13.6435 17.0379 13.7141 17.026 13.7868C16.4973 16.9967 16.4973 16.9967 16.254 17.4833C16.1811 17.4727 16.1081 17.4621 16.033 17.4512C15.1622 17.3324 14.3067 17.3171 13.4291 17.3256C13.2918 17.3263 13.1545 17.327 13.0172 17.3276C12.686 17.3292 12.3548 17.3318 12.0236 17.3349C11.7979 16.7371 11.6816 16.125 11.5621 15.4994C11.5271 15.3166 11.4912 15.1339 11.4552 14.9513C11.4325 14.834 11.4098 14.7168 11.3872 14.5995C11.3765 14.5454 11.3659 14.4914 11.3549 14.4357C11.2983 14.1362 11.2705 13.8544 11.2814 13.5497C11.3405 13.5317 11.3996 13.5137 11.4605 13.4952C12.0944 13.2947 12.5875 13.1276 12.9142 12.5106C12.9943 12.1656 12.9899 11.8908 12.9142 11.5458C12.8917 11.5959 12.8692 11.6461 12.8461 11.6977C12.815 11.7639 12.7839 11.8301 12.7518 11.8983C12.7217 11.9638 12.6916 12.0292 12.6605 12.0966C12.4388 12.4579 12.1275 12.6213 11.7397 12.7684C11.6572 12.7999 11.5747 12.8314 11.4897 12.8639C11.4041 12.8958 11.3185 12.9277 11.2303 12.9606C11.1462 12.9928 11.0621 13.025 10.9754 13.0582C9.67727 13.5497 9.67727 13.5497 9.27746 13.5497C9.28196 13.608 9.28646 13.6663 9.29109 13.7263C9.31163 13.9952 9.33166 14.2642 9.35168 14.5331C9.35876 14.6248 9.36584 14.7164 9.37314 14.8108C9.41517 15.3813 9.43545 15.9464 9.4259 16.5185C9.49172 16.5353 9.55755 16.5521 9.62536 16.5695C9.94731 16.697 10.1468 16.8787 10.3252 17.1763C10.4617 17.5065 10.452 17.893 10.3397 18.2304C10.1737 18.5507 9.96589 18.7317 9.64856 18.8935C9.20983 19.0176 8.86045 18.9481 8.46106 18.745C7.85636 18.2209 7.74606 17.2752 7.60754 16.5231C7.59222 16.4411 7.57689 16.3591 7.5611 16.2747C6.86834 12.4747 6.86834 12.4747 7.24009 11.882C7.46448 11.6504 7.70378 11.5417 7.9969 11.4217C8.05326 11.3977 8.10962 11.3736 8.16768 11.3489C8.35012 11.2713 8.53313 11.1952 8.71618 11.119C8.8417 11.066 8.96717 11.0128 9.09261 10.9595C9.33923 10.8549 9.58606 10.7508 9.83313 10.6473C10.1817 10.5012 10.5294 10.353 10.8767 10.2039C11.002 10.15 11.1275 10.0964 11.2531 10.043C11.5633 9.91095 11.8683 9.77206 12.172 9.62539C13.1503 9.19092 13.6478 9.24815 14.547 9.76455Z" fill="#379DFE"/>
<path d="M35.1798 6.94419C35.4932 7.16619 35.6219 7.38771 35.6993 7.7606C35.8378 8.75632 35.266 9.80249 34.8644 10.683C34.8434 10.7292 34.8224 10.7755 34.8008 10.8232C34.5432 11.3914 34.2802 11.9569 33.9923 12.5106C33.9673 12.5593 33.9423 12.6081 33.9166 12.6583C33.7194 13.0252 33.5069 13.3404 33.1017 13.4754C32.6264 13.5109 32.3091 13.4271 31.8817 13.225C31.7954 13.1851 31.7954 13.1851 31.7073 13.1444C30.3134 12.4866 28.7092 11.6406 28.129 10.1356C27.9734 10.4468 28.0853 10.8206 28.1908 11.1376C28.6074 12.0797 29.5006 12.5435 30.3556 13.0301C30.4794 13.1041 30.6031 13.1783 30.7267 13.2528C30.6792 13.5482 30.6311 13.8435 30.5829 14.1388C30.5693 14.2231 30.5558 14.3074 30.5419 14.3943C30.5287 14.4745 30.5155 14.5546 30.502 14.6371C30.4899 14.7114 30.4779 14.7856 30.4655 14.8621C30.4298 15.034 30.4298 15.034 30.3556 15.1083C30.2371 15.1152 30.1184 15.117 29.9997 15.1167C29.9239 15.1167 29.8481 15.1167 29.7701 15.1167C29.6877 15.1163 29.6052 15.1159 29.5203 15.1155C29.4364 15.1154 29.3525 15.1153 29.2661 15.1152C28.9968 15.1148 28.7276 15.1138 28.4584 15.1129C28.2764 15.1125 28.0943 15.1122 27.9123 15.1119C27.465 15.1111 27.0177 15.1098 26.5704 15.1083C26.4316 14.779 26.3645 14.458 26.3101 14.1063C26.3004 14.0451 26.2907 13.9839 26.2807 13.9208C26.2497 13.723 26.2197 13.525 26.1901 13.327C26.1749 13.2264 26.1749 13.2264 26.1595 13.1237C25.729 10.2183 25.729 10.2183 26.2736 9.46763C26.4952 9.23153 26.7246 9.01943 27.0157 8.87388C27.3046 8.90139 27.5911 8.934 27.878 8.97767C28.3555 9.03995 28.7218 8.9891 29.1811 8.84373C29.4308 8.79124 29.5907 8.80454 29.8361 8.87388C30.0126 8.99796 30.0126 8.99796 30.1747 9.1522C30.2323 9.20616 30.2899 9.26012 30.3492 9.31571C30.4625 9.42685 30.5742 9.53957 30.6849 9.65318C30.8617 9.8256 31.0429 9.97401 31.2369 10.1263C31.6318 10.4381 32.0049 10.7541 32.2853 11.1747C32.3193 11.1018 32.3193 11.1018 32.354 11.0274C32.6195 10.4978 32.9418 10.1047 33.3464 9.68159C33.6077 9.40288 33.8395 9.10653 34.0665 8.79966C34.0313 8.75221 33.9961 8.70475 33.9598 8.65586C33.7836 8.31052 33.7075 7.97296 33.8186 7.59332C33.925 7.35957 34.0369 7.19474 34.2242 7.01841C34.546 6.9065 34.8437 6.88559 35.1798 6.94419Z" fill="#379DFE"/>
<path d="M4.02124 32.6516C4.07525 32.6511 4.12926 32.6506 4.18491 32.6501C4.36689 32.6488 4.54876 32.6502 4.73075 32.6515C4.86213 32.6511 4.9935 32.6506 5.12488 32.6499C5.48667 32.6485 5.84843 32.6494 6.21022 32.6507C6.60009 32.6517 6.98996 32.6506 7.37982 32.6497C8.14388 32.6483 8.90793 32.649 9.67198 32.6503C10.2928 32.6513 10.9135 32.6516 11.5343 32.6514C11.6667 32.6513 11.6667 32.6513 11.8017 32.6513C11.981 32.6512 12.1602 32.6511 12.3394 32.651C13.9256 32.6504 15.5117 32.6516 17.0978 32.6538C18.6381 32.656 20.1783 32.6565 21.7186 32.6554C23.3945 32.6541 25.0704 32.6538 26.7463 32.6551C26.9249 32.6552 27.1035 32.6554 27.2821 32.6555C27.4139 32.6556 27.4139 32.6556 27.5484 32.6557C28.1687 32.6561 28.7889 32.6559 29.4092 32.6554C30.1648 32.6548 30.9203 32.6553 31.6759 32.6572C32.0616 32.6581 32.4474 32.6586 32.8331 32.6578C33.1859 32.657 33.5387 32.6576 33.8914 32.6594C34.0194 32.6597 34.1473 32.6596 34.2753 32.659C34.4486 32.6581 34.6219 32.6591 34.7952 32.6606C34.9398 32.6607 34.9398 32.6607 35.0874 32.6608C35.3281 32.6981 35.3281 32.6981 35.5078 32.8324C35.6771 33.0673 35.6609 33.2325 35.625 33.5145C35.5105 33.6707 35.426 33.7254 35.2539 33.8114C35.0832 33.8187 34.9124 33.821 34.7415 33.8212C34.6879 33.8213 34.6344 33.8215 34.5791 33.8216C34.3977 33.8221 34.2163 33.8219 34.0349 33.8218C33.9043 33.822 33.7737 33.8223 33.643 33.8225C33.2826 33.8231 32.9222 33.8232 32.5617 33.8233C32.1736 33.8234 31.7854 33.824 31.3973 33.8245C30.5479 33.8255 29.6986 33.8259 28.8492 33.8263C28.3193 33.8265 27.7893 33.8268 27.2594 33.8271C25.7932 33.828 24.3271 33.8288 22.861 33.8291C22.7201 33.8291 22.7201 33.8291 22.5764 33.8291C22.4352 33.8291 22.4352 33.8291 22.2912 33.8291C22.1005 33.8292 21.9097 33.8292 21.719 33.8292C21.6244 33.8293 21.5298 33.8293 21.4323 33.8293C19.8984 33.8296 18.3645 33.8309 16.8305 33.8326C15.2572 33.8344 13.6838 33.8353 12.1104 33.8354C11.2264 33.8355 10.3425 33.8359 9.45847 33.8372C8.70589 33.8384 7.95332 33.8388 7.20074 33.8381C6.8165 33.8378 6.43227 33.8379 6.04803 33.839C5.69661 33.8399 5.34522 33.8398 4.99381 33.8389C4.86635 33.8388 4.73888 33.839 4.61143 33.8396C4.43878 33.8405 4.26619 33.8399 4.09355 33.839C3.99747 33.8391 3.9014 33.8391 3.80241 33.8392C3.54625 33.8095 3.44244 33.7735 3.26562 33.5888C3.19141 33.3383 3.19141 33.3383 3.19141 33.0692C3.41329 32.6848 3.58963 32.6517 4.02124 32.6516Z" fill="#379DFE"/>
<path d="M19.0742 20.5262C19.4801 20.5524 19.7323 20.7945 20.0344 21.0411C20.0857 21.0806 20.1369 21.1201 20.1897 21.1607C20.9858 21.8044 21.2446 22.7127 21.5605 23.6481C21.605 23.7779 21.6495 23.9076 21.6941 24.0374C21.7874 24.3094 21.8803 24.5817 21.9728 24.854C22.0945 25.2111 22.2185 25.5673 22.3433 25.9232C22.4413 26.2028 22.5386 26.4826 22.6358 26.7624C22.6827 26.8969 22.7298 27.0313 22.7771 27.1657C22.8431 27.3532 22.908 27.541 22.9727 27.7289C22.9925 27.7846 23.0124 27.8402 23.0328 27.8975C23.1247 28.1677 23.1802 28.345 23.082 28.6161C22.5642 28.9578 21.8304 29.0471 21.2266 29.1356C21.1175 29.1538 21.1175 29.1538 21.0062 29.1723C20.8948 29.1542 20.8948 29.1542 20.7812 29.1356C20.6328 28.8965 20.6328 28.8965 20.5614 28.746C20.4024 28.4179 20.2282 28.0988 19.8777 27.9571C19.3936 27.8571 18.8993 27.8837 18.408 27.8974C18.2493 27.8978 18.0906 27.8977 17.9319 27.8972C17.5162 27.897 17.1009 27.9036 16.6852 27.9115C16.2603 27.9184 15.8355 27.919 15.4105 27.9201C14.5783 27.9233 13.7462 27.9335 12.9141 27.9481C13.1686 27.4153 13.5458 27.0441 14.1016 26.8348C14.8932 26.6957 15.7116 26.7315 16.5124 26.7444C16.81 26.7483 17.1076 26.7475 17.4052 26.7471C17.9863 26.7471 18.5673 26.7522 19.1484 26.7606C19.1073 26.6899 19.0662 26.6192 19.0238 26.5464C18.9694 26.4523 18.9151 26.3583 18.8608 26.2643C18.8202 26.1946 18.8202 26.1946 18.7788 26.1235C18.4982 25.6364 18.2878 25.1832 18.332 24.6083C18.2826 24.6001 18.2331 24.592 18.1821 24.5836C17.6782 24.4969 17.1902 24.3796 16.6992 24.2372C16.7935 23.9613 16.8902 23.8037 17.1074 23.611C17.9722 22.7759 18.6183 21.628 19.0742 20.5262Z" fill="#379DFE"/>
<path d="M13.4298 18.2076C13.5969 18.2069 13.764 18.2046 13.9311 18.2023C15.3832 18.1915 16.5224 18.5234 17.7244 19.348C17.7693 19.3783 17.8142 19.4085 17.8605 19.4397C18.0484 19.5747 18.1699 19.6763 18.2584 19.8928C18.2553 20.8997 17.258 22.1075 16.625 22.827C16.5727 22.8884 16.5203 22.9497 16.4664 23.0129C16.3245 23.1769 16.1796 23.3368 16.0313 23.495C15.9933 23.5367 15.9553 23.5784 15.9162 23.6214C15.8086 23.7269 15.8086 23.7269 15.5859 23.8661C15.1215 23.8418 14.7135 23.7163 14.2778 23.5599C14.2131 23.5368 14.1484 23.5136 14.0817 23.4898C12.4159 22.8802 12.4159 22.8802 11.9492 22.1591C11.9174 22.114 11.8855 22.0689 11.8527 22.0225C11.3308 21.1168 11.6634 19.7573 11.9103 18.8106C12.0066 18.4646 12.0066 18.4646 12.0977 18.2997C12.5067 18.1443 12.9972 18.2087 13.4298 18.2076Z" fill="#379DFE"/>
<path d="M10.9844 22.6044C11.0579 22.6044 11.1313 22.6044 11.207 22.6044C11.3001 22.716 11.3001 22.716 11.3972 22.8688C12.1222 23.8762 13.4964 24.2284 14.6211 24.6083C14.5833 24.9242 14.4946 25.069 14.2709 25.2922C14.2139 25.3493 14.1568 25.4063 14.0981 25.4651C14.038 25.5237 13.9779 25.5823 13.916 25.6427C13.8582 25.701 13.8004 25.7593 13.7409 25.8194C13.5684 25.99 13.3922 26.154 13.2109 26.3153C13.1636 26.3576 13.1162 26.3999 13.0674 26.4435C12.0181 27.2557 10.2106 27.3374 8.93042 27.6036C8.64509 27.663 8.35994 27.7232 8.07483 27.7836C7.85281 27.8305 7.6307 27.8769 7.40855 27.9232C7.3033 27.9452 7.19808 27.9674 7.0929 27.9897C6.94645 28.0207 6.79984 28.051 6.65323 28.0813C6.52884 28.1073 6.52884 28.1073 6.40193 28.1338C6.1447 28.1731 5.90044 28.1771 5.64063 28.1708C5.3854 27.3553 5.32993 26.5718 5.34375 25.7216C5.87243 25.4441 6.40923 25.214 6.96729 25.0026C7.04959 24.9707 7.1319 24.9388 7.21671 24.906C7.6694 24.7325 8.12357 24.5711 8.58531 24.4239C8.67943 24.3931 8.77352 24.3622 8.86758 24.3313C9.04662 24.2731 9.22644 24.2172 9.40705 24.1641C10.0629 23.9483 10.2997 23.6512 10.6133 23.0497C10.7284 22.8838 10.8429 22.7498 10.9844 22.6044Z" fill="#379DFE"/>
<path d="M16.4344 4.78725C17.0201 5.1352 17.4141 5.63052 17.6172 6.27975C17.7645 6.97559 17.7121 7.65252 17.3668 8.28017C17.0209 8.76987 16.6334 9.19196 16.0308 9.31923C15.2413 9.4087 14.6506 9.32618 14.0252 8.8287C13.5717 8.41156 13.3111 7.90601 13.267 7.29156C13.2507 6.45522 13.3697 5.84485 13.9573 5.21923C14.6309 4.60815 15.5845 4.40202 16.4344 4.78725Z" fill="#379DFE"/>
<path d="M26.0502 19.3387C26.2733 19.3883 26.4717 19.461 26.6805 19.5533C26.7767 19.5953 26.7767 19.5953 26.8748 19.6382C26.9425 19.668 27.0103 19.6977 27.08 19.7284C27.6942 19.9954 28.3096 20.2396 28.9448 20.452C28.9448 20.8092 28.8206 20.9452 28.6061 21.2081C28.5751 21.2472 28.544 21.2863 28.5121 21.3266C28.4477 21.4075 28.3828 21.488 28.3173 21.5681C28.2396 21.6668 28.1652 21.7682 28.094 21.8717C27.7711 22.3284 27.45 22.5526 26.9461 22.7832C26.8757 22.8171 26.8053 22.851 26.7327 22.8859C26.509 22.9932 26.2843 23.098 26.0595 23.2028C25.9116 23.2732 25.7637 23.3438 25.6159 23.4145C25.3282 23.552 25.0398 23.688 24.7509 23.8229C24.4876 23.946 24.2257 24.0715 23.9651 24.2C23.9071 24.2283 23.8491 24.2566 23.7893 24.2858C23.6821 24.3382 23.5753 24.3912 23.4688 24.445C23.2763 24.5383 23.1235 24.6092 22.9072 24.6043C22.7402 24.5086 22.7151 24.4267 22.6556 24.245C22.6361 24.1863 22.6166 24.1276 22.5966 24.0671C22.5775 24.0054 22.5584 23.9436 22.5387 23.88C22.5182 23.8191 22.4977 23.7582 22.4766 23.6955C22.3119 23.184 22.3119 23.184 22.4135 22.9012C22.5298 22.7606 22.5298 22.7606 22.6779 22.6183C22.7321 22.5662 22.7862 22.5142 22.842 22.4606C23.0904 22.2305 23.3437 22.008 23.601 21.788C23.6738 21.7234 23.7466 21.6588 23.8216 21.5923C25.1192 20.452 25.1192 20.452 25.6049 20.452C25.6184 20.409 25.6319 20.3659 25.6458 20.3216C25.7565 19.9777 25.8783 19.6581 26.0502 19.3387Z" fill="#379DFE"/>
<path d="M21.4704 8.31115C21.7716 8.55969 21.9875 8.77135 22.0424 9.17075C22.0348 9.79434 21.8476 10.3575 21.6481 10.9427C21.624 11.0143 21.624 11.0143 21.5994 11.0874C20.3428 14.8077 20.3428 14.8077 19.4447 15.2567C18.986 15.3026 18.7153 15.1832 18.3314 14.9598C18.2028 14.8955 18.2028 14.8955 18.0717 14.8299C17.8861 14.6629 17.8861 14.6629 17.8652 14.4206C17.8801 13.9531 17.9625 13.4914 18.0345 13.0301C18.0487 12.9372 18.0629 12.8443 18.0775 12.7486C18.1122 12.5208 18.1474 12.293 18.183 12.0653C18.4799 12.0653 18.4799 12.0653 18.601 12.1763C18.6559 12.2476 18.6559 12.2476 18.7118 12.3204C18.865 12.5229 18.865 12.5229 19.0736 12.659C19.0805 12.5185 19.0805 12.5185 19.0875 12.3752C19.1366 11.9341 19.319 11.5798 19.5189 11.1886C19.5872 11.0521 19.6552 10.9156 19.723 10.7789C19.7533 10.7194 19.7835 10.6599 19.8146 10.5986C19.8859 10.4416 19.9393 10.3062 19.9642 10.1356C19.8904 10.0116 19.8162 9.88797 19.7416 9.7645C19.712 9.54648 19.712 9.54648 19.7137 9.31919C19.7132 9.24418 19.7126 9.16917 19.712 9.09189C19.7578 8.7544 19.8984 8.56358 20.1451 8.33579C20.55 8.05931 21.0508 8.05171 21.4704 8.31115Z" fill="#379DFE"/>
<path d="M26.9303 15.9671C26.9859 15.9654 27.0416 15.9636 27.0989 15.9618C27.1622 15.9595 27.2256 15.9571 27.2909 15.9547C27.3598 15.9535 27.4288 15.9523 27.4999 15.9511C27.6071 15.9485 27.6071 15.9485 27.7164 15.9458C27.9484 15.9414 28.1802 15.9396 28.4122 15.9386C28.4902 15.9381 28.5682 15.9375 28.6485 15.937C29.7707 15.9348 30.7148 15.9867 31.6687 16.6392C31.794 16.7704 31.8217 16.8581 31.8402 17.038C31.7541 17.2449 31.6646 17.4316 31.5573 17.6271C31.5271 17.6829 31.4969 17.7387 31.4658 17.7962C31.1698 18.3289 30.8226 18.7999 30.4301 19.2645C30.3842 19.3239 30.3384 19.3833 30.2912 19.4446C30.1692 19.5896 30.0724 19.6866 29.9105 19.7841C29.3851 19.7747 28.8306 19.4954 28.3473 19.3109C28.2319 19.2679 28.2319 19.2679 28.1141 19.2239C26.8266 18.7374 26.8266 18.7374 26.5588 18.3794C26.3078 17.7594 26.4936 16.8537 26.6449 16.2216C26.7934 15.9989 26.7934 15.9989 26.9303 15.9671Z" fill="#379DFE"/>
<path d="M25.531 9.3934C25.5081 9.48677 25.4851 9.58015 25.4614 9.67636C25.301 10.4107 25.3055 11.0965 25.3826 11.8426C25.1132 11.8671 24.8437 11.8916 24.5662 11.9168C24.5586 12.006 24.5511 12.0952 24.5433 12.187C24.4797 12.7595 24.3322 13.3164 24.2013 13.8764C24.1816 13.9626 24.1618 14.0488 24.1414 14.1376C24.1233 14.2154 24.1051 14.2931 24.0863 14.3732C24.0486 14.578 24.0256 14.7526 24.0466 14.9598C24.2221 15.1162 24.2221 15.1162 24.4177 15.2567C24.6094 15.5665 24.6169 15.8669 24.5662 16.2215C24.3846 16.5428 24.1691 16.6916 23.824 16.8153C23.469 16.8675 23.2269 16.852 22.9055 16.6854C22.6228 16.443 22.4346 16.2346 22.4007 15.8501C22.3749 14.8629 22.4314 13.898 22.5483 12.9188C22.5545 12.8666 22.5606 12.8145 22.567 12.7608C22.6096 12.4044 22.6576 12.0491 22.7107 11.6942C22.7187 11.6404 22.7267 11.5867 22.7349 11.5313C22.7596 11.3696 22.7863 11.2084 22.8136 11.0471C22.8373 10.9048 22.8373 10.9048 22.8614 10.7596C22.9557 10.428 23.0884 10.2219 23.3851 10.0413C23.4394 10.0193 23.4936 9.99733 23.5494 9.97468C23.6098 9.94976 23.6701 9.92484 23.7322 9.89916C23.7946 9.87462 23.8571 9.85008 23.9214 9.82479C23.983 9.79939 24.0445 9.77399 24.108 9.74782C25.0514 9.36433 25.0514 9.36433 25.531 9.3934Z" fill="#379DFE"/>
<path d="M23.3789 26.8349C24.9208 26.8279 26.4627 26.8227 28.0046 26.8195C28.7205 26.818 29.4364 26.8159 30.1524 26.8125C30.7763 26.8095 31.4003 26.8076 32.0242 26.8069C32.3546 26.8065 32.6851 26.8056 33.0155 26.8035C33.3265 26.8015 33.6374 26.8008 33.9484 26.8013C34.0626 26.8012 34.1767 26.8006 34.2908 26.7995C34.4467 26.798 34.6025 26.7984 34.7585 26.7992C34.8457 26.7989 34.9329 26.7986 35.0228 26.7983C35.302 26.8425 35.4259 26.9348 35.625 27.1317C35.6888 27.3503 35.6546 27.4925 35.625 27.7255C35.5408 27.8534 35.5408 27.8534 35.4023 27.9482C35.1918 27.9755 35.1918 27.9755 34.9304 27.9749C34.8823 27.9751 34.8342 27.9753 34.7847 27.9755C34.6233 27.9759 34.462 27.9746 34.3006 27.9734C34.185 27.9734 34.0695 27.9734 33.9539 27.9735C33.6399 27.9736 33.3259 27.9723 33.0118 27.9707C32.6838 27.9693 32.3557 27.9692 32.0276 27.9689C31.4063 27.9682 30.7849 27.9664 30.1635 27.9642C29.4561 27.9617 28.7488 27.9605 28.0414 27.9594C26.5862 27.957 25.131 27.9531 23.6758 27.9482C23.6257 27.8185 23.5764 27.6886 23.5273 27.5585C23.4998 27.4862 23.4722 27.4138 23.4438 27.3393C23.3789 27.1317 23.3789 27.1317 23.3789 26.8349Z" fill="#379DFE"/>
<path d="M29.317 4.71762C29.813 5.13721 30.0741 5.59177 30.1563 6.23185C30.1878 6.83455 29.9973 7.3569 29.6788 7.86264C29.243 8.26057 28.8255 8.45032 28.2316 8.4703C27.6355 8.44302 27.287 8.28264 26.8817 7.84872C26.3872 7.23002 26.3464 6.69093 26.4225 5.90512C26.5576 5.40917 26.8191 5.0194 27.225 4.7037C27.9242 4.30611 28.6302 4.3127 29.317 4.71762Z" fill="#379DFE"/>
<path d="M32.6563 17.4091C33.1986 17.4719 33.7554 17.8958 34.1209 18.2901C34.317 18.5977 34.3459 18.9136 34.2891 19.2645C34.0931 20.0906 33.7249 20.8335 33.3567 21.5931C33.2708 21.7718 33.1852 21.9506 33.0996 22.1294C33.0467 22.2396 32.9937 22.3497 32.9404 22.4598C32.7875 22.7768 32.6442 23.0962 32.5078 23.4208C32.3933 23.4142 32.2789 23.4062 32.1646 23.3976C32.1008 23.3933 32.0371 23.389 31.9715 23.3845C31.7263 23.3393 31.538 23.243 31.3203 23.1239C31.2995 21.149 31.2995 21.149 31.6914 20.3778C31.471 20.3043 31.2505 20.2309 31.0234 20.1552C31.0234 19.8554 31.1754 19.7219 31.3574 19.5011C31.7531 19.0055 32.0566 18.4852 32.3594 17.9286C32.4576 17.755 32.5569 17.582 32.6563 17.4091Z" fill="#379DFE"/>
<path d="M26.4961 28.8387C26.7443 29.0297 26.8536 29.1822 26.895 29.4928C26.859 29.7989 26.7253 29.9141 26.4961 30.1005C26.2622 30.2618 26.0205 30.4086 25.7771 30.5551C25.7088 30.5966 25.6406 30.6382 25.5703 30.6811C25.4292 30.767 25.2881 30.8527 25.1468 30.9383C24.9459 31.0602 24.7457 31.1834 24.5458 31.3071C24.4259 31.3811 24.306 31.4552 24.186 31.5292C24.1303 31.5637 24.0745 31.5983 24.0171 31.6339C23.9655 31.6655 23.9139 31.6972 23.8607 31.7298C23.8159 31.7575 23.771 31.7851 23.7247 31.8137C23.425 31.9793 23.1189 32.0075 22.7852 31.9559C22.2884 31.7458 22.0199 31.3986 21.7461 30.9493C21.7098 30.8933 21.6736 30.8373 21.6362 30.7796C21.375 30.3644 21.375 30.3644 21.375 30.0262C21.44 30.0117 21.44 30.0117 21.5063 29.9969C21.707 29.9516 21.9074 29.9055 22.1079 29.8593C22.176 29.844 22.2441 29.8288 22.3143 29.8132C22.6511 29.7349 22.9679 29.6472 23.2861 29.5114C23.7273 29.3269 24.1856 29.2202 24.6504 29.1139C24.7988 29.0798 24.9469 29.0444 25.0949 29.0089C26.0283 28.7922 26.0283 28.7922 26.4961 28.8387Z" fill="#379DFE"/>
<path d="M4.37902 26.1669C4.3846 26.2113 4.39018 26.2557 4.39593 26.3014C4.42226 26.5087 4.44935 26.7158 4.47644 26.923C4.48519 26.9928 4.49394 27.0626 4.50296 27.1345C4.55386 27.5195 4.62068 27.8929 4.71301 28.2702C4.83667 28.7872 4.89742 29.303 4.94958 29.8314C4.95919 29.9218 4.96881 30.0122 4.97872 30.1054C5.10018 31.2841 5.10018 31.2841 4.89855 31.5802C4.59049 31.792 4.45101 31.786 4.08215 31.7333C3.80337 31.5133 3.66978 31.2358 3.5258 30.9192C3.50239 30.869 3.47898 30.8188 3.45486 30.7671C3.38039 30.607 3.30684 30.4465 3.23327 30.286C3.18419 30.1805 3.13505 30.0749 3.08585 29.9694C2.18882 28.0387 2.18882 28.0387 2.3009 27.5028C2.57469 26.9096 3.18519 26.6845 3.73889 26.4034C3.78485 26.3801 3.8308 26.3568 3.87816 26.3327C4.21244 26.1669 4.21244 26.1669 4.37902 26.1669Z" fill="#379DFE"/>
<path d="M31.0227 23.6434C31.3175 23.6891 31.5639 23.752 31.8391 23.8661C31.9197 23.8843 32.0002 23.9024 32.0832 23.9212C32.3906 24.0254 32.5745 24.1756 32.7993 24.3995C32.8766 24.4735 32.9539 24.5474 33.0312 24.6213C33.0684 24.6573 33.1055 24.6932 33.1437 24.7302C33.2845 24.8646 33.4309 24.9918 33.5786 25.1185C33.6473 25.1792 33.6473 25.1792 33.7175 25.2412C33.8314 25.3404 33.9484 25.4361 34.0657 25.5314C34.221 25.7304 34.2407 25.7866 34.2512 26.0277C34.2141 26.3153 34.2141 26.3153 34.1306 26.4637C33.8407 26.6183 33.5657 26.5438 33.263 26.4529C33.1575 26.4143 33.0524 26.3749 32.9475 26.3347C32.8913 26.3138 32.8352 26.293 32.7773 26.2714C32.6591 26.2273 32.541 26.1828 32.4231 26.138C32.2433 26.0697 32.0631 26.0026 31.8827 25.9357C31.7676 25.8925 31.6524 25.8492 31.5373 25.8059C31.4838 25.786 31.4303 25.766 31.3752 25.7455C30.6332 25.4621 30.6332 25.4621 30.5032 25.202C30.4278 24.7087 30.4717 24.3751 30.7629 23.9635C30.8477 23.8554 30.9337 23.7481 31.0227 23.6434Z" fill="#379DFE"/>
</svg>
