<svg width="38" height="39" viewBox="0 0 38 39" fill="none" xmlns="http://www.w3.org/2000/svg">
<g clip-path="url(#clip0_1237_908)">
<path d="M30.058 1.37785C30.1846 1.45469 30.1846 1.45469 30.2807 1.60051C30.2694 1.73524 30.2574 1.86997 30.2408 2.00416C30.1947 2.54964 30.3102 2.92276 30.6574 3.34817C31.0535 3.78526 31.4781 4.19291 31.9061 4.59844C32.1226 4.80502 32.3352 5.01548 32.5482 5.2256C32.9514 5.62223 33.3575 6.01575 33.765 6.40802C34.4956 7.11154 35.2217 7.81959 35.9458 8.52979C36.1998 8.77868 36.4553 9.02593 36.712 9.27195C36.8713 9.42493 37.0294 9.57896 37.1874 9.73326C37.2608 9.80449 37.3346 9.87526 37.4089 9.94552C38.0404 10.5432 38.0404 10.5432 38.0525 10.8777C37.9994 11.1005 37.9994 11.1005 37.851 11.2489C37.6351 11.2597 37.4265 11.2628 37.2108 11.2582C37.1513 11.2576 37.0918 11.2569 37.0305 11.2562C36.8834 11.2544 36.7363 11.2518 36.5893 11.2489C36.5894 11.3294 36.5894 11.3294 36.5895 11.4114C36.5945 14.5871 36.5983 17.7628 36.6006 20.9384C36.6009 21.3194 36.6012 21.7004 36.6015 22.0814C36.6016 22.1573 36.6016 22.2331 36.6017 22.3113C36.6026 23.5407 36.6044 24.7702 36.6064 25.9996C36.6085 27.2604 36.6098 28.5212 36.6102 29.782C36.6105 30.5605 36.6115 31.3389 36.6133 32.1174C36.6145 32.6506 36.6148 33.1839 36.6145 33.7172C36.6144 34.0252 36.6146 34.3332 36.6158 34.6412C36.6169 34.9229 36.617 35.2046 36.6162 35.4863C36.6161 35.5885 36.6164 35.6907 36.6171 35.7928C36.618 35.9312 36.6174 36.0696 36.6167 36.2079C36.6168 36.3235 36.6168 36.3235 36.6169 36.4413C36.5893 36.6318 36.5893 36.6318 36.4899 36.7678C36.2946 36.905 36.1173 36.8833 35.8819 36.884C35.7865 36.8843 35.6911 36.8846 35.5928 36.8849C35.5432 36.8844 35.4936 36.8839 35.4425 36.8834C35.2909 36.8822 35.1396 36.8834 34.9881 36.8849C34.8927 36.8846 34.7973 36.8843 34.699 36.884C34.5676 36.8836 34.5676 36.8836 34.4336 36.8832C34.2143 36.8544 34.2143 36.8544 34.0909 36.7729C33.9411 36.5599 33.9643 36.3843 33.9648 36.126C33.9646 36.0743 33.9645 36.0226 33.9643 35.9693C33.9639 35.7956 33.9651 35.6219 33.9663 35.4483C33.9664 35.3239 33.9664 35.1996 33.9662 35.0752C33.9662 34.7373 33.9675 34.3994 33.969 34.0614C33.9704 33.7084 33.9706 33.3553 33.9708 33.0023C33.9715 32.3336 33.9733 31.6649 33.9756 30.9962C33.9781 30.235 33.9793 29.4738 33.9804 28.7126C33.9827 27.1466 33.9867 25.5806 33.9916 24.0146C33.3793 24.0146 32.767 24.0146 32.1361 24.0146C32.1368 24.1721 32.1375 24.3297 32.1381 24.4921C32.1442 25.9741 32.1486 27.4562 32.1515 28.9383C32.1531 29.7003 32.1551 30.4623 32.1585 31.2243C32.1615 31.8883 32.1634 32.5523 32.1641 33.2164C32.1645 33.5681 32.1654 33.9198 32.1675 34.2716C32.1695 34.6024 32.1702 34.9332 32.1697 35.2641C32.1698 35.3857 32.1704 35.5073 32.1715 35.629C32.173 35.7947 32.1727 35.9603 32.1718 36.126C32.1721 36.2188 32.1724 36.3117 32.1727 36.4073C32.1361 36.6318 32.1361 36.6318 32 36.7753C31.7713 36.8879 31.6337 36.8532 31.394 36.7802C31.2455 36.5575 31.2455 36.5575 31.2455 35.6669C30.3148 35.6669 29.3841 35.6669 28.4252 35.6669C28.4252 35.9853 28.4252 36.3037 28.4252 36.6318C28.3517 36.7052 28.2782 36.7787 28.2025 36.8544C27.7242 36.8214 27.7242 36.8214 27.6088 36.706C27.6016 36.5425 27.5998 36.3788 27.5999 36.2152C27.5998 36.1374 27.5998 36.1374 27.5997 36.058C27.5996 35.8828 27.6 35.7077 27.6004 35.5325C27.6004 35.4075 27.6004 35.2824 27.6003 35.1574C27.6003 34.8168 27.6008 34.4762 27.6013 34.1357C27.6017 33.7802 27.6018 33.4247 27.6019 33.0692C27.6021 32.3955 27.6027 31.7218 27.6035 31.0481C27.6043 30.2813 27.6047 29.5146 27.6051 28.7478C27.6058 27.1701 27.6072 25.5923 27.6088 24.0146C26.9965 24.0146 26.3842 24.0146 25.7533 24.0146C25.7533 26.2434 25.7533 28.4721 25.7533 30.7685C26.1207 30.7685 26.4881 30.7685 26.8666 30.7685C27.2045 31.1064 27.2008 31.1477 27.2019 31.5985C27.2027 31.6782 27.2027 31.6782 27.2035 31.7595C27.2048 31.9348 27.2039 32.11 27.2029 32.2853C27.2031 32.4073 27.2034 32.5293 27.2038 32.6513C27.2042 32.9069 27.2036 33.1624 27.2022 33.418C27.2005 33.7454 27.2015 34.0728 27.2032 34.4003C27.2043 34.6521 27.204 34.904 27.2032 35.1559C27.203 35.2766 27.2033 35.3974 27.2039 35.5181C27.2047 35.6869 27.2036 35.8556 27.2019 36.0244C27.2017 36.1204 27.2014 36.2164 27.2012 36.3153C27.1558 36.607 27.097 36.6759 26.8666 36.8544C26.6544 36.8914 26.6544 36.8914 26.4038 36.8911C26.3087 36.8917 26.2136 36.8924 26.1156 36.893C26.0104 36.8922 25.9052 36.8913 25.7999 36.8905C25.689 36.8906 25.578 36.8909 25.4671 36.8913C25.1657 36.892 24.8644 36.8909 24.5631 36.8894C24.2475 36.8881 23.9319 36.8884 23.6162 36.8884C23.0859 36.8883 22.5556 36.887 22.0252 36.885C21.4129 36.8826 20.8006 36.8818 20.1883 36.882C19.5358 36.8821 18.8832 36.881 18.2307 36.8797C18.0431 36.8793 17.8554 36.8792 17.6678 36.8792C17.3722 36.879 17.0767 36.8781 16.7811 36.8766C16.6729 36.8762 16.5647 36.876 16.4566 36.8761C15.5378 36.8766 15.5378 36.8766 15.1591 36.7696C15.0395 36.7381 15.0395 36.7381 14.9174 36.706C14.8439 36.755 14.7704 36.8039 14.6947 36.8544C14.5042 36.8698 14.322 36.877 14.1314 36.8767C14.0764 36.8771 14.0214 36.8774 13.9648 36.8777C13.8486 36.8781 13.7323 36.8782 13.6161 36.8778C13.4385 36.8776 13.2611 36.8793 13.0835 36.8812C12.9705 36.8814 12.8575 36.8815 12.7445 36.8814C12.665 36.8824 12.665 36.8824 12.584 36.8834C12.3531 36.8813 12.1935 36.8667 11.9899 36.7539C11.8257 36.5802 11.8298 36.445 11.8188 36.2096C11.8145 36.1359 11.8103 36.0621 11.806 35.9861C11.8031 35.9016 11.8031 35.9016 11.8002 35.8153C11.7398 35.8539 11.6795 35.8925 11.6173 35.9322C10.5175 36.6102 9.40453 36.8657 8.12051 36.8652C8.03537 36.8654 7.95023 36.8657 7.86251 36.8659C7.58208 36.8666 7.30165 36.8668 7.02121 36.8669C6.82614 36.8671 6.63106 36.8674 6.43598 36.8676C6.02772 36.8681 5.61945 36.8682 5.21119 36.8682C4.73921 36.8681 4.26724 36.8689 3.79526 36.8701C3.34068 36.8712 2.88611 36.8714 2.43154 36.8714C2.23824 36.8715 2.04495 36.8718 1.85165 36.8724C1.58211 36.8731 1.31259 36.8729 1.04305 36.8724C0.962776 36.8729 0.882501 36.8733 0.799793 36.8737C0.689926 36.8732 0.689926 36.8732 0.577839 36.8728C0.482284 36.8728 0.482284 36.8728 0.384799 36.8729C0.222079 36.8544 0.222079 36.8544 -0.000577347 36.706C-0.0284871 36.5612 -0.0284878 36.5612 -0.0285974 36.38C-0.029178 36.3111 -0.029759 36.2422 -0.0303573 36.1711C-0.0296122 36.0568 -0.0296111 36.0568 -0.0288511 35.9401C-0.0291984 35.8595 -0.0295464 35.779 -0.0299043 35.6959C-0.0307971 35.4241 -0.0300863 35.1522 -0.0293878 34.8804C-0.0296893 34.6862 -0.0300857 34.4921 -0.0305702 34.2979C-0.0315623 33.8242 -0.0313461 33.3504 -0.0307015 32.8767C-0.0301994 32.4918 -0.0301304 32.1069 -0.0303731 31.7219C-0.0304072 31.6672 -0.0304399 31.6125 -0.030475 31.5562C-0.0305462 31.445 -0.0306193 31.3339 -0.0306925 31.2228C-0.031328 30.1798 -0.0305969 29.1368 -0.0294014 28.0938C-0.0284068 27.1982 -0.0285785 26.3027 -0.0296053 25.4072C-0.0307961 24.3681 -0.0312656 23.3291 -0.0305815 22.29C-0.0305106 22.1793 -0.0304422 22.0685 -0.0303731 21.9578C-0.0303388 21.9033 -0.0303043 21.8488 -0.0302689 21.7926C-0.0300764 21.4081 -0.0304001 21.0235 -0.0309235 20.639C-0.0316122 20.1216 -0.031124 19.6042 -0.029834 19.0869C-0.0295387 18.8965 -0.0296255 18.7062 -0.0301149 18.5159C-0.0307196 18.2569 -0.0299656 17.998 -0.0288511 17.7391C-0.0293477 17.663 -0.0298455 17.5869 -0.0303573 17.5086C-0.0297766 17.4394 -0.0291956 17.3703 -0.0285974 17.2991C-0.0285432 17.2094 -0.0285417 17.2094 -0.0284864 17.1179C0.00684368 16.9228 0.0633257 16.8574 0.222079 16.7411C0.421973 16.719 0.604362 16.7099 0.804232 16.7116C0.889454 16.7112 0.889454 16.7112 0.976398 16.7109C1.09643 16.7108 1.21646 16.7112 1.33648 16.7121C1.52025 16.7133 1.70389 16.7121 1.88765 16.7107C2.0043 16.7108 2.12094 16.7111 2.23758 16.7116C2.32004 16.7109 2.32004 16.7109 2.40417 16.7102C2.73198 16.7147 2.79917 16.7206 3.04239 16.9638C3.04239 17.1842 3.04239 17.4046 3.04239 17.6318C5.95696 17.6318 8.87153 17.6318 11.8744 17.6318C11.8744 17.4113 11.8744 17.1909 11.8744 16.9638C11.9872 16.8127 11.9872 16.8127 12.1713 16.7411C12.3675 16.7186 12.5458 16.7081 12.7419 16.709C12.8242 16.7084 12.8242 16.7084 12.9082 16.7078C13.024 16.7073 13.1397 16.7074 13.2555 16.708C13.4325 16.7087 13.6092 16.7065 13.7861 16.7042C13.8988 16.704 14.0115 16.7041 14.1242 16.7043C14.1769 16.7035 14.2296 16.7026 14.284 16.7018C14.5128 16.705 14.6654 16.7213 14.8569 16.8506C15.0552 17.1264 15.0341 17.3664 15.0321 17.6985C15.0329 17.7652 15.0337 17.8318 15.0345 17.9005C15.0366 18.1205 15.0367 18.3406 15.0368 18.5606C15.0379 18.7133 15.0392 18.866 15.0406 19.0186C15.0438 19.4203 15.0453 19.822 15.0464 20.2236C15.0479 20.6336 15.051 21.0435 15.0539 21.4534C15.0595 22.2577 15.0633 23.0619 15.0658 23.8661C15.1 23.8063 15.1343 23.7465 15.1695 23.6848C15.2152 23.6057 15.2609 23.5265 15.3079 23.4449C15.3753 23.3276 15.3753 23.3276 15.4441 23.2079C16.2448 21.8906 17.3561 21.1913 18.7768 20.6747C18.8013 19.6705 18.8258 18.6664 18.851 17.6318C18.6306 17.6318 18.4101 17.6318 18.183 17.6318C17.9604 17.4091 17.9604 17.4091 17.9279 17.1864C17.9604 16.9638 17.9604 16.9638 18.081 16.8401C18.3109 16.711 18.4706 16.7143 18.7338 16.7159C18.8317 16.7159 18.9296 16.7159 19.0305 16.7159C19.1342 16.7171 19.2378 16.7182 19.3415 16.7194C19.4833 16.7197 19.4833 16.7197 19.628 16.7201C19.9813 16.7212 20.3346 16.7243 20.6879 16.7272C21.8727 16.7341 21.8727 16.7341 23.0815 16.7411C23.0815 14.9287 23.0815 13.1163 23.0815 11.2489C22.6896 11.2489 22.2977 11.2489 21.894 11.2489C21.6713 11.0263 21.6713 11.0263 21.6506 10.7985C21.7388 10.3565 22.136 10.0686 22.4477 9.77169C22.5223 9.69906 22.5967 9.62633 22.6711 9.55349C22.8312 9.39709 22.9919 9.24137 23.1531 9.08613C23.4084 8.84006 23.6616 8.59191 23.9145 8.34334C24.6337 7.63688 25.3552 6.93268 26.0799 6.23187C26.4804 5.84457 26.8789 5.45527 27.2752 5.06371C27.5256 4.81658 27.7782 4.57211 28.0328 4.32937C28.1914 4.17696 28.3477 4.02221 28.5033 3.86675C28.6093 3.76219 28.7181 3.66044 28.827 3.55884C29.2712 3.10843 29.3907 2.77198 29.3865 2.1555C29.3857 2.1071 29.3848 2.05869 29.384 2.00882C29.3896 1.76631 29.4007 1.64724 29.5385 1.45207C29.7276 1.35749 29.8483 1.35739 30.058 1.37785ZM29.6397 3.8558C29.5669 3.92872 29.5669 3.92872 29.4925 4.00312C29.4088 4.08633 29.4088 4.08633 29.3235 4.17122C29.2622 4.23287 29.201 4.29452 29.1379 4.35803C29.0735 4.42234 29.009 4.48665 28.9426 4.5529C28.7656 4.72974 28.5888 4.90691 28.4123 5.08424C28.2278 5.26938 28.0429 5.45414 27.858 5.63894C27.5477 5.94935 27.2377 6.26005 26.9278 6.57093C26.569 6.93088 26.2098 7.29044 25.8504 7.64978C25.5053 7.99484 25.1604 8.34011 24.8157 8.6855C24.6687 8.83278 24.5216 8.98 24.3744 9.12716C24.1693 9.3324 23.9645 9.53794 23.7597 9.74353C23.6981 9.80503 23.6366 9.86653 23.5732 9.92989C23.5179 9.98557 23.4625 10.0413 23.4054 10.0986C23.3569 10.1473 23.3084 10.1959 23.2584 10.246C23.1473 10.3421 23.1473 10.3421 23.1557 10.4325C27.5643 10.4325 31.9729 10.4325 36.515 10.4325C36.1581 10.0136 36.1581 10.0136 35.7833 9.61667C35.7311 9.56412 35.6789 9.51157 35.625 9.45743C35.5693 9.4017 35.5135 9.34597 35.4561 9.28854C35.3961 9.22838 35.3362 9.16822 35.2745 9.10624C35.0778 8.90888 34.8809 8.71179 34.6839 8.51474C34.5468 8.37737 34.4097 8.24 34.2726 8.10263C33.986 7.81557 33.6992 7.5287 33.4124 7.24191C33.0806 6.91015 32.7492 6.57798 32.418 6.24562C32.0989 5.92545 31.7794 5.6057 31.4598 5.2861C31.3239 5.15012 31.1881 5.01402 31.0525 4.87781C30.8636 4.68821 30.6743 4.49909 30.4848 4.31009C30.4285 4.2533 30.3721 4.19652 30.314 4.13801C30.2626 4.08693 30.2112 4.03585 30.1583 3.98322C30.1136 3.93846 30.0689 3.89371 30.0228 3.8476C29.86 3.71133 29.8005 3.71948 29.6397 3.8558ZM23.9721 11.2489C23.9721 14.4574 23.9721 17.6659 23.9721 20.9716C27.8663 20.9716 31.7606 20.9716 35.7729 20.9716C35.7729 17.7631 35.7729 14.5546 35.7729 11.2489C31.8786 11.2489 27.9843 11.2489 23.9721 11.2489ZM0.815829 17.6318C0.815829 23.6813 0.815829 29.7309 0.815829 35.9638C0.93829 35.9638 1.06075 35.9638 1.18692 35.9638C1.19419 35.9145 1.20146 35.8652 1.20896 35.8145C1.32736 35.1153 1.32736 35.1153 1.63224 34.8505C1.82817 34.777 2.02411 34.7036 2.22599 34.6278C2.22599 29.0191 2.22599 23.4104 2.22599 17.6318C1.76063 17.6318 1.29528 17.6318 0.815829 17.6318ZM12.765 17.6318C12.765 20.9872 12.765 24.3426 12.765 27.7997C13.9858 26.5789 14.2089 25.3798 14.2097 23.7055C14.2083 23.0698 14.1947 22.4346 14.1774 21.7991C14.1659 21.3284 14.1609 20.8576 14.1553 20.3868C14.1435 19.4683 14.1246 18.5501 14.101 17.6318C13.6601 17.6318 13.2193 17.6318 12.765 17.6318ZM19.7416 17.6318C19.7416 18.587 19.7416 19.5421 19.7416 20.5263C20.1825 20.5263 20.6233 20.5263 21.0775 20.5263C21.0775 19.5711 21.0775 18.6159 21.0775 17.6318C20.6367 17.6318 20.1958 17.6318 19.7416 17.6318ZM21.9682 17.6318C21.9682 18.587 21.9682 19.5421 21.9682 20.5263C22.3356 20.5263 22.7029 20.5263 23.0815 20.5263C23.0815 19.5711 23.0815 18.6159 23.0815 17.6318C22.7141 17.6318 22.3467 17.6318 21.9682 17.6318ZM3.04239 18.5224C3.04239 18.8408 3.04239 19.1592 3.04239 19.4872C5.95696 19.4872 8.87153 19.4872 11.8744 19.4872C11.8744 19.1688 11.8744 18.8504 11.8744 18.5224C8.95985 18.5224 6.04528 18.5224 3.04239 18.5224ZM3.04239 20.3036C3.04239 25.0306 3.04239 29.7576 3.04239 34.6278C5.61986 34.9338 5.61986 34.9338 6.38224 34.1825C6.51343 34.0339 6.63445 33.8815 6.75565 33.7248C7.15697 33.3513 7.59326 33.3385 8.11246 33.3337C8.8779 33.3086 9.42288 33.1695 10.0056 32.6512C10.1093 32.5533 10.1093 32.5533 10.0932 32.4013C10.0239 32.4005 9.95469 32.3998 9.88335 32.399C9.23136 32.3917 8.57938 32.3841 7.9274 32.3761C7.5922 32.372 7.257 32.368 6.92179 32.3644C6.5984 32.3608 6.27502 32.357 5.95164 32.3528C5.82816 32.3513 5.70467 32.3499 5.58118 32.3487C5.40846 32.3469 5.23574 32.3446 5.06302 32.3423C5.01177 32.3419 4.96052 32.3415 4.90772 32.341C4.68627 32.3376 4.51606 32.3235 4.30411 32.2528C4.13869 31.922 4.21283 31.4704 4.21134 31.1071C4.20981 31.0141 4.20828 30.921 4.2067 30.8252C4.20632 30.7361 4.20593 30.6471 4.20554 30.5554C4.20484 30.4735 4.20415 30.3917 4.20344 30.3074C4.22989 30.1005 4.22989 30.1005 4.31491 29.9654C4.45255 29.8778 4.45255 29.8778 4.89786 29.8036C4.89786 26.6686 4.89786 23.5336 4.89786 20.3036C4.28556 20.3036 3.67325 20.3036 3.04239 20.3036ZM5.78849 20.3036C5.78849 23.4386 5.78849 26.5736 5.78849 29.8036C6.91513 29.8036 8.04177 29.8036 9.20255 29.8036C9.20255 26.6686 9.20255 23.5336 9.20255 20.3036C8.07591 20.3036 6.94927 20.3036 5.78849 20.3036ZM10.0932 20.3036C10.0932 23.4386 10.0932 26.5736 10.0932 29.8036C10.2646 29.8526 10.4361 29.9016 10.6127 29.9521C10.77 30.1094 10.718 30.4434 10.7287 30.6618C10.7319 30.7216 10.7351 30.7815 10.7384 30.8431C10.7463 30.9914 10.7537 31.1397 10.7611 31.288C11.4594 30.6223 11.9097 29.71 11.9693 28.7519C11.9803 28.2812 11.9728 27.812 11.9614 27.3414C11.9592 27.1373 11.9584 26.9332 11.9576 26.729C11.9548 26.2511 11.9476 25.7734 11.9386 25.2956C11.9285 24.7505 11.9237 24.2054 11.9192 23.6602C11.91 22.5412 11.8937 21.4225 11.8744 20.3036C11.2866 20.3036 10.6988 20.3036 10.0932 20.3036ZM16.7743 22.8671C16.2472 23.5094 15.8352 24.2291 15.4385 24.9565C15.1819 25.4268 14.9146 25.8902 14.6437 26.3525C14.2767 26.9791 13.9116 27.6066 13.549 28.2358C13.5029 28.3158 13.4567 28.3958 13.4092 28.4782C13.2687 28.7221 13.1282 28.966 12.9877 29.2099C12.6634 29.773 12.3388 30.3359 12.0137 30.8985C11.9188 31.0627 11.8241 31.227 11.7294 31.3913C11.5878 31.6369 11.4459 31.8823 11.3039 32.1276C11.2611 32.202 11.2183 32.2764 11.1743 32.3531C10.6918 33.1841 10.1444 33.7515 9.20255 34.0341C8.94726 34.0892 8.73388 34.1073 8.47167 34.0953C7.88285 34.0625 7.88285 34.0625 7.35378 34.2841C7.17455 34.4564 7.01757 34.6374 6.86841 34.8362C6.58042 35.2145 6.3249 35.3413 5.8627 35.4443C5.57016 35.4757 5.27978 35.4804 4.98571 35.4822C4.90428 35.4836 4.82286 35.4849 4.73897 35.4863C4.48115 35.4903 4.22333 35.4928 3.96549 35.4953C3.78975 35.4977 3.61401 35.5003 3.43827 35.503C3.00945 35.5092 2.58062 35.5143 2.15177 35.5185C2.1234 35.6414 2.09878 35.7652 2.07755 35.8896C2.2317 36.0437 2.56601 35.9755 2.77849 35.9757C2.84428 35.9761 2.91006 35.9765 2.97784 35.9769C3.19689 35.978 3.41593 35.9785 3.63498 35.9789C3.78732 35.9793 3.93965 35.9797 4.09199 35.9801C4.41245 35.9809 4.7329 35.9814 5.05336 35.9816C5.46187 35.982 5.87035 35.9838 6.27885 35.9859C6.59417 35.9873 6.90949 35.9877 7.22481 35.9878C7.37524 35.988 7.52566 35.9886 7.67608 35.9896C9.23169 35.999 10.4327 35.7701 11.6744 34.754C12.2383 34.1893 12.6415 33.5491 13.0295 32.8559C13.1223 32.6922 13.2152 32.5285 13.3081 32.3648C13.3529 32.2837 13.3978 32.2027 13.444 32.1192C13.5815 31.8818 13.5815 31.8818 13.7296 31.6673C14.1649 31.0201 14.1702 30.4685 14.1566 29.7155C14.1548 29.4949 14.1544 29.2743 14.1555 29.0536C14.1558 28.9755 14.1558 28.9755 14.1561 28.8958C14.1658 28.3361 14.2812 27.8307 14.6947 27.4286C15.0926 27.1583 15.2878 27.1208 15.7755 27.1503C16.0146 27.1419 16.1938 27.104 16.4018 26.9833C16.8037 26.5298 17.059 25.9598 17.3286 25.4218C17.7822 24.5337 18.2773 23.8093 19.2221 23.4208C19.2825 23.3956 19.3428 23.3705 19.405 23.3445C19.7581 23.2474 20.093 23.246 20.4577 23.2416C20.5329 23.2402 20.608 23.2388 20.6854 23.2373C20.9244 23.2329 21.1633 23.2294 21.4023 23.226C21.5647 23.2232 21.7272 23.2203 21.8896 23.2173C22.2869 23.2101 22.6841 23.2041 23.0815 23.1982C23.0815 22.5859 23.0815 21.9736 23.0815 21.3427C22.6579 21.3375 22.2344 21.3331 21.8108 21.3305C21.6672 21.3294 21.5236 21.3278 21.3801 21.3259C19.6642 21.3032 18.0171 21.5458 16.7743 22.8671ZM23.9721 21.8622C23.9721 22.3031 23.9721 22.7439 23.9721 23.1982C27.8663 23.1982 31.7606 23.1982 35.7729 23.1982C35.7729 22.7573 35.7729 22.3164 35.7729 21.8622C31.8786 21.8622 27.9843 21.8622 23.9721 21.8622ZM18.6283 24.831C18.4269 25.121 18.2526 25.4224 18.081 25.7309C18.0353 25.8104 17.9897 25.8899 17.9427 25.9718C17.7522 26.3065 17.5843 26.6247 17.4408 26.9833C19.3022 26.9833 21.1636 26.9833 23.0815 26.9833C23.0815 26.0036 23.0815 25.0239 23.0815 24.0146C22.5962 24.0084 22.111 24.0023 21.611 23.996C21.4596 23.9933 21.3081 23.9906 21.1521 23.9878C20.1656 23.9771 19.311 24.0313 18.6283 24.831ZM23.9721 24.0146C23.9721 24.9943 23.9721 25.9739 23.9721 26.9833C24.266 26.9833 24.5599 26.9833 24.8627 26.9833C24.8627 26.0036 24.8627 25.0239 24.8627 24.0146C24.5688 24.0146 24.2749 24.0146 23.9721 24.0146ZM28.4252 24.0146C28.4252 24.235 28.4252 24.4554 28.4252 24.6825C29.3559 24.6825 30.2866 24.6825 31.2455 24.6825C31.2455 24.4621 31.2455 24.2417 31.2455 24.0146C30.3148 24.0146 29.3841 24.0146 28.4252 24.0146ZM34.808 24.0146C34.808 27.9578 34.808 31.9011 34.808 35.9638C35.1264 35.9638 35.4448 35.9638 35.7729 35.9638C35.7729 32.0205 35.7729 28.0773 35.7729 24.0146C35.4545 24.0146 35.1361 24.0146 34.808 24.0146ZM28.4252 25.5732C28.4252 25.965 28.4252 26.3569 28.4252 26.7607C29.3559 26.7607 30.2866 26.7607 31.2455 26.7607C31.2455 26.3688 31.2455 25.9769 31.2455 25.5732C30.3148 25.5732 29.3841 25.5732 28.4252 25.5732ZM28.4252 27.5771C28.4252 27.9689 28.4252 28.3608 28.4252 28.7646C29.3559 28.7646 30.2866 28.7646 31.2455 28.7646C31.2455 28.3727 31.2455 27.9808 31.2455 27.5771C30.3148 27.5771 29.3841 27.5771 28.4252 27.5771ZM15.14 28.1708C14.9442 28.4879 14.9701 28.8353 14.9712 29.197C14.9708 29.2622 14.9705 29.3274 14.9701 29.3946C14.969 29.6097 14.9691 29.8248 14.9693 30.0399C14.969 30.1897 14.9687 30.3396 14.9683 30.4894C14.9678 30.8033 14.9678 31.1171 14.9682 31.431C14.9686 31.8329 14.9674 32.2348 14.9656 32.6367C14.9645 32.946 14.9645 33.2554 14.9647 33.5648C14.9647 33.713 14.9643 33.8611 14.9635 34.0093C14.9626 34.2166 14.9631 34.4239 14.964 34.6312C14.9634 34.6921 14.9628 34.7531 14.9623 34.8159C14.9656 35.1768 15.005 35.4337 15.2143 35.7411C15.4776 35.9309 15.6593 35.9915 15.9822 35.9906C16.1 35.991 16.1 35.991 16.2203 35.9915C16.3057 35.9907 16.3911 35.9899 16.4791 35.9891C16.6149 35.9891 16.6149 35.9891 16.7535 35.9892C17.0011 35.989 17.2487 35.9879 17.4964 35.9864C17.7554 35.985 18.0144 35.9848 18.2734 35.9846C18.7636 35.9839 19.2538 35.9821 19.7441 35.9798C20.357 35.9771 20.97 35.9759 21.583 35.9747C22.6763 35.9725 23.7695 35.968 24.8627 35.9638C24.8627 33.2941 24.8627 30.6245 24.8627 27.8739C23.1444 27.865 23.1444 27.865 21.4261 27.859C20.8116 27.8574 20.1971 27.8553 19.5827 27.8515C19.0962 27.8486 18.6097 27.8467 18.1232 27.846C17.8656 27.8456 17.6081 27.8447 17.3506 27.8426C17.0629 27.8402 16.7752 27.8401 16.4875 27.8402C16.3598 27.8386 16.3598 27.8386 16.2295 27.837C15.7739 27.8394 15.4757 27.8466 15.14 28.1708ZM28.4252 29.6552C28.4252 30.0226 28.4252 30.39 28.4252 30.7685C29.3559 30.7685 30.2866 30.7685 31.2455 30.7685C31.2455 30.4011 31.2455 30.0337 31.2455 29.6552C30.3148 29.6552 29.3841 29.6552 28.4252 29.6552ZM5.0463 30.6943C5.0463 30.9637 5.0463 31.2331 5.0463 31.5107C6.66278 31.5107 8.27927 31.5107 9.94473 31.5107C9.94473 31.2412 9.94473 30.9718 9.94473 30.6943C8.32825 30.6943 6.71177 30.6943 5.0463 30.6943ZM25.7533 31.6591C25.7533 33.0796 25.7533 34.5002 25.7533 35.9638C25.9248 35.9638 26.0962 35.9638 26.2729 35.9638C26.2729 34.5432 26.2729 33.1227 26.2729 31.6591C26.1014 31.6591 25.93 31.6591 25.7533 31.6591ZM28.4252 31.6591C28.4252 32.051 28.4252 32.4429 28.4252 32.8466C29.3559 32.8466 30.2866 32.8466 31.2455 32.8466C31.2455 32.4547 31.2455 32.0628 31.2455 31.6591C30.3148 31.6591 29.3841 31.6591 28.4252 31.6591ZM14.0268 32.7724C13.9545 32.8852 13.8859 33.0005 13.8189 33.1165C13.7769 33.1885 13.735 33.2605 13.6918 33.3347C13.6036 33.4872 13.5155 33.6397 13.4274 33.7922C13.3851 33.8646 13.3429 33.9371 13.2994 34.0118C13.2418 34.1115 13.2418 34.1115 13.183 34.2132C13.0619 34.4052 13.0619 34.4052 12.9005 34.5968C12.7609 34.7818 12.7287 34.8472 12.7361 35.0723C12.7368 35.1196 12.7375 35.1669 12.7383 35.2156C12.741 35.2742 12.7437 35.3328 12.7465 35.3932C12.7526 35.5815 12.7587 35.7698 12.765 35.9638C13.2059 35.9638 13.6468 35.9638 14.101 35.9638C14.101 34.9106 14.101 33.8575 14.101 32.7724C14.0765 32.7724 14.052 32.7724 14.0268 32.7724ZM28.4252 33.663C28.4252 34.0549 28.4252 34.4468 28.4252 34.8505C29.3559 34.8505 30.2866 34.8505 31.2455 34.8505C31.2455 34.4586 31.2455 34.0668 31.2455 33.663C30.3148 33.663 29.3841 33.663 28.4252 33.663Z" fill="#379DFE"/>
<path d="M31.9004 12.9792C32.7041 13.5257 33.2914 14.2796 33.5146 15.2437C33.6767 16.4203 33.5231 17.4719 32.8049 18.4482C32.1305 19.2609 31.2307 19.7349 30.1841 19.8444C29.0786 19.9048 28.109 19.5816 27.2736 18.852C26.5294 18.1172 26.1439 17.1641 26.1113 16.1242C26.128 15.0326 26.5586 14.2254 27.2664 13.4245C28.5896 12.2587 30.3839 12.068 31.9004 12.9792ZM27.6838 14.2919C27.1398 14.9904 26.9135 15.7051 27.0159 16.5927C27.2224 17.4562 27.6769 18.1215 28.426 18.5966C29.0899 18.9517 29.7673 19.081 30.5117 18.917C31.3631 18.6572 32.0267 18.1318 32.457 17.3442C32.7883 16.6117 32.8071 15.8481 32.5312 15.0944C32.2108 14.3669 31.6806 13.7973 30.9573 13.4616C29.7676 13.0025 28.5141 13.327 27.6838 14.2919Z" fill="#379DFE"/>
<path d="M21.7974 29.7851C22.3906 30.3622 22.7134 31.1053 22.7344 31.9281C22.7256 32.7316 22.389 33.464 21.8232 34.0321C21.2033 34.5601 20.4878 34.7594 19.6807 34.7305C18.926 34.6393 18.1923 34.2766 17.7154 33.6769C17.2483 32.9996 17.0844 32.3276 17.1448 31.5106C17.2735 30.8218 17.5895 30.2717 18.1097 29.8036C18.1648 29.7531 18.2199 29.7026 18.2767 29.6505C19.4321 28.8365 20.68 29.0574 21.7974 29.7851ZM18.4808 30.6942C18.4272 30.7539 18.3736 30.8136 18.3184 30.8751C18.0034 31.3205 17.9751 31.7966 18.0354 32.327C18.1999 32.8771 18.4655 33.2841 18.9678 33.5702C19.4649 33.8351 19.9508 33.8949 20.5061 33.7746C21.0945 33.5736 21.4729 33.172 21.7464 32.6239C21.9245 32.0694 21.8697 31.4999 21.6078 30.9862C21.3501 30.5462 21.044 30.2968 20.5821 30.0819C19.7593 29.8957 19.0411 30.0379 18.4808 30.6942Z" fill="#379DFE"/>
<path d="M23.9031 34.5675C24.1211 34.6278 24.1211 34.6278 24.2695 34.8505C24.2556 35.0778 24.2556 35.0778 24.1953 35.2958C23.9727 35.4442 23.9727 35.4442 23.7454 35.4303C23.5273 35.37 23.5273 35.37 23.3789 35.1474C23.3928 34.9201 23.3928 34.9201 23.4531 34.702C23.6758 34.5536 23.6758 34.5536 23.9031 34.5675Z" fill="#379DFE"/>
<path d="M24.1211 28.616C24.281 28.8559 24.3043 28.9316 24.2695 29.2098C24.186 29.3443 24.186 29.3443 24.0469 29.4324C23.8242 29.4649 23.8242 29.4649 23.6016 29.4324C23.4578 29.3118 23.4578 29.3118 23.3789 29.1356C23.3928 28.899 23.3928 28.899 23.4531 28.6902C23.679 28.5773 23.8728 28.5983 24.1211 28.616Z" fill="#379DFE"/>
<path d="M16.0686 28.5975C16.3284 28.6161 16.3284 28.6161 16.4768 28.7645C16.4954 29.0243 16.4954 29.0243 16.4768 29.2841C16.3284 29.4325 16.3284 29.4325 16.0686 29.451C15.8088 29.4325 15.8088 29.4325 15.6604 29.2841C15.6418 29.0243 15.6418 29.0243 15.6604 28.7645C15.8088 28.6161 15.8088 28.6161 16.0686 28.5975Z" fill="#379DFE"/>
<path d="M16.4022 34.6278C16.5072 34.8377 16.5001 34.9895 16.4765 35.2215C16.3512 35.3653 16.3512 35.3653 16.1796 35.4442C15.9294 35.4263 15.8391 35.4005 15.66 35.2215C15.6356 34.9916 15.6264 34.8376 15.7389 34.6324C15.9704 34.5055 16.154 34.568 16.4022 34.6278Z" fill="#379DFE"/>
</g>
<defs>
<clipPath id="clip0_1237_908">
<rect width="38" height="38" fill="white" transform="translate(0 0.116089)"/>
</clipPath>
</defs>
</svg>
