<svg width="38" height="39" viewBox="0 0 38 39" fill="none" xmlns="http://www.w3.org/2000/svg">
<path d="M13.2246 10.5281H14.1366V14.7081C13.6046 14.7081 13.2246 14.2521 13.2246 13.7961V10.5281Z" fill="#379DFE"/>
<path d="M24.7753 10.5281H23.8633V14.7081C24.3953 14.7081 24.7753 14.2521 24.7753 13.7961V10.5281Z" fill="#379DFE"/>
<path d="M24.7767 12.8081V10.2241C24.7767 9.54006 24.2447 9.00806 23.5607 9.00806H21.8887V12.8081H24.7767Z" fill="#379DFE"/>
<path d="M22.4201 22.9921H15.5801V27.1721H22.4201V22.9921Z" fill="#379DFE"/>
<path d="M15.4277 24.1321C12.2357 24.1321 9.49966 26.9441 9.34766 30.5921C9.34766 30.8201 9.34766 31.0481 9.34766 31.2761V32.0361C9.34766 33.5561 10.4117 34.8481 11.7797 34.8481H26.3717C27.7397 34.8481 28.8037 33.6321 28.8037 32.0361V31.7321C28.8037 31.1241 28.7277 30.5161 28.6517 29.9081C28.1957 26.5641 25.6117 24.2081 22.6477 24.2081L15.4277 24.1321Z" fill="#379DFE"/>
<path d="M17.7071 18.3561C17.1751 18.9641 16.6431 22.3081 16.4911 22.8401C16.1111 23.8281 17.0231 25.0441 17.8591 25.8801C18.5431 26.5641 19.4551 26.5641 20.1391 25.8801C20.9751 25.0441 21.8871 23.9041 21.5071 22.8401C21.3551 22.3081 20.8231 18.9641 20.2911 18.3561H17.7071Z" fill="#FBB444"/>
<path d="M22.4192 22.9921L19.5312 25.1961L20.2152 26.1841C20.5192 26.6401 21.1272 26.7161 21.5072 26.3361L23.6352 24.2081L22.4192 22.9921Z" fill="#E7E3E6"/>
<path d="M15.5795 22.9921L18.4675 25.1961L17.7835 26.1841C17.4795 26.6401 16.8715 26.7161 16.4915 26.3361L14.4395 24.2081L15.5795 22.9921Z" fill="#E7E3E6"/>
<path d="M14.2109 12.4281V17.7481C14.2109 18.5841 14.4389 19.4201 14.8949 20.1041L15.9589 21.7001C17.4029 23.9041 20.6709 23.9041 22.1149 21.7001L23.1789 20.1041C23.6349 19.4201 23.8629 18.5841 23.8629 17.7481V12.4281C23.8629 11.5921 23.1789 10.9841 22.4189 10.9841H15.7309C14.8189 10.9841 14.2109 11.5921 14.2109 12.4281Z" fill="#FFC966"/>
<path d="M24.3953 17.1401H23.8633V14.7081H24.3953C24.7753 14.7081 25.0033 15.0121 25.0033 15.3161V16.5321C25.0033 16.8361 24.6993 17.1401 24.3953 17.1401Z" fill="#4E4C4D"/>
<path d="M13.6041 17.1401H14.1361V14.7081H13.6041C13.2241 14.7081 12.9961 15.0121 12.9961 15.3161V16.5321C12.9961 16.8361 13.3001 17.1401 13.6041 17.1401Z" fill="#4E4C4D"/>
<path d="M22.191 20.18H20.291V19.648H22.191C23.103 19.648 23.787 18.964 23.787 18.052V16.608H24.319V18.052C24.395 19.192 23.407 20.18 22.191 20.18Z" fill="#4E4C4D"/>
<path d="M17.5566 19.6481C17.7846 20.2561 18.3166 20.7121 19.0006 20.7121C19.6846 20.7121 20.2166 20.2561 20.4446 19.6481H17.5566Z" fill="#FBB444"/>
<path d="M19.6086 18.2801C19.5326 18.0521 19.3046 17.8241 19.0006 17.8241C18.6966 17.8241 18.4686 18.0521 18.3926 18.2801H19.6086Z" fill="#FBB444"/>
<path d="M20.4436 20.6361C20.8633 20.6361 21.2036 20.2958 21.2036 19.8761C21.2036 19.4564 20.8633 19.1161 20.4436 19.1161C20.0239 19.1161 19.6836 19.4564 19.6836 19.8761C19.6836 20.2958 20.0239 20.6361 20.4436 20.6361Z" fill="#656766"/>
<path d="M21.1272 12.808H14.3632C13.3752 12.808 12.6152 12.048 12.6152 11.06V8.24805H20.9752C21.6592 8.24805 22.1912 8.78005 22.1912 9.46405V11.744C22.1912 12.352 21.7352 12.808 21.1272 12.808Z" fill="#379DFE"/>
<path d="M24.0154 10.0721H22.1914V11.7441C22.1914 12.3521 22.6474 12.8081 23.2554 12.8081H24.0154V10.0721Z" fill="#379DFE"/>
<path d="M37.2398 4.98008V8.93208C37.2398 9.76808 36.5558 10.4521 35.7198 10.4521H30.7038L28.7278 12.4281C28.4238 12.7321 27.9678 12.5041 27.9678 12.1241V10.4521H27.3598C26.5238 10.4521 25.8398 9.76808 25.8398 8.93208V4.98008C25.8398 4.14408 26.5238 3.46008 27.3598 3.46008H35.7198C36.5558 3.46008 37.2398 4.14408 37.2398 4.98008Z" fill="#379DFE"/>
<path d="M28.6521 7.94414C29.1977 7.94414 29.6401 7.5018 29.6401 6.95614C29.6401 6.41048 29.1977 5.96814 28.6521 5.96814C28.1064 5.96814 27.6641 6.41048 27.6641 6.95614C27.6641 7.5018 28.1064 7.94414 28.6521 7.94414Z" fill="white"/>
<path d="M31.5407 7.94414C32.0864 7.94414 32.5287 7.5018 32.5287 6.95614C32.5287 6.41048 32.0864 5.96814 31.5407 5.96814C30.9951 5.96814 30.5527 6.41048 30.5527 6.95614C30.5527 7.5018 30.9951 7.94414 31.5407 7.94414Z" fill="white"/>
<path d="M34.5036 7.94414C35.0493 7.94414 35.4916 7.5018 35.4916 6.95614C35.4916 6.41048 35.0493 5.96814 34.5036 5.96814C33.958 5.96814 33.5156 6.41048 33.5156 6.95614C33.5156 7.5018 33.958 7.94414 34.5036 7.94414Z" fill="white"/>
<path d="M25.2316 30.8201C25.0036 30.8201 24.8516 31.0481 24.8516 31.2001V34.8481H25.6876V31.2001C25.6116 31.0481 25.3836 30.8201 25.2316 30.8201Z" fill="#379DFE"/>
<path d="M12.9191 30.8201C12.6911 30.8201 12.5391 31.0481 12.5391 31.2001V34.8481H13.3751V31.2001C13.3751 31.0481 13.1471 30.8201 12.9191 30.8201Z" fill="#379DFE"/>
<path d="M19.0006 28.7681C19.3364 28.7681 19.6086 28.4959 19.6086 28.1601C19.6086 27.8243 19.3364 27.5521 19.0006 27.5521C18.6648 27.5521 18.3926 27.8243 18.3926 28.1601C18.3926 28.4959 18.6648 28.7681 19.0006 28.7681Z" fill="#E7E3E6"/>
<path d="M19.0006 30.9721C19.3364 30.9721 19.6086 30.6999 19.6086 30.3641C19.6086 30.0283 19.3364 29.7561 19.0006 29.7561C18.6648 29.7561 18.3926 30.0283 18.3926 30.3641C18.3926 30.6999 18.6648 30.9721 19.0006 30.9721Z" fill="#E7E3E6"/>
<path d="M19.0006 33.1C19.3364 33.1 19.6086 32.8278 19.6086 32.492C19.6086 32.1562 19.3364 31.884 19.0006 31.884C18.6648 31.884 18.3926 32.1562 18.3926 32.492C18.3926 32.8278 18.6648 33.1 19.0006 33.1Z" fill="#E7E3E6"/>
<path d="M6.38377 25.5001C9.48981 25.5001 12.0078 22.9821 12.0078 19.8761C12.0078 16.77 9.48981 14.2521 6.38377 14.2521C3.27772 14.2521 0.759766 16.77 0.759766 19.8761C0.759766 22.9821 3.27772 25.5001 6.38377 25.5001Z" fill="#379DFE"/>
<path d="M22.343 15.6961H20.519C20.367 15.6961 20.291 15.6201 20.291 15.4681C20.291 15.3161 20.367 15.2401 20.519 15.2401H22.343C22.495 15.2401 22.571 15.3161 22.571 15.4681C22.571 15.5441 22.495 15.6961 22.343 15.6961Z" fill="#379DFE"/>
<path d="M21.4324 16.4561C21.7262 16.4561 21.9644 16.2179 21.9644 15.9241C21.9644 15.6303 21.7262 15.3921 21.4324 15.3921C21.1386 15.3921 20.9004 15.6303 20.9004 15.9241C20.9004 16.2179 21.1386 16.4561 21.4324 16.4561Z" fill="#656766"/>
<path d="M17.4797 15.6961H15.6557C15.5037 15.6961 15.4277 15.6201 15.4277 15.4681C15.4277 15.3161 15.5037 15.2401 15.6557 15.2401H17.4797C17.6317 15.2401 17.7077 15.3161 17.7077 15.4681C17.7077 15.5441 17.6317 15.6961 17.4797 15.6961Z" fill="#379DFE"/>
<path d="M16.5672 16.4561C16.861 16.4561 17.0992 16.2179 17.0992 15.9241C17.0992 15.6303 16.861 15.3921 16.5672 15.3921C16.2733 15.3921 16.0352 15.6303 16.0352 15.9241C16.0352 16.2179 16.2733 16.4561 16.5672 16.4561Z" fill="#656766"/>
<path d="M3.11656 19.572C3.19256 19.496 3.19256 19.42 3.19256 19.268C3.19256 19.116 3.19256 19.116 3.11656 19.04C3.04056 18.964 3.04056 18.964 2.88856 18.964C2.73656 18.964 2.58456 19.116 2.43256 19.344L1.97656 19.04C2.12856 18.812 2.20456 18.66 2.35656 18.584C2.50856 18.508 2.66056 18.432 2.96456 18.432C3.26856 18.432 3.42056 18.508 3.57256 18.66C3.72456 18.812 3.80056 19.04 3.80056 19.268C3.80056 19.42 3.80056 19.572 3.72456 19.648C3.64856 19.724 3.49656 19.952 3.34456 20.104L2.88856 20.636H3.95256V21.168H1.97656V20.712L2.73656 19.876C2.96456 19.8 3.04056 19.648 3.11656 19.572Z" fill="white"/>
<path d="M5.31986 20.0281V19.5721H5.92786V20.0281H6.23186V20.5601H5.92786V21.1681H5.31986V20.5601H4.25586V20.1041L5.24386 18.5081H5.92786L5.01586 20.0281H5.31986Z" fill="white"/>
<path d="M8.05694 18.1281H8.58894L6.99294 21.6241H6.46094L8.05694 18.1281Z" fill="white"/>
<path d="M8.89258 19.4201V18.5841H10.8686V19.0401L9.80458 21.2441H9.12058L10.1846 19.0401H9.50058V19.4201H8.89258Z" fill="white"/>
</svg>
