<svg width="38" height="39" viewBox="0 0 38 39" fill="none" xmlns="http://www.w3.org/2000/svg">
<path d="M21.9693 2.49104C23.8312 3.70128 24.2331 4.49273 24.8639 6.61018C24.9871 9.62997 23.8373 11.4798 21.9693 13.7723C22.4959 13.9927 23.0225 14.2132 23.565 14.4403C26.2525 15.9615 27.9942 17.5576 28.9482 20.4937C29.3455 22.2218 29.6881 23.871 29.6881 25.6473C30.1779 26.0759 30.6678 26.5045 31.1724 26.9461C32.6568 28.616 32.6568 28.616 32.9908 30.6942C32.5916 33.1784 32.2506 34.1564 30.2818 35.741C27.5672 36.5503 25.5168 36.0217 23.0061 34.804C21.2392 33.7777 19.5156 32.7141 17.8131 31.5848C17.6485 31.9552 17.484 32.3257 17.3144 32.7073C16.2609 34.6229 15.0968 35.0015 13.0631 35.741C10.4884 36.1114 8.47502 36.1834 6.19784 34.8504C5.00997 32.7846 4.79364 30.9052 5.34432 28.616C6.8287 26.909 6.8287 26.909 8.31307 25.6473C8.31307 25.2554 8.31307 24.8635 8.31307 24.4598C8.78855 20.4346 9.95232 17.637 13.0631 14.9598C14.7701 14.1063 14.7701 14.1063 16.0318 13.7723C15.4624 13.1477 15.4624 13.1477 14.8814 12.5106C13.5242 10.6186 13.1593 9.55111 13.0631 7.24104C13.5021 5.52503 14.0262 4.53254 15.1783 3.19612C17.4134 2.10721 19.5329 2.09244 21.9693 2.49104ZM16.1432 5.01448C15.3318 6.21021 14.9755 6.98535 14.8443 8.42854C15.1058 9.74365 15.1058 9.74365 16.0318 10.8035C17.8941 11.6942 18.968 12.1942 20.9674 11.5457C22.0542 10.8577 22.0542 10.8577 22.5631 9.61604C22.7864 7.16347 22.7864 7.16347 21.8951 4.94026C19.9596 3.77894 18.0173 3.72196 16.1432 5.01448ZM11.6529 19.3758C10.585 21.0598 10.4648 21.9127 10.6881 23.866C13.7811 24.048 15.2118 23.6593 17.8131 22.0848C19.4299 22.2031 20.4883 22.5122 21.8951 23.3094C23.7068 24.1087 25.3599 23.9412 27.3131 23.866C27.2717 21.7976 27.2011 20.2569 25.7962 18.6615C23.1509 16.4003 21.4754 15.3343 17.8687 15.3865C15.1575 15.7507 13.4888 17.4916 11.6529 19.3758ZM14.9928 24.7196C14.408 24.8902 13.8233 25.0609 13.2208 25.2368C12.7769 25.3722 12.3329 25.5077 11.8756 25.6473C13.4569 26.7015 15.0475 27.7259 16.6627 28.7274C17.1839 29.0542 17.7051 29.381 18.2422 29.7177C18.6884 29.942 19.1346 30.1662 19.5943 30.3973C19.9862 30.2014 20.3781 30.0054 20.7818 29.8035C20.5859 29.4117 20.3899 29.0198 20.1881 28.616C22.1672 27.8244 24.1464 27.0327 26.1256 26.241C26.1256 26.0451 26.1256 25.8492 26.1256 25.6473C25.7674 25.5685 25.4092 25.4896 25.0401 25.4084C24.5656 25.3035 24.0911 25.1987 23.6021 25.0907C23.1337 24.9873 22.6653 24.884 22.1827 24.7775C20.7818 24.4598 20.7818 24.4598 19.6314 24.0701C17.9146 23.784 16.6508 24.2261 14.9928 24.7196ZM7.83065 28.0594C6.72294 29.8667 7.30442 31.367 7.71932 33.366C11.6524 34.3921 14.204 33.2768 17.8131 31.5848C16.5523 30.2141 15.3572 29.338 13.6939 28.5047C13.2967 28.3004 12.8995 28.096 12.4902 27.8855C10.7825 27.2398 9.43511 27.1189 7.83065 28.0594ZM23.6021 28.9129C23.0725 29.1885 22.5428 29.464 21.9972 29.7479C21.5961 29.9622 21.195 30.1765 20.7818 30.3973C22.4207 32.1133 23.8836 33.0975 26.1256 33.9598C28.3662 33.8315 28.3662 33.8315 30.2818 33.366C30.9875 30.6168 30.9875 30.6168 30.1705 28.0594C27.741 26.6352 25.8423 27.7339 23.6021 28.9129Z" fill="#379DFE"/>
</svg>
