<svg width="40" height="40" viewBox="0 0 40 40" fill="none" xmlns="http://www.w3.org/2000/svg">
  <circle cx="20" cy="20" r="18" stroke="#3B82F6" stroke-width="2" fill="none" />
  <circle cx="20" cy="20" r="15" stroke="#3B82F6" stroke-width="1" fill="none" stroke-dasharray="4 2" />
  <path d="M22.5 12C22.5 13.3807 21.3807 14.5 20 14.5C18.6193 14.5 17.5 13.3807 17.5 12C17.5 10.6193 18.6193 9.5 20 9.5C21.3807 9.5 22.5 10.6193 22.5 12Z" fill="#3B82F6"/>
  <path d="M20 30C22.2 30 24 27.5 24 24.5C24 21.5 22.2 19 20 19C17.8 19 16 21.5 16 24.5C16 27.5 17.8 30 20 30Z" fill="#3B82F6"/>
  <path d="M26 22.5C28.2 22.5 30 21.2 30 19.5C30 17.8 28.2 16.5 26 16.5C23.8 16.5 22 17.8 22 19.5C22 21.2 23.8 22.5 26 22.5Z" fill="#3B82F6"/>
  <path d="M14 22.5C16.2 22.5 18 21.2 18 19.5C18 17.8 16.2 16.5 14 16.5C11.8 16.5 10 17.8 10 19.5C10 21.2 11.8 22.5 14 22.5Z" fill="#3B82F6"/>
</svg> 