<svg width="40" height="40" viewBox="0 0 40 40" fill="none" xmlns="http://www.w3.org/2000/svg">
  <path d="M20 10C21.6569 10 23 8.65685 23 7C23 5.34315 21.6569 4 20 4C18.3431 4 17 5.34315 17 7C17 8.65685 18.3431 10 20 10Z" fill="#3B82F6"/>
  <path d="M30 28.5C30 22.5 25.5 22 25.5 18.5C25.5 15 20 15 20 21C20 27 14 25 14 31C14 37 30 34.5 30 28.5Z" fill="#3B82F6" fill-opacity="0.2" stroke="#3B82F6" stroke-width="1.5"/>
  <path d="M20 15V19" stroke="#3B82F6" stroke-width="1.5" stroke-linecap="round"/>
  <path d="M16 34C18 36 22 36 24 34" stroke="#3B82F6" stroke-width="1.5" stroke-linecap="round"/>
</svg> 