<svg width="14" height="12" viewBox="0 0 14 12" fill="none" xmlns="http://www.w3.org/2000/svg">
<path d="M10.4688 5.49992H12.7387C12.8452 5.49997 12.95 5.52724 13.043 5.57913C13.136 5.63102 13.2141 5.70582 13.2701 5.79641C13.3261 5.88701 13.358 5.99041 13.3628 6.0968C13.3676 6.20318 13.3451 6.30903 13.2975 6.40429L12.0263 8.94742C11.978 9.04378 11.9057 9.12605 11.8164 9.18624C11.727 9.24642 11.6236 9.28248 11.5162 9.2909C11.4087 9.29933 11.301 9.27984 11.2033 9.23433C11.1056 9.18882 11.0214 9.11884 10.9588 9.03117L9.63125 7.17492M1.25 9.87492H3.6C3.83296 9.87654 4.06173 9.81303 4.26051 9.69155C4.45929 9.57007 4.62017 9.39546 4.725 9.18742L5.625 7.37492M1.25 11.1249V8.62492M4.375 3.62492H4.38125M10.6913 3.65804C10.8394 3.7322 10.952 3.86213 11.0044 4.01928C11.0568 4.17644 11.0446 4.34796 10.9706 4.49617L9.02937 8.37804C8.99266 8.45147 8.94183 8.51695 8.87981 8.57073C8.81778 8.62451 8.74577 8.66555 8.66788 8.69149C8.58999 8.71743 8.50775 8.72778 8.42586 8.72193C8.34397 8.71608 8.26404 8.69416 8.19062 8.65742L2.25625 5.68742C1.82521 5.4703 1.49772 5.09128 1.34545 4.6333C1.19318 4.17531 1.22852 3.67566 1.44375 3.24367L2.30625 1.49992C2.41375 1.28568 2.5624 1.09472 2.74371 0.937938C2.92502 0.781158 3.13544 0.661629 3.36295 0.586179C3.59046 0.51073 3.83061 0.480836 4.06967 0.498207C4.30874 0.515577 4.54204 0.579871 4.75625 0.687417L10.6913 3.65804Z" stroke="#5C727D" stroke-linecap="round" stroke-linejoin="round"/>
</svg>
